%FSTAX23Y23*%
%MOIN*%
%SFA1B1*%

%IPPOS*%
%ADD49C,0.070992*%
%ADD50C,0.031622*%
%ADD51C,0.059181*%
%ADD52C,0.098551*%
%ADD53C,0.067842*%
%ADD54C,0.063905*%
%ADD55C,0.090677*%
%ADD56C,0.135952*%
%ADD57C,0.031622*%
%ADD58R,0.033590X0.117055*%
%LNwol_pcb_soldermask_bot-1*%
%LPD*%
G54D49*
X00393Y01023D03*
G54D50*
X00421Y00996D03*
Y01051D03*
X00366D03*
Y00996D03*
G54D51*
X00708Y00086D03*
X00078D03*
G54D52*
X00482Y00088D03*
X00305D03*
G54D53*
X00608Y01338D03*
X00508D03*
X00278D03*
X00178D03*
G54D54*
X00218Y01528D03*
X00268Y01628D03*
X00318Y01528D03*
X00368Y01628D03*
X00418Y01528D03*
X00468Y01628D03*
X00518Y01528D03*
X00568Y01628D03*
G54D55*
X00704Y01758D03*
X00082D03*
G54D56*
X00168Y01878D03*
X00618D03*
G54D57*
X00303Y00921D03*
X00078Y00885D03*
X00342Y00708D03*
X00507Y00354D03*
X00551Y00311D03*
X00098Y00582D03*
X00125Y00503D03*
X00653Y01185D03*
X00141Y00543D03*
X00633Y00913D03*
X00271Y00826D03*
X00484Y00889D03*
X00515Y01129D03*
X00539Y01078D03*
X00318Y0083D03*
Y01279D03*
X00393Y0133D03*
X00527Y01232D03*
X00468Y01405D03*
X00334Y01165D03*
X00188Y0033D03*
X00539Y01013D03*
X00354Y00334D03*
Y00255D03*
G54D58*
X00343Y00622D03*
X00393D03*
X00543D03*
X00443D03*
X00493D03*
X00343Y00463D03*
X00393D03*
X00543D03*
X00443D03*
X00493D03*
X00293Y00622D03*
Y00463D03*
X00243Y00622D03*
Y00463D03*
M02*