%FSTAX23Y23*%
%MOIN*%
%SFA1B1*%

%IPPOS*%
%ADD35C,0.003937*%
%LNwol_pcb_legend_top-1*%
%LPD*%
G36*
X00564Y00769D02*
Y00736D01*
X00531Y00769*
X00564*
G37*
G36*
X00472Y00964D02*
Y00944D01*
X00452*
X00472Y00964*
G37*
G54D35*
X00096Y00923D02*
X001D01*
X00096Y00942D02*
X001D01*
X00207Y00905D02*
X00241D01*
X00207Y00944D02*
X00241D01*
X00606Y01006D02*
Y0104D01*
X00566Y01006D02*
Y0104D01*
X0023Y00736D02*
Y00769D01*
X00263*
X0023Y00435D02*
X00263D01*
X0023D02*
Y00468D01*
X00564Y00435D02*
Y00468D01*
X00531Y00435D02*
X00564D01*
X00531Y00769D02*
X00564D01*
Y00736D02*
Y00769D01*
X00057Y00476D02*
X00092D01*
X00057Y00437D02*
X00092D01*
X00122Y00183D02*
Y00218D01*
X00161Y00183D02*
Y00218D01*
X00472Y00944D02*
Y00964D01*
X00452Y00944D02*
X00472D01*
X00452Y01102D02*
X00472D01*
X00314Y01082D02*
Y01102D01*
Y00944D02*
X00334D01*
X00314D02*
Y00964D01*
X00472Y01082D02*
Y01102D01*
X00314D02*
X00334D01*
X0011Y00974D02*
Y01053D01*
X00173*
Y00974D02*
Y01053D01*
X0011Y00974D02*
X00173D01*
Y00958D02*
X00188D01*
Y00974*
X00586Y01242D02*
X0059D01*
X00586Y01222D02*
X0059D01*
X00297Y0123D02*
X00301D01*
X00297Y0125D02*
X00301D01*
X00442Y00273D02*
Y00277D01*
X00423Y00273D02*
Y00277D01*
X00138Y00312D02*
Y0038D01*
X00018Y00312D02*
X00138D01*
X00018D02*
Y0038D01*
X00138*
X00712Y01807D02*
Y02303D01*
X00074Y01807D02*
Y02303D01*
X00712*
Y01299D02*
Y01708D01*
X00074Y01299D02*
Y01708D01*
Y01299D02*
X00712D01*
X00586Y01175D02*
X0059D01*
X00586Y01194D02*
X0059D01*
X00564Y00935D02*
X00568D01*
X00564Y00954D02*
X00568D01*
X00096Y011D02*
X001D01*
X00096Y0108D02*
X001D01*
X00525Y00828D02*
X00529D01*
X00525Y00848D02*
X00529D01*
X00277Y00348D02*
Y00352D01*
X00297Y00348D02*
Y00352D01*
X00059Y00494D02*
X00062D01*
X00059Y00513D02*
X00062D01*
X00094Y00198D02*
Y00202D01*
X00074Y00198D02*
Y00202D01*
M02*