%FSTAX23Y23*%
%MOIN*%
%SFA1B1*%

%IPPOS*%
%ADD23C,0.011811*%
%ADD25C,0.062992*%
%ADD26C,0.023622*%
%ADD27C,0.051181*%
%ADD28C,0.090551*%
%ADD29C,0.059842*%
%ADD30C,0.055905*%
%ADD31C,0.082677*%
%ADD32C,0.127952*%
%ADD33C,0.023622*%
%ADD34R,0.025591X0.109055*%
%LNwol_pcb_copper_signal_bot-1*%
%LPD*%
G36*
X00787Y0D02*
X0D01*
Y02283*
X00787*
Y0*
G37*
%LNwol_pcb_copper_signal_bot-2*%
%LPC*%
G36*
X00625Y01946D02*
X00612D01*
X00598Y01944*
X00586Y01938*
X00575Y01931*
X00565Y01922*
X00558Y0191*
X00553Y01898*
X0055Y01885*
Y01872*
X00553Y01858*
X00558Y01846*
X00565Y01835*
X00575Y01825*
X00586Y01818*
X00598Y01813*
X00612Y0181*
X00625*
X00638Y01813*
X0065Y01818*
X00661Y01825*
X00671Y01835*
X00678Y01846*
X00684Y01858*
X00686Y01872*
Y01885*
X00684Y01898*
X00678Y0191*
X00671Y01922*
X00661Y01931*
X0065Y01938*
X00638Y01944*
X00625Y01946*
G37*
G36*
X00175D02*
X00162D01*
X00148Y01944*
X00136Y01938*
X00125Y01931*
X00115Y01922*
X00108Y0191*
X00103Y01898*
X001Y01885*
Y01872*
X00103Y01858*
X00108Y01846*
X00115Y01835*
X00125Y01825*
X00136Y01818*
X00148Y01813*
X00162Y0181*
X00175*
X00188Y01813*
X002Y01818*
X00211Y01825*
X00221Y01835*
X00228Y01846*
X00234Y01858*
X00236Y01872*
Y01885*
X00234Y01898*
X00228Y0191*
X00221Y01922*
X00211Y01931*
X002Y01938*
X00188Y01944*
X00175Y01946*
G37*
G36*
X00472Y0166D02*
X00464D01*
X00456Y01658*
X00449Y01654*
X00443Y01648*
X00438Y01641*
X00436Y01632*
Y01624*
X00438Y01616*
X00443Y01609*
X00449Y01603*
X00456Y01599*
X00464Y01596*
X00472*
X00481Y01599*
X00488Y01603*
X00494Y01609*
X00498Y01616*
X005Y01624*
Y01632*
X00498Y01641*
X00494Y01648*
X00488Y01654*
X00481Y01658*
X00472Y0166*
G37*
G36*
X00272D02*
X00264D01*
X00256Y01658*
X00249Y01654*
X00243Y01648*
X00238Y01641*
X00236Y01632*
Y01624*
X00238Y01616*
X00243Y01609*
X00249Y01603*
X00256Y01599*
X00264Y01596*
X00272*
X00281Y01599*
X00288Y01603*
X00294Y01609*
X00298Y01616*
X003Y01624*
Y01632*
X00298Y01641*
X00294Y01648*
X00288Y01654*
X00281Y01658*
X00272Y0166*
G37*
G36*
X00522Y0156D02*
X00514D01*
X00506Y01558*
X00499Y01554*
X00493Y01548*
X00488Y01541*
X00486Y01532*
Y01524*
X00488Y01516*
X00493Y01509*
X00499Y01503*
X00506Y01499*
X00514Y01496*
X00522*
X00531Y01499*
X00538Y01503*
X00544Y01509*
X00548Y01516*
X0055Y01524*
Y01532*
X00548Y01541*
X00544Y01548*
X00538Y01554*
X00531Y01558*
X00522Y0156*
G37*
G36*
X00322D02*
X00314D01*
X00306Y01558*
X00299Y01554*
X00293Y01548*
X00288Y01541*
X00286Y01532*
Y01524*
X00288Y01516*
X00293Y01509*
X00299Y01503*
X00306Y01499*
X00314Y01496*
X00322*
X00331Y01499*
X00338Y01503*
X00344Y01509*
X00348Y01516*
X0035Y01524*
Y01532*
X00348Y01541*
X00344Y01548*
X00338Y01554*
X00331Y01558*
X00322Y0156*
G37*
G36*
X00222D02*
X00214D01*
X00206Y01558*
X00199Y01554*
X00193Y01548*
X00188Y01541*
X00186Y01532*
Y01524*
X00188Y01516*
X00193Y01509*
X00199Y01503*
X00206Y01499*
X00214Y01496*
X00222*
X00231Y01499*
X00233Y015*
X0032Y01412*
Y01393*
X00321Y01389*
X00323Y01386*
X00377Y01332*
Y01327*
X0038Y01321*
X00384Y01317*
X0039Y01314*
X00396*
X00402Y01317*
X00407Y01321*
X00409Y01327*
Y01333*
X00407Y01339*
X00402Y01344*
X00396Y01346*
X00392*
X0034Y01397*
Y01416*
X00339Y0142*
X00337Y01423*
X00247Y01514*
X00248Y01516*
X0025Y01524*
Y01532*
X00248Y01541*
X00244Y01548*
X00238Y01554*
X00231Y01558*
X00222Y0156*
G37*
G36*
X00613Y01372D02*
X00604D01*
X00595Y0137*
X00588Y01365*
X00581Y01359*
X00577Y01351*
X00575Y01343*
Y01334*
X00577Y01325*
X00581Y01317*
X00588Y01311*
X00595Y01307*
X00604Y01304*
X00613*
X00621Y01307*
X00629Y01311*
X00635Y01317*
X0064Y01325*
X00642Y01334*
Y01343*
X0064Y01351*
X00635Y01359*
X00629Y01365*
X00621Y0137*
X00613Y01372*
G37*
G36*
X00283D02*
X00274D01*
X00265Y0137*
X00257Y01365*
X00251Y01359*
X00246Y01351*
X00244Y01343*
Y01334*
X00246Y01325*
X00251Y01317*
X00257Y01311*
X00265Y01307*
X00274Y01304*
X00283*
X00291Y01307*
X00299Y01311*
X00305Y01317*
X0031Y01325*
X00312Y01334*
Y01343*
X0031Y01351*
X00305Y01359*
X00299Y01365*
X00291Y0137*
X00283Y01372*
G37*
G36*
X00183D02*
X00174D01*
X00165Y0137*
X00157Y01365*
X00151Y01359*
X00146Y01351*
X00144Y01343*
Y01334*
X00146Y01325*
X00151Y01317*
X00157Y01311*
X00165Y01307*
X00174Y01304*
X00183*
X00191Y01307*
X00199Y01311*
X00205Y01317*
X0021Y01325*
X00212Y01334*
Y01343*
X0021Y01351*
X00205Y01359*
X00199Y01365*
X00191Y0137*
X00183Y01372*
G37*
G36*
X00372Y0166D02*
X00364D01*
X00356Y01658*
X00349Y01654*
X00343Y01648*
X00338Y01641*
X00336Y01632*
Y01624*
X00338Y01616*
X00343Y01609*
X00349Y01603*
X00356Y01599*
X00358Y01598*
Y01473*
X00359Y01469*
X00361Y01466*
X00394Y01433*
X00397Y01431*
X00401Y0143*
X00428*
X00452Y01407*
Y01402*
X00455Y01396*
X00459Y01392*
X00465Y01389*
X0047*
X00472Y01387*
X00473Y01385*
X00433Y01345*
X00431Y01342*
X0043Y01338*
Y01323*
X00397Y01289*
X00331*
X00327Y01292*
X00322Y01295*
X00315*
X00309Y01292*
X00305Y01288*
X00303Y01282*
Y01276*
X00305Y0127*
X00309Y01266*
X00315Y01263*
X00322*
X00327Y01266*
X00331Y01269*
X00401*
X00405Y0127*
X00408Y01272*
X00448Y01311*
X0045Y01315*
X0045Y01318*
Y01334*
X00476Y01359*
X0048Y01356*
X00477Y01351*
X00475Y01343*
Y01334*
X00477Y01325*
X00478Y01322*
X00337Y01181*
X00331*
X00325Y01178*
X00321Y01174*
X00318Y01168*
Y01162*
X00321Y01156*
X00325Y01152*
X00331Y01149*
X00337*
X00343Y01152*
X00347Y01156*
X0035Y01162*
Y01165*
X00493Y01308*
X00495Y01307*
X00504Y01304*
X00513*
X00521Y01307*
X00529Y01311*
X00535Y01317*
X0054Y01325*
X00542Y01334*
Y01343*
X0054Y01351*
X00535Y01359*
X00529Y01365*
X00521Y0137*
X00513Y01372*
X00504*
X00495Y0137*
X0049Y01367*
X00487Y01371*
X00524Y01408*
X00549Y01384*
Y01267*
X00529Y01248*
X00524*
X00518Y01245*
X00514Y01241*
X00511Y01235*
Y01229*
X00514Y01223*
X00518Y01218*
X00524Y01216*
X0053*
X00536Y01218*
X0054Y01223*
X00543Y01229*
Y01233*
X00566Y01256*
X00568Y01259*
X00569Y01263*
Y01388*
X00568Y01392*
X00566Y01395*
X00531Y01429*
X00447Y01514*
X00448Y01516*
X0045Y01524*
Y01532*
X00448Y01541*
X00444Y01548*
X00438Y01554*
X00431Y01558*
X00422Y0156*
X00414*
X00406Y01558*
X00399Y01554*
X00393Y01548*
X00388Y01541*
X00386Y01532*
Y01524*
X00388Y01516*
X00393Y01509*
X00399Y01503*
X00406Y01499*
X00414Y01496*
X00422*
X00431Y01499*
X00433Y015*
X0051Y01422*
X00488Y014*
X00486Y01401*
X00484Y01403*
Y01408*
X00481Y01414*
X00477Y01418*
X00471Y01421*
X00466*
X0044Y01448*
X00436Y0145*
X00433Y0145*
X00405*
X00378Y01477*
Y01598*
X00381Y01599*
X00388Y01603*
X00394Y01609*
X00398Y01616*
X004Y01624*
Y01632*
X00398Y01641*
X00394Y01648*
X00388Y01654*
X00381Y01658*
X00372Y0166*
G37*
G36*
X00542Y01029D02*
X00536D01*
X0053Y01027*
X00526Y01022*
X00523Y01016*
Y0101*
X00526Y01004*
X00529Y01001*
Y00945*
X00515Y00931*
X00315*
X00312Y00934*
X00306Y00937*
X003*
X00294Y00934*
X00289Y0093*
X00287Y00924*
Y00918*
X00289Y00912*
X00294Y00907*
X003Y00905*
X00306*
X00312Y00907*
X00315Y00911*
X00519*
X00523Y00911*
X00526Y00914*
X00546Y00933*
X00548Y00937*
X00549Y0094*
Y01001*
X00552Y01004*
X00555Y0101*
Y01016*
X00552Y01022*
X00548Y01027*
X00542Y01029*
G37*
G36*
X00216Y01129D02*
X00059D01*
X00043Y01114*
Y00887*
X00045Y00885*
X00149*
X00188Y00925*
X00236*
Y00976*
X00244Y00984*
X00295*
Y01043*
X00248*
X00236Y01055*
Y0111*
X00216Y01129*
G37*
G36*
X00542Y01094D02*
X00536D01*
X0053Y01092*
X00526Y01087*
X00523Y01081*
Y01075*
X00526Y01069*
X0053Y01065*
X00536Y01062*
X0054*
X00568Y01035*
Y00858*
X0055Y0084*
X00331*
X00327Y00844*
X00322Y00846*
X00315*
X00309Y00844*
X00305Y00839*
X00303Y00833*
Y00827*
X00305Y00821*
X00309Y00817*
X00315Y00814*
X00322*
X00327Y00817*
X00331Y0082*
X00555*
X00558Y00821*
X00562Y00823*
X00585Y00847*
X00588Y0085*
X00588Y00854*
Y01039*
X00588Y01043*
X00585Y01046*
X00555Y01077*
Y01081*
X00552Y01087*
X00548Y01092*
X00542Y01094*
G37*
G36*
X00345Y00724D02*
X00339D01*
X00333Y00722*
X0033Y00718*
X00307*
X00303Y00717*
X00299Y00715*
X00286Y00702*
X00284Y00699*
X00283Y00695*
Y00681*
X00276*
Y00564*
X0031*
Y00681*
X00303*
Y00691*
X00311Y00698*
X0033*
X00333Y00695*
X00339Y00692*
X00345*
X00351Y00695*
X00355Y00699*
X00358Y00705*
Y00711*
X00355Y00717*
X00351Y00722*
X00345Y00724*
G37*
G36*
X0056Y00681D02*
X00526D01*
Y00564*
X0056*
Y00681*
G37*
G36*
X0041D02*
X00376D01*
Y00564*
X0041*
Y00681*
G37*
G36*
X0036D02*
X00326D01*
Y00564*
X0036*
Y00681*
G37*
G36*
X0026D02*
X00226D01*
Y00564*
X0026*
Y00681*
G37*
G36*
X0056Y00522D02*
X00526D01*
Y00405*
X0056*
Y00522*
G37*
G36*
X00518Y01145D02*
X00512D01*
X00506Y01143*
X00502Y01138*
X005Y01133*
Y01126*
X00502Y01121*
X00506Y01116*
X00512Y01114*
X00518*
X00524Y01116*
X00527Y01119*
X00562*
X00596Y01086*
Y00826*
X00578Y00809*
X00303*
X00287Y00825*
Y00829*
X00285Y00835*
X0028Y0084*
X00274Y00842*
X00268*
X00262Y0084*
X00258Y00835*
X00255Y00829*
Y00823*
X00258Y00817*
X00262Y00813*
X00268Y00811*
X00273*
X00292Y00792*
X00295Y00789*
X00299Y00789*
X00582*
X00586Y00789*
X00589Y00792*
X00613Y00815*
X00615Y00818*
X00616Y00822*
Y00899*
X00621Y00901*
X00623Y00899*
Y00803*
X00602Y00781*
X00169*
X00165Y0078*
X00162Y00778*
X00134Y00751*
X00132Y00747*
X00131Y00744*
Y00555*
X00128Y00552*
X00125Y00546*
Y0054*
X00128Y00534*
X00132Y00529*
X00138Y00527*
X00144*
X0015Y00529*
X00153Y00533*
X00476*
X00481Y00527*
X00479Y00522*
X00476*
Y00405*
X0051*
Y00522*
X00503*
Y00529*
X00502Y00533*
X005Y00537*
X00487Y0055*
X00484Y00552*
X0048Y00553*
X00153*
X00151Y00555*
Y00739*
X00173Y00761*
X00606*
X0061Y00762*
X00613Y00764*
X0064Y00792*
X00643Y00795*
X00643Y00799*
Y00901*
X00647Y00904*
X00649Y0091*
Y00916*
X00647Y00922*
X00642Y00926*
X00636Y00929*
X0063*
X00624Y00926*
X00621Y00923*
X00617Y00924*
X00616Y00924*
Y0109*
X00615Y01094*
X00613Y01097*
X00574Y01137*
X0057Y01139*
X00566Y01139*
X00527*
X00524Y01143*
X00518Y01145*
G37*
G36*
X0036Y00522D02*
X00326D01*
Y00405*
X0036*
Y00522*
G37*
G36*
X0031D02*
X00276D01*
Y00405*
X0031*
Y00522*
G37*
G36*
X0026D02*
X00226D01*
Y00405*
X0026*
Y00522*
G37*
G36*
X00574Y00714D02*
X00503D01*
X005Y00713*
X00496Y00711*
X00486Y00701*
X00484Y00698*
X00483Y00694*
Y00681*
X00476*
Y00564*
X0051*
Y00681*
X00503*
Y0069*
X00508Y00694*
X0057*
X00572Y00692*
Y00386*
X0055Y00364*
X0052*
X00516Y00367*
X00511Y0037*
X00504*
X00498Y00367*
X00494Y00363*
X00492Y00357*
Y00351*
X00494Y00345*
X00498Y0034*
X00504Y00338*
X00511*
X00516Y0034*
X0052Y00344*
X00555*
X00558Y00345*
X00562Y00347*
X00589Y00374*
X00591Y00378*
X00592Y00381*
Y00696*
X00591Y007*
X00589Y00703*
X00581Y00711*
X00578Y00713*
X00574Y00714*
G37*
G36*
X00586Y0075D02*
X00468D01*
X00464Y00749*
X00461Y00747*
X00436Y00722*
X00434Y00719*
X00433Y00715*
Y00681*
X00426*
Y00564*
X0046*
Y00681*
X00453*
Y00711*
X00472Y0073*
X00582*
X006Y00712*
Y00338*
X00582Y00321*
X00563*
X0056Y00324*
X00554Y00326*
X00548*
X00542Y00324*
X00537Y00319*
X00535Y00314*
Y00307*
X00537Y00302*
X00542Y00297*
X00548Y00295*
X00554*
X0056Y00297*
X00563Y003*
X00586*
X0059Y00301*
X00593Y00303*
X00617Y00327*
X00619Y0033*
X0062Y00334*
Y00716*
X00619Y0072*
X00617Y00723*
X00593Y00747*
X0059Y00749*
X00586Y0075*
G37*
G36*
X00357Y0035D02*
X00351D01*
X00345Y00347*
X0034Y00343*
X00338Y00337*
Y00331*
X0034Y00325*
X00344Y00322*
Y00268*
X0034Y00264*
X00338Y00259*
Y00252*
X0034Y00246*
X00345Y00242*
X00351Y0024*
X00357*
X00363Y00242*
X00367Y00246*
X0037Y00252*
Y00259*
X00367Y00264*
X00364Y00268*
Y00322*
X00367Y00325*
X0037Y00331*
Y00337*
X00367Y00343*
X00363Y00347*
X00357Y0035*
G37*
G36*
X00082Y00116D02*
X00074D01*
X00067Y00114*
X0006Y0011*
X00055Y00104*
X00051Y00098*
X00049Y0009*
Y00082*
X00051Y00075*
X00055Y00068*
X0006Y00062*
X00067Y00059*
X00074Y00057*
X00082*
X0009Y00059*
X00096Y00062*
X00102Y00068*
X00106Y00075*
X00108Y00082*
Y0009*
X00106Y00098*
X00102Y00104*
X00096Y0011*
X0009Y00114*
X00082Y00116*
G37*
%LNwol_pcb_copper_signal_bot-3*%
%LPD*%
G54D23*
X00248Y00889D02*
Y00944D01*
X00314Y01011*
X00082Y00889D02*
X00248D01*
X00484*
X00248D02*
D01*
X00303Y00921D02*
X00519D01*
X00293Y00622D02*
Y00695D01*
X00307Y00708*
X00342*
X00555Y00354D02*
X00582Y00381D01*
X00574Y00704D02*
X00582Y00696D01*
Y00381D02*
Y00696D01*
X00507Y00354D02*
X00555D01*
X00393Y0037D02*
X00425D01*
X00228D02*
X00393D01*
Y00463*
X00443Y00388D02*
Y00463D01*
X00425Y0037D02*
X00443Y00388D01*
X00188Y0033D02*
X00228Y0037D01*
X00493Y00463D02*
Y00529D01*
X0048Y00543D02*
X00493Y00529D01*
X00141Y00543D02*
X0048D01*
X00586Y0074D02*
X0061Y00716D01*
X00468Y0074D02*
X00586D01*
X00443Y00715D02*
X00468Y0074D01*
X00443Y0065D02*
Y00715D01*
X0061Y00334D02*
Y00716D01*
X00493Y00694D02*
X00503Y00704D01*
X00574*
X00493Y00669D02*
Y00694D01*
X00551Y00311D02*
X00586D01*
X0061Y00334*
X00443Y00491D02*
X00444Y0049D01*
X00141Y00543D02*
Y00744D01*
X00169Y00771D02*
X00606D01*
X00141Y00744D02*
X00169Y00771D01*
X00606D02*
X00633Y00799D01*
Y00913*
X00539Y0094D02*
Y01013D01*
X00519Y00921D02*
X00539Y0094D01*
X00314Y01011D02*
X00326Y01023D01*
X00393*
X00098Y00531D02*
X00125Y00503D01*
X00098Y00531D02*
Y00582D01*
X00425Y01185D02*
X00653D01*
X00393Y01023D02*
Y01153D01*
X00425Y01185*
X00078Y00885D02*
X00082Y00889D01*
X00299Y00799D02*
X00582D01*
X00271Y00826D02*
X00299Y00799D01*
X00582D02*
X00606Y00822D01*
Y0109*
X00566Y01129D02*
X00606Y0109D01*
X00515Y01129D02*
X00566D01*
X00539Y01078D02*
X00578Y01039D01*
Y00854D02*
Y01039D01*
X00555Y0083D02*
X00578Y00854D01*
X00318Y0083D02*
X00555D01*
X00524Y01422D02*
X00559Y01388D01*
X00418Y01528D02*
X00524Y01422D01*
X0044Y01318D02*
Y01338D01*
X00524Y01422*
X00318Y01279D02*
X00401D01*
X0044Y01318*
X0033Y01393D02*
Y01416D01*
Y01393D02*
X00393Y0133D01*
X00218Y01528D02*
X0033Y01416D01*
X00527Y01232D02*
X00559Y01263D01*
Y01388*
X00368Y01473D02*
Y01628D01*
Y01473D02*
X00401Y0144D01*
X00433D02*
X00468Y01405D01*
X00401Y0144D02*
X00433D01*
X00334Y01165D02*
X00335D01*
X00508Y01338*
X0023Y00088D02*
X00305D01*
X00188Y00129D02*
X0023Y00088D01*
X00188Y00129D02*
Y0033D01*
X00354Y00255D02*
Y00334D01*
G54D25*
X00393Y01023D03*
G54D26*
X00421Y00996D03*
Y01051D03*
X00366D03*
Y00996D03*
G54D27*
X00708Y00086D03*
X00078D03*
G54D28*
X00482Y00088D03*
X00305D03*
G54D29*
X00608Y01338D03*
X00508D03*
X00278D03*
X00178D03*
G54D30*
X00218Y01528D03*
X00268Y01628D03*
X00318Y01528D03*
X00368Y01628D03*
X00418Y01528D03*
X00468Y01628D03*
X00518Y01528D03*
X00568Y01628D03*
G54D31*
X00704Y01758D03*
X00082D03*
G54D32*
X00168Y01878D03*
X00618D03*
G54D33*
X00303Y00921D03*
X00078Y00885D03*
X00342Y00708D03*
X00507Y00354D03*
X00551Y00311D03*
X00098Y00582D03*
X00125Y00503D03*
X00653Y01185D03*
X00141Y00543D03*
X00633Y00913D03*
X00271Y00826D03*
X00484Y00889D03*
X00515Y01129D03*
X00539Y01078D03*
X00318Y0083D03*
Y01279D03*
X00393Y0133D03*
X00527Y01232D03*
X00468Y01405D03*
X00334Y01165D03*
X00188Y0033D03*
X00539Y01013D03*
X00354Y00334D03*
Y00255D03*
G54D34*
X00343Y00622D03*
X00393D03*
X00543D03*
X00443D03*
X00493D03*
X00343Y00463D03*
X00393D03*
X00543D03*
X00443D03*
X00493D03*
X00293Y00622D03*
Y00463D03*
X00243Y00622D03*
Y00463D03*
M02*