%FSTAX23Y23*%
%MOIN*%
%SFA1B1*%

%IPPOS*%
%ADD10R,0.023622X0.027559*%
%ADD11R,0.019685X0.039370*%
%ADD12R,0.039370X0.019685*%
%ADD13R,0.047244X0.019685*%
%ADD14R,0.019685X0.047244*%
%ADD15R,0.094488X0.094488*%
%ADD16R,0.007874X0.027559*%
%ADD17R,0.027559X0.007874*%
%ADD18R,0.035433X0.037401*%
%ADD19C,0.019685*%
%ADD20R,0.051181X0.066929*%
%ADD21R,0.027559X0.023622*%
%ADD22R,0.023622X0.043307*%
%ADD23C,0.011811*%
%ADD24C,0.007874*%
%ADD25C,0.062992*%
%ADD26C,0.023622*%
%ADD27C,0.051181*%
%ADD28C,0.090551*%
%ADD29C,0.059842*%
%ADD30C,0.055905*%
%ADD31C,0.082677*%
%ADD32C,0.127952*%
%ADD33C,0.023622*%
%LNwol_pcb_copper_signal_top-1*%
%LPD*%
G36*
X00787Y0D02*
X0D01*
Y02283*
X00787*
Y0*
G37*
%LNwol_pcb_copper_signal_top-2*%
%LPC*%
G36*
X00625Y01946D02*
X00612D01*
X00598Y01944*
X00586Y01938*
X00575Y01931*
X00565Y01922*
X00558Y0191*
X00553Y01898*
X0055Y01885*
Y01872*
X00553Y01858*
X00558Y01846*
X00565Y01835*
X00575Y01825*
X00586Y01818*
X00598Y01813*
X00612Y0181*
X00625*
X00638Y01813*
X0065Y01818*
X00661Y01825*
X00671Y01835*
X00678Y01846*
X00684Y01858*
X00686Y01872*
Y01885*
X00684Y01898*
X00678Y0191*
X00671Y01922*
X00661Y01931*
X0065Y01938*
X00638Y01944*
X00625Y01946*
G37*
G36*
X00175D02*
X00162D01*
X00148Y01944*
X00136Y01938*
X00125Y01931*
X00115Y01922*
X00108Y0191*
X00103Y01898*
X001Y01885*
Y01872*
X00103Y01858*
X00108Y01846*
X00115Y01835*
X00125Y01825*
X00136Y01818*
X00148Y01813*
X00162Y0181*
X00175*
X00188Y01813*
X002Y01818*
X00211Y01825*
X00221Y01835*
X00228Y01846*
X00234Y01858*
X00236Y01872*
Y01885*
X00234Y01898*
X00228Y0191*
X00221Y01922*
X00211Y01931*
X002Y01938*
X00188Y01944*
X00175Y01946*
G37*
G36*
X00372Y0166D02*
X00364D01*
X00356Y01658*
X00349Y01654*
X00343Y01648*
X00338Y01641*
X00336Y01632*
Y01624*
X00338Y01616*
X00343Y01609*
X00349Y01603*
X00356Y01599*
X00364Y01596*
X00372*
X00381Y01599*
X00388Y01603*
X00394Y01609*
X00398Y01616*
X004Y01624*
Y01632*
X00398Y01641*
X00394Y01648*
X00388Y01654*
X00381Y01658*
X00372Y0166*
G37*
G36*
X00522Y0156D02*
X00514D01*
X00506Y01558*
X00499Y01554*
X00493Y01548*
X00488Y01541*
X00486Y01532*
Y01524*
X00488Y01516*
X00493Y01509*
X00499Y01503*
X00506Y01499*
X00514Y01496*
X00522*
X00531Y01499*
X00538Y01503*
X00544Y01509*
X00548Y01516*
X0055Y01524*
Y01532*
X00548Y01541*
X00544Y01548*
X00538Y01554*
X00531Y01558*
X00522Y0156*
G37*
G36*
X00272Y0166D02*
X00264D01*
X00256Y01658*
X00249Y01654*
X00243Y01648*
X00238Y01641*
X00236Y01632*
Y01624*
X00238Y01616*
X00243Y01609*
X00249Y01603*
X00256Y01599*
X00264Y01596*
X00272*
X00281Y01599*
X00283Y016*
X00311Y01571*
X00314Y01569*
X00318Y01568*
X00364*
X0039Y01543*
X00388Y01541*
X00386Y01532*
Y01524*
X00388Y01516*
X00393Y01509*
X00399Y01503*
X00406Y01499*
X00414Y01496*
X00422*
X00431Y01499*
X00438Y01503*
X00444Y01509*
X00448Y01516*
X0045Y01524*
Y01532*
X00448Y01541*
X00444Y01548*
X00438Y01554*
X00431Y01558*
X00422Y0156*
X00414*
X00406Y01558*
X00404Y01557*
X00375Y01585*
X00372Y01588*
X00368Y01588*
X00322*
X00297Y01614*
X00298Y01616*
X003Y01624*
Y01632*
X00298Y01641*
X00294Y01648*
X00288Y01654*
X00281Y01658*
X00272Y0166*
G37*
G36*
X00222Y0156D02*
X00214D01*
X00206Y01558*
X00199Y01554*
X00193Y01548*
X00188Y01541*
X00186Y01532*
Y01524*
X00188Y01516*
X00193Y01509*
X00199Y01503*
X00206Y01499*
X00214Y01496*
X00222*
X00231Y01499*
X00238Y01503*
X00244Y01509*
X00248Y01516*
X0025Y01524*
Y01532*
X00248Y01541*
X00244Y01548*
X00238Y01554*
X00231Y01558*
X00222Y0156*
G37*
G36*
X00472Y0166D02*
X00464D01*
X00456Y01658*
X00449Y01654*
X00443Y01648*
X00438Y01641*
X00436Y01632*
Y01624*
X00438Y01616*
X00443Y01609*
X00449Y01603*
X00456Y01599*
X0046Y01597*
Y01467*
X00419Y01426*
X00417Y01424*
X00417Y01421*
Y01325*
X00412Y01323*
X00409Y01327*
X00409Y01327*
Y01333*
X00407Y01339*
X00402Y01344*
X00396Y01346*
X0039*
X00384Y01344*
X0038Y01339*
X00377Y01333*
Y01327*
X0038Y01321*
X00384Y01317*
X0039Y01314*
X00396*
X00397Y01315*
X00401Y01311*
Y01246*
X00396Y01244*
X00366Y01274*
Y01488*
X00365Y01491*
X00363Y01493*
Y01493*
X00345Y01511*
X00348Y01516*
X0035Y01524*
Y01532*
X00348Y01541*
X00344Y01548*
X00338Y01554*
X00331Y01558*
X00322Y0156*
X00314*
X00306Y01558*
X00299Y01554*
X00293Y01548*
X00288Y01541*
X00286Y01532*
Y01524*
X00288Y01516*
X00293Y01509*
X00299Y01503*
X00306Y01499*
X00314Y01496*
X00322*
X00331Y01499*
X00334Y015*
X0035Y01484*
Y01271*
X0035Y01268*
X00352Y01265*
X00385Y01232*
Y01123*
X00382Y0112*
X0037*
X00365*
X00354*
Y0115*
Y0115*
X00353Y01153*
X00352Y01156*
X00349Y01159*
X0035Y01162*
Y01168*
X00347Y01174*
X00343Y01178*
X00337Y01181*
X00331*
X00325Y01178*
X00321Y01174*
X00318Y01168*
Y01162*
X00321Y01156*
X00325Y01152*
X00331Y01149*
X00335*
X00338Y01147*
Y01102*
X00338Y01101*
Y01084*
X00365*
X0037*
X00375*
X00412*
X00417*
X00417*
X00448*
Y01101*
X00448Y01102*
Y01374*
X00464Y0139*
X00465Y01389*
X00471*
X00477Y01392*
X00481Y01396*
X00484Y01402*
Y01408*
X00481Y01414*
X00477Y01418*
X00471Y01421*
X00465*
X00459Y01418*
X00455Y01414*
X00452Y01408*
Y01402*
X00453Y01401*
X00438Y01386*
X00433Y01388*
Y01417*
X00474Y01458*
Y01458*
X00475Y01461*
X00476Y01464*
Y01597*
X00481Y01599*
X00488Y01603*
X00494Y01609*
X00498Y01616*
X005Y01624*
Y01632*
X00498Y01641*
X00494Y01648*
X00488Y01654*
X00481Y01658*
X00472Y0166*
G37*
G36*
X00513Y01372D02*
X00504D01*
X00495Y0137*
X00488Y01365*
X00481Y01359*
X00477Y01351*
X00475Y01343*
Y01334*
X00477Y01325*
X00481Y01317*
X00488Y01311*
X00495Y01307*
X00504Y01304*
X00513*
X00521Y01307*
X00529Y01311*
X00535Y01317*
X0054Y01325*
X00542Y01334*
Y01343*
X0054Y01351*
X00535Y01359*
X00529Y01365*
X00521Y0137*
X00513Y01372*
G37*
G36*
X00322Y01295D02*
X00315D01*
X00309Y01292*
X00305Y01288*
X00303Y01282*
Y01276*
X00305Y0127*
X00308Y01267*
Y01257*
X00303*
Y01222*
X00334*
Y01257*
X00328*
Y01267*
X00332Y0127*
X00334Y01276*
Y01282*
X00332Y01288*
X00327Y01292*
X00322Y01295*
G37*
G36*
X00283Y01372D02*
X00274D01*
X00265Y0137*
X00257Y01365*
X00251Y01359*
X00246Y01351*
X00244Y01343*
Y01334*
X00246Y01325*
X00251Y01317*
X00257Y01311*
X00265Y01307*
X00269Y01306*
Y01257*
X00263*
Y01222*
X00295*
Y01257*
X00289*
Y01306*
X00291Y01307*
X00299Y01311*
X00305Y01317*
X0031Y01325*
X00312Y01334*
Y01343*
X0031Y01351*
X00305Y01359*
X00299Y01365*
X00291Y0137*
X00283Y01372*
G37*
G36*
X00613D02*
X00604D01*
X00595Y0137*
X00588Y01365*
X00581Y01359*
X00577Y01351*
X00575Y01343*
Y01334*
X00577Y01325*
X00581Y01317*
X00588Y01311*
X00595Y01307*
X00598Y01306*
Y0125*
X00592*
Y01214*
X00624*
Y0125*
X00618*
Y01306*
X00621Y01307*
X00629Y01311*
X00635Y01317*
X0064Y01325*
X00642Y01334*
Y01343*
X0064Y01351*
X00635Y01359*
X00629Y01365*
X00621Y0137*
X00613Y01372*
G37*
G36*
X00183D02*
X00174D01*
X00165Y0137*
X00157Y01365*
X00151Y01359*
X00146Y01351*
X00144Y01343*
Y01334*
X00146Y01325*
X00151Y01317*
X00157Y01311*
X00165Y01307*
X0017Y01305*
Y0125*
X00171Y01247*
X00172Y01244*
X0027Y01147*
X00269Y01145*
X00264Y01143*
X00247Y0116*
X00243Y01162*
X0024Y01163*
X00043*
X00039Y01162*
X00036Y0116*
X00012Y01137*
X0001Y01133*
X00009Y01129*
Y00645*
X0001Y00641*
X00012Y00638*
X00019Y00631*
Y00629*
X00021Y00624*
X00025Y0062*
X0003Y00618*
X00033*
X0004Y00611*
X00043Y00608*
X00047Y00608*
X00199*
X00202Y00604*
Y006*
Y00599*
Y00572*
X00257*
Y00599*
Y006*
Y00604*
Y00605*
Y00631*
Y00635*
Y00663*
Y00667*
Y00694*
Y00698*
Y00726*
X0024*
Y00848*
X00248Y00856*
X00344*
X00346Y00854*
X00351Y00852*
X00357*
X00359Y00853*
X00362Y00849*
X00343Y00829*
X00341Y00826*
X0034Y00822*
Y008*
X00337Y00797*
X00332Y00797*
X00328Y00801*
Y00818*
X00332Y00821*
X00334Y00827*
Y00833*
X00332Y00839*
X00327Y00844*
X00322Y00846*
X00315*
X00309Y00844*
X00305Y00839*
X00303Y00833*
Y00827*
X00305Y00821*
X00308Y00818*
Y008*
X00305Y00797*
X003Y00797*
X00297Y00801*
Y00811*
X00296Y00814*
X00294Y00818*
X00287Y00825*
Y00829*
X00285Y00835*
X0028Y0084*
X00274Y00842*
X00268*
X00262Y0084*
X00258Y00835*
X00255Y00829*
Y00823*
X00258Y00817*
X00262Y00813*
X00268Y00811*
X00273*
X00277Y00806*
Y00797*
X00273*
Y00742*
X003*
X00301*
X00305*
X00306*
X00331*
X00332*
X00336*
X00337*
X00364*
X00368*
X00394*
X00395*
X00399*
X00403Y00738*
Y00728*
X00393Y00718*
X00354*
X00351Y00722*
X00345Y00724*
X00339*
X00333Y00722*
X00329Y00717*
X00326Y00711*
Y00705*
X00329Y00699*
X00333Y00695*
X00339Y00692*
X00345*
X00351Y00695*
X00354Y00698*
X00397*
X00401Y00699*
X00404Y00701*
X0042Y00717*
X00422Y0072*
X00423Y00724*
Y00738*
X00426Y00742*
X00431*
X00432*
X00457*
X00458*
X00462*
X00463*
X00489*
X0049*
X00494*
X00495*
X00521*
Y00797*
X00517*
Y0082*
X00523*
Y00856*
X00517*
Y00865*
X00523Y00871*
X00602*
X00606Y00872*
X00609Y00874*
X00632Y00897*
X00636*
X00642Y009*
X00647Y00904*
X00649Y0091*
Y00916*
X00647Y00922*
X00643Y00925*
Y01043*
X00643Y01047*
X0064Y0105*
X00627Y01064*
X00623Y01066*
X0062Y01067*
X0061*
Y0107*
X00596*
Y01098*
X00595Y01102*
X00593Y01105*
X00578Y0112*
Y01167*
X00584*
Y01202*
X00578*
Y01214*
X00584*
Y0125*
X00553*
Y01242*
X00539*
X00536Y01245*
X0053Y01248*
X00524*
X00518Y01245*
X00514Y01241*
X00511Y01235*
Y01229*
X00514Y01223*
X00518Y01218*
X00524Y01216*
X0053*
X00536Y01218*
X00539Y01222*
X00553*
Y01214*
X00558*
Y01202*
X00553*
Y01167*
X00558*
Y01116*
X00559Y01112*
X00561Y01109*
X00576Y01094*
Y0107*
X00562*
Y01065*
X00555*
X00552Y01069*
X00555Y01075*
Y01081*
X00552Y01087*
X00548Y01092*
X00542Y01094*
X00536*
X0053Y01092*
X00528Y0109*
X00523Y01092*
Y01116*
X00524Y01116*
X00529Y01121*
X00531Y01126*
Y01133*
X00529Y01138*
X00524Y01143*
X00518Y01145*
X00512*
X00506Y01143*
X00502Y01138*
X005Y01133*
Y01126*
X00502Y01121*
X00506Y01116*
X00507Y01116*
Y01086*
X005Y01078*
X00472*
X00471Y01078*
X00454*
Y01052*
Y01047*
Y01047*
Y01005*
Y01*
Y00999*
Y00968*
X0049*
Y00999*
X00511*
X00514Y01*
X00517Y01002*
X00521Y01005*
X00525Y01005*
X00526Y01004*
X00529Y01001*
Y0098*
X0053Y00976*
X00532Y00973*
X00537Y00968*
Y00962*
X00531*
Y00927*
X00562*
Y00962*
X00557*
Y00972*
X00556Y00976*
X00554Y00979*
X00549Y00984*
Y01001*
X00552Y01004*
X00555Y0101*
Y01016*
X00552Y01022*
X00548Y01027*
X00543Y01029*
X00542Y01031*
X00542Y01031*
X00541Y01034*
X00556Y01049*
X00562*
Y01043*
X0061*
Y01047*
X00615*
X00623Y01039*
Y00925*
X0062Y00922*
X00618Y00916*
Y00911*
X00598Y00891*
X00519*
X00515Y00891*
X00512Y00888*
X005Y00877*
X00498Y00873*
X00497Y0087*
Y00856*
X00492*
Y0082*
X00497*
Y008*
X00494Y00797*
X0049*
X00489*
X00463*
X00462*
X00458*
X00457*
X00432*
X00431*
X00427*
X00426*
X004*
X00399*
X00395*
X00391Y00801*
Y00806*
X00397Y00812*
X00443*
X00444Y00811*
X0045Y00809*
X00455*
X0046Y00811*
X00464Y00815*
X00466Y0082*
Y00825*
X00464Y0083*
X0046Y00834*
Y00881*
X0046Y00884*
X00458Y00887*
X00448Y00897*
Y00944*
X00448Y00945*
Y00962*
X00422*
X00417*
X00417*
X0037*
X00365*
X00338*
Y00945*
X00338Y00944*
Y00932*
X00335Y00929*
X00316*
X00316Y0093*
X00312Y00934*
X00306Y00937*
X003*
X00294Y00934*
X00289Y0093*
X00287Y00924*
Y00918*
X00289Y00912*
X00294Y00907*
X00297Y00906*
X00296Y00901*
X00271*
Y00948*
X00265*
Y00971*
X00278Y00984*
X00297*
Y00968*
X00332*
Y00995*
Y00999*
Y01*
Y01042*
Y01047*
Y01047*
Y01078*
X00315*
X00314Y01078*
X00294*
X00287Y01086*
Y01149*
X00286Y01152*
X00285Y01155*
X00186Y01253*
Y01305*
X00191Y01307*
X00199Y01311*
X00205Y01317*
X0021Y01325*
X00212Y01334*
Y01343*
X0021Y01351*
X00205Y01359*
X00199Y01365*
X00191Y0137*
X00183Y01372*
G37*
G36*
X00144Y00559D02*
X00138D01*
X00132Y00556*
X00129Y00553*
X0005*
X00049Y00554*
X00044Y00557*
X00038*
X00033Y00554*
X00029Y00551*
X00027Y00546*
Y0054*
X00029Y00535*
X00031Y00533*
Y00521*
X00025*
Y00486*
X00031*
Y0048*
X00027*
Y00433*
X00031*
Y00423*
X00025*
Y00372*
X00057*
Y00423*
X00051*
Y00433*
X00055*
Y0048*
X00051*
Y00486*
X00057*
Y00521*
X00051*
Y00533*
X00129*
X00132Y00529*
X00138Y00527*
X00143*
X00154Y00516*
X00157Y00514*
X00161Y00513*
X00167*
Y00397*
X00167Y00393*
X0017Y0039*
X00197Y00362*
X002Y0036*
X00204Y0036*
X00269*
Y00354*
X00305*
Y00385*
X00297*
Y00403*
X003Y00407*
X00305*
X00306*
X00331*
X00332*
X00336*
X00337*
X00363*
X00364*
X00368*
X00369*
X00394*
X00395*
X00399*
X00403Y00403*
Y00397*
X00355Y0035*
X00351*
X00345Y00347*
X0034Y00343*
X00338Y00337*
Y00331*
X0034Y00325*
X00345Y00321*
X00351Y00318*
X00357*
X00363Y00321*
X00367Y00325*
X0037Y00331*
Y00336*
X0042Y00386*
X00422Y00389*
X00423Y00393*
Y00403*
X00426Y00406*
X00431Y00406*
X00434Y00403*
Y00362*
X00435Y00358*
X00437Y00355*
X0047Y00322*
Y00279*
X00456Y00265*
X0045*
Y00271*
X00415*
Y0024*
X00423*
Y00218*
X00403*
Y00143*
X00462*
Y00218*
X00443*
Y0024*
X0045*
Y00245*
X0046*
X00464Y00246*
X00467Y00248*
X00487Y00268*
X00489Y00271*
X0049Y00275*
Y00326*
X00489Y0033*
X00487Y00333*
X00454Y00366*
Y00403*
X00457Y00406*
X00463Y00406*
X00466Y00403*
Y0037*
X00467Y00366*
X00469Y00362*
X00485Y00347*
X00488Y00345*
X00492Y00344*
X00495*
X00498Y0034*
X00504Y00338*
X00511*
X00516Y0034*
X00521Y00345*
X00523Y00351*
Y00357*
X00521Y00363*
X00516Y00367*
X00511Y0037*
X00504*
X00498Y00367*
X00495Y00364*
X00486Y00374*
Y00403*
X00489Y00407*
X00494*
X00495*
X00521*
Y00425*
X00533*
X00541Y00417*
Y00323*
X00537Y00319*
X00535Y00314*
Y00307*
X00537Y00302*
X00542Y00297*
X00548Y00295*
X00554*
X0056Y00297*
X00564Y00302*
X00566Y00307*
Y00314*
X00564Y00319*
X00561Y00323*
Y00421*
X0056Y00425*
X00558Y00428*
X00544Y00442*
X00541Y00444*
X00537Y00445*
X00521*
Y00462*
X00495*
X00494*
X0049*
X00489*
X00463*
X00462*
X00458*
X00457*
X00432*
X00431*
X00427*
X00426*
X004*
X00399*
X00395*
X00394*
X00369*
X00368*
X00364*
X00363*
X00337*
X00336*
X00332*
X00331*
X00306*
X00305*
X00301*
X003*
X00273*
Y00407*
X00277*
Y00385*
X00269*
Y0038*
X00208*
X00187Y00401*
Y00513*
X00202*
Y00509*
X00257*
Y00537*
X00202*
Y00533*
X00165*
X00157Y00541*
Y00546*
X00155Y00552*
X0015Y00556*
X00144Y00559*
G37*
G36*
X00592Y00663D02*
X00537D01*
Y00636*
Y00635*
Y00631*
Y0063*
Y00605*
Y00604*
Y006*
Y00599*
Y00573*
Y00572*
Y00568*
Y00567*
Y00542*
Y00541*
Y00537*
Y00536*
Y0051*
Y00509*
Y00505*
Y00504*
Y00478*
X00592*
Y00504*
Y00505*
Y00509*
Y0051*
Y00536*
Y00537*
Y00541*
Y00542*
Y00567*
Y00568*
Y00572*
Y00573*
Y00599*
Y006*
Y00604*
Y00605*
Y0063*
Y00631*
Y00635*
Y00636*
Y00663*
G37*
G36*
X00131Y00423D02*
X001D01*
Y00372*
X00131*
Y00423*
G37*
G36*
X00106Y00352D02*
X00051D01*
X00047Y00351*
X00044Y00349*
X00034Y00339*
X00032Y00336*
X00031Y00332*
Y0032*
X00025*
Y00269*
X00031*
Y0019*
X00029Y00188*
X00027Y00183*
Y00178*
X00029Y00173*
X00033Y00169*
X00038Y00167*
X00044*
X00049Y00169*
X0005Y00171*
X00066*
Y00165*
X00102*
X00105Y00166*
X00111Y0016*
X00114Y00157*
X00118Y00157*
Y00153*
X00124*
X00126Y00148*
X00091Y00113*
X0009Y00114*
X00082Y00116*
X00074*
X00067Y00114*
X0006Y0011*
X00055Y00104*
X00051Y00098*
X00049Y0009*
Y00082*
X00051Y00075*
X00055Y00068*
X0006Y00062*
X00067Y00059*
X00074Y00057*
X00082*
X0009Y00059*
X00096Y00062*
X00102Y00068*
X00106Y00075*
X00108Y00082*
Y0009*
X00106Y00098*
X00105Y00099*
X00148Y00142*
X00151Y00145*
X00151Y00149*
Y00153*
X00165*
Y00157*
X00194*
X00198Y00158*
X00201Y0016*
X00212Y00171*
X00222*
Y00143*
X00281*
Y00218*
X00262*
Y00275*
X00271Y00285*
X00415*
Y00279*
X0045*
Y00311*
X00415*
Y00305*
X00267*
X00263Y00304*
X0026Y00302*
X00244Y00286*
X00242Y00283*
X00241Y00279*
Y00218*
X00222*
Y00191*
X00208*
X00204Y0019*
X00201Y00188*
X0019Y00177*
X00165*
Y00181*
X00118*
X00111Y00188*
X00108Y0019*
X00104Y00191*
X00102*
Y00196*
X00066*
Y00191*
X00051*
Y00269*
X00057*
Y0032*
X00051*
Y00328*
X00055Y00332*
X00102*
X00106Y00328*
Y0032*
X001*
Y00269*
X00131*
Y0032*
X00126*
Y00332*
X00125Y00336*
X00123Y00339*
X00113Y00349*
X0011Y00351*
X00106Y00352*
G37*
G36*
X00357Y00271D02*
X00351D01*
X00345Y00269*
X0034Y00264*
X00338Y00259*
Y00252*
X0034Y00246*
X00344Y00243*
Y00218*
X00324*
Y00143*
X00383*
Y00218*
X00364*
Y00243*
X00367Y00246*
X0037Y00252*
Y00259*
X00367Y00264*
X00363Y00269*
X00357Y00271*
G37*
%LNwol_pcb_copper_signal_top-3*%
%LPD*%
G36*
X00225Y0089D02*
X00163Y00828D01*
X00161Y00825*
X00161Y00822*
Y00755*
X00157Y00751*
X00155Y00746*
Y00741*
X00157Y00736*
X00159Y00734*
Y00696*
X0016Y00693*
X00162Y00689*
X00177Y00674*
X00181Y00671*
X00185Y00671*
X00199*
X00202Y00667*
Y00664*
X00199Y00659*
X00059*
X00053Y00665*
Y00895*
X00223*
X00225Y0089*
G37*
G54D10*
X00118Y00933D03*
X00078D03*
X00568Y01232D03*
X00608D03*
X00318Y0124D03*
X00279D03*
X00608Y01185D03*
X00568D03*
X00586Y00944D03*
X00547D03*
X00078Y0109D03*
X00118D03*
X00547Y00838D03*
X00507D03*
X0008Y00503D03*
X00041D03*
G54D11*
X00257Y00925D03*
X0019D03*
X00041Y00456D03*
X00108D03*
G54D12*
X00586Y01057D03*
Y0099D03*
X00141Y00167D03*
Y00234D03*
G54D13*
X00564Y00618D03*
Y00649D03*
Y00681D03*
Y00712D03*
Y00586D03*
Y00555D03*
Y00523D03*
Y00492D03*
X0023Y00586D03*
Y00555D03*
Y00523D03*
Y00492D03*
Y00618D03*
Y00649D03*
Y00681D03*
Y00712D03*
G54D14*
X00413Y00435D03*
X00444D03*
X00476D03*
X00507D03*
X00381D03*
X0035D03*
X00318D03*
X00287D03*
X00381Y00769D03*
X0035D03*
X00318D03*
X00287D03*
X00413D03*
X00444D03*
X00476D03*
X00507D03*
G54D15*
X00393Y01023D03*
G54D16*
X00393Y01102D03*
X00409D03*
X00425D03*
X0044D03*
X00377D03*
X00362D03*
X00346D03*
X00393Y00944D03*
X00377D03*
X00362D03*
X00346D03*
X00409D03*
X00425D03*
X0044D03*
G54D17*
X00314Y01023D03*
Y01039D03*
Y01055D03*
Y0107D03*
Y01007D03*
Y00992D03*
Y00976D03*
X00472Y01023D03*
Y01007D03*
Y00992D03*
Y00976D03*
Y01039D03*
Y01055D03*
Y0107D03*
G54D18*
X00118Y01044D03*
X00165Y00983D03*
Y01044D03*
X00118Y00983D03*
G54D19*
X00452Y00822D03*
X00413Y00846D03*
X00354Y00866D03*
X00169Y00744D03*
X00051Y01122D03*
X00033Y00631D03*
X00688Y00877D03*
X00041Y00543D03*
Y00181D03*
G54D20*
X00251Y00181D03*
X00354D03*
X00433D03*
X00531D03*
G54D21*
X00433Y00295D03*
Y00255D03*
X00287Y0033D03*
Y0037D03*
X00084Y0022D03*
Y00181D03*
G54D22*
X00078Y00295D03*
X00041Y00397D03*
X00116D03*
Y00295D03*
X00041D03*
G54D23*
X00149Y00885D02*
X0019D01*
Y00925*
X00586Y00902D02*
Y00944D01*
X00496Y00902D02*
X00586D01*
X00484Y00889D02*
X00496Y00902D01*
X00685Y00838D02*
X00688Y00842D01*
X00547Y00838D02*
X00685D01*
X00688Y00842D02*
Y00877D01*
X00161Y00979D02*
X00165Y00983D01*
X00161Y0094D02*
Y00979D01*
X00153Y00933D02*
X00161Y0094D01*
X00118Y00933D02*
X00153D01*
X00082Y00885D02*
X00149D01*
X00633Y00913D02*
Y01043D01*
X00586Y01057D02*
X0062D01*
X00633Y01043*
X00586Y01057D02*
Y01098D01*
X00568Y0171D02*
Y0171D01*
Y01628D02*
Y0171D01*
X00078Y00889D02*
X00082Y00885D01*
X00342Y00708D02*
X00397D01*
X00413Y00724*
Y00769*
X00492Y00354D02*
X00507D01*
X00476Y0037D02*
X00492Y00354D01*
X00476Y0037D02*
Y00435D01*
X00551Y00311D02*
Y00421D01*
X00537Y00435D02*
X00551Y00421D01*
X00507Y00435D02*
X00537D01*
X00141Y00456D02*
Y00488D01*
X00125Y00503D02*
X00141Y00488D01*
X00108Y00456D02*
X00141D01*
X00078Y00086D02*
X00141Y00149D01*
Y00167*
X00084Y00181D02*
X00104D01*
X00118Y00167*
X00141D02*
X00141Y00167D01*
X00118Y00167D02*
X00141D01*
X00141Y00167D02*
X00194D01*
X00208Y00181*
X00251D02*
Y00279D01*
Y00181D02*
D01*
X00208D02*
X00251D01*
X00081Y00178D02*
X00084Y00181D01*
Y0022D02*
D01*
X00106D02*
X00118Y00232D01*
X00084Y0022D02*
X00106D01*
X00118Y00232D02*
X00139D01*
X00141Y00234*
X00182D02*
X00188Y00241D01*
X00141Y00234D02*
X00182D01*
X00188Y00241D02*
Y0033D01*
X00169Y00696D02*
Y00744D01*
X00019Y00645D02*
X00033Y00631D01*
X00047Y00618*
X00334Y01162D02*
Y01165D01*
X00043Y01114D02*
X00051Y01122D01*
X00244Y00866D02*
X00354D01*
X00653Y01185D02*
Y0161D01*
X00568Y01628D02*
X00635D01*
X00653Y0161*
X00616Y01758D02*
X00704D01*
X00568Y0171D02*
X00616Y01758D01*
X0052D02*
X00568Y0171D01*
X00153Y00337D02*
Y00444D01*
X0016Y0033D02*
X00188D01*
X00153Y00337D02*
X0016Y0033D01*
X00494Y00087D02*
X00707D01*
X00531Y00181D02*
X00688D01*
X00708Y00086D02*
Y00161D01*
X00688Y00181D02*
X00708Y00161D01*
X00707Y00087D02*
X00708Y00086D01*
X00482Y00088D02*
X00494D01*
X00305D02*
X00482D01*
X00653Y01185D02*
X00682D01*
X00688Y00877D02*
Y01178D01*
X00682Y01185D02*
X00688Y01178D01*
X0023Y00555D02*
D01*
X00185D02*
X0023D01*
X00098Y00582D02*
X00157D01*
X00185Y00555*
X0008Y00503D02*
X00125D01*
X00602Y00881D02*
X00633Y00913D01*
X00608Y01185D02*
X00653D01*
X00507Y00769D02*
Y0087D01*
X00564Y00712D02*
Y00785D01*
X00547Y00803D02*
X00564Y00785D01*
X00547Y00803D02*
Y00838D01*
X00564Y00681D02*
D01*
X00374Y00846D02*
X00413D01*
X00393Y00822D02*
X00452D01*
X00444Y00362D02*
Y00435D01*
Y00362D02*
X0048Y00326D01*
Y00275D02*
Y00326D01*
X00078Y00889D02*
Y0109D01*
X00287Y00769D02*
Y00811D01*
X00271Y00826D02*
X00287Y00811D01*
X00519Y00881D02*
X00602D01*
X00507Y0087D02*
X00519Y00881D01*
X00539Y0098D02*
Y01013D01*
Y0098D02*
X00547Y00972D01*
Y00944D02*
Y00972D01*
X00586Y00944D02*
Y0099D01*
X00318Y00769D02*
Y0083D01*
X00568Y01116D02*
X00586Y01098D01*
X00568Y01116D02*
Y01185D01*
Y01232*
X00318Y0124D02*
Y01279D01*
X00527Y01232D02*
X00568D01*
X00279Y0124D02*
Y01338D01*
Y0124D02*
X00279Y0124D01*
X00278Y01338D02*
X00279Y01338D01*
X00608Y01338D02*
X00608Y01338D01*
X00608Y01232D02*
X00608Y01232D01*
Y01338*
X00082Y01758D02*
X0052D01*
X00368Y01578D02*
X00418Y01528D01*
X00318Y01578D02*
X00368D01*
X00268Y01628D02*
X00318Y01578D01*
X00043Y00661D02*
Y01114D01*
Y00661D02*
X00055Y00649D01*
X00259Y0107D02*
Y01133D01*
X0024Y01153D02*
X00259Y01133D01*
X00043Y01153D02*
X0024D01*
X00019Y01129D02*
X00043Y01153D01*
X00019Y00645D02*
Y01129D01*
X00047Y00618D02*
X0023D01*
X00055Y00649D02*
X0023D01*
X00118Y01044D02*
Y0109D01*
X00185Y00681D02*
X0023D01*
X00169Y00696D02*
X00185Y00681D01*
X0023Y00712D02*
Y00852D01*
X00244Y00866*
X0035Y00769D02*
Y00822D01*
X00374Y00846*
X00381Y00769D02*
Y00811D01*
X00393Y00822*
X0035Y00555D02*
X00476Y00681D01*
X00287Y00492D02*
X0035Y00555D01*
X0023D02*
X0035D01*
X00476Y00681D02*
X00507Y00712D01*
X00476Y00681D02*
X00564D01*
X00507Y00712D02*
X00564D01*
X0023Y00492D02*
X00287D01*
X00177Y00397D02*
X00204Y0037D01*
X00177Y00397D02*
Y00523D01*
X00141Y00456D02*
X00153Y00444D01*
X00188Y0033D02*
X00287D01*
X00204Y0037D02*
X00287D01*
X00177Y00523D02*
X0023D01*
X00161D02*
X00177D01*
X00041Y00503D02*
Y00543D01*
X00141*
X00161Y00523*
X00413Y00393D02*
Y00435D01*
X00354Y00334D02*
X00413Y00393D01*
X00287Y0037D02*
Y00435D01*
X0046Y00255D02*
X0048Y00275D01*
X00433Y00255D02*
X0046D01*
X00354Y00181D02*
Y00255D01*
X00041Y00397D02*
Y00503D01*
X00251Y00279D02*
X00267Y00295D01*
X00433*
X00041Y00181D02*
X00084D01*
X00041D02*
Y00295D01*
X00433Y00181D02*
Y00255D01*
X00078D02*
Y00295D01*
X00084Y0022D02*
Y0025D01*
X00078Y00255D02*
X00084Y0025D01*
X00116Y00295D02*
Y00332D01*
X00106Y00342D02*
X00116Y00332D01*
X00051Y00342D02*
X00106D01*
X00041Y00332D02*
X00051Y00342D01*
X00041Y00295D02*
Y00332D01*
G54D24*
X00257Y00925D02*
Y00974D01*
X00275Y00992*
X00314*
X00303Y00921D02*
X00338D01*
X00553Y01057D02*
X00586D01*
X00535Y01039D02*
X00553Y01057D01*
X00362Y00901D02*
Y00944D01*
X00354Y00893D02*
X00362Y00901D01*
X0024Y00893D02*
X00354D01*
X00169Y00822D02*
X0024Y00893D01*
X00169Y00744D02*
Y00822D01*
X00354Y00866D02*
X00393D01*
X00409Y00881*
Y00944*
X00413Y00846D02*
X00425Y00858D01*
Y00944*
X0044Y00893D02*
Y00944D01*
Y00893D02*
X00452Y00881D01*
Y00822D02*
Y00881D01*
X00346Y00929D02*
Y00944D01*
X00338Y00921D02*
X00346Y00929D01*
X00165Y00983D02*
X00203D01*
X00228Y01007*
X00314*
X00228Y01023D02*
X00314D01*
X00212Y01039D02*
X00228Y01023D01*
X00212Y01039D02*
Y01078D01*
X00236Y01055D02*
Y0111D01*
Y01055D02*
X00251Y01039D01*
X00314*
X00216Y01129D02*
X00236Y0111D01*
X002Y0109D02*
X00212Y01078D01*
X00118Y0109D02*
X002D01*
X00259Y0107D02*
X00275Y01055D01*
X00314*
X00059Y01129D02*
X00216D01*
X00051Y01122D02*
X00059Y01129D01*
X00178Y0125D02*
X00279Y01149D01*
X00291Y0107D02*
X00314D01*
X00279Y01082D02*
X00291Y0107D01*
X00279Y01082D02*
Y01149D01*
X00511Y01007D02*
X00517Y01013D01*
X00472Y01007D02*
X00511D01*
X00472Y01023D02*
X00507D01*
X00517Y01013*
X00539*
X00472Y01039D02*
X00535D01*
X00472Y01055D02*
X00515D01*
X00539Y01078*
X00515Y01082D02*
Y01129D01*
X00472Y0107D02*
X00503D01*
X00515Y01082*
X0044Y01377D02*
X00468Y01405D01*
X0044Y01102D02*
Y01377D01*
X00468Y01464D02*
Y01628D01*
X00468Y01628*
X00425Y01102D02*
Y01421D01*
X00468Y01464*
X00409Y01102D02*
Y01314D01*
X00393Y0133D02*
X00409Y01314D01*
X00318Y01527D02*
Y01528D01*
Y01527D02*
X00358Y01488D01*
Y01271D02*
Y01488D01*
Y01271D02*
X00393Y01236D01*
Y01102D02*
Y01236D01*
X00334Y01162D02*
X00346Y0115D01*
Y01102D02*
Y0115D01*
X00178Y0125D02*
Y01338D01*
X00118Y0109D02*
D01*
G54D25*
X00393Y01023D03*
G54D26*
X00421Y00996D03*
Y01051D03*
X00366D03*
Y00996D03*
G54D27*
X00708Y00086D03*
X00078D03*
G54D28*
X00482Y00088D03*
X00305D03*
G54D29*
X00608Y01338D03*
X00508D03*
X00278D03*
X00178D03*
G54D30*
X00218Y01528D03*
X00268Y01628D03*
X00318Y01528D03*
X00368Y01628D03*
X00418Y01528D03*
X00468Y01628D03*
X00518Y01528D03*
X00568Y01628D03*
G54D31*
X00704Y01758D03*
X00082D03*
G54D32*
X00168Y01878D03*
X00618D03*
G54D33*
X00303Y00921D03*
X00078Y00885D03*
X00342Y00708D03*
X00507Y00354D03*
X00551Y00311D03*
X00098Y00582D03*
X00125Y00503D03*
X00653Y01185D03*
X00141Y00543D03*
X00633Y00913D03*
X00271Y00826D03*
X00484Y00889D03*
X00515Y01129D03*
X00539Y01078D03*
X00318Y0083D03*
Y01279D03*
X00393Y0133D03*
X00527Y01232D03*
X00468Y01405D03*
X00334Y01165D03*
X00188Y0033D03*
X00539Y01013D03*
X00354Y00334D03*
Y00255D03*
M02*