%FSTAX23Y23*%
%MOIN*%
%SFA1B1*%

%IPPOS*%
%ADD10C,0.003937*%
%LNwol_pcb-1*%
%LPD*%
G36*
X00283Y02059D02*
X00285Y02059D01*
X00285Y02058*
X00286Y02058*
X00287Y02058*
X00288Y02058*
X00289Y02057*
X0029Y02057*
X0029Y02057*
X00291Y02056*
X00291Y02056*
X00292Y02056*
X00292Y02056*
X00292Y02056*
X00292Y02055*
X00292Y02055*
X00293Y02055*
X00294Y02054*
X00294Y02053*
X00295Y02052*
X00295Y02052*
X00296Y02051*
X00296Y02049*
X00297Y02049*
X00297Y02048*
X00297Y02047*
X00297Y02047*
X00297Y02046*
X00297Y02046*
X00298Y02046*
Y02046*
X00291Y02045*
X00291Y02046*
X00291Y02048*
X0029Y02049*
X0029Y0205*
X00289Y02051*
X00289Y02051*
X00288Y02051*
X00288Y02051*
X00287Y02052*
X00286Y02053*
X00285Y02053*
X00284Y02053*
X00283Y02054*
X00283Y02054*
X00283*
X00283Y02054*
X00282*
X00281Y02054*
X0028Y02053*
X00279Y02053*
X00278Y02053*
X00277Y02052*
X00277Y02052*
X00276Y02052*
X00276Y02051*
X00276Y02051*
X00276Y02051*
X00275Y0205*
X00274Y02049*
X00274Y02048*
X00274Y02047*
X00274Y02046*
X00274Y02046*
Y02046*
Y02046*
Y02046*
X00274Y02045*
X00274Y02044*
X00274Y02044*
X00274Y02043*
X00275Y02042*
X00276Y02041*
X00276Y0204*
X00277Y0204*
X00277Y0204*
X00277Y0204*
X00277Y02039*
X00277*
X00278Y02039*
X0028Y02038*
X00281Y02038*
X00282Y02038*
X00283Y02038*
X00283Y02037*
X00284*
X00284Y02037*
X00285*
X00285Y02037*
X00285Y02038*
X00285*
X00286Y02032*
X00285Y02032*
X00284Y02032*
X00283Y02033*
X00283Y02033*
X00282*
X00282Y02033*
X00282*
X00281Y02033*
X0028Y02033*
X00279Y02032*
X00277Y02032*
X00276Y02031*
X00276Y02031*
X00275Y02031*
X00275Y0203*
X00275Y0203*
X00275Y0203*
X00275Y0203*
X00275Y0203*
X00274Y02029*
X00274Y02029*
X00273Y02028*
X00273Y02028*
X00272Y02027*
X00272Y02025*
X00272Y02024*
X00272Y02024*
X00272Y02024*
X00272Y02023*
Y02023*
Y02023*
Y02023*
X00272Y02022*
X00272Y02021*
X00272Y0202*
X00273Y02019*
X00273Y02018*
X00273Y02017*
X00274Y02017*
X00274Y02016*
X00274Y02016*
X00274Y02016*
X00275Y02016*
X00275Y02016*
X00275Y02016*
X00275Y02015*
X00276Y02015*
X00276Y02014*
X00277Y02014*
X00278Y02013*
X0028Y02013*
X00281Y02013*
X00281Y02013*
X00281Y02013*
X00282Y02013*
X00282*
X00283Y02013*
X00285Y02013*
X00286Y02013*
X00287Y02014*
X00287Y02014*
X00288Y02014*
X00288Y02015*
X00288Y02015*
X00288Y02015*
X00288*
X00289Y02015*
X00289Y02016*
X0029Y02017*
X00291Y02018*
X00291Y02019*
X00292Y02021*
X00292Y02021*
X00292Y02022*
X00292Y02022*
X00292Y02022*
X00292Y02022*
Y02022*
X00298Y02022*
X00298Y0202*
X00298Y02019*
X00297Y02018*
X00297Y02017*
X00297Y02016*
X00296Y02016*
X00296Y02015*
X00295Y02014*
X00295Y02013*
X00295Y02013*
X00294Y02012*
X00294Y02012*
X00294Y02012*
X00293Y02011*
X00293Y02011*
X00293Y02011*
X00292Y02011*
X00291Y0201*
X00291Y0201*
X0029Y02009*
X00289Y02009*
X00288Y02008*
X00287Y02008*
X00286Y02008*
X00285Y02008*
X00284Y02008*
X00284Y02007*
X00283Y02007*
X00283*
X00282Y02007*
X00282*
X00281Y02007*
X00279Y02008*
X00278Y02008*
X00277Y02008*
X00276Y02008*
X00275Y02009*
X00274Y02009*
X00273Y0201*
X00273Y0201*
X00272Y0201*
X00271Y02011*
X00271Y02011*
X0027Y02011*
X0027Y02012*
X0027Y02012*
X0027Y02012*
X00269Y02013*
X00268Y02014*
X00268Y02015*
X00267Y02016*
X00267Y02017*
X00266Y02017*
X00266Y02018*
X00266Y02019*
X00266Y0202*
X00265Y02021*
X00265Y02021*
X00265Y02022*
Y02022*
X00265Y02023*
Y02023*
Y02023*
Y02024*
X00265Y02025*
X00266Y02026*
X00266Y02028*
X00266Y02028*
X00266Y02029*
X00267Y02029*
X00267Y0203*
X00267Y0203*
X00267Y02031*
X00267Y02031*
X00268Y02031*
X00268Y02031*
X00268Y02031*
X00269Y02032*
X0027Y02033*
X00271Y02034*
X00272Y02035*
X00273Y02035*
X00273Y02035*
X00274Y02035*
X00274Y02035*
X00274Y02035*
X00275Y02035*
X00275*
X00273Y02036*
X00272Y02037*
X00271Y02038*
X00271Y02038*
X0027Y02039*
X0027Y02039*
X00269Y0204*
X00269Y0204*
Y0204*
X00269Y02041*
X00268Y02042*
X00268Y02043*
X00268Y02044*
X00268Y02045*
X00268Y02045*
Y02045*
Y02046*
Y02046*
Y02046*
X00268Y02047*
X00268Y02048*
X00268Y02049*
X00269Y0205*
X00269Y02051*
X00269Y02051*
X00269Y02052*
X00269Y02052*
X00269Y02052*
X00269Y02052*
Y02052*
X0027Y02053*
X00271Y02054*
X00272Y02055*
X00273Y02056*
X00274Y02056*
X00274Y02057*
X00274Y02057*
X00275Y02057*
X00275Y02057*
X00275*
X00276Y02058*
X00277Y02058*
X00279Y02058*
X0028Y02059*
X00281Y02059*
X00281Y02059*
X00282Y02059*
X00282*
X00283Y02059*
G37*
G36*
X004D02*
X00401Y02059D01*
X00403Y02058*
X00404Y02058*
X00405Y02058*
X00406Y02058*
X00407Y02057*
X00407Y02057*
X00408Y02057*
X00409Y02056*
X00409Y02056*
X0041Y02056*
X0041Y02055*
X0041Y02055*
X0041Y02055*
X0041Y02055*
X00411Y02054*
X00412Y02054*
X00412Y02053*
X00413Y02052*
X00413Y02051*
X00414Y0205*
X00414Y02049*
X00414Y02048*
X00415Y02047*
X00415Y02047*
X00415Y02046*
X00415Y02045*
X00415Y02045*
X00415Y02045*
X00415Y02044*
Y02044*
X00409Y02044*
X00409Y02044*
X00409Y02045*
X00409Y02047*
X00408Y02048*
X00408Y02049*
X00408Y02049*
X00407Y02049*
X00407Y0205*
X00407Y0205*
X00407Y0205*
X00406Y02051*
X00406Y02051*
X00406Y02051*
X00406Y02051*
X00406Y02051*
X00405Y02052*
X00405Y02052*
X00404Y02053*
X00403Y02053*
X00402Y02053*
X00401Y02054*
X004Y02054*
X004*
X004Y02054*
X00398*
X00398Y02054*
X00396Y02053*
X00395Y02053*
X00394Y02052*
X00393Y02052*
X00393Y02052*
X00393Y02051*
X00392Y02051*
X00392Y02051*
X00392Y02051*
X00392Y02051*
X00392Y02051*
X00391Y0205*
X00391Y0205*
X00391Y02049*
X0039Y02048*
X0039Y02047*
X0039Y02046*
X0039Y02046*
Y02046*
X00389Y02045*
Y02045*
Y02045*
Y02045*
X0039Y02044*
X0039Y02044*
X0039Y02042*
X0039Y02041*
X00391Y0204*
X00391Y02039*
X00392Y02039*
X00392Y02038*
X00392Y02038*
X00392Y02038*
X00392Y02038*
X00392Y02038*
X00393Y02037*
X00394Y02036*
X00395Y02035*
X00395Y02034*
X00397Y02032*
X00399Y02031*
X004Y0203*
X00401Y02029*
X00402Y02029*
X00402Y02028*
X00403Y02027*
X00403Y02027*
X00403Y02027*
X00404Y02027*
X00405Y02026*
X00405Y02025*
X00406Y02025*
X00407Y02024*
X00408Y02023*
X00408Y02023*
X00409Y02022*
X0041Y02021*
X0041Y02021*
X0041Y0202*
X00411Y0202*
X00411Y0202*
X00411Y0202*
X00412Y02019*
X00412Y02019*
X00412Y02019*
X00413Y02018*
X00413Y02017*
X00414Y02016*
X00415Y02015*
X00415Y02014*
X00415Y02013*
X00416Y02013*
X00416Y02013*
X00416Y02013*
X00416Y02013*
Y02013*
X00416Y02012*
X00416Y02011*
X00416Y0201*
X00416Y0201*
X00416Y02009*
Y02009*
Y02008*
Y02008*
X00383*
Y02014*
X00408*
X00407Y02015*
X00407Y02016*
X00406Y02016*
X00406Y02017*
X00406Y02017*
X00405Y02017*
X00405Y02017*
X00405Y02018*
X00404Y02018*
X00404Y02019*
X00403Y02019*
X00402Y0202*
X00401Y02021*
X004Y02022*
X00399Y02023*
X00399Y02023*
X00399Y02023*
X00398Y02024*
X00398Y02024*
X00398Y02024*
X00397Y02025*
X00396Y02026*
X00395Y02027*
X00394Y02028*
X00393Y02028*
X00392Y02029*
X00391Y0203*
X00391Y0203*
X0039Y02031*
X0039Y02031*
X00389Y02032*
X00389Y02032*
X00389Y02032*
X00389Y02033*
X00389Y02033*
X00389Y02033*
X00387Y02034*
X00387Y02035*
X00386Y02036*
X00385Y02037*
X00385Y02038*
X00385Y02038*
X00384Y02039*
X00384Y02039*
X00384Y02039*
Y02039*
X00384Y0204*
X00384Y02041*
X00383Y02042*
X00383Y02043*
X00383Y02044*
X00383Y02044*
Y02045*
Y02045*
Y02045*
Y02045*
X00383Y02046*
X00383Y02047*
X00384Y02048*
X00384Y02049*
X00384Y0205*
X00384Y02051*
X00385Y02051*
X00385Y02052*
X00386Y02053*
X00386Y02053*
X00386Y02054*
X00387Y02054*
X00387Y02054*
X00387Y02055*
X00387Y02055*
X00387Y02055*
X00388Y02055*
X00389Y02056*
X0039Y02057*
X00391Y02057*
X00392Y02057*
X00393Y02058*
X00394Y02058*
X00395Y02058*
X00396Y02058*
X00396Y02059*
X00397Y02059*
X00398Y02059*
X00398Y02059*
X00399*
X004Y02059*
G37*
G36*
X00322D02*
X00323Y02059D01*
X00324Y02058*
X00325Y02058*
X00326Y02058*
X00327Y02058*
X00328Y02057*
X00329Y02057*
X0033Y02057*
X0033Y02056*
X00331Y02056*
X00331Y02056*
X00332Y02055*
X00332Y02055*
X00332Y02055*
X00332Y02055*
X00333Y02054*
X00333Y02054*
X00334Y02053*
X00335Y02052*
X00335Y02051*
X00336Y0205*
X00336Y02049*
X00336Y02048*
X00336Y02047*
X00337Y02047*
X00337Y02046*
X00337Y02045*
X00337Y02045*
X00337Y02045*
X00337Y02044*
Y02044*
X00331Y02044*
X00331Y02044*
X00331Y02045*
X0033Y02047*
X0033Y02048*
X0033Y02049*
X00329Y02049*
X00329Y02049*
X00329Y0205*
X00329Y0205*
X00328Y0205*
X00328Y02051*
X00328Y02051*
X00328Y02051*
X00328Y02051*
X00327Y02051*
X00327Y02052*
X00326Y02052*
X00326Y02053*
X00324Y02053*
X00323Y02053*
X00322Y02054*
X00322Y02054*
X00322*
X00321Y02054*
X0032*
X00319Y02054*
X00318Y02053*
X00317Y02053*
X00316Y02052*
X00315Y02052*
X00315Y02052*
X00314Y02051*
X00314Y02051*
X00314Y02051*
X00314Y02051*
X00314Y02051*
X00313Y02051*
X00313Y0205*
X00313Y0205*
X00312Y02049*
X00312Y02048*
X00311Y02047*
X00311Y02046*
X00311Y02046*
Y02046*
X00311Y02045*
Y02045*
Y02045*
Y02045*
X00311Y02044*
X00311Y02044*
X00312Y02042*
X00312Y02041*
X00313Y0204*
X00313Y02039*
X00313Y02039*
X00314Y02038*
X00314Y02038*
X00314Y02038*
X00314Y02038*
X00314Y02038*
X00315Y02037*
X00315Y02036*
X00316Y02035*
X00317Y02034*
X00319Y02032*
X00321Y02031*
X00322Y0203*
X00323Y02029*
X00323Y02029*
X00324Y02028*
X00324Y02027*
X00325Y02027*
X00325Y02027*
X00325Y02027*
X00326Y02026*
X00327Y02025*
X00328Y02025*
X00329Y02024*
X0033Y02023*
X0033Y02023*
X00331Y02022*
X00331Y02021*
X00332Y02021*
X00332Y0202*
X00333Y0202*
X00333Y0202*
X00333Y0202*
X00333Y02019*
X00333Y02019*
X00333Y02019*
X00334Y02018*
X00335Y02017*
X00336Y02016*
X00336Y02015*
X00337Y02014*
X00337Y02013*
X00337Y02013*
X00337Y02013*
X00337Y02013*
X00337Y02013*
Y02013*
X00338Y02012*
X00338Y02011*
X00338Y0201*
X00338Y0201*
X00338Y02009*
Y02009*
Y02008*
Y02008*
X00305*
Y02014*
X0033*
X00329Y02015*
X00328Y02016*
X00328Y02016*
X00327Y02017*
X00327Y02017*
X00327Y02017*
X00327Y02017*
X00327Y02018*
X00326Y02018*
X00326Y02019*
X00325Y02019*
X00324Y0202*
X00323Y02021*
X00322Y02022*
X00321Y02023*
X00321Y02023*
X0032Y02023*
X0032Y02024*
X0032Y02024*
X0032Y02024*
X00319Y02025*
X00317Y02026*
X00316Y02027*
X00315Y02028*
X00315Y02028*
X00314Y02029*
X00313Y0203*
X00312Y0203*
X00312Y02031*
X00311Y02031*
X00311Y02032*
X00311Y02032*
X00311Y02032*
X0031Y02033*
X0031Y02033*
X0031Y02033*
X00309Y02034*
X00308Y02035*
X00308Y02036*
X00307Y02037*
X00307Y02038*
X00306Y02038*
X00306Y02039*
X00306Y02039*
X00306Y02039*
Y02039*
X00306Y0204*
X00305Y02041*
X00305Y02042*
X00305Y02043*
X00305Y02044*
X00305Y02044*
Y02045*
Y02045*
Y02045*
Y02045*
X00305Y02046*
X00305Y02047*
X00305Y02048*
X00305Y02049*
X00306Y0205*
X00306Y02051*
X00307Y02051*
X00307Y02052*
X00307Y02053*
X00308Y02053*
X00308Y02054*
X00308Y02054*
X00309Y02054*
X00309Y02055*
X00309Y02055*
X00309Y02055*
X0031Y02055*
X00311Y02056*
X00312Y02057*
X00313Y02057*
X00314Y02057*
X00315Y02058*
X00316Y02058*
X00316Y02058*
X00317Y02058*
X00318Y02059*
X00319Y02059*
X00319Y02059*
X0032Y02059*
X00321*
X00322Y02059*
G37*
G36*
X00476Y02026D02*
Y0202D01*
X00454*
Y02008*
X00448*
Y0202*
X00441*
Y02026*
X00448*
Y02059*
X00453*
X00476Y02026*
G37*
G36*
X00432Y02008D02*
X00425D01*
Y02015*
X00432*
Y02008*
G37*
G36*
X00498Y02059D02*
X00499Y02059D01*
X005Y02059*
X00501Y02058*
X00502Y02058*
X00502Y02058*
X00503Y02058*
X00504Y02057*
X00504Y02057*
X00505Y02057*
X00505Y02057*
X00505Y02056*
X00506Y02056*
X00506Y02056*
X00506Y02056*
X00506Y02056*
X00507Y02055*
X00507Y02055*
X00508Y02053*
X00509Y02052*
X0051Y02051*
X00511Y0205*
X00511Y02049*
X00511Y02049*
X00511Y02048*
X00511Y02048*
X00511Y02048*
X00512Y02048*
Y02047*
X00512Y02046*
X00512Y02045*
X00513Y02043*
X00513Y02041*
X00513Y02039*
X00513Y02038*
X00513Y02037*
X00513Y02036*
X00513Y02035*
Y02035*
X00513Y02034*
Y02033*
Y02033*
Y02033*
X00513Y02031*
X00513Y02028*
X00513Y02026*
X00513Y02024*
X00512Y02022*
X00512Y0202*
X00511Y02019*
X00511Y02018*
X0051Y02016*
X0051Y02015*
X0051Y02015*
X00509Y02014*
X00509Y02013*
X00509Y02013*
X00508Y02013*
X00508Y02013*
X00508Y02012*
X00507Y02011*
X00506Y0201*
X00505Y0201*
X00504Y02009*
X00503Y02009*
X00502Y02008*
X00501Y02008*
X005Y02008*
X005Y02008*
X00499Y02008*
X00498Y02008*
X00498Y02007*
X00497Y02007*
X00497*
X00496Y02007*
X00495Y02008*
X00494Y02008*
X00493Y02008*
X00492Y02008*
X00492Y02008*
X00491Y02009*
X0049Y02009*
X0049Y02009*
X00489Y02009*
X00489Y0201*
X00489Y0201*
X00488Y0201*
X00488Y0201*
X00488Y0201*
X00488Y0201*
X00487Y02011*
X00487Y02012*
X00485Y02013*
X00485Y02014*
X00484Y02016*
X00483Y02016*
X00483Y02017*
X00483Y02017*
X00483Y02018*
X00483Y02018*
X00483Y02019*
X00482Y02019*
Y02019*
X00482Y0202*
X00482Y02021*
X00481Y02023*
X00481Y02026*
X00481Y02027*
X00481Y02028*
X00481Y02029*
X00481Y0203*
X00481Y02031*
X00481Y02032*
Y02032*
Y02033*
Y02033*
Y02033*
Y02034*
X00481Y02036*
X00481Y02037*
X00481Y02038*
X00481Y02039*
X00481Y0204*
X00481Y02041*
X00481Y02042*
X00481Y02043*
X00481Y02043*
X00481Y02044*
X00482Y02044*
X00482Y02045*
X00482Y02045*
X00482Y02045*
Y02045*
X00482Y02047*
X00483Y02048*
X00483Y02049*
X00484Y0205*
X00484Y02051*
X00484Y02051*
X00484Y02052*
X00485Y02052*
X00485Y02052*
X00485Y02052*
X00485Y02052*
Y02052*
X00486Y02054*
X00486Y02054*
X00487Y02055*
X00488Y02056*
X00489Y02057*
X00489Y02057*
X0049Y02057*
X0049Y02057*
X0049Y02057*
X0049*
X00491Y02058*
X00492Y02058*
X00494Y02058*
X00495Y02059*
X00496Y02059*
X00496Y02059*
X00496Y02059*
X00497*
X00498Y02059*
G37*
G36*
X00361D02*
X00362Y02059D01*
X00363Y02059*
X00364Y02058*
X00365Y02058*
X00365Y02058*
X00366Y02058*
X00367Y02057*
X00367Y02057*
X00368Y02057*
X00368Y02057*
X00368Y02056*
X00369Y02056*
X00369Y02056*
X00369Y02056*
X00369Y02056*
X0037Y02055*
X0037Y02055*
X00371Y02053*
X00372Y02052*
X00373Y02051*
X00374Y0205*
X00374Y02049*
X00374Y02049*
X00374Y02048*
X00374Y02048*
X00374Y02048*
X00375Y02048*
Y02047*
X00375Y02046*
X00375Y02045*
X00376Y02043*
X00376Y02041*
X00376Y02039*
X00376Y02038*
X00376Y02037*
X00376Y02036*
X00376Y02035*
Y02035*
X00376Y02034*
Y02033*
Y02033*
Y02033*
X00376Y02031*
X00376Y02028*
X00376Y02026*
X00376Y02024*
X00375Y02022*
X00375Y0202*
X00374Y02019*
X00374Y02018*
X00373Y02016*
X00373Y02015*
X00373Y02015*
X00372Y02014*
X00372Y02013*
X00372Y02013*
X00371Y02013*
X00371Y02013*
X00371Y02012*
X0037Y02011*
X00369Y0201*
X00368Y0201*
X00367Y02009*
X00366Y02009*
X00365Y02008*
X00364Y02008*
X00363Y02008*
X00363Y02008*
X00362Y02008*
X00361Y02008*
X00361Y02007*
X0036Y02007*
X0036*
X00359Y02007*
X00358Y02008*
X00357Y02008*
X00356Y02008*
X00355Y02008*
X00355Y02008*
X00354Y02009*
X00353Y02009*
X00353Y02009*
X00352Y02009*
X00352Y0201*
X00352Y0201*
X00351Y0201*
X00351Y0201*
X00351Y0201*
X00351Y0201*
X0035Y02011*
X0035Y02012*
X00349Y02013*
X00348Y02014*
X00347Y02016*
X00346Y02016*
X00346Y02017*
X00346Y02017*
X00346Y02018*
X00346Y02018*
X00346Y02019*
X00345Y02019*
Y02019*
X00345Y0202*
X00345Y02021*
X00344Y02023*
X00344Y02026*
X00344Y02027*
X00344Y02028*
X00344Y02029*
X00344Y0203*
X00344Y02031*
X00344Y02032*
Y02032*
Y02033*
Y02033*
Y02033*
Y02034*
X00344Y02036*
X00344Y02037*
X00344Y02038*
X00344Y02039*
X00344Y0204*
X00344Y02041*
X00344Y02042*
X00344Y02043*
X00344Y02043*
X00344Y02044*
X00345Y02044*
X00345Y02045*
X00345Y02045*
X00345Y02045*
Y02045*
X00345Y02047*
X00346Y02048*
X00346Y02049*
X00347Y0205*
X00347Y02051*
X00347Y02051*
X00347Y02052*
X00348Y02052*
X00348Y02052*
X00348Y02052*
X00348Y02052*
Y02052*
X00349Y02054*
X00349Y02054*
X0035Y02055*
X00351Y02056*
X00352Y02057*
X00352Y02057*
X00353Y02057*
X00353Y02057*
X00353Y02057*
X00353*
X00354Y02058*
X00355Y02058*
X00357Y02058*
X00358Y02059*
X00359Y02059*
X00359Y02059*
X00359Y02059*
X0036*
X00361Y02059*
G37*
G36*
X00544Y02087D02*
X00537D01*
Y02111*
X00511*
Y02087*
X00504*
Y02138*
X00511*
Y02117*
X00537*
Y02138*
X00544*
Y02087*
G37*
G36*
X00412Y02109D02*
Y02087D01*
X00406*
Y02109*
X00386Y02138*
X00393*
X00403Y02123*
X00404Y02121*
X00405Y02119*
X00406Y02118*
X00407Y02117*
X00407Y02117*
X00408Y02116*
X00408Y02115*
X00408Y02115*
X00408Y02115*
X00409Y02114*
X00409Y02114*
X00409Y02114*
X00409Y02114*
X0041Y02116*
X00411Y02117*
X00411Y02118*
X00412Y0212*
X00413Y0212*
X00413Y02121*
X00413Y02121*
X00413Y02122*
X00414Y02122*
X00414Y02122*
X00414Y02122*
X00414Y02122*
X00424Y02138*
X00432*
X00412Y02109*
G37*
G36*
X00576Y02138D02*
X00576Y02138D01*
X00577Y02138*
X00578Y02138*
X00579Y02138*
X0058Y02137*
X0058Y02137*
X00581Y02137*
X00582Y02136*
X00582Y02136*
X00583Y02136*
X00583Y02136*
X00583Y02135*
X00583Y02135*
X00583Y02135*
X00584Y02135*
X00584Y02134*
X00585Y02134*
X00585Y02133*
X00586Y02132*
X00586Y02132*
X00586Y02131*
X00587Y0213*
X00587Y02129*
X00587Y02129*
X00587Y02128*
X00587Y02128*
X00587Y02128*
Y02127*
Y02127*
Y02127*
X00587Y02126*
X00587Y02126*
X00587Y02125*
X00586Y02124*
X00586Y02123*
X00586Y02123*
X00586Y02123*
X00586Y02123*
Y02122*
X00585Y02121*
X00585Y0212*
X00584Y02119*
X00583Y02118*
X00583Y02118*
X00582Y02117*
X00582Y02117*
X00582Y02117*
X00582Y02116*
X00581Y02116*
X00581Y02116*
X00582Y02116*
X00583Y02115*
X00584Y02115*
X00585Y02114*
X00586Y02113*
X00587Y02113*
X00588Y02112*
X00588Y02112*
X00589Y02111*
X00589Y02111*
X00589Y02111*
X0059Y0211*
X0059Y0211*
X0059Y0211*
X0059Y0211*
X0059Y0211*
X00591Y02109*
X00591Y02108*
X00592Y02107*
X00592Y02107*
X00593Y02105*
X00593Y02104*
X00593Y02103*
X00593Y02103*
X00593Y02102*
X00593Y02102*
X00593Y02102*
Y02101*
Y02101*
Y02101*
X00593Y021*
X00593Y02099*
X00593Y02098*
X00593Y02097*
X00592Y02096*
X00592Y02095*
X00592Y02094*
X00591Y02094*
X00591Y02093*
X00591Y02093*
X0059Y02092*
X0059Y02092*
X0059Y02092*
X0059Y02092*
X0059Y02092*
X00589Y02091*
X00588Y0209*
X00587Y02089*
X00586Y02089*
X00585Y02088*
X00584Y02088*
X00583Y02087*
X00582Y02087*
X00581Y02087*
X0058Y02087*
X00579Y02087*
X00579Y02087*
X00578Y02086*
X00578Y02086*
X00577*
X00576Y02086*
X00574Y02087*
X00573Y02087*
X00572Y02087*
X00571Y02087*
X00571Y02088*
X00571Y02088*
X0057Y02088*
X0057Y02088*
X0057Y02088*
X0057Y02088*
X0057*
X00568Y02089*
X00567Y0209*
X00566Y0209*
X00565Y02091*
X00564Y02092*
X00564Y02092*
X00564Y02093*
X00563Y02093*
X00563Y02093*
X00563Y02093*
X00563Y02093*
X00562Y02092*
X00561Y02092*
X00561Y02091*
X0056Y0209*
X00559Y02089*
X00559Y02089*
X00558Y02088*
X00558Y02088*
X00557Y02087*
X00557Y02087*
X00556Y02087*
X00556Y02087*
X00556Y02086*
X00555Y02086*
X00555Y02086*
X00555Y02086*
X00551Y02091*
X00553Y02092*
X00554Y02094*
X00555Y02095*
X00557Y02096*
X00557Y02097*
X00558Y02097*
X00558Y02098*
X00558Y02098*
X00559Y02098*
X00559Y02099*
X00559Y02099*
X00559Y02099*
X00558Y021*
X00558Y021*
X00557Y02102*
X00556Y02104*
X00556Y02106*
X00555Y02107*
X00555Y02107*
X00555Y02108*
X00555Y02109*
X00555Y02109*
X00554Y02109*
X00554Y0211*
Y0211*
X00561Y02111*
X00561Y0211*
X00562Y02108*
X00562Y02107*
X00562Y02106*
X00563Y02105*
X00563Y02105*
X00563Y02104*
X00563Y02104*
X00563Y02104*
X00563Y02104*
Y02104*
X00572Y02115*
X00572Y02116*
X00571Y02116*
X00569Y02117*
X00568Y02118*
X00567Y02119*
X00566Y02121*
X00565Y02122*
X00564Y02123*
X00564Y02123*
X00564Y02124*
X00563Y02125*
X00563Y02126*
X00563Y02126*
X00563Y02127*
X00563Y02127*
Y02128*
Y02128*
X00563Y02128*
X00563Y02129*
X00563Y0213*
X00563Y02131*
X00564Y02132*
X00564Y02133*
X00565Y02134*
X00565Y02134*
X00565Y02134*
X00566Y02135*
X00566Y02135*
X00566Y02135*
X00566Y02135*
X00566Y02135*
X00567Y02136*
X00567Y02136*
X00568Y02137*
X00569Y02137*
X0057Y02137*
X0057Y02138*
X00572Y02138*
X00572Y02138*
X00573Y02138*
X00573Y02138*
X00574Y02138*
X00574Y02138*
X00575*
X00576Y02138*
G37*
G36*
X00243Y02087D02*
X00237D01*
Y0213*
X00222Y02087*
X00216*
X00201Y02129*
Y02087*
X00195*
Y02138*
X00204*
X00216Y02103*
X00216Y02102*
X00217Y02101*
X00217Y021*
X00217Y02099*
X00217Y02098*
X00218Y02098*
X00218Y02097*
X00218Y02097*
X00218Y02096*
X00218Y02096*
X00218Y02095*
X00219Y02095*
X00219Y02095*
X00219Y02095*
X00219Y02095*
Y02095*
X00219Y02095*
X00219Y02096*
X00219Y02097*
X0022Y02098*
X0022Y02099*
X00221Y021*
X00221Y02101*
X00221Y02101*
X00221Y02101*
X00221Y02102*
X00221Y02102*
Y02102*
X00233Y02138*
X00243*
Y02087*
G37*
G36*
X00337Y02132D02*
X0032D01*
Y02087*
X00313*
Y02132*
X00297*
Y02138*
X00337*
Y02132*
G37*
G36*
X0029Y02087D02*
X00252D01*
Y02093*
X00283*
Y0211*
X00255*
Y02116*
X00283*
Y02132*
X00253*
Y02138*
X0029*
Y02087*
G37*
G36*
X00622Y02138D02*
X00624Y02138D01*
X00626Y02138*
X00626Y02138*
X00627Y02138*
X00628Y02137*
X00628Y02137*
X00629Y02137*
X00629Y02137*
X00629Y02137*
X0063Y02137*
X0063Y02137*
X0063*
X00631Y02136*
X00632Y02135*
X00634Y02134*
X00634Y02134*
X00635Y02133*
X00636Y02132*
X00636Y02132*
X00636Y02132*
X00636Y02132*
Y02132*
X00637Y0213*
X00637Y02129*
X00638Y02128*
X00638Y02127*
X00638Y02126*
X00638Y02126*
Y02125*
X00638Y02125*
Y02125*
Y02125*
Y02125*
X00638Y02123*
X00638Y02122*
X00638Y02121*
X00637Y0212*
X00637Y02119*
X00637Y02119*
X00637Y02119*
X00637Y02118*
X00636Y02118*
Y02118*
X00636Y02117*
X00635Y02116*
X00634Y02116*
X00633Y02115*
X00632Y02114*
X00632Y02114*
X00631Y02114*
X00631Y02114*
X00631Y02114*
X00631*
X0063Y02113*
X0063Y02113*
X00629Y02113*
X00628Y02113*
X00627Y02112*
X00625Y02112*
X00624Y02111*
X00624Y02111*
X00623Y02111*
X00622Y02111*
X00622Y02111*
X00622Y02111*
X00621Y0211*
X00621*
X0062Y0211*
X00619Y0211*
X00618Y0211*
X00617Y02109*
X00616Y02109*
X00615Y02109*
X00615Y02109*
X00614Y02109*
X00614Y02109*
X00613Y02108*
X00613Y02108*
X00613Y02108*
X00613Y02108*
X00613Y02108*
X00612Y02108*
X00611Y02108*
X0061Y02107*
X0061Y02107*
X00609Y02106*
X00608Y02106*
X00608Y02105*
X00608Y02105*
X00608Y02105*
X00607Y02104*
X00607Y02104*
X00607Y02103*
X00607Y02102*
X00607Y02102*
X00606Y02101*
Y02101*
Y02101*
Y02101*
X00607Y021*
X00607Y02099*
X00607Y02099*
X00607Y02098*
X00607Y02097*
X00608Y02097*
X00608Y02097*
X00608Y02097*
X00609Y02096*
X00609Y02095*
X0061Y02095*
X00611Y02094*
X00611Y02094*
X00612Y02094*
X00612Y02094*
X00612Y02094*
X00612Y02093*
X00612*
X00613Y02093*
X00615Y02093*
X00616Y02093*
X00617Y02093*
X00618Y02092*
X00618*
X00618Y02092*
X00619*
X00621Y02092*
X00622Y02093*
X00623Y02093*
X00624Y02093*
X00625Y02093*
X00625Y02093*
X00626Y02094*
X00626Y02094*
X00626Y02094*
X00627Y02094*
X00627Y02094*
X00627*
X00628Y02094*
X00629Y02095*
X0063Y02096*
X00631Y02096*
X00631Y02097*
X00631Y02097*
X00632Y02098*
X00632Y02098*
X00632Y02099*
X00633Y021*
X00633Y02101*
X00633Y02102*
X00634Y02103*
X00634Y02103*
X00634Y02103*
X00634Y02104*
X00634Y02104*
Y02104*
Y02104*
X0064Y02103*
X0064Y02103*
X0064Y02102*
X0064Y021*
X00639Y02098*
X00639Y02098*
X00639Y02097*
X00638Y02096*
X00638Y02096*
X00638Y02095*
X00638Y02095*
X00638Y02095*
X00637Y02095*
X00637Y02094*
X00637Y02094*
X00636Y02093*
X00635Y02092*
X00634Y02091*
X00633Y0209*
X00632Y02089*
X00631Y02089*
X00631Y02089*
X00631Y02089*
X0063Y02089*
X0063Y02088*
X0063*
X00628Y02088*
X00626Y02087*
X00624Y02087*
X00623Y02087*
X00622Y02087*
X00621Y02087*
X0062Y02086*
X0062*
X00619Y02086*
X00619*
X00617Y02087*
X00615Y02087*
X00613Y02087*
X00612Y02087*
X00612Y02087*
X00611Y02088*
X00611Y02088*
X0061Y02088*
X0061Y02088*
X00609Y02088*
X00609Y02088*
X00609Y02088*
X00609*
X00607Y02089*
X00606Y0209*
X00605Y02091*
X00604Y02092*
X00603Y02093*
X00603Y02093*
X00603Y02094*
X00602Y02094*
X00602Y02094*
Y02094*
X00602Y02095*
X00602Y02095*
X00601Y02097*
X00601Y02098*
X006Y02099*
X006Y021*
X006Y021*
Y02101*
X006Y02101*
Y02101*
Y02101*
Y02101*
X006Y02103*
X006Y02104*
X00601Y02105*
X00601Y02107*
X00602Y02107*
X00602Y02108*
X00602Y02108*
X00602Y02108*
X00602Y02108*
X00602Y02109*
Y02109*
X00603Y02109*
X00603Y0211*
X00604Y02111*
X00605Y02112*
X00606Y02112*
X00607Y02113*
X00608Y02113*
X00608Y02113*
X00608Y02114*
X00608Y02114*
X00609Y02114*
X00609*
X00609Y02114*
X0061Y02114*
X00611Y02115*
X00612Y02115*
X00614Y02115*
X00615Y02116*
X00616Y02116*
X00617Y02116*
X00618Y02116*
X00618Y02117*
X00619Y02117*
X00619Y02117*
X0062Y02117*
X0062*
X00621Y02117*
X00623Y02118*
X00624Y02118*
X00625Y02118*
X00626Y02119*
X00627Y02119*
X00627Y02119*
X00628Y02119*
X00628Y0212*
X00629Y0212*
X00629Y0212*
X00629Y0212*
X0063Y0212*
X0063Y02121*
X0063Y02121*
X0063Y02121*
X00631Y02122*
X00631Y02123*
X00632Y02123*
X00632Y02124*
X00632Y02125*
X00632Y02125*
Y02125*
Y02125*
X00632Y02126*
X00632Y02126*
X00631Y02127*
X00631Y02128*
X0063Y02129*
X0063Y02129*
X00629Y0213*
X00629Y0213*
X00629Y0213*
X00629*
X00628Y02131*
X00628Y02131*
X00626Y02132*
X00625Y02132*
X00624Y02132*
X00623Y02132*
X00622Y02132*
X00622Y02133*
X00621*
X00621Y02133*
X00619*
X00618Y02132*
X00617Y02132*
X00616Y02132*
X00616Y02132*
X00615Y02132*
X00614Y02132*
X00614Y02131*
X00613Y02131*
X00613Y02131*
X00612Y02131*
X00612Y02131*
X00612Y0213*
X00612Y0213*
X00612Y0213*
X00611Y0213*
X00611Y0213*
X0061Y02129*
X0061Y02128*
X00609Y02127*
X00609Y02126*
X00608Y02125*
X00608Y02124*
X00608Y02124*
X00608Y02123*
Y02123*
X00608Y02123*
Y02123*
X00602Y02123*
X00602Y02125*
X00602Y02127*
X00602Y02128*
X00603Y02129*
X00603Y0213*
X00603Y0213*
X00604Y0213*
X00604Y02131*
X00604Y02131*
X00604Y02131*
X00604Y02131*
X00604Y02131*
X00605Y02133*
X00606Y02134*
X00607Y02135*
X00608Y02135*
X00609Y02136*
X0061Y02136*
X0061Y02136*
X0061Y02137*
X0061Y02137*
X00611Y02137*
X00611*
X00612Y02137*
X00614Y02138*
X00616Y02138*
X00617Y02138*
X00618Y02138*
X00618Y02138*
X00619Y02138*
X0062Y02139*
X00621*
X00622Y02138*
G37*
G36*
X00458D02*
X0046Y02138D01*
X00461Y02138*
X00462Y02138*
X00463Y02138*
X00463Y02137*
X00464Y02137*
X00464Y02137*
X00465Y02137*
X00465Y02137*
X00465Y02137*
X00465Y02137*
X00465*
X00467Y02136*
X00468Y02135*
X00469Y02134*
X0047Y02134*
X00471Y02133*
X00471Y02132*
X00472Y02132*
X00472Y02132*
X00472Y02132*
Y02132*
X00472Y0213*
X00473Y02129*
X00473Y02128*
X00474Y02127*
X00474Y02126*
X00474Y02126*
Y02125*
X00474Y02125*
Y02125*
Y02125*
Y02125*
X00474Y02123*
X00474Y02122*
X00473Y02121*
X00473Y0212*
X00473Y02119*
X00472Y02119*
X00472Y02119*
X00472Y02118*
X00472Y02118*
Y02118*
X00471Y02117*
X00471Y02116*
X0047Y02116*
X00469Y02115*
X00468Y02114*
X00467Y02114*
X00467Y02114*
X00467Y02114*
X00467Y02114*
X00467*
X00466Y02113*
X00466Y02113*
X00465Y02113*
X00464Y02113*
X00462Y02112*
X00461Y02112*
X0046Y02111*
X00459Y02111*
X00459Y02111*
X00458Y02111*
X00458Y02111*
X00457Y02111*
X00457Y0211*
X00457*
X00456Y0211*
X00455Y0211*
X00454Y0211*
X00453Y02109*
X00452Y02109*
X00451Y02109*
X00451Y02109*
X0045Y02109*
X0045Y02109*
X00449Y02108*
X00449Y02108*
X00449Y02108*
X00448Y02108*
X00448Y02108*
X00448Y02108*
X00447Y02108*
X00446Y02107*
X00445Y02107*
X00445Y02106*
X00444Y02106*
X00444Y02105*
X00444Y02105*
X00444Y02105*
X00443Y02104*
X00443Y02104*
X00443Y02103*
X00442Y02102*
X00442Y02102*
X00442Y02101*
Y02101*
Y02101*
Y02101*
X00442Y021*
X00442Y02099*
X00443Y02099*
X00443Y02098*
X00443Y02097*
X00443Y02097*
X00444Y02097*
X00444Y02097*
X00444Y02096*
X00445Y02095*
X00446Y02095*
X00446Y02094*
X00447Y02094*
X00448Y02094*
X00448Y02094*
X00448Y02094*
X00448Y02093*
X00448*
X00449Y02093*
X0045Y02093*
X00451Y02093*
X00452Y02093*
X00453Y02092*
X00454*
X00454Y02092*
X00455*
X00456Y02092*
X00458Y02093*
X00459Y02093*
X0046Y02093*
X00461Y02093*
X00461Y02093*
X00462Y02094*
X00462Y02094*
X00462Y02094*
X00462Y02094*
X00462Y02094*
X00462*
X00464Y02094*
X00465Y02095*
X00466Y02096*
X00466Y02096*
X00467Y02097*
X00467Y02097*
X00467Y02098*
X00468Y02098*
X00468Y02099*
X00468Y021*
X00469Y02101*
X00469Y02102*
X00469Y02103*
X00469Y02103*
X00469Y02103*
X00469Y02104*
X0047Y02104*
Y02104*
Y02104*
X00476Y02103*
X00476Y02103*
X00476Y02102*
X00475Y021*
X00475Y02098*
X00475Y02098*
X00474Y02097*
X00474Y02096*
X00474Y02096*
X00474Y02095*
X00473Y02095*
X00473Y02095*
X00473Y02095*
X00473Y02094*
X00473Y02094*
X00472Y02093*
X00471Y02092*
X0047Y02091*
X00468Y0209*
X00467Y02089*
X00467Y02089*
X00467Y02089*
X00466Y02089*
X00466Y02089*
X00466Y02088*
X00466*
X00464Y02088*
X00462Y02087*
X0046Y02087*
X00458Y02087*
X00458Y02087*
X00457Y02087*
X00456Y02086*
X00456*
X00455Y02086*
X00454*
X00452Y02087*
X00451Y02087*
X00449Y02087*
X00448Y02087*
X00448Y02087*
X00447Y02088*
X00446Y02088*
X00446Y02088*
X00445Y02088*
X00445Y02088*
X00445Y02088*
X00445Y02088*
X00445*
X00443Y02089*
X00442Y0209*
X00441Y02091*
X0044Y02092*
X00439Y02093*
X00439Y02093*
X00438Y02094*
X00438Y02094*
X00438Y02094*
Y02094*
X00438Y02095*
X00437Y02095*
X00437Y02097*
X00436Y02098*
X00436Y02099*
X00436Y021*
X00436Y021*
Y02101*
X00436Y02101*
Y02101*
Y02101*
Y02101*
X00436Y02103*
X00436Y02104*
X00436Y02105*
X00437Y02107*
X00437Y02107*
X00437Y02108*
X00438Y02108*
X00438Y02108*
X00438Y02108*
X00438Y02109*
Y02109*
X00438Y02109*
X00439Y0211*
X0044Y02111*
X00441Y02112*
X00442Y02112*
X00443Y02113*
X00443Y02113*
X00444Y02113*
X00444Y02114*
X00444Y02114*
X00444Y02114*
X00444*
X00445Y02114*
X00446Y02114*
X00446Y02115*
X00447Y02115*
X00449Y02115*
X00451Y02116*
X00452Y02116*
X00453Y02116*
X00454Y02116*
X00454Y02117*
X00455Y02117*
X00455Y02117*
X00455Y02117*
X00456*
X00457Y02117*
X00458Y02118*
X00459Y02118*
X00461Y02118*
X00461Y02119*
X00462Y02119*
X00463Y02119*
X00464Y02119*
X00464Y0212*
X00465Y0212*
X00465Y0212*
X00465Y0212*
X00465Y0212*
X00465Y02121*
X00466Y02121*
X00466Y02121*
X00467Y02122*
X00467Y02123*
X00467Y02123*
X00467Y02124*
X00467Y02125*
X00467Y02125*
Y02125*
Y02125*
X00467Y02126*
X00467Y02126*
X00467Y02127*
X00467Y02128*
X00466Y02129*
X00466Y02129*
X00465Y0213*
X00465Y0213*
X00465Y0213*
X00465*
X00464Y02131*
X00464Y02131*
X00462Y02132*
X00461Y02132*
X00459Y02132*
X00459Y02132*
X00458Y02132*
X00457Y02133*
X00457*
X00456Y02133*
X00455*
X00454Y02132*
X00453Y02132*
X00452Y02132*
X00451Y02132*
X00451Y02132*
X0045Y02132*
X00449Y02131*
X00449Y02131*
X00448Y02131*
X00448Y02131*
X00448Y02131*
X00448Y0213*
X00447Y0213*
X00447Y0213*
X00447Y0213*
X00447Y0213*
X00446Y02129*
X00445Y02128*
X00445Y02127*
X00444Y02126*
X00444Y02125*
X00444Y02124*
X00444Y02124*
X00444Y02123*
Y02123*
X00444Y02123*
Y02123*
X00437Y02123*
X00437Y02125*
X00438Y02127*
X00438Y02128*
X00439Y02129*
X00439Y0213*
X00439Y0213*
X00439Y0213*
X00439Y02131*
X0044Y02131*
X0044Y02131*
X0044Y02131*
X0044Y02131*
X00441Y02133*
X00442Y02134*
X00443Y02135*
X00444Y02135*
X00445Y02136*
X00445Y02136*
X00446Y02136*
X00446Y02137*
X00446Y02137*
X00446Y02137*
X00446*
X00448Y02137*
X0045Y02138*
X00451Y02138*
X00453Y02138*
X00454Y02138*
X00454Y02138*
X00455Y02138*
X00455Y02139*
X00456*
X00458Y02138*
G37*
G36*
X00364D02*
X00366Y02138D01*
X00367Y02138*
X00368Y02138*
X00369Y02138*
X00369Y02137*
X0037Y02137*
X0037Y02137*
X00371Y02137*
X00371Y02137*
X00371Y02137*
X00371Y02137*
X00372*
X00373Y02136*
X00374Y02135*
X00375Y02134*
X00376Y02134*
X00377Y02133*
X00377Y02132*
X00378Y02132*
X00378Y02132*
X00378Y02132*
Y02132*
X00379Y0213*
X00379Y02129*
X00379Y02128*
X0038Y02127*
X0038Y02126*
X0038Y02126*
Y02125*
X0038Y02125*
Y02125*
Y02125*
Y02125*
X0038Y02123*
X0038Y02122*
X00379Y02121*
X00379Y0212*
X00379Y02119*
X00379Y02119*
X00378Y02119*
X00378Y02118*
X00378Y02118*
Y02118*
X00378Y02117*
X00377Y02116*
X00376Y02116*
X00375Y02115*
X00374Y02114*
X00373Y02114*
X00373Y02114*
X00373Y02114*
X00373Y02114*
X00373*
X00372Y02113*
X00372Y02113*
X00371Y02113*
X0037Y02113*
X00369Y02112*
X00367Y02112*
X00366Y02111*
X00366Y02111*
X00365Y02111*
X00364Y02111*
X00364Y02111*
X00363Y02111*
X00363Y0211*
X00363*
X00362Y0211*
X00361Y0211*
X0036Y0211*
X00359Y02109*
X00358Y02109*
X00357Y02109*
X00357Y02109*
X00356Y02109*
X00356Y02109*
X00355Y02108*
X00355Y02108*
X00355Y02108*
X00354Y02108*
X00354Y02108*
X00354Y02108*
X00353Y02108*
X00352Y02107*
X00351Y02107*
X00351Y02106*
X0035Y02106*
X0035Y02105*
X0035Y02105*
X0035Y02105*
X00349Y02104*
X00349Y02104*
X00349Y02103*
X00348Y02102*
X00348Y02102*
X00348Y02101*
Y02101*
Y02101*
Y02101*
X00348Y021*
X00348Y02099*
X00349Y02099*
X00349Y02098*
X00349Y02097*
X0035Y02097*
X0035Y02097*
X0035Y02097*
X0035Y02096*
X00351Y02095*
X00352Y02095*
X00352Y02094*
X00353Y02094*
X00354Y02094*
X00354Y02094*
X00354Y02094*
X00354Y02093*
X00354*
X00355Y02093*
X00356Y02093*
X00357Y02093*
X00359Y02093*
X00359Y02092*
X0036*
X0036Y02092*
X00361*
X00362Y02092*
X00364Y02093*
X00365Y02093*
X00366Y02093*
X00367Y02093*
X00367Y02093*
X00368Y02094*
X00368Y02094*
X00368Y02094*
X00368Y02094*
X00368Y02094*
X00369*
X0037Y02094*
X00371Y02095*
X00372Y02096*
X00372Y02096*
X00373Y02097*
X00373Y02097*
X00374Y02098*
X00374Y02098*
X00374Y02099*
X00375Y021*
X00375Y02101*
X00375Y02102*
X00375Y02103*
X00375Y02103*
X00376Y02103*
X00376Y02104*
X00376Y02104*
Y02104*
Y02104*
X00382Y02103*
X00382Y02103*
X00382Y02102*
X00381Y021*
X00381Y02098*
X00381Y02098*
X0038Y02097*
X0038Y02096*
X0038Y02096*
X0038Y02095*
X0038Y02095*
X00379Y02095*
X00379Y02095*
X00379Y02094*
X00379Y02094*
X00378Y02093*
X00377Y02092*
X00376Y02091*
X00375Y0209*
X00374Y02089*
X00373Y02089*
X00373Y02089*
X00372Y02089*
X00372Y02089*
X00372Y02088*
X00372*
X0037Y02088*
X00368Y02087*
X00366Y02087*
X00364Y02087*
X00364Y02087*
X00363Y02087*
X00362Y02086*
X00362*
X00361Y02086*
X0036*
X00358Y02087*
X00357Y02087*
X00355Y02087*
X00354Y02087*
X00354Y02087*
X00353Y02088*
X00352Y02088*
X00352Y02088*
X00352Y02088*
X00351Y02088*
X00351Y02088*
X00351Y02088*
X00351*
X00349Y02089*
X00348Y0209*
X00347Y02091*
X00346Y02092*
X00345Y02093*
X00345Y02093*
X00344Y02094*
X00344Y02094*
X00344Y02094*
Y02094*
X00344Y02095*
X00343Y02095*
X00343Y02097*
X00342Y02098*
X00342Y02099*
X00342Y021*
X00342Y021*
Y02101*
X00342Y02101*
Y02101*
Y02101*
Y02101*
X00342Y02103*
X00342Y02104*
X00342Y02105*
X00343Y02107*
X00343Y02107*
X00343Y02108*
X00344Y02108*
X00344Y02108*
X00344Y02108*
X00344Y02109*
Y02109*
X00344Y02109*
X00345Y0211*
X00346Y02111*
X00347Y02112*
X00348Y02112*
X00349Y02113*
X00349Y02113*
X0035Y02113*
X0035Y02114*
X0035Y02114*
X0035Y02114*
X0035*
X00351Y02114*
X00352Y02114*
X00353Y02115*
X00353Y02115*
X00355Y02115*
X00357Y02116*
X00358Y02116*
X00359Y02116*
X0036Y02116*
X0036Y02117*
X00361Y02117*
X00361Y02117*
X00361Y02117*
X00362*
X00363Y02117*
X00364Y02118*
X00366Y02118*
X00367Y02118*
X00368Y02119*
X00368Y02119*
X00369Y02119*
X0037Y02119*
X0037Y0212*
X00371Y0212*
X00371Y0212*
X00371Y0212*
X00371Y0212*
X00372Y02121*
X00372Y02121*
X00372Y02121*
X00373Y02122*
X00373Y02123*
X00373Y02123*
X00373Y02124*
X00373Y02125*
X00374Y02125*
Y02125*
Y02125*
X00373Y02126*
X00373Y02126*
X00373Y02127*
X00373Y02128*
X00372Y02129*
X00372Y02129*
X00371Y0213*
X00371Y0213*
X00371Y0213*
X00371*
X0037Y02131*
X0037Y02131*
X00368Y02132*
X00367Y02132*
X00365Y02132*
X00365Y02132*
X00364Y02132*
X00364Y02133*
X00363*
X00363Y02133*
X00361*
X0036Y02132*
X00359Y02132*
X00358Y02132*
X00357Y02132*
X00357Y02132*
X00356Y02132*
X00355Y02131*
X00355Y02131*
X00355Y02131*
X00354Y02131*
X00354Y02131*
X00354Y0213*
X00353Y0213*
X00353Y0213*
X00353Y0213*
X00353Y0213*
X00352Y02129*
X00351Y02128*
X00351Y02127*
X0035Y02126*
X0035Y02125*
X0035Y02124*
X0035Y02124*
X0035Y02123*
Y02123*
X0035Y02123*
Y02123*
X00343Y02123*
X00344Y02125*
X00344Y02127*
X00344Y02128*
X00345Y02129*
X00345Y0213*
X00345Y0213*
X00345Y0213*
X00345Y02131*
X00346Y02131*
X00346Y02131*
X00346Y02131*
X00346Y02131*
X00347Y02133*
X00348Y02134*
X00349Y02135*
X0035Y02135*
X00351Y02136*
X00351Y02136*
X00352Y02136*
X00352Y02137*
X00352Y02137*
X00352Y02137*
X00352*
X00354Y02137*
X00356Y02138*
X00357Y02138*
X00359Y02138*
X0036Y02138*
X0036Y02138*
X00361Y02138*
X00361Y02139*
X00362*
X00364Y02138*
G37*
G36*
X00169D02*
X0017Y02138D01*
X00172Y02138*
X00173Y02138*
X00173Y02138*
X00174Y02137*
X00174Y02137*
X00175Y02137*
X00175Y02137*
X00176Y02137*
X00176Y02137*
X00176Y02137*
X00176*
X00177Y02136*
X00179Y02135*
X0018Y02134*
X00181Y02134*
X00181Y02133*
X00182Y02132*
X00182Y02132*
X00182Y02132*
X00182Y02132*
Y02132*
X00183Y0213*
X00184Y02129*
X00184Y02128*
X00184Y02127*
X00184Y02126*
X00184Y02126*
Y02125*
X00184Y02125*
Y02125*
Y02125*
Y02125*
X00184Y02123*
X00184Y02122*
X00184Y02121*
X00184Y0212*
X00183Y02119*
X00183Y02119*
X00183Y02119*
X00183Y02118*
X00183Y02118*
Y02118*
X00182Y02117*
X00181Y02116*
X0018Y02116*
X00179Y02115*
X00179Y02114*
X00178Y02114*
X00178Y02114*
X00177Y02114*
X00177Y02114*
X00177*
X00177Y02113*
X00176Y02113*
X00175Y02113*
X00175Y02113*
X00173Y02112*
X00171Y02112*
X00171Y02111*
X0017Y02111*
X00169Y02111*
X00169Y02111*
X00168Y02111*
X00168Y02111*
X00168Y0211*
X00168*
X00166Y0211*
X00165Y0211*
X00164Y0211*
X00163Y02109*
X00163Y02109*
X00162Y02109*
X00161Y02109*
X00161Y02109*
X0016Y02109*
X0016Y02108*
X00159Y02108*
X00159Y02108*
X00159Y02108*
X00159Y02108*
X00159Y02108*
X00158Y02108*
X00157Y02107*
X00156Y02107*
X00155Y02106*
X00155Y02106*
X00154Y02105*
X00154Y02105*
X00154Y02105*
X00154Y02104*
X00153Y02104*
X00153Y02103*
X00153Y02102*
X00153Y02102*
X00153Y02101*
Y02101*
Y02101*
Y02101*
X00153Y021*
X00153Y02099*
X00153Y02099*
X00153Y02098*
X00154Y02097*
X00154Y02097*
X00154Y02097*
X00154Y02097*
X00155Y02096*
X00155Y02095*
X00156Y02095*
X00157Y02094*
X00158Y02094*
X00158Y02094*
X00158Y02094*
X00158Y02094*
X00159Y02093*
X00159*
X0016Y02093*
X00161Y02093*
X00162Y02093*
X00163Y02093*
X00164Y02092*
X00164*
X00165Y02092*
X00165*
X00167Y02092*
X00168Y02093*
X0017Y02093*
X00171Y02093*
X00171Y02093*
X00172Y02093*
X00172Y02094*
X00172Y02094*
X00173Y02094*
X00173Y02094*
X00173Y02094*
X00173*
X00174Y02094*
X00175Y02095*
X00176Y02096*
X00177Y02096*
X00177Y02097*
X00178Y02097*
X00178Y02098*
X00178Y02098*
X00179Y02099*
X00179Y021*
X00179Y02101*
X0018Y02102*
X0018Y02103*
X0018Y02103*
X0018Y02103*
X0018Y02104*
X0018Y02104*
Y02104*
Y02104*
X00186Y02103*
X00186Y02103*
X00186Y02102*
X00186Y021*
X00185Y02098*
X00185Y02098*
X00185Y02097*
X00185Y02096*
X00184Y02096*
X00184Y02095*
X00184Y02095*
X00184Y02095*
X00184Y02095*
X00184Y02094*
X00184Y02094*
X00183Y02093*
X00181Y02092*
X0018Y02091*
X00179Y0209*
X00178Y02089*
X00178Y02089*
X00177Y02089*
X00177Y02089*
X00177Y02089*
X00176Y02088*
X00176*
X00175Y02088*
X00173Y02087*
X00171Y02087*
X00169Y02087*
X00168Y02087*
X00167Y02087*
X00167Y02086*
X00166*
X00166Y02086*
X00165*
X00163Y02087*
X00161Y02087*
X0016Y02087*
X00159Y02087*
X00158Y02087*
X00157Y02088*
X00157Y02088*
X00156Y02088*
X00156Y02088*
X00156Y02088*
X00155Y02088*
X00155Y02088*
X00155*
X00154Y02089*
X00152Y0209*
X00151Y02091*
X0015Y02092*
X0015Y02093*
X00149Y02093*
X00149Y02094*
X00149Y02094*
X00149Y02094*
Y02094*
X00148Y02095*
X00148Y02095*
X00147Y02097*
X00147Y02098*
X00147Y02099*
X00146Y021*
X00146Y021*
Y02101*
X00146Y02101*
Y02101*
Y02101*
Y02101*
X00146Y02103*
X00147Y02104*
X00147Y02105*
X00147Y02107*
X00148Y02107*
X00148Y02108*
X00148Y02108*
X00148Y02108*
X00148Y02108*
X00148Y02109*
Y02109*
X00149Y02109*
X00149Y0211*
X0015Y02111*
X00151Y02112*
X00152Y02112*
X00153Y02113*
X00154Y02113*
X00154Y02113*
X00154Y02114*
X00155Y02114*
X00155Y02114*
X00155*
X00156Y02114*
X00156Y02114*
X00157Y02115*
X00158Y02115*
X0016Y02115*
X00162Y02116*
X00163Y02116*
X00163Y02116*
X00164Y02116*
X00165Y02117*
X00165Y02117*
X00166Y02117*
X00166Y02117*
X00166*
X00168Y02117*
X00169Y02118*
X0017Y02118*
X00171Y02118*
X00172Y02119*
X00173Y02119*
X00174Y02119*
X00174Y02119*
X00175Y0212*
X00175Y0212*
X00175Y0212*
X00176Y0212*
X00176Y0212*
X00176Y02121*
X00176Y02121*
X00177Y02121*
X00177Y02122*
X00178Y02123*
X00178Y02123*
X00178Y02124*
X00178Y02125*
X00178Y02125*
Y02125*
Y02125*
X00178Y02126*
X00178Y02126*
X00178Y02127*
X00177Y02128*
X00177Y02129*
X00176Y02129*
X00176Y0213*
X00175Y0213*
X00175Y0213*
X00175*
X00175Y02131*
X00174Y02131*
X00173Y02132*
X00171Y02132*
X0017Y02132*
X00169Y02132*
X00169Y02132*
X00168Y02133*
X00167*
X00167Y02133*
X00165*
X00164Y02132*
X00164Y02132*
X00163Y02132*
X00162Y02132*
X00161Y02132*
X00161Y02132*
X0016Y02131*
X00159Y02131*
X00159Y02131*
X00159Y02131*
X00158Y02131*
X00158Y0213*
X00158Y0213*
X00158Y0213*
X00158Y0213*
X00157Y0213*
X00157Y02129*
X00156Y02128*
X00155Y02127*
X00155Y02126*
X00155Y02125*
X00154Y02124*
X00154Y02124*
X00154Y02123*
Y02123*
X00154Y02123*
Y02123*
X00148Y02123*
X00148Y02125*
X00148Y02127*
X00149Y02128*
X00149Y02129*
X00149Y0213*
X0015Y0213*
X0015Y0213*
X0015Y02131*
X0015Y02131*
X0015Y02131*
X0015Y02131*
X0015Y02131*
X00151Y02133*
X00152Y02134*
X00153Y02135*
X00154Y02135*
X00155Y02136*
X00156Y02136*
X00156Y02136*
X00156Y02137*
X00157Y02137*
X00157Y02137*
X00157*
X00159Y02137*
X0016Y02138*
X00162Y02138*
X00163Y02138*
X00164Y02138*
X00165Y02138*
X00165Y02138*
X00166Y02139*
X00167*
X00169Y02138*
G37*
G36*
X00599Y02166D02*
X00592D01*
X00582Y02204*
X00582Y02205*
X00581Y02206*
X00581Y02207*
X00581Y02208*
X00581Y02209*
X00581Y02209*
X0058Y02209*
X0058Y0221*
Y0221*
X0058Y0221*
Y0221*
X0058Y0221*
X0058Y02209*
X0058Y02209*
X0058Y02209*
X0058Y02208*
X00579Y02207*
X00579Y02206*
X00579Y02205*
X00579Y02205*
X00579Y02204*
X00579Y02204*
X00579Y02204*
Y02204*
X00568Y02166*
X00562*
X00548Y02216*
X00555*
X00562Y02184*
X00563Y02181*
X00563Y02179*
X00564Y02178*
X00564Y02177*
X00564Y02177*
X00564Y02176*
X00564Y02175*
X00565Y02175*
X00565Y02174*
X00565Y02174*
X00565Y02173*
X00565Y02173*
X00565Y02173*
Y02173*
X00565Y02176*
X00566Y02179*
X00566Y02181*
X00567Y02182*
X00567Y02183*
X00567Y02185*
X00568Y02186*
X00568Y02187*
X00568Y02188*
X00568Y02189*
X00569Y0219*
X00569Y0219*
X00569Y0219*
X00569Y02191*
X00576Y02216*
X00584*
X00594Y02182*
X00594Y02182*
X00594Y02181*
X00594Y02181*
X00594Y0218*
X00594Y02179*
X00595Y02179*
X00595Y02177*
X00595Y02176*
X00595Y02175*
X00596Y02175*
X00596Y02174*
X00596Y02173*
X00596Y02173*
X00596Y02173*
Y02173*
X00596Y02175*
X00597Y02176*
X00597Y02178*
X00597Y02179*
X00597Y0218*
X00598Y0218*
X00598Y02181*
X00598Y02182*
X00598Y02182*
X00598Y02182*
X00598Y02183*
X00598Y02183*
Y02183*
X00606Y02216*
X00613*
X00599Y02166*
G37*
G36*
X00412D02*
X00405D01*
X00394Y02204*
X00394Y02205*
X00394Y02206*
X00393Y02207*
X00393Y02208*
X00393Y02209*
X00393Y02209*
X00393Y02209*
X00393Y0221*
Y0221*
X00393Y0221*
Y0221*
X00393Y0221*
X00392Y02209*
X00392Y02209*
X00392Y02209*
X00392Y02208*
X00392Y02207*
X00391Y02206*
X00391Y02205*
X00391Y02205*
X00391Y02204*
X00391Y02204*
X00391Y02204*
Y02204*
X0038Y02166*
X00374*
X0036Y02216*
X00367*
X00375Y02184*
X00375Y02181*
X00376Y02179*
X00376Y02178*
X00376Y02177*
X00376Y02177*
X00377Y02176*
X00377Y02175*
X00377Y02175*
X00377Y02174*
X00377Y02174*
X00377Y02173*
X00377Y02173*
X00377Y02173*
Y02173*
X00378Y02176*
X00378Y02179*
X00379Y02181*
X00379Y02182*
X00379Y02183*
X0038Y02185*
X0038Y02186*
X0038Y02187*
X00381Y02188*
X00381Y02189*
X00381Y0219*
X00381Y0219*
X00381Y0219*
X00381Y02191*
X00388Y02216*
X00396*
X00406Y02182*
X00406Y02182*
X00406Y02181*
X00406Y02181*
X00406Y0218*
X00407Y02179*
X00407Y02179*
X00407Y02177*
X00407Y02176*
X00408Y02175*
X00408Y02175*
X00408Y02174*
X00408Y02173*
X00408Y02173*
X00408Y02173*
Y02173*
X00409Y02175*
X00409Y02176*
X00409Y02178*
X0041Y02179*
X0041Y0218*
X0041Y0218*
X0041Y02181*
X0041Y02182*
X0041Y02182*
X0041Y02182*
X0041Y02183*
X0041Y02183*
Y02183*
X00418Y02216*
X00425*
X00412Y02166*
G37*
G36*
X00228D02*
X00221D01*
X0021Y02204*
X0021Y02205*
X0021Y02206*
X0021Y02207*
X00209Y02208*
X00209Y02209*
X00209Y02209*
X00209Y02209*
X00209Y0221*
Y0221*
X00209Y0221*
Y0221*
X00209Y0221*
X00209Y02209*
X00209Y02209*
X00208Y02209*
X00208Y02208*
X00208Y02207*
X00208Y02206*
X00207Y02205*
X00207Y02205*
X00207Y02204*
X00207Y02204*
X00207Y02204*
Y02204*
X00197Y02166*
X0019*
X00176Y02216*
X00183*
X00191Y02184*
X00191Y02181*
X00192Y02179*
X00192Y02178*
X00192Y02177*
X00193Y02177*
X00193Y02176*
X00193Y02175*
X00193Y02175*
X00193Y02174*
X00193Y02174*
X00193Y02173*
X00193Y02173*
X00193Y02173*
Y02173*
X00194Y02176*
X00195Y02179*
X00195Y02181*
X00195Y02182*
X00196Y02183*
X00196Y02185*
X00196Y02186*
X00197Y02187*
X00197Y02188*
X00197Y02189*
X00197Y0219*
X00197Y0219*
X00197Y0219*
X00197Y02191*
X00205Y02216*
X00213*
X00222Y02182*
X00222Y02182*
X00222Y02181*
X00223Y02181*
X00223Y0218*
X00223Y02179*
X00223Y02179*
X00224Y02177*
X00224Y02176*
X00224Y02175*
X00224Y02175*
X00224Y02174*
X00224Y02173*
X00224Y02173*
X00225Y02173*
Y02173*
X00225Y02175*
X00225Y02176*
X00226Y02178*
X00226Y02179*
X00226Y0218*
X00226Y0218*
X00226Y02181*
X00226Y02182*
X00226Y02182*
X00227Y02182*
X00227Y02183*
X00227Y02183*
Y02183*
X00234Y02216*
X00241*
X00228Y02166*
G37*
G36*
X00702D02*
X00671D01*
Y02172*
X00696*
Y02216*
X00702*
Y02166*
G37*
G36*
X00522D02*
X00515D01*
Y02186*
X00503*
X00501Y02186*
X00499Y02186*
X00497Y02187*
X00496Y02187*
X00494Y02187*
X00493Y02188*
X00492Y02188*
X00491Y02188*
X0049Y02189*
X0049Y02189*
X00489Y0219*
X00489Y0219*
X00488Y0219*
X00488Y0219*
X00488Y02191*
X00488Y02191*
X00487Y02191*
X00486Y02192*
X00486Y02193*
X00485Y02194*
X00485Y02195*
X00485Y02196*
X00484Y02197*
X00484Y02198*
X00484Y02198*
X00484Y02199*
X00484Y022*
X00484Y022*
X00484Y02201*
Y02201*
Y02201*
Y02201*
X00484Y02203*
X00484Y02204*
X00484Y02205*
X00484Y02206*
X00485Y02207*
X00485Y02207*
X00485Y02208*
X00485Y02208*
X00485Y02208*
X00485Y02208*
Y02208*
X00486Y02209*
X00486Y0221*
X00487Y02211*
X00488Y02212*
X00488Y02212*
X00489Y02213*
X00489Y02213*
X00489Y02213*
X00489*
X0049Y02214*
X00491Y02214*
X00492Y02215*
X00493Y02215*
X00494Y02215*
X00495Y02215*
X00495Y02215*
X00495Y02216*
X00495*
X00495Y02216*
X00495*
X00496Y02216*
X00497Y02216*
X00498Y02216*
X00499Y02216*
X005Y02216*
X00501Y02216*
X00522*
Y02166*
G37*
G36*
X00354D02*
X00316D01*
Y02172*
X00347*
Y02189*
X00319*
Y02195*
X00347*
Y0221*
X00317*
Y02216*
X00354*
Y02166*
G37*
G36*
X00307D02*
X003D01*
Y02188*
X00292*
X00291Y02188*
X0029Y02188*
X0029*
X00289Y02188*
X00289Y02188*
X00289Y02188*
X00289*
X00288Y02188*
X00288Y02187*
X00287Y02187*
X00287Y02187*
X00286Y02187*
X00286Y02187*
X00286Y02186*
X00286Y02186*
X00285Y02186*
X00285Y02185*
X00284Y02185*
X00283Y02184*
X00283Y02184*
X00283Y02183*
X00282Y02183*
X00282Y02183*
Y02183*
X00282Y02182*
X00281Y02181*
X0028Y0218*
X00279Y02179*
X00279Y02178*
X00278Y02177*
X00278Y02177*
X00278Y02177*
X00278Y02176*
X00278Y02176*
X00278Y02176*
X00271Y02166*
X00263*
X00271Y02179*
X00272Y02181*
X00273Y02182*
X00274Y02183*
X00275Y02184*
X00276Y02185*
X00276Y02185*
X00276Y02186*
X00276Y02186*
X00277Y02186*
X00277Y02186*
X00277Y02186*
X00277Y02187*
X00278Y02187*
X00279Y02187*
X00279Y02188*
X0028Y02188*
X0028Y02188*
X00281Y02189*
X00281Y02189*
X00281*
X00279Y02189*
X00278Y02189*
X00277Y02189*
X00276Y0219*
X00275Y0219*
X00274Y02191*
X00273Y02191*
X00273Y02191*
X00272Y02192*
X00272Y02192*
X00271Y02192*
X00271Y02193*
X0027Y02193*
X0027Y02193*
X0027Y02193*
X0027Y02193*
X00269Y02194*
X00269Y02195*
X00268Y02195*
X00268Y02196*
X00268Y02197*
X00267Y02198*
X00267Y02199*
X00267Y022*
X00267Y022*
X00267Y02201*
X00267Y02201*
X00267Y02202*
Y02202*
Y02202*
Y02202*
X00267Y02204*
X00267Y02205*
X00267Y02207*
X00268Y02208*
X00268Y02208*
X00268Y02209*
X00268Y02209*
X00268Y02209*
X00268Y0221*
X00269Y0221*
X00269Y0221*
Y0221*
X0027Y02211*
X0027Y02212*
X00271Y02213*
X00272Y02214*
X00273Y02214*
X00274Y02214*
X00274Y02215*
X00274Y02215*
X00274Y02215*
X00274*
X00275Y02215*
X00276Y02215*
X00277Y02215*
X00279Y02216*
X00281Y02216*
X00282Y02216*
X00282Y02216*
X00283*
X00283Y02216*
X00307*
Y02166*
G37*
G36*
X00116D02*
X00084D01*
Y02172*
X00109*
Y02216*
X00116*
Y02166*
G37*
G36*
X00643Y02217D02*
X00645Y02217D01*
X00646Y02216*
X00648Y02216*
X0065Y02215*
X00651Y02215*
X00652Y02214*
X00653Y02213*
X00655Y02213*
X00655Y02212*
X00656Y02211*
X00657Y02211*
X00657Y02211*
X00658Y0221*
X00658Y0221*
X00658Y0221*
X00659Y02208*
X0066Y02207*
X00661Y02205*
X00662Y02204*
X00663Y02202*
X00663Y02201*
X00664Y02199*
X00664Y02197*
X00664Y02196*
X00664Y02195*
X00665Y02193*
X00665Y02192*
X00665Y02191*
Y02191*
X00665Y02191*
Y02191*
Y0219*
Y0219*
Y0219*
X00665Y02189*
X00665Y02188*
X00664Y02185*
X00664Y02184*
X00664Y02183*
X00664Y02182*
X00663Y02181*
X00663Y02181*
X00663Y0218*
X00663Y02179*
X00662Y02179*
X00662Y02178*
X00662Y02178*
X00662Y02178*
X00662Y02178*
X00661Y02177*
X00661Y02176*
X0066Y02175*
X00659Y02174*
X00659Y02173*
X00658Y02172*
X00657Y02171*
X00657Y02171*
X00656Y0217*
X00655Y0217*
X00655Y02169*
X00654Y02169*
X00654Y02169*
X00654Y02168*
X00654Y02168*
X00654Y02168*
X00652Y02168*
X00651Y02167*
X0065Y02167*
X00649Y02166*
X00648Y02166*
X00647Y02166*
X00646Y02165*
X00645Y02165*
X00644Y02165*
X00643Y02165*
X00643Y02165*
X00642Y02165*
X00641Y02165*
X00641*
X0064Y02165*
X00638Y02165*
X00636Y02165*
X00635Y02166*
X00634Y02166*
X00633Y02166*
X00632Y02166*
X00631Y02167*
X00631Y02167*
X0063Y02167*
X0063Y02167*
X00629Y02168*
X00629Y02168*
X00629Y02168*
X00629Y02168*
X00628Y02169*
X00627Y02169*
X00626Y0217*
X00625Y02171*
X00624Y02171*
X00623Y02172*
X00623Y02173*
X00622Y02174*
X00622Y02174*
X00621Y02175*
X00621Y02176*
X0062Y02176*
X0062Y02176*
X0062Y02177*
X0062Y02177*
X0062Y02177*
X00619Y02178*
X00619Y02179*
X00618Y02181*
X00618Y02182*
X00618Y02183*
X00617Y02184*
X00617Y02185*
X00617Y02186*
X00617Y02187*
X00617Y02188*
X00617Y02189*
X00617Y02189*
X00617Y0219*
Y0219*
Y02191*
Y02191*
X00617Y02192*
X00617Y02194*
X00617Y02195*
X00617Y02196*
X00617Y02197*
X00618Y02198*
X00618Y02199*
X00618Y022*
X00618Y02201*
X00619Y02202*
X00619Y02203*
X00619Y02203*
X00619Y02204*
X00619Y02204*
X0062Y02204*
X0062Y02204*
X0062Y02205*
X00621Y02206*
X00622Y02207*
X00622Y02208*
X00623Y02209*
X00624Y0221*
X00624Y02211*
X00625Y02211*
X00626Y02212*
X00626Y02212*
X00627Y02213*
X00627Y02213*
X00628Y02213*
X00628Y02213*
X00628Y02214*
X00628Y02214*
X00629Y02214*
X0063Y02215*
X00631Y02215*
X00632Y02216*
X00634Y02216*
X00635Y02216*
X00636Y02216*
X00637Y02217*
X00637Y02217*
X00638Y02217*
X00639Y02217*
X0064Y02217*
X0064Y02217*
X00641*
X00643Y02217*
G37*
G36*
X00455D02*
X00457Y02217D01*
X00459Y02216*
X0046Y02216*
X00462Y02215*
X00463Y02215*
X00465Y02214*
X00466Y02213*
X00467Y02213*
X00468Y02212*
X00469Y02211*
X00469Y02211*
X0047Y02211*
X0047Y0221*
X0047Y0221*
X0047Y0221*
X00472Y02208*
X00473Y02207*
X00474Y02205*
X00474Y02204*
X00475Y02202*
X00476Y02201*
X00476Y02199*
X00476Y02197*
X00477Y02196*
X00477Y02195*
X00477Y02193*
X00477Y02192*
X00477Y02191*
Y02191*
X00477Y02191*
Y02191*
Y0219*
Y0219*
Y0219*
X00477Y02189*
X00477Y02188*
X00477Y02185*
X00476Y02184*
X00476Y02183*
X00476Y02182*
X00476Y02181*
X00475Y02181*
X00475Y0218*
X00475Y02179*
X00475Y02179*
X00475Y02178*
X00474Y02178*
X00474Y02178*
X00474Y02178*
X00474Y02177*
X00473Y02176*
X00472Y02175*
X00472Y02174*
X00471Y02173*
X0047Y02172*
X0047Y02171*
X00469Y02171*
X00468Y0217*
X00468Y0217*
X00467Y02169*
X00467Y02169*
X00466Y02169*
X00466Y02168*
X00466Y02168*
X00466Y02168*
X00465Y02168*
X00464Y02167*
X00463Y02167*
X00461Y02166*
X0046Y02166*
X00459Y02166*
X00458Y02165*
X00457Y02165*
X00456Y02165*
X00456Y02165*
X00455Y02165*
X00454Y02165*
X00454Y02165*
X00453*
X00452Y02165*
X00451Y02165*
X00448Y02165*
X00447Y02166*
X00446Y02166*
X00445Y02166*
X00444Y02166*
X00444Y02167*
X00443Y02167*
X00442Y02167*
X00442Y02167*
X00441Y02168*
X00441Y02168*
X00441Y02168*
X00441Y02168*
X0044Y02169*
X00439Y02169*
X00438Y0217*
X00437Y02171*
X00436Y02171*
X00436Y02172*
X00435Y02173*
X00434Y02174*
X00434Y02174*
X00433Y02175*
X00433Y02176*
X00433Y02176*
X00432Y02176*
X00432Y02177*
X00432Y02177*
X00432Y02177*
X00432Y02178*
X00431Y02179*
X00431Y02181*
X0043Y02182*
X0043Y02183*
X0043Y02184*
X00429Y02185*
X00429Y02186*
X00429Y02187*
X00429Y02188*
X00429Y02189*
X00429Y02189*
X00429Y0219*
Y0219*
Y02191*
Y02191*
X00429Y02192*
X00429Y02194*
X00429Y02195*
X00429Y02196*
X0043Y02197*
X0043Y02198*
X0043Y02199*
X0043Y022*
X00431Y02201*
X00431Y02202*
X00431Y02203*
X00431Y02203*
X00432Y02204*
X00432Y02204*
X00432Y02204*
X00432Y02204*
X00432Y02205*
X00433Y02206*
X00434Y02207*
X00434Y02208*
X00435Y02209*
X00436Y0221*
X00437Y02211*
X00437Y02211*
X00438Y02212*
X00439Y02212*
X00439Y02213*
X0044Y02213*
X0044Y02213*
X0044Y02213*
X0044Y02214*
X0044Y02214*
X00442Y02214*
X00443Y02215*
X00444Y02215*
X00445Y02216*
X00446Y02216*
X00447Y02216*
X00448Y02216*
X00449Y02217*
X0045Y02217*
X00451Y02217*
X00451Y02217*
X00452Y02217*
X00452Y02217*
X00453*
X00455Y02217*
G37*
G36*
X0015D02*
X00152Y02217D01*
X00154Y02216*
X00155Y02216*
X00157Y02215*
X00158Y02215*
X0016Y02214*
X00161Y02213*
X00162Y02213*
X00163Y02212*
X00164Y02211*
X00164Y02211*
X00165Y02211*
X00165Y0221*
X00165Y0221*
X00165Y0221*
X00167Y02208*
X00168Y02207*
X00169Y02205*
X00169Y02204*
X0017Y02202*
X00171Y02201*
X00171Y02199*
X00171Y02197*
X00172Y02196*
X00172Y02195*
X00172Y02193*
X00172Y02192*
X00172Y02191*
Y02191*
X00172Y02191*
Y02191*
Y0219*
Y0219*
Y0219*
X00172Y02189*
X00172Y02188*
X00172Y02185*
X00171Y02184*
X00171Y02183*
X00171Y02182*
X00171Y02181*
X0017Y02181*
X0017Y0218*
X0017Y02179*
X0017Y02179*
X0017Y02178*
X00169Y02178*
X00169Y02178*
X00169Y02178*
X00169Y02177*
X00168Y02176*
X00167Y02175*
X00167Y02174*
X00166Y02173*
X00165Y02172*
X00165Y02171*
X00164Y02171*
X00163Y0217*
X00163Y0217*
X00162Y02169*
X00162Y02169*
X00161Y02169*
X00161Y02168*
X00161Y02168*
X00161Y02168*
X0016Y02168*
X00159Y02167*
X00158Y02167*
X00156Y02166*
X00155Y02166*
X00154Y02166*
X00153Y02165*
X00152Y02165*
X00151Y02165*
X00151Y02165*
X0015Y02165*
X00149Y02165*
X00149Y02165*
X00148*
X00147Y02165*
X00146Y02165*
X00143Y02165*
X00142Y02166*
X00141Y02166*
X0014Y02166*
X0014Y02166*
X00139Y02167*
X00138Y02167*
X00137Y02167*
X00137Y02167*
X00136Y02168*
X00136Y02168*
X00136Y02168*
X00136Y02168*
X00135Y02169*
X00134Y02169*
X00133Y0217*
X00132Y02171*
X00131Y02171*
X00131Y02172*
X0013Y02173*
X00129Y02174*
X00129Y02174*
X00128Y02175*
X00128Y02176*
X00128Y02176*
X00127Y02176*
X00127Y02177*
X00127Y02177*
X00127Y02177*
X00127Y02178*
X00126Y02179*
X00126Y02181*
X00125Y02182*
X00125Y02183*
X00125Y02184*
X00124Y02185*
X00124Y02186*
X00124Y02187*
X00124Y02188*
X00124Y02189*
X00124Y02189*
X00124Y0219*
Y0219*
Y02191*
Y02191*
X00124Y02192*
X00124Y02194*
X00124Y02195*
X00124Y02196*
X00125Y02197*
X00125Y02198*
X00125Y02199*
X00125Y022*
X00126Y02201*
X00126Y02202*
X00126Y02203*
X00126Y02203*
X00127Y02204*
X00127Y02204*
X00127Y02204*
X00127Y02204*
X00127Y02205*
X00128Y02206*
X00129Y02207*
X00129Y02208*
X0013Y02209*
X00131Y0221*
X00132Y02211*
X00132Y02211*
X00133Y02212*
X00134Y02212*
X00134Y02213*
X00135Y02213*
X00135Y02213*
X00135Y02213*
X00135Y02214*
X00135Y02214*
X00137Y02214*
X00138Y02215*
X00139Y02215*
X0014Y02216*
X00141Y02216*
X00142Y02216*
X00143Y02216*
X00144Y02217*
X00145Y02217*
X00146Y02217*
X00146Y02217*
X00147Y02217*
X00147Y02217*
X00148*
X0015Y02217*
G37*
G36*
X00677Y00225D02*
X00657D01*
X00657Y00225*
X00657Y00225*
X00657Y00224*
X00658Y00224*
X00658Y00224*
X00658Y00223*
X00659Y00222*
X00659Y00222*
Y00222*
X00659Y00222*
X00659Y00222*
X00659Y00222*
X00659Y00221*
X00659Y00221*
X0066Y00221*
X0066Y0022*
X0066Y0022*
X0066Y00219*
X00661Y00219*
X00658*
X00658Y00219*
X00658Y00219*
X00658Y00219*
X00658Y00219*
X00657Y00219*
X00657Y00219*
X00657Y0022*
X00657Y0022*
X00656Y00221*
X00656Y00222*
X00655Y00222*
X00655Y00223*
X00655Y00223*
X00655Y00223*
X00655Y00223*
X00654Y00223*
X00654Y00224*
X00654Y00224*
X00654Y00224*
X00653Y00225*
X00653Y00225*
X00652Y00226*
X00651Y00226*
Y00228*
X00677*
Y00225*
G37*
G36*
X00643Y00452D02*
X00643D01*
X00644Y00452*
X00644Y00452*
X00645Y00452*
X00645Y00452*
X00646Y00451*
X00646*
X00646Y00451*
X00646Y00451*
X00646Y00451*
X00646Y00451*
X00647Y00451*
X00647Y00451*
X00648Y0045*
X00648Y0045*
X00648Y0045*
X00648Y0045*
X00648Y00449*
X00649Y00449*
X00649Y00449*
X00649Y00448*
X00649Y00448*
X00649Y00447*
X00649Y00447*
Y00447*
X0065Y00447*
Y00447*
X0065Y00447*
X0065Y00446*
X0065Y00446*
X0065Y00446*
X0065Y00446*
X0065Y00445*
X0065Y00445*
X0065Y00444*
X0065Y00444*
X0065Y00443*
Y00433*
X00625*
Y00443*
X00625Y00443*
Y00444*
X00625Y00444*
X00625Y00444*
X00625Y00445*
X00625Y00446*
X00625Y00447*
X00625Y00447*
Y00447*
X00626Y00447*
X00626Y00447*
X00626Y00448*
X00626Y00448*
X00626Y00448*
X00626Y00449*
X00627Y00449*
X00627Y0045*
X00628Y0045*
X00628*
X00628Y0045*
X00628Y0045*
X00628Y0045*
X00628Y0045*
X00628Y0045*
X00629Y00451*
X00629Y00451*
X0063Y00451*
X00631Y00451*
X00631Y00451*
X00631*
X00631*
X00631*
X00631*
X00632Y00451*
X00632Y00451*
X00633Y00451*
X00633Y00451*
X00634Y0045*
X00634Y0045*
X00634*
X00634Y0045*
X00634Y0045*
X00634Y0045*
X00635Y0045*
X00635Y00449*
X00635Y00449*
X00636Y00449*
X00636Y00448*
X00636Y00448*
Y00448*
X00637Y00448*
X00637Y00448*
X00637Y00448*
X00637Y00448*
X00637Y00448*
X00637Y00449*
X00637Y00449*
X00638Y0045*
X00638Y00451*
X00639Y00451*
X00639Y00451*
X00639Y00451*
X00639Y00451*
X00639Y00451*
X00639Y00451*
X00639Y00451*
X0064Y00452*
X0064Y00452*
X0064Y00452*
X00641Y00452*
X00642Y00452*
X00642Y00452*
X00643*
X00643*
X00643*
X00643*
X00643*
X00643Y00452*
G37*
%LNwol_pcb-2*%
%LPC*%
G36*
X00454Y02049D02*
Y02026D01*
X0047*
X00454Y02049*
G37*
G36*
X00497Y02054D02*
X00497D01*
X00496Y02054*
X00496Y02054*
X00495Y02053*
X00494Y02053*
X00493Y02052*
X00492Y02052*
X00491Y02051*
X00491Y02051*
X00491Y02051*
X0049Y0205*
X0049Y0205*
X0049Y0205*
X0049Y0205*
X0049Y0205*
X00489Y02049*
X00489Y02048*
X00489Y02047*
X00488Y02045*
X00488Y02044*
X00488Y02043*
X00487Y0204*
X00487Y02038*
X00487Y02037*
X00487Y02036*
X00487Y02035*
X00487Y02034*
Y02034*
Y02034*
Y02033*
Y02033*
Y02033*
Y02033*
X00487Y02031*
X00487Y02029*
X00487Y02027*
X00487Y02025*
X00488Y02024*
X00488Y02022*
X00488Y02021*
X00488Y0202*
X00489Y02019*
X00489Y02019*
X00489Y02018*
X00489Y02017*
X0049Y02017*
X0049Y02017*
X0049Y02017*
X0049Y02017*
X0049Y02016*
X00491Y02015*
X00492Y02015*
X00492Y02014*
X00493Y02014*
X00493Y02013*
X00494Y02013*
X00495Y02013*
X00495Y02013*
X00496Y02013*
X00496Y02013*
X00497*
X00497Y02013*
X00497*
X00498Y02013*
X00499Y02013*
X00499Y02013*
X005Y02013*
X00501Y02014*
X00502Y02015*
X00503Y02015*
X00503Y02016*
X00504Y02016*
X00504Y02016*
X00504Y02016*
X00504Y02016*
X00504Y02017*
X00505Y02017*
X00505Y02018*
X00506Y0202*
X00506Y02021*
X00506Y02022*
X00506Y02024*
X00507Y02026*
X00507Y02028*
X00507Y02029*
X00507Y0203*
X00507Y02031*
X00507Y02032*
Y02032*
Y02033*
Y02033*
Y02033*
Y02033*
Y02033*
X00507Y02035*
X00507Y02037*
X00507Y02039*
X00507Y02041*
X00506Y02042*
X00506Y02044*
X00506Y02045*
X00505Y02046*
X00505Y02047*
X00505Y02048*
X00505Y02049*
X00504Y02049*
X00504Y0205*
X00504Y0205*
X00504Y0205*
X00504Y0205*
X00503Y02051*
X00503Y02051*
X00502Y02052*
X00502Y02052*
X00501Y02053*
X00501Y02053*
X005Y02053*
X00499Y02054*
X00498Y02054*
X00498Y02054*
X00497Y02054*
G37*
G36*
X0036D02*
X0036D01*
X00359Y02054*
X00359Y02054*
X00358Y02053*
X00357Y02053*
X00356Y02052*
X00355Y02052*
X00354Y02051*
X00354Y02051*
X00354Y02051*
X00353Y0205*
X00353Y0205*
X00353Y0205*
X00353Y0205*
X00353Y0205*
X00352Y02049*
X00352Y02048*
X00352Y02047*
X00351Y02045*
X00351Y02044*
X00351Y02043*
X0035Y0204*
X0035Y02038*
X0035Y02037*
X0035Y02036*
X0035Y02035*
X0035Y02034*
Y02034*
Y02034*
Y02033*
Y02033*
Y02033*
Y02033*
X0035Y02031*
X0035Y02029*
X0035Y02027*
X0035Y02025*
X00351Y02024*
X00351Y02022*
X00351Y02021*
X00351Y0202*
X00352Y02019*
X00352Y02019*
X00352Y02018*
X00352Y02017*
X00353Y02017*
X00353Y02017*
X00353Y02017*
X00353Y02017*
X00353Y02016*
X00354Y02015*
X00355Y02015*
X00355Y02014*
X00356Y02014*
X00356Y02013*
X00357Y02013*
X00358Y02013*
X00358Y02013*
X00359Y02013*
X00359Y02013*
X0036*
X0036Y02013*
X0036*
X00361Y02013*
X00362Y02013*
X00362Y02013*
X00363Y02013*
X00364Y02014*
X00365Y02015*
X00366Y02015*
X00366Y02016*
X00367Y02016*
X00367Y02016*
X00367Y02016*
X00367Y02016*
X00367Y02017*
X00368Y02017*
X00368Y02018*
X00369Y0202*
X00369Y02021*
X00369Y02022*
X00369Y02024*
X0037Y02026*
X0037Y02028*
X0037Y02029*
X0037Y0203*
X0037Y02031*
X0037Y02032*
Y02032*
Y02033*
Y02033*
Y02033*
Y02033*
Y02033*
X0037Y02035*
X0037Y02037*
X0037Y02039*
X0037Y02041*
X00369Y02042*
X00369Y02044*
X00369Y02045*
X00368Y02046*
X00368Y02047*
X00368Y02048*
X00368Y02049*
X00367Y02049*
X00367Y0205*
X00367Y0205*
X00367Y0205*
X00367Y0205*
X00366Y02051*
X00366Y02051*
X00365Y02052*
X00365Y02052*
X00364Y02053*
X00364Y02053*
X00363Y02053*
X00362Y02054*
X00361Y02054*
X00361Y02054*
X0036Y02054*
G37*
G36*
X00575Y02133D02*
X00575D01*
X00574Y02133*
X00573Y02133*
X00573Y02133*
X00572Y02133*
X00571Y02132*
X00571Y02132*
X00571Y02132*
X00571Y02132*
X0057Y02131*
X0057Y0213*
X0057Y0213*
X00569Y02129*
X00569Y02128*
X00569Y02128*
Y02128*
Y02128*
Y02128*
X00569Y02127*
X00569Y02126*
X0057Y02125*
X0057Y02125*
X0057Y02124*
X0057Y02124*
X0057Y02124*
X0057Y02124*
X00571Y02123*
X00571Y02123*
X00572Y02122*
X00573Y02121*
X00573Y02121*
X00574Y0212*
X00575Y0212*
X00575Y0212*
X00575Y0212*
X00576Y02119*
X00576Y02119*
X00578Y02123*
X00579Y02123*
X00579Y02124*
X00579Y02124*
X0058Y02124*
X0058Y02125*
X0058Y02125*
X0058Y02125*
X0058Y02125*
X0058Y02126*
X0058Y02126*
X00581Y02127*
X00581Y02127*
Y02127*
X00581Y02128*
Y02128*
Y02128*
X00581Y02129*
X0058Y02129*
X0058Y0213*
X0058Y02131*
X0058Y02131*
X00579Y02131*
X00579Y02132*
X00579Y02132*
X00578Y02132*
X00578Y02133*
X00577Y02133*
X00576Y02133*
X00576Y02133*
X00575Y02133*
G37*
G36*
X00578Y02112D02*
X00567Y02098D01*
X00568Y02097*
X00568Y02096*
X00569Y02095*
X0057Y02095*
X00571Y02094*
X00571Y02094*
X00571Y02094*
X00572Y02094*
X00572Y02094*
X00572*
X00573Y02093*
X00574Y02093*
X00575Y02092*
X00576Y02092*
X00576Y02092*
X00577Y02092*
X00577Y02092*
X00577*
X00578Y02092*
X00579Y02092*
X0058Y02092*
X0058Y02092*
X00582Y02093*
X00583Y02094*
X00583Y02094*
X00584Y02094*
X00584Y02095*
X00584Y02095*
X00584Y02095*
X00584Y02095*
X00584Y02095*
X00585Y02096*
X00585Y02096*
X00586Y02098*
X00586Y02099*
X00586Y021*
X00587Y021*
X00587Y02101*
Y02101*
X00587Y02101*
Y02101*
Y02101*
Y02102*
X00587Y02102*
X00586Y02103*
X00586Y02104*
X00586Y02105*
X00586Y02106*
X00585Y02106*
X00585Y02106*
X00585Y02107*
Y02107*
X00585Y02107*
X00584Y02108*
X00583Y02109*
X00582Y02109*
X00581Y0211*
X0058Y02111*
X00579Y02111*
X00579Y02112*
X00579Y02112*
X00578Y02112*
X00578Y02112*
X00578Y02112*
G37*
G36*
X00515Y0221D02*
X00501D01*
X005Y0221*
X005*
X00499Y0221*
X00499Y0221*
X00498Y0221*
X00498*
X00497Y0221*
X00497Y0221*
X00496Y0221*
X00496*
X00495Y02209*
X00495Y02209*
X00494Y02208*
X00493Y02208*
X00493Y02207*
X00492Y02207*
X00492Y02207*
X00492Y02207*
X00492Y02206*
X00491Y02205*
X00491Y02204*
X00491Y02203*
X00491Y02202*
X0049Y02202*
Y02202*
Y02201*
Y02201*
Y02201*
X00491Y022*
X00491Y022*
X00491Y02198*
X00491Y02197*
X00492Y02196*
X00492Y02195*
X00493Y02195*
X00493Y02195*
X00493Y02195*
X00493Y02195*
X00493Y02195*
X00494Y02194*
X00494Y02194*
X00495Y02193*
X00496Y02193*
X00497Y02193*
X00499Y02192*
X005Y02192*
X005Y02192*
X00501Y02192*
X00501*
X00502Y02192*
X00515*
Y0221*
G37*
G36*
X003Y02211D02*
X00283D01*
X00282Y0221*
X00281Y0221*
X00281Y0221*
X0028Y0221*
X00279Y0221*
X00279Y0221*
X00278Y02209*
X00278Y02209*
X00277Y02209*
X00277Y02209*
X00277Y02209*
X00276Y02208*
X00276Y02208*
X00276Y02208*
X00276Y02208*
X00276Y02208*
X00275Y02207*
X00275Y02206*
X00274Y02205*
X00274Y02204*
X00274Y02204*
X00273Y02203*
Y02203*
X00273Y02203*
Y02202*
Y02202*
Y02202*
X00273Y02201*
X00274Y02201*
X00274Y022*
X00274Y02199*
X00274Y02199*
X00275Y02198*
X00275Y02198*
X00275Y02198*
X00275Y02197*
X00276Y02196*
X00277Y02196*
X00277Y02195*
X00278Y02195*
X00278Y02195*
X00279Y02195*
X00279Y02195*
X00279*
X0028Y02194*
X00281Y02194*
X00282Y02194*
X00283Y02194*
X00284Y02194*
X00285*
X00285Y02194*
X003*
Y02211*
G37*
G36*
X00641Y02211D02*
X0064D01*
X00639Y02211*
X00637Y02211*
X00636Y0221*
X00635Y0221*
X00634Y0221*
X00634Y0221*
X00633Y02209*
X00633Y02209*
X00632Y02209*
X00632Y02209*
X00632Y02209*
X00632Y02209*
X00632Y02209*
X0063Y02208*
X00629Y02206*
X00628Y02205*
X00627Y02204*
X00627Y02203*
X00626Y02203*
X00626Y02202*
X00626Y02202*
X00626Y02202*
X00626Y02202*
Y02202*
X00625Y022*
X00624Y02198*
X00624Y02196*
X00624Y02194*
X00624Y02194*
X00624Y02193*
X00624Y02192*
Y02192*
X00624Y02191*
Y02191*
Y02191*
Y02191*
X00624Y02189*
X00624Y02187*
X00624Y02186*
X00624Y02184*
X00625Y02183*
X00625Y02182*
X00626Y02181*
X00626Y0218*
X00626Y02179*
X00627Y02178*
X00627Y02177*
X00628Y02177*
X00628Y02176*
X00628Y02176*
X00628Y02176*
X00628Y02176*
X00629Y02175*
X0063Y02174*
X00631Y02173*
X00632Y02173*
X00633Y02172*
X00635Y02172*
X00635Y02171*
X00636Y02171*
X00637Y02171*
X00638Y02171*
X00639Y02171*
X0064Y02171*
X0064Y02171*
X00641Y02171*
X00641*
X00642Y02171*
X00643Y02171*
X00645Y02171*
X00646Y02171*
X00647Y02172*
X00648Y02172*
X00649Y02173*
X0065Y02173*
X00651Y02174*
X00651Y02174*
X00652Y02175*
X00652Y02175*
X00653Y02175*
X00653Y02176*
X00653Y02176*
X00653Y02176*
X00654Y02177*
X00655Y02178*
X00655Y02179*
X00656Y0218*
X00656Y02181*
X00657Y02183*
X00657Y02184*
X00657Y02185*
X00658Y02186*
X00658Y02187*
X00658Y02188*
X00658Y02189*
Y02189*
X00658Y0219*
Y0219*
Y0219*
X00658Y02192*
X00658Y02194*
X00657Y02196*
X00657Y02197*
X00657Y02199*
X00656Y022*
X00656Y02201*
X00655Y02202*
X00655Y02203*
X00654Y02204*
X00654Y02205*
X00654Y02205*
X00653Y02206*
X00653Y02206*
X00653Y02206*
X00653Y02206*
X00652Y02207*
X00651Y02208*
X0065Y02209*
X00649Y02209*
X00648Y0221*
X00647Y0221*
X00646Y0221*
X00645Y02211*
X00644Y02211*
X00643Y02211*
X00643Y02211*
X00642Y02211*
X00641*
X00641Y02211*
G37*
G36*
X00453D02*
X00452D01*
X00451Y02211*
X00449Y02211*
X00448Y0221*
X00447Y0221*
X00447Y0221*
X00446Y0221*
X00446Y02209*
X00445Y02209*
X00445Y02209*
X00444Y02209*
X00444Y02209*
X00444Y02209*
X00444Y02209*
X00443Y02208*
X00441Y02206*
X0044Y02205*
X00439Y02204*
X00439Y02203*
X00439Y02203*
X00438Y02202*
X00438Y02202*
X00438Y02202*
X00438Y02202*
Y02202*
X00437Y022*
X00437Y02198*
X00436Y02196*
X00436Y02194*
X00436Y02194*
X00436Y02193*
X00436Y02192*
Y02192*
X00436Y02191*
Y02191*
Y02191*
Y02191*
X00436Y02189*
X00436Y02187*
X00436Y02186*
X00437Y02184*
X00437Y02183*
X00437Y02182*
X00438Y02181*
X00438Y0218*
X00439Y02179*
X00439Y02178*
X0044Y02177*
X0044Y02177*
X0044Y02176*
X00441Y02176*
X00441Y02176*
X00441Y02176*
X00442Y02175*
X00443Y02174*
X00444Y02173*
X00445Y02173*
X00446Y02172*
X00447Y02172*
X00448Y02171*
X00449Y02171*
X0045Y02171*
X00451Y02171*
X00451Y02171*
X00452Y02171*
X00452Y02171*
X00453Y02171*
X00453*
X00454Y02171*
X00456Y02171*
X00457Y02171*
X00458Y02171*
X00459Y02172*
X0046Y02172*
X00461Y02173*
X00462Y02173*
X00463Y02174*
X00463Y02174*
X00464Y02175*
X00465Y02175*
X00465Y02175*
X00465Y02176*
X00465Y02176*
X00465Y02176*
X00466Y02177*
X00467Y02178*
X00468Y02179*
X00468Y0218*
X00469Y02181*
X00469Y02183*
X00469Y02184*
X0047Y02185*
X0047Y02186*
X0047Y02187*
X0047Y02188*
X0047Y02189*
Y02189*
X0047Y0219*
Y0219*
Y0219*
X0047Y02192*
X0047Y02194*
X0047Y02196*
X00469Y02197*
X00469Y02199*
X00469Y022*
X00468Y02201*
X00468Y02202*
X00467Y02203*
X00467Y02204*
X00466Y02205*
X00466Y02205*
X00466Y02206*
X00465Y02206*
X00465Y02206*
X00465Y02206*
X00464Y02207*
X00463Y02208*
X00462Y02209*
X00461Y02209*
X0046Y0221*
X00459Y0221*
X00458Y0221*
X00457Y02211*
X00456Y02211*
X00456Y02211*
X00455Y02211*
X00454Y02211*
X00454*
X00453Y02211*
G37*
G36*
X00148D02*
X00147D01*
X00146Y02211*
X00144Y02211*
X00143Y0221*
X00142Y0221*
X00142Y0221*
X00141Y0221*
X00141Y02209*
X0014Y02209*
X0014Y02209*
X00139Y02209*
X00139Y02209*
X00139Y02209*
X00139Y02209*
X00138Y02208*
X00136Y02206*
X00135Y02205*
X00134Y02204*
X00134Y02203*
X00134Y02203*
X00133Y02202*
X00133Y02202*
X00133Y02202*
X00133Y02202*
Y02202*
X00132Y022*
X00132Y02198*
X00131Y02196*
X00131Y02194*
X00131Y02194*
X00131Y02193*
X00131Y02192*
Y02192*
X00131Y02191*
Y02191*
Y02191*
Y02191*
X00131Y02189*
X00131Y02187*
X00131Y02186*
X00132Y02184*
X00132Y02183*
X00132Y02182*
X00133Y02181*
X00133Y0218*
X00134Y02179*
X00134Y02178*
X00135Y02177*
X00135Y02177*
X00135Y02176*
X00136Y02176*
X00136Y02176*
X00136Y02176*
X00137Y02175*
X00138Y02174*
X00139Y02173*
X0014Y02173*
X00141Y02172*
X00142Y02172*
X00143Y02171*
X00144Y02171*
X00145Y02171*
X00146Y02171*
X00146Y02171*
X00147Y02171*
X00147Y02171*
X00148Y02171*
X00148*
X00149Y02171*
X00151Y02171*
X00152Y02171*
X00153Y02171*
X00154Y02172*
X00155Y02172*
X00156Y02173*
X00157Y02173*
X00158Y02174*
X00158Y02174*
X00159Y02175*
X0016Y02175*
X0016Y02175*
X0016Y02176*
X0016Y02176*
X0016Y02176*
X00161Y02177*
X00162Y02178*
X00163Y02179*
X00163Y0218*
X00164Y02181*
X00164Y02183*
X00164Y02184*
X00165Y02185*
X00165Y02186*
X00165Y02187*
X00165Y02188*
X00165Y02189*
Y02189*
X00165Y0219*
Y0219*
Y0219*
X00165Y02192*
X00165Y02194*
X00165Y02196*
X00164Y02197*
X00164Y02199*
X00164Y022*
X00163Y02201*
X00163Y02202*
X00162Y02203*
X00162Y02204*
X00161Y02205*
X00161Y02205*
X00161Y02206*
X0016Y02206*
X0016Y02206*
X0016Y02206*
X00159Y02207*
X00158Y02208*
X00157Y02209*
X00156Y02209*
X00155Y0221*
X00154Y0221*
X00153Y0221*
X00152Y02211*
X00151Y02211*
X00151Y02211*
X0015Y02211*
X00149Y02211*
X00149*
X00148Y02211*
G37*
G36*
X00643Y00449D02*
X00643D01*
X00643*
X00642*
X00642*
X00642Y00449*
X00642Y00449*
X00641Y00449*
X00641Y00449*
X00641Y00448*
X0064Y00448*
X0064Y00448*
X0064Y00448*
X0064Y00448*
X0064Y00448*
X00639Y00447*
X00639Y00447*
X00639Y00447*
X00639Y00446*
Y00446*
X00639Y00446*
X00639Y00446*
X00639Y00446*
X00639Y00446*
X00639Y00446*
X00639Y00445*
X00638Y00445*
X00638Y00445*
X00638Y00445*
X00638Y00444*
X00638Y00444*
X00638Y00443*
X00638Y00442*
Y00437*
X00647*
Y00443*
X00647Y00444*
Y00444*
X00647Y00444*
X00647Y00445*
X00647Y00445*
Y00445*
X00647Y00445*
X00647Y00446*
X00647Y00446*
X00647Y00446*
X00646Y00446*
X00646Y00447*
X00646Y00447*
X00646Y00447*
X00646Y00447*
X00646Y00447*
X00646Y00447*
X00646Y00448*
X00645Y00448*
X00645Y00448*
X00645Y00448*
X00645Y00448*
X00645Y00448*
X00644Y00448*
X00644Y00449*
X00644Y00449*
X00643Y00449*
X00643Y00449*
X00643Y00449*
G37*
G36*
X00632Y00448D02*
X00632D01*
X00631*
X00631*
X00631Y00448*
X00631Y00448*
X0063Y00448*
X0063Y00447*
X0063Y00447*
X00629Y00447*
X00629Y00447*
X00629Y00447*
X00629Y00447*
X00629Y00447*
X00629Y00446*
X00628Y00446*
X00628Y00446*
X00628Y00445*
X00628Y00445*
Y00445*
X00628Y00445*
X00628Y00445*
X00628Y00445*
X00628Y00445*
X00628Y00445*
X00628Y00444*
X00628Y00444*
X00628Y00444*
X00628Y00443*
X00628Y00443*
Y00443*
X00628Y00442*
Y00437*
X00635*
Y00443*
X00635Y00443*
Y00443*
X00635Y00444*
X00635Y00444*
X00635Y00445*
X00635Y00445*
X00635Y00445*
Y00445*
X00635Y00445*
X00635Y00445*
X00635Y00446*
X00635Y00446*
X00635Y00446*
X00634Y00447*
X00634Y00447*
X00634Y00447*
X00634Y00447*
X00634Y00447*
X00633Y00447*
X00633Y00447*
X00633Y00448*
X00632Y00448*
X00632Y00448*
X00632Y00448*
G37*
%LNwol_pcb-3*%
%LPD*%
G54D10*
X0059Y00196D02*
Y00472D01*
X00763*
X0059Y00196D02*
X00763D01*
Y00472*
M02*