%FSTAX23Y23*%
%MOIN*%
%SFA1B1*%

%IPPOS*%
%ADD10C,0.003937*%
%LNwol_pcb-1*%
%LPD*%
G36*
X00564Y00769D02*
Y00736D01*
X00531Y00769*
X00564*
G37*
G36*
X00492Y00944D02*
Y00925D01*
X00472*
X00492Y00944*
G37*
G36*
X00628Y00444D02*
X0065D01*
Y00441*
X00628*
Y00432*
X00625*
Y00452*
X00628*
Y00444*
G37*
G36*
X00677Y00225D02*
X00657D01*
X00657Y00225*
X00657Y00225*
X00657Y00224*
X00658Y00224*
X00658Y00224*
X00658Y00223*
X00659Y00222*
X00659Y00222*
Y00222*
X00659Y00222*
X00659Y00222*
X00659Y00222*
X00659Y00221*
X00659Y00221*
X0066Y00221*
X0066Y0022*
X0066Y0022*
X0066Y00219*
X00661Y00219*
X00658*
X00658Y00219*
X00658Y00219*
X00658Y00219*
X00658Y00219*
X00657Y00219*
X00657Y00219*
X00657Y0022*
X00657Y0022*
X00656Y00221*
X00656Y00222*
X00655Y00222*
X00655Y00223*
X00655Y00223*
X00655Y00223*
X00655Y00223*
X00654Y00223*
X00654Y00224*
X00654Y00224*
X00654Y00224*
X00653Y00225*
X00653Y00225*
X00652Y00226*
X00651Y00226*
Y00228*
X00677*
Y00225*
G37*
G54D10*
X0011Y00974D02*
Y01053D01*
X00173*
Y00974D02*
Y01053D01*
X0011Y00974D02*
X00173D01*
Y00958D02*
X00188D01*
Y00974*
X00586Y01242D02*
X0059D01*
X00586Y01222D02*
X0059D01*
X00297Y0123D02*
X00301D01*
X00297Y0125D02*
X00301D01*
X00442Y00273D02*
Y00277D01*
X00423Y00273D02*
Y00277D01*
X00492Y00925D02*
Y00944D01*
X00472Y00925D02*
X00492D01*
X00472Y01122D02*
X00492D01*
Y01102D02*
Y01122D01*
X00295Y01102D02*
Y01122D01*
X00314*
X00295Y00925D02*
X00314D01*
X00295D02*
Y00944D01*
X00564Y00736D02*
Y00769D01*
X00531D02*
X00564D01*
X00531Y00435D02*
X00564D01*
Y00468*
X0023Y00435D02*
Y00468D01*
Y00435D02*
X00263D01*
X0023Y00769D02*
X00263D01*
X0023Y00736D02*
Y00769D01*
X00138Y00312D02*
Y0038D01*
X00018Y00312D02*
X00138D01*
X00018D02*
Y0038D01*
X00138*
X00763Y00196D02*
Y00472D01*
X0059D02*
X00763D01*
X0059Y00196D02*
Y00472D01*
Y00196D02*
X00763D01*
X00712Y01807D02*
Y02303D01*
X00074Y01807D02*
Y02303D01*
X00712*
Y01299D02*
Y01708D01*
X00074Y01299D02*
Y01708D01*
Y01299D02*
X00712D01*
X00586Y01175D02*
X0059D01*
X00586Y01194D02*
X0059D01*
X00564Y00935D02*
X00568D01*
X00564Y00954D02*
X00568D01*
X00214Y00935D02*
X00218D01*
X00214Y00915D02*
X00218D01*
X00576Y01021D02*
Y01025D01*
X00596Y01021D02*
Y01025D01*
X00096Y011D02*
X001D01*
X00096Y0108D02*
X001D01*
X00139Y00903D02*
Y00907D01*
X00159Y00903D02*
Y00907D01*
X00525Y00828D02*
X00529D01*
X00525Y00848D02*
X00529D01*
X00277Y00348D02*
Y00352D01*
X00297Y00348D02*
Y00352D01*
X00059Y00446D02*
X00062D01*
X00059Y00466D02*
X00062D01*
X00137Y00198D02*
Y00202D01*
X00118Y00198D02*
Y00202D01*
X00059Y00494D02*
X00062D01*
X00059Y00513D02*
X00062D01*
X00094Y00198D02*
Y00202D01*
X00074Y00198D02*
Y00202D01*
M02*