%FSTAX23Y23*%
%MOIN*%
%SFA1B1*%

%IPPOS*%
%ADD43C,0.011811*%
%ADD44C,0.051181*%
%ADD45C,0.090551*%
%ADD46C,0.062992*%
%ADD47C,0.031496*%
%ADD48C,0.055118*%
%ADD49C,0.059842*%
%ADD50C,0.055905*%
%ADD51C,0.082677*%
%ADD52C,0.127952*%
%ADD53C,0.023622*%
%LNwol_pcb-1*%
%LPD*%
G36*
X00787Y0D02*
X0D01*
Y02283*
X00787*
Y0*
G37*
%LNwol_pcb-2*%
%LPC*%
G36*
X00625Y01946D02*
X00612D01*
X00598Y01944*
X00586Y01938*
X00575Y01931*
X00565Y01922*
X00558Y0191*
X00553Y01898*
X0055Y01885*
Y01872*
X00553Y01858*
X00558Y01846*
X00565Y01835*
X00575Y01825*
X00586Y01818*
X00598Y01813*
X00612Y0181*
X00625*
X00638Y01813*
X0065Y01818*
X00661Y01825*
X00671Y01835*
X00678Y01846*
X00684Y01858*
X00686Y01872*
Y01885*
X00684Y01898*
X00678Y0191*
X00671Y01922*
X00661Y01931*
X0065Y01938*
X00638Y01944*
X00625Y01946*
G37*
G36*
X00175D02*
X00162D01*
X00148Y01944*
X00136Y01938*
X00125Y01931*
X00115Y01922*
X00108Y0191*
X00103Y01898*
X001Y01885*
Y01872*
X00103Y01858*
X00108Y01846*
X00115Y01835*
X00125Y01825*
X00136Y01818*
X00148Y01813*
X00162Y0181*
X00175*
X00188Y01813*
X002Y01818*
X00211Y01825*
X00221Y01835*
X00228Y01846*
X00234Y01858*
X00236Y01872*
Y01885*
X00234Y01898*
X00228Y0191*
X00221Y01922*
X00211Y01931*
X002Y01938*
X00188Y01944*
X00175Y01946*
G37*
G36*
X00089Y0181D02*
X00087D01*
Y01763*
X00134*
Y01765*
X0013Y01778*
X00123Y0179*
X00114Y01799*
X00102Y01806*
X00089Y0181*
G37*
G36*
X00711D02*
X00709D01*
Y01763*
X00756*
Y01765*
X00752Y01778*
X00745Y0179*
X00736Y01799*
X00724Y01806*
X00711Y0181*
G37*
G36*
X00699D02*
X00697D01*
X00684Y01806*
X00673Y01799*
X00663Y0179*
X00656Y01778*
X00653Y01765*
Y01763*
X00699*
Y0181*
G37*
G36*
X00077D02*
X00075D01*
X00062Y01806*
X00051Y01799*
X00041Y0179*
X00034Y01778*
X00031Y01765*
Y01763*
X00077*
Y0181*
G37*
G36*
X00756Y01753D02*
X00709D01*
Y01707*
X00711*
X00724Y0171*
X00736Y01717*
X00745Y01727*
X00752Y01738*
X00756Y01751*
Y01753*
G37*
G36*
X00699D02*
X00653D01*
Y01751*
X00656Y01738*
X00663Y01727*
X00673Y01717*
X00684Y0171*
X00697Y01707*
X00699*
Y01753*
G37*
G36*
X00134D02*
X00087D01*
Y01707*
X00089*
X00102Y0171*
X00114Y01717*
X00123Y01727*
X0013Y01738*
X00134Y01751*
Y01753*
G37*
G36*
X00077D02*
X00031D01*
Y01751*
X00034Y01738*
X00041Y01727*
X00051Y01717*
X00062Y0171*
X00075Y01707*
X00077*
Y01753*
G37*
G36*
X00573Y01666D02*
Y01633D01*
X00606*
X00604Y01643*
X00599Y01652*
X00592Y01659*
X00583Y01664*
X00573Y01666*
G37*
G36*
X00563D02*
X00554Y01664D01*
X00545Y01659*
X00538Y01652*
X00533Y01643*
X0053Y01633*
X00563*
Y01666*
G37*
G36*
X00472Y0166D02*
X00464D01*
X00456Y01658*
X00449Y01654*
X00443Y01648*
X00438Y01641*
X00436Y01632*
Y01624*
X00438Y01616*
X00443Y01609*
X00449Y01603*
X00456Y01599*
X00464Y01596*
X00472*
X00481Y01599*
X00488Y01603*
X00494Y01609*
X00498Y01616*
X005Y01624*
Y01632*
X00498Y01641*
X00494Y01648*
X00488Y01654*
X00481Y01658*
X00472Y0166*
G37*
G36*
X00272D02*
X00264D01*
X00256Y01658*
X00249Y01654*
X00243Y01648*
X00238Y01641*
X00236Y01632*
Y01624*
X00238Y01616*
X00243Y01609*
X00249Y01603*
X00256Y01599*
X00264Y01596*
X00272*
X00281Y01599*
X00288Y01603*
X00294Y01609*
X00298Y01616*
X003Y01624*
Y01632*
X00298Y01641*
X00294Y01648*
X00288Y01654*
X00281Y01658*
X00272Y0166*
G37*
G36*
X00606Y01623D02*
X00573D01*
Y0159*
X00583Y01593*
X00592Y01598*
X00599Y01605*
X00604Y01614*
X00606Y01623*
G37*
G36*
X00563D02*
X0053D01*
X00533Y01614*
X00538Y01605*
X00545Y01598*
X00554Y01593*
X00563Y0159*
Y01623*
G37*
G36*
X00522Y0156D02*
X00514D01*
X00506Y01558*
X00499Y01554*
X00493Y01548*
X00488Y01541*
X00486Y01532*
Y01524*
X00488Y01516*
X00493Y01509*
X00499Y01503*
X00506Y01499*
X00514Y01496*
X00522*
X00531Y01499*
X00538Y01503*
X00544Y01509*
X00548Y01516*
X0055Y01524*
Y01532*
X00548Y01541*
X00544Y01548*
X00538Y01554*
X00531Y01558*
X00522Y0156*
G37*
G36*
X00322D02*
X00314D01*
X00306Y01558*
X00299Y01554*
X00293Y01548*
X00288Y01541*
X00286Y01532*
Y01524*
X00288Y01516*
X00293Y01509*
X00299Y01503*
X00306Y01499*
X00314Y01496*
X00322*
X00331Y01499*
X00338Y01503*
X00344Y01509*
X00348Y01516*
X0035Y01524*
Y01532*
X00348Y01541*
X00344Y01548*
X00338Y01554*
X00331Y01558*
X00322Y0156*
G37*
G36*
X00222D02*
X00214D01*
X00206Y01558*
X00199Y01554*
X00193Y01548*
X00188Y01541*
X00186Y01532*
Y01524*
X00188Y01516*
X00193Y01509*
X00199Y01503*
X00206Y01499*
X00214Y01496*
X00222*
X00231Y01499*
X00233Y015*
X0032Y01412*
Y01393*
X00321Y01389*
X00323Y01386*
X00377Y01332*
Y01327*
X0038Y01321*
X00384Y01317*
X0039Y01314*
X00396*
X00402Y01317*
X00407Y01321*
X00409Y01327*
Y01333*
X00407Y01339*
X00402Y01344*
X00396Y01346*
X00392*
X0034Y01397*
Y01416*
X00339Y0142*
X00337Y01423*
X00247Y01514*
X00248Y01516*
X0025Y01524*
Y01532*
X00248Y01541*
X00244Y01548*
X00238Y01554*
X00231Y01558*
X00222Y0156*
G37*
G36*
X00613Y01372D02*
X00604D01*
X00595Y0137*
X00588Y01365*
X00581Y01359*
X00577Y01351*
X00575Y01343*
Y01334*
X00577Y01325*
X00581Y01317*
X00588Y01311*
X00595Y01307*
X00604Y01304*
X00613*
X00621Y01307*
X00629Y01311*
X00635Y01317*
X0064Y01325*
X00642Y01334*
Y01343*
X0064Y01351*
X00635Y01359*
X00629Y01365*
X00621Y0137*
X00613Y01372*
G37*
G36*
X00283D02*
X00274D01*
X00265Y0137*
X00257Y01365*
X00251Y01359*
X00246Y01351*
X00244Y01343*
Y01334*
X00246Y01325*
X00251Y01317*
X00257Y01311*
X00265Y01307*
X00274Y01304*
X00283*
X00291Y01307*
X00299Y01311*
X00305Y01317*
X0031Y01325*
X00312Y01334*
Y01343*
X0031Y01351*
X00305Y01359*
X00299Y01365*
X00291Y0137*
X00283Y01372*
G37*
G36*
X00183D02*
X00174D01*
X00165Y0137*
X00157Y01365*
X00151Y01359*
X00146Y01351*
X00144Y01343*
Y01334*
X00146Y01325*
X00151Y01317*
X00157Y01311*
X00165Y01307*
X00174Y01304*
X00183*
X00191Y01307*
X00199Y01311*
X00205Y01317*
X0021Y01325*
X00212Y01334*
Y01343*
X0021Y01351*
X00205Y01359*
X00199Y01365*
X00191Y0137*
X00183Y01372*
G37*
G36*
X00372Y0166D02*
X00364D01*
X00356Y01658*
X00349Y01654*
X00343Y01648*
X00338Y01641*
X00336Y01632*
Y01624*
X00338Y01616*
X00343Y01609*
X00349Y01603*
X00356Y01599*
X00358Y01598*
Y01473*
X00359Y01469*
X00361Y01466*
X00394Y01433*
X00397Y01431*
X00401Y0143*
X00428*
X00452Y01407*
Y01402*
X00455Y01396*
X00459Y01392*
X00465Y01389*
X0047*
X00472Y01387*
X00473Y01385*
X00433Y01345*
X00431Y01342*
X0043Y01338*
Y01323*
X00397Y01289*
X00331*
X00327Y01292*
X00322Y01295*
X00315*
X00309Y01292*
X00305Y01288*
X00303Y01282*
Y01276*
X00305Y0127*
X00309Y01266*
X00315Y01263*
X00322*
X00327Y01266*
X00331Y01269*
X00401*
X00405Y0127*
X00408Y01272*
X00448Y01311*
X0045Y01315*
X0045Y01318*
Y01334*
X00476Y01359*
X0048Y01356*
X00477Y01351*
X00475Y01343*
Y01334*
X00477Y01325*
X00478Y01322*
X00337Y01181*
X00331*
X00325Y01178*
X00321Y01174*
X00318Y01168*
Y01162*
X00321Y01156*
X00325Y01152*
X00331Y01149*
X00337*
X00343Y01152*
X00347Y01156*
X0035Y01162*
Y01165*
X00493Y01308*
X00495Y01307*
X00504Y01304*
X00513*
X00521Y01307*
X00529Y01311*
X00535Y01317*
X0054Y01325*
X00542Y01334*
Y01343*
X0054Y01351*
X00535Y01359*
X00529Y01365*
X00521Y0137*
X00513Y01372*
X00504*
X00495Y0137*
X0049Y01367*
X00487Y01371*
X00524Y01408*
X00549Y01384*
Y01267*
X00529Y01248*
X00524*
X00518Y01245*
X00514Y01241*
X00511Y01235*
Y01229*
X00514Y01223*
X00518Y01218*
X00524Y01216*
X0053*
X00536Y01218*
X0054Y01223*
X00543Y01229*
Y01233*
X00566Y01256*
X00568Y01259*
X00569Y01263*
Y01388*
X00568Y01392*
X00566Y01395*
X00531Y01429*
X00447Y01514*
X00448Y01516*
X0045Y01524*
Y01532*
X00448Y01541*
X00444Y01548*
X00438Y01554*
X00431Y01558*
X00422Y0156*
X00414*
X00406Y01558*
X00399Y01554*
X00393Y01548*
X00388Y01541*
X00386Y01532*
Y01524*
X00388Y01516*
X00393Y01509*
X00399Y01503*
X00406Y01499*
X00414Y01496*
X00422*
X00431Y01499*
X00433Y015*
X0051Y01422*
X00488Y014*
X00486Y01401*
X00484Y01403*
Y01408*
X00481Y01414*
X00477Y01418*
X00471Y01421*
X00466*
X0044Y01448*
X00436Y0145*
X00433Y0145*
X00405*
X00378Y01477*
Y01598*
X00381Y01599*
X00388Y01603*
X00394Y01609*
X00398Y01616*
X004Y01624*
Y01632*
X00398Y01641*
X00394Y01648*
X00388Y01654*
X00381Y01658*
X00372Y0166*
G37*
G36*
X00658Y01206D02*
Y0119D01*
X00675*
X00672Y01197*
X00665Y01203*
X00658Y01206*
G37*
G36*
X00648D02*
X00641Y01203D01*
X00635Y01197*
X00632Y0119*
X00648*
Y01206*
G37*
G36*
X00675Y0118D02*
X00658D01*
Y01163*
X00665Y01166*
X00672Y01172*
X00675Y0118*
G37*
G36*
X00648D02*
X00632D01*
X00635Y01172*
X00641Y01166*
X00648Y01163*
Y0118*
G37*
G36*
X0042Y0108D02*
X00415Y01079D01*
X00409Y01075*
X00404Y0107*
X00401Y01065*
X00401Y01064*
X00399Y01065*
X00398*
Y01028*
X00435*
Y01029*
X00434Y01031*
X00435Y01031*
X00441Y01034*
X00445Y01039*
X00449Y01045*
X0045Y0105*
X00425*
Y01055*
X0042*
Y0108*
G37*
G36*
X0043D02*
Y0106D01*
X0045*
X00449Y01065*
X00445Y0107*
X00441Y01075*
X00435Y01079*
X0043Y0108*
G37*
G36*
X00357D02*
X00352Y01079D01*
X00346Y01075*
X00341Y0107*
X00338Y01065*
X00336Y0106*
X00357*
Y0108*
G37*
G36*
X00367D02*
Y01055D01*
X00362*
Y0105*
X00336*
X00338Y01045*
X00341Y01039*
X00346Y01034*
X00352Y01031*
X00352Y01031*
X00352Y01029*
Y01028*
X00388*
Y01065*
X00388*
X00386Y01064*
X00386Y01065*
X00382Y0107*
X00378Y01075*
X00372Y01079*
X00367Y0108*
G37*
G36*
X00388Y01018D02*
X00352D01*
Y01018*
X00352Y01016*
X00352Y01016*
X00346Y01012*
X00341Y01007*
X00338Y01002*
X00336Y00997*
X00362*
Y00992*
X00367*
Y00966*
X00372Y00968*
X00378Y00971*
X00382Y00976*
X00386Y00982*
X00386Y00982*
X00388Y00982*
X00388*
Y01018*
G37*
G36*
X0045Y00987D02*
X0043D01*
Y00966*
X00435Y00968*
X00441Y00971*
X00445Y00976*
X00449Y00982*
X0045Y00987*
G37*
G36*
X00357D02*
X00336D01*
X00338Y00982*
X00341Y00976*
X00346Y00971*
X00352Y00968*
X00357Y00966*
Y00987*
G37*
G36*
X00435Y01018D02*
X00398D01*
Y00982*
X00399*
X00401Y00982*
X00401Y00982*
X00404Y00976*
X00409Y00971*
X00415Y00968*
X0042Y00966*
Y00992*
X00425*
Y00997*
X0045*
X00449Y01002*
X00445Y01007*
X00441Y01012*
X00435Y01016*
X00434Y01016*
X00435Y01018*
Y01018*
G37*
G36*
X00542Y01029D02*
X00536D01*
X0053Y01027*
X00526Y01022*
X00523Y01016*
Y0101*
X00526Y01004*
X00529Y01001*
Y00941*
X00523Y00935*
X00287*
X00284Y00938*
X00278Y0094*
X00272*
X00266Y00938*
X00262Y00934*
X00259Y00928*
Y00922*
X00262Y00916*
X00266Y00911*
X00272Y00909*
X00278*
X00284Y00911*
X00287Y00915*
X00475*
X00476Y0091*
X00471Y00908*
X00465Y00902*
X00462Y00894*
X00505*
X00502Y00902*
X00496Y00908*
X00492Y0091*
X00492Y00915*
X00527*
X00531Y00915*
X00534Y00918*
X00546Y00929*
X00548Y00933*
X00549Y00937*
Y01001*
X00552Y01004*
X00555Y0101*
Y01016*
X00552Y01022*
X00548Y01027*
X00542Y01029*
G37*
G36*
X00505Y00884D02*
X00489D01*
Y00868*
X00496Y00871*
X00502Y00877*
X00505Y00884*
G37*
G36*
X00479D02*
X00462D01*
X00465Y00877*
X00471Y00871*
X00479Y00868*
Y00884*
G37*
G36*
X00216Y01129D02*
X00059D01*
X00043Y01114*
Y00887*
X00045Y00885*
X00056*
Y00881*
X0006Y00873*
X00066Y00867*
X00073Y00864*
Y00885*
X00083*
Y00864*
X00091Y00867*
X00097Y00873*
X001Y00881*
Y00885*
X00149*
X00188Y00925*
X00236*
Y00976*
X00244Y00984*
X00295*
Y01043*
X00248*
X00236Y01055*
Y0111*
X00216Y01129*
G37*
G36*
X00542Y01094D02*
X00536D01*
X0053Y01092*
X00526Y01087*
X00523Y01081*
Y01075*
X00526Y01069*
X0053Y01065*
X00536Y01062*
X0054*
X00568Y01035*
Y00858*
X0055Y0084*
X00331*
X00327Y00844*
X00322Y00846*
X00315*
X00309Y00844*
X00305Y00839*
X00303Y00833*
Y00827*
X00305Y00821*
X00309Y00817*
X00315Y00814*
X00322*
X00327Y00817*
X00331Y0082*
X00555*
X00558Y00821*
X00562Y00823*
X00585Y00847*
X00588Y0085*
X00588Y00854*
Y01039*
X00588Y01043*
X00585Y01046*
X00555Y01077*
Y01081*
X00552Y01087*
X00548Y01092*
X00542Y01094*
G37*
G36*
X00103Y00604D02*
Y00587D01*
X00119*
X00116Y00595*
X0011Y00601*
X00103Y00604*
G37*
G36*
X00093D02*
X00086Y00601D01*
X00079Y00595*
X00076Y00587*
X00093*
Y00604*
G37*
G36*
X00119Y00577D02*
X00103D01*
Y00561*
X0011Y00564*
X00116Y0057*
X00119Y00577*
G37*
G36*
X00093D02*
X00076D01*
X00079Y0057*
X00086Y00564*
X00093Y00561*
Y00577*
G37*
G36*
X00518Y01145D02*
X00512D01*
X00506Y01143*
X00502Y01138*
X005Y01133*
Y01126*
X00502Y01121*
X00506Y01116*
X00512Y01114*
X00518*
X00524Y01116*
X00527Y01119*
X00562*
X00596Y01086*
Y00826*
X00578Y00809*
X00303*
X00287Y00825*
Y00829*
X00285Y00835*
X0028Y0084*
X00274Y00842*
X00268*
X00262Y0084*
X00258Y00835*
X00255Y00829*
Y00823*
X00258Y00817*
X00262Y00813*
X00268Y00811*
X00273*
X00292Y00792*
X00295Y00789*
X00299Y00789*
X00582*
X00586Y00789*
X00589Y00792*
X00613Y00815*
X00615Y00818*
X00616Y00822*
Y00899*
X00621Y00901*
X00623Y00899*
Y00748*
X00602Y00726*
X00314*
X00311Y00725*
X00307Y00723*
X00143Y00559*
X00138*
X00132Y00556*
X00128Y00552*
X00125Y00546*
Y0054*
X00128Y00534*
X00132Y00529*
X0013Y00526*
Y00508*
X00147*
X00144Y00516*
X00138Y00522*
X00137Y00522*
X00138Y00527*
X00144*
X0015Y00529*
X00155Y00534*
X00157Y0054*
Y00544*
X00319Y00706*
X00606*
X0061Y00707*
X00613Y00709*
X0064Y00737*
X00643Y0074*
X00643Y00744*
Y00901*
X00647Y00904*
X00649Y0091*
Y00916*
X00647Y00922*
X00642Y00926*
X00636Y00929*
X0063*
X00624Y00926*
X00621Y00923*
X00617Y00924*
X00616Y00924*
Y0109*
X00615Y01094*
X00613Y01097*
X00574Y01137*
X0057Y01139*
X00566Y01139*
X00527*
X00524Y01143*
X00518Y01145*
G37*
G36*
X0012Y00525D02*
X00113Y00522D01*
X00107Y00516*
X00104Y00508*
X0012*
Y00525*
G37*
G36*
X00147Y00498D02*
X0013D01*
Y00482*
X00138Y00485*
X00144Y00491*
X00147Y00498*
G37*
G36*
X0012D02*
X00104D01*
X00107Y00491*
X00113Y00485*
X0012Y00482*
Y00498*
G37*
G36*
X00721Y00458D02*
Y00426D01*
X00754*
X00751Y00435*
X00746Y00444*
X00739Y00451*
X00731Y00456*
X00721Y00458*
G37*
G36*
X00711D02*
X00702Y00456D01*
X00693Y00451*
X00686Y00444*
X00681Y00435*
X00678Y00426*
X00711*
Y00458*
G37*
G36*
X00754Y00416D02*
X00721D01*
Y00383*
X00731Y00386*
X00739Y00391*
X00746Y00398*
X00751Y00406*
X00754Y00416*
G37*
G36*
X00711D02*
X00678D01*
X00681Y00406*
X00686Y00398*
X00693Y00391*
X00702Y00386*
X00711Y00383*
Y00416*
G37*
G36*
X00641Y00409D02*
X00633D01*
X00625Y00407*
X00618Y00403*
X00612Y00397*
X00608Y0039*
X00606Y00382*
Y00373*
X00608Y00365*
X00612Y00358*
X00618Y00352*
X00625Y00348*
X00633Y00346*
X00641*
X00649Y00348*
X00657Y00352*
X00663Y00358*
X00667Y00365*
X00669Y00373*
Y00382*
X00667Y0039*
X00663Y00397*
X00657Y00403*
X00649Y00407*
X00641Y00409*
G37*
G36*
X00193Y00352D02*
Y00335D01*
X0021*
X00207Y00343*
X00201Y00349*
X00193Y00352*
G37*
G36*
X00183D02*
X00176Y00349D01*
X0017Y00343*
X00167Y00335*
X00183*
Y00352*
G37*
G36*
X0021Y00325D02*
X00193D01*
Y00309*
X00201Y00312*
X00207Y00318*
X0021Y00325*
G37*
G36*
X00183D02*
X00167D01*
X0017Y00318*
X00176Y00312*
X00183Y00309*
Y00325*
G37*
G36*
X0072Y00366D02*
X00712D01*
X00704Y00363*
X00697Y00359*
X00691Y00353*
X00687Y00346*
X00685Y00338*
Y0033*
X00687Y00322*
X00691Y00315*
X00697Y00309*
X00704Y00305*
X00712Y00303*
X0072*
X00728Y00305*
X00735Y00309*
X00741Y00315*
X00745Y00322*
X00748Y0033*
Y00338*
X00745Y00346*
X00741Y00353*
X00735Y00359*
X00728Y00363*
X0072Y00366*
G37*
G36*
X00388Y00685D02*
X00382D01*
X00376Y00682*
X00372Y00678*
X0037Y00672*
Y00666*
X00372Y0066*
X00376Y00655*
X00382Y00653*
X00387*
X00549Y00491*
Y0037*
X00549Y00366*
X00551Y00362*
X00609Y00305*
X00608Y00303*
X00606Y00295*
Y00287*
X00608Y00279*
X00612Y00272*
X00618Y00266*
X00623Y00263*
X00622Y00258*
X00555*
X00424Y00388*
X00421Y00391*
X00417Y00391*
X00354*
X00351Y00395*
X00345Y00397*
X00339*
X00333Y00395*
X00329Y0039*
X00326Y00385*
Y00378*
X00329Y00372*
X00333Y00368*
X00339Y00366*
X00345*
X00351Y00368*
X00354Y00371*
X00413*
X00544Y0024*
X00547Y00238*
X00551Y00237*
X00686*
X00687Y00235*
X00691Y00228*
X00697Y00222*
X00704Y00218*
X00712Y00216*
X0072*
X00728Y00218*
X00735Y00222*
X00741Y00228*
X00745Y00235*
X00748Y00243*
Y00252*
X00745Y0026*
X00741Y00267*
X00735Y00273*
X00728Y00277*
X0072Y00279*
X00712*
X00704Y00277*
X00697Y00273*
X00691Y00267*
X00687Y0026*
X00686Y00258*
X00653*
X00651Y00263*
X00657Y00266*
X00663Y00272*
X00667Y00279*
X00669Y00287*
Y00295*
X00667Y00303*
X00663Y0031*
X00657Y00316*
X00649Y0032*
X00641Y00322*
X00633*
X00625Y0032*
X00623Y00319*
X00569Y00374*
Y00496*
X00568Y00499*
X00566Y00503*
X00401Y00667*
Y00672*
X00399Y00678*
X00394Y00682*
X00388Y00685*
G37*
G36*
X00357Y0035D02*
X00351D01*
X00345Y00347*
X0034Y00343*
X00338Y00337*
Y00331*
X0034Y00325*
X00344Y00322*
Y00268*
X0034Y00264*
X00338Y00259*
Y00252*
X0034Y00246*
X00345Y00242*
X00351Y0024*
X00357*
X00363Y00242*
X00367Y00246*
X0037Y00252*
Y00259*
X00367Y00264*
X00364Y00268*
Y00322*
X00367Y00325*
X0037Y00331*
Y00337*
X00367Y00343*
X00363Y00347*
X00357Y0035*
G37*
G36*
X00489Y00143D02*
X00487D01*
Y00093*
X00537*
Y00095*
X00533Y00109*
X00526Y00122*
X00516Y00132*
X00503Y0014*
X00489Y00143*
G37*
G36*
X00477D02*
X00475D01*
X0046Y0014*
X00448Y00132*
X00438Y00122*
X0043Y00109*
X00427Y00095*
Y00093*
X00477*
Y00143*
G37*
G36*
X00312D02*
X0031D01*
Y00093*
X0036*
Y00095*
X00356Y00109*
X00349Y00122*
X00339Y00132*
X00326Y0014*
X00312Y00143*
G37*
G36*
X003D02*
X00297D01*
X00283Y0014*
X00271Y00132*
X0026Y00122*
X00253Y00109*
X00249Y00095*
Y00093*
X003*
Y00143*
G37*
G36*
X00713Y00122D02*
Y00091D01*
X00744*
X00741Y001*
X00737Y00108*
X0073Y00115*
X00722Y00119*
X00713Y00122*
G37*
G36*
X00703D02*
X00694Y00119D01*
X00686Y00115*
X0068Y00108*
X00675Y001*
X00673Y00091*
X00703*
Y00122*
G37*
G36*
X00082Y00116D02*
X00074D01*
X00067Y00114*
X0006Y0011*
X00055Y00104*
X00051Y00098*
X00049Y0009*
Y00082*
X00051Y00075*
X00055Y00068*
X0006Y00062*
X00067Y00059*
X00074Y00057*
X00082*
X0009Y00059*
X00096Y00062*
X00102Y00068*
X00106Y00075*
X00108Y00082*
Y0009*
X00106Y00098*
X00102Y00104*
X00096Y0011*
X0009Y00114*
X00082Y00116*
G37*
G36*
X00744Y00081D02*
X00713D01*
Y00051*
X00722Y00053*
X0073Y00058*
X00737Y00064*
X00741Y00072*
X00744Y00081*
G37*
G36*
X00703D02*
X00673D01*
X00675Y00072*
X0068Y00064*
X00686Y00058*
X00694Y00053*
X00703Y00051*
Y00081*
G37*
G36*
X00537Y00083D02*
X00487D01*
Y00033*
X00489*
X00503Y00037*
X00516Y00044*
X00526Y00054*
X00533Y00067*
X00537Y00081*
Y00083*
G37*
G36*
X00477D02*
X00427D01*
Y00081*
X0043Y00067*
X00438Y00054*
X00448Y00044*
X0046Y00037*
X00475Y00033*
X00477*
Y00083*
G37*
G36*
X0036D02*
X0031D01*
Y00033*
X00312*
X00326Y00037*
X00339Y00044*
X00349Y00054*
X00356Y00067*
X0036Y00081*
Y00083*
G37*
G36*
X003D02*
X00249D01*
Y00081*
X00253Y00067*
X0026Y00054*
X00271Y00044*
X00283Y00037*
X00297Y00033*
X003*
Y00083*
G37*
%LNwol_pcb-3*%
%LPD*%
G54D43*
X00314Y01011D02*
X00326Y01023D01*
X00393*
X00314Y00976D02*
Y01011D01*
X00307Y00968D02*
X00314Y00976D01*
X00255Y00968D02*
X00307D01*
X00248Y0096D02*
X00255Y00968D01*
X00241Y00909D02*
X00248Y00916D01*
X00216Y00909D02*
X00241D01*
X00248Y00916D02*
Y0096D01*
X00196Y00889D02*
X00216Y00909D01*
X00082Y00889D02*
X00196D01*
X00484*
X00275Y00925D02*
X00527D01*
X00275D02*
D01*
X00098Y00531D02*
X00125Y00503D01*
X00098Y00531D02*
Y00582D01*
X00425Y01185D02*
X00653D01*
X00393Y01023D02*
Y01153D01*
X00425Y01185*
X00141Y00543D02*
X00314Y00716D01*
X00606*
X00633Y00744D02*
Y00913D01*
X00606Y00716D02*
X00633Y00744D01*
X00342Y00381D02*
X00417D01*
X00551Y00248*
X00716*
X00559Y0037D02*
Y00496D01*
Y0037D02*
X00637Y00291D01*
X00385Y00669D02*
X00559Y00496D01*
X00078Y00885D02*
X00082Y00889D01*
X00299Y00799D02*
X00582D01*
X00271Y00826D02*
X00299Y00799D01*
X00582D02*
X00606Y00822D01*
Y0109*
X00566Y01129D02*
X00606Y0109D01*
X00515Y01129D02*
X00566D01*
X00539Y01078D02*
X00578Y01039D01*
Y00854D02*
Y01039D01*
X00555Y0083D02*
X00578Y00854D01*
X00318Y0083D02*
X00555D01*
X00524Y01422D02*
X00559Y01388D01*
X00418Y01528D02*
X00524Y01422D01*
X0044Y01318D02*
Y01338D01*
X00524Y01422*
X00318Y01279D02*
X00401D01*
X0044Y01318*
X0033Y01393D02*
Y01416D01*
Y01393D02*
X00393Y0133D01*
X00218Y01528D02*
X0033Y01416D01*
X00527Y01232D02*
X00559Y01263D01*
Y01388*
X00368Y01473D02*
Y01628D01*
Y01473D02*
X00401Y0144D01*
X00433D02*
X00468Y01405D01*
X00401Y0144D02*
X00433D01*
X00334Y01165D02*
X00335D01*
X00508Y01338*
X0023Y00088D02*
X00305D01*
X00188Y00129D02*
X0023Y00088D01*
X00188Y00129D02*
Y0033D01*
X00527Y00925D02*
X00539Y00937D01*
Y01011*
X00354Y00255D02*
Y00334D01*
G54D44*
X00708Y00086D03*
X00078D03*
G54D45*
X00482Y00088D03*
X00305D03*
G54D46*
X00393Y01023D03*
G54D47*
X00425Y00992D03*
Y01055D03*
X00362D03*
Y00992D03*
G54D48*
X00637Y00377D03*
Y00291D03*
X00716Y00421D03*
Y00334D03*
Y00248D03*
G54D49*
X00608Y01338D03*
X00508D03*
X00278D03*
X00178D03*
G54D50*
X00218Y01528D03*
X00268Y01628D03*
X00318Y01528D03*
X00368Y01628D03*
X00418Y01528D03*
X00468Y01628D03*
X00518Y01528D03*
X00568Y01628D03*
G54D51*
X00704Y01758D03*
X00082D03*
G54D52*
X00168Y01878D03*
X00618D03*
G54D53*
X00275Y00925D03*
X00098Y00582D03*
X00125Y00503D03*
X00653Y01185D03*
X00141Y00543D03*
X00633Y00913D03*
X00342Y00381D03*
X00385Y00669D03*
X00078Y00885D03*
X00271Y00826D03*
X00484Y00889D03*
X00515Y01129D03*
X00539Y01078D03*
X00318Y0083D03*
Y01279D03*
X00393Y0133D03*
X00527Y01232D03*
X00468Y01405D03*
X00334Y01165D03*
X00188Y0033D03*
X00539Y01013D03*
X00354Y00334D03*
Y00255D03*
M02*