%FSTAX23Y23*%
%MOIN*%
%SFA1B1*%

%IPPOS*%
%ADD11R,0.035433X0.037401*%
%ADD12C,0.019685*%
%ADD13R,0.051181X0.066929*%
%ADD14R,0.023622X0.027559*%
%ADD15R,0.027559X0.023622*%
%ADD16R,0.011811X0.027559*%
%ADD17R,0.137795X0.137795*%
%ADD18R,0.027559X0.011811*%
%ADD19R,0.019685X0.047244*%
%ADD20R,0.047244X0.019685*%
%ADD21R,0.023622X0.043307*%
%LNwol_pcb-1*%
%LPD*%
G54D11*
X00118Y01044D03*
X00165Y00983D03*
Y01044D03*
X00118Y00983D03*
G54D12*
X00452Y00822D03*
X00413Y00846D03*
X00354Y00866D03*
X00169Y00744D03*
X00051Y01122D03*
X00033Y00631D03*
X00716Y0057D03*
X00041Y00543D03*
Y00181D03*
G54D13*
X00251Y00181D03*
X00354D03*
X00433D03*
X00531D03*
G54D14*
X00568Y01232D03*
X00608D03*
X00318Y0124D03*
X00279D03*
X00608Y01185D03*
X00568D03*
X00586Y00944D03*
X00547D03*
X00196Y00925D03*
X00236D03*
X00078Y0109D03*
X00118D03*
X00547Y00838D03*
X00507D03*
X0008Y00456D03*
X00041D03*
X0008Y00503D03*
X00041D03*
G54D15*
X00433Y00295D03*
Y00255D03*
X00586Y01003D03*
Y01043D03*
X00149Y00885D03*
Y00925D03*
X00287Y0033D03*
Y0037D03*
X00127Y0022D03*
Y00181D03*
X00084Y0022D03*
Y00181D03*
G54D16*
X00393Y01122D03*
X00413D03*
X00433D03*
X00452D03*
X00374D03*
X00354D03*
X00334D03*
X00393Y00925D03*
X00374D03*
X00354D03*
X00334D03*
X00413D03*
X00433D03*
X00452D03*
G54D17*
X00393Y01023D03*
G54D18*
X00295Y01023D03*
Y01043D03*
Y01062D03*
Y01082D03*
Y01003D03*
Y00984D03*
Y00964D03*
X00492Y01023D03*
Y01003D03*
Y00984D03*
Y00964D03*
Y01043D03*
Y01062D03*
Y01082D03*
G54D19*
X00507Y00769D03*
X00476D03*
X00444D03*
X00413D03*
X00287D03*
X00318D03*
X0035D03*
X00381D03*
X00287Y00435D03*
X00318D03*
X0035D03*
X00381D03*
X00507D03*
X00476D03*
X00444D03*
X00413D03*
G54D20*
X0023Y00712D03*
Y00681D03*
Y00649D03*
Y00618D03*
Y00492D03*
Y00523D03*
Y00555D03*
Y00586D03*
X00564Y00492D03*
Y00523D03*
Y00555D03*
Y00586D03*
Y00712D03*
Y00681D03*
Y00649D03*
Y00618D03*
G54D21*
X00078Y00295D03*
X00041Y00397D03*
X00116D03*
Y00295D03*
X00041D03*
M02*