%FSTAX23Y23*%
%MOIN*%
%SFA1B1*%

%IPPOS*%
%ADD22R,0.043433X0.045401*%
%ADD23C,0.027685*%
%ADD24R,0.059181X0.074929*%
%ADD25R,0.031622X0.035559*%
%ADD26R,0.035559X0.031622*%
%ADD27R,0.019811X0.035559*%
%ADD28R,0.145795X0.145795*%
%ADD29R,0.035559X0.019811*%
%ADD30R,0.027685X0.055244*%
%ADD31R,0.055244X0.027685*%
%ADD32R,0.031622X0.051307*%
%ADD33C,0.059181*%
%ADD34C,0.098551*%
%ADD35C,0.070992*%
%ADD36C,0.039496*%
%ADD37C,0.063118*%
%ADD38C,0.067842*%
%ADD39C,0.063905*%
%ADD40C,0.090677*%
%ADD41C,0.135952*%
%ADD42C,0.031622*%
%LNwol_pcb-1*%
%LPD*%
G54D22*
X00118Y01044D03*
X00165Y00983D03*
Y01044D03*
X00118Y00983D03*
G54D23*
X00452Y00822D03*
X00413Y00846D03*
X00354Y00866D03*
X00169Y00744D03*
X00051Y01122D03*
X00033Y00631D03*
X00716Y0057D03*
X00041Y00543D03*
Y00181D03*
G54D24*
X00251Y00181D03*
X00354D03*
X00433D03*
X00531D03*
G54D25*
X00568Y01232D03*
X00608D03*
X00318Y0124D03*
X00279D03*
X00608Y01185D03*
X00568D03*
X00586Y00944D03*
X00547D03*
X00196Y00925D03*
X00236D03*
X00078Y0109D03*
X00118D03*
X00547Y00838D03*
X00507D03*
X0008Y00456D03*
X00041D03*
X0008Y00503D03*
X00041D03*
G54D26*
X00433Y00295D03*
Y00255D03*
X00586Y01003D03*
Y01043D03*
X00149Y00885D03*
Y00925D03*
X00287Y0033D03*
Y0037D03*
X00127Y0022D03*
Y00181D03*
X00084Y0022D03*
Y00181D03*
G54D27*
X00393Y01122D03*
X00413D03*
X00433D03*
X00452D03*
X00374D03*
X00354D03*
X00334D03*
X00393Y00925D03*
X00374D03*
X00354D03*
X00334D03*
X00413D03*
X00433D03*
X00452D03*
G54D28*
X00393Y01023D03*
G54D29*
X00295Y01023D03*
Y01043D03*
Y01062D03*
Y01082D03*
Y01003D03*
Y00984D03*
Y00964D03*
X00492Y01023D03*
Y01003D03*
Y00984D03*
Y00964D03*
Y01043D03*
Y01062D03*
Y01082D03*
G54D30*
X00507Y00769D03*
X00476D03*
X00444D03*
X00413D03*
X00287D03*
X00318D03*
X0035D03*
X00381D03*
X00287Y00435D03*
X00318D03*
X0035D03*
X00381D03*
X00507D03*
X00476D03*
X00444D03*
X00413D03*
G54D31*
X0023Y00712D03*
Y00681D03*
Y00649D03*
Y00618D03*
Y00492D03*
Y00523D03*
Y00555D03*
Y00586D03*
X00564Y00492D03*
Y00523D03*
Y00555D03*
Y00586D03*
Y00712D03*
Y00681D03*
Y00649D03*
Y00618D03*
G54D32*
X00078Y00295D03*
X00041Y00397D03*
X00116D03*
Y00295D03*
X00041D03*
G54D33*
X00708Y00086D03*
X00078D03*
G54D34*
X00482Y00088D03*
X00305D03*
G54D35*
X00393Y01023D03*
G54D36*
X00425Y00992D03*
Y01055D03*
X00362D03*
Y00992D03*
G54D37*
X00637Y00377D03*
Y00291D03*
X00716Y00421D03*
Y00334D03*
Y00248D03*
G54D38*
X00608Y01338D03*
X00508D03*
X00278D03*
X00178D03*
G54D39*
X00218Y01528D03*
X00268Y01628D03*
X00318Y01528D03*
X00368Y01628D03*
X00418Y01528D03*
X00468Y01628D03*
X00518Y01528D03*
X00568Y01628D03*
G54D40*
X00704Y01758D03*
X00082D03*
G54D41*
X00168Y01878D03*
X00618D03*
G54D42*
X00275Y00925D03*
X00098Y00582D03*
X00125Y00503D03*
X00653Y01185D03*
X00141Y00543D03*
X00633Y00913D03*
X00342Y00381D03*
X00385Y00669D03*
X00078Y00885D03*
X00271Y00826D03*
X00484Y00889D03*
X00515Y01129D03*
X00539Y01078D03*
X00318Y0083D03*
Y01279D03*
X00393Y0133D03*
X00527Y01232D03*
X00468Y01405D03*
X00334Y01165D03*
X00188Y0033D03*
X00539Y01013D03*
X00354Y00334D03*
Y00255D03*
M02*