G04*
G04 #@! TF.GenerationSoftware,Altium Limited,Altium Designer,23.1.1 (15)*
G04*
G04 Layer_Color=65535*
%FSLAX44Y44*%
%MOMM*%
G71*
G04*
G04 #@! TF.SameCoordinates,7C6788F6-0183-4130-A877-ABEC5F4682B5*
G04*
G04*
G04 #@! TF.FilePolarity,Positive*
G04*
G01*
G75*
%ADD10C,0.1000*%
G36*
X143500Y195500D02*
Y187000D01*
X135000Y195500D01*
X143500D01*
D02*
G37*
G36*
X125000Y240000D02*
Y235000D01*
X120000D01*
X125000Y240000D01*
D02*
G37*
G36*
X159556Y112892D02*
X165200D01*
Y112046D01*
X159556D01*
Y109938D01*
X158800D01*
Y115000D01*
X159556D01*
Y112892D01*
D02*
G37*
G36*
X172000Y56216D02*
X167000D01*
X167014Y56203D01*
X167049Y56168D01*
X167097Y56105D01*
X167167Y56015D01*
X167250Y55911D01*
X167340Y55780D01*
X167437Y55634D01*
X167541Y55468D01*
Y55461D01*
X167555Y55447D01*
X167569Y55426D01*
X167583Y55391D01*
X167611Y55350D01*
X167631Y55301D01*
X167694Y55190D01*
X167756Y55065D01*
X167826Y54927D01*
X167888Y54781D01*
X167943Y54642D01*
X167188D01*
X167181Y54649D01*
X167174Y54670D01*
X167153Y54705D01*
X167132Y54753D01*
X167104Y54809D01*
X167063Y54878D01*
X167021Y54954D01*
X166980Y55031D01*
X166869Y55211D01*
X166737Y55405D01*
X166598Y55606D01*
X166439Y55793D01*
X166432Y55800D01*
X166418Y55814D01*
X166397Y55842D01*
X166362Y55877D01*
X166321Y55911D01*
X166279Y55960D01*
X166161Y56064D01*
X166037Y56182D01*
X165891Y56300D01*
X165738Y56404D01*
X165579Y56494D01*
Y57000D01*
X172000D01*
Y56216D01*
D02*
G37*
D10*
X149100Y237500D02*
Y242500D01*
X138900Y237500D02*
Y242500D01*
X149100D01*
X138900Y237500D02*
X149100D01*
X143500Y187000D02*
Y195500D01*
X135000D02*
X143500D01*
X135000Y110500D02*
X143500D01*
Y119000D01*
X58500Y110500D02*
Y119000D01*
Y110500D02*
X67000D01*
X58500Y195500D02*
X67000D01*
X58500Y187000D02*
Y195500D01*
X154600Y298500D02*
Y303500D01*
X144400Y298500D02*
Y303500D01*
X154600D01*
X144400Y298500D02*
X154600D01*
X146500Y254900D02*
X151500D01*
X146500Y265100D02*
X151500D01*
Y254900D02*
Y265100D01*
X146500Y254900D02*
Y265100D01*
X19000Y332200D02*
Y585200D01*
Y332200D02*
X181000D01*
Y585200D01*
X19000D02*
X181000D01*
X70900Y312500D02*
X81100D01*
X70900D02*
Y317500D01*
X81100Y312500D02*
Y317500D01*
X70900D02*
X81100D01*
X144400Y315500D02*
X154600D01*
Y310500D02*
Y315500D01*
X144400Y310500D02*
Y315500D01*
Y310500D02*
X154600D01*
X125000Y235000D02*
Y240000D01*
X120000Y235000D02*
X125000D01*
X120000Y285000D02*
X125000D01*
Y280000D02*
Y285000D01*
X75000Y280000D02*
Y285000D01*
X80000D01*
X75000Y235000D02*
X80000D01*
X75000D02*
Y240000D01*
X194000Y50000D02*
Y120000D01*
X150000D02*
X194000D01*
X150000Y50000D02*
Y120000D01*
Y50000D02*
X194000D01*
X70500Y83900D02*
Y94100D01*
X75500Y83900D02*
Y94100D01*
X70500D02*
X75500D01*
X70500Y83900D02*
X75500D01*
X128900Y210500D02*
X139100D01*
X128900Y215500D02*
X139100D01*
X128900Y210500D02*
Y215500D01*
X139100Y210500D02*
Y215500D01*
X10400Y125500D02*
X20600D01*
X10400Y130500D02*
X20600D01*
X10400Y125500D02*
Y130500D01*
X20600Y125500D02*
Y130500D01*
X4750Y96750D02*
X35250D01*
X4750Y79250D02*
Y96750D01*
Y79250D02*
X35250D01*
Y96750D01*
X35000Y45900D02*
Y56100D01*
X30000Y45900D02*
Y56100D01*
Y45900D02*
X35000D01*
X30000Y56100D02*
X35000D01*
X107500Y64900D02*
Y75100D01*
X112500D01*
X107500Y64900D02*
X112500D01*
Y75100D01*
X24000Y45900D02*
Y56100D01*
X19000Y45900D02*
Y56100D01*
Y45900D02*
X24000D01*
X19000Y56100D02*
X24000D01*
X10400Y113500D02*
X20600D01*
X10400Y118500D02*
X20600D01*
X10400Y113500D02*
Y118500D01*
X20600Y113500D02*
Y118500D01*
X28000Y247500D02*
Y267500D01*
X44000D01*
Y247500D02*
Y267500D01*
X28000Y247500D02*
X44000D01*
Y243500D02*
X48000D01*
Y247500D01*
X19900Y279500D02*
X30100D01*
X19900Y274500D02*
X30100D01*
Y279500D01*
X19900Y274500D02*
Y279500D01*
X35500Y224900D02*
Y235100D01*
X40500Y224900D02*
Y235100D01*
X35500D02*
X40500D01*
X35500Y224900D02*
X40500D01*
X49900Y237500D02*
X60100D01*
X49900Y232500D02*
X60100D01*
Y237500D01*
X49900Y232500D02*
Y237500D01*
M02*
