%TF.GenerationSoftware,Altium Limited,Altium Designer,23.1.1 (15)*%
G04 Layer_Color=0*
%FSLAX45Y45*%
%MOMM*%
%TF.SameCoordinates,70D3D16F-5039-4D94-BC45-45D6FC6AA8C1*%
%TF.FilePolarity,Positive*%
%TF.FileFunction,Plated,1,2,PTH,Drill*%
%TF.Part,Single*%
G01*
G75*
%TA.AperFunction,ComponentDrill*%
%ADD61C,0.90000*%
%ADD62C,0.50000*%
%ADD63C,0.50000*%
%ADD64C,1.00000*%
%ADD65C,1.90000*%
%ADD66C,1.02000*%
%ADD67C,1.60000*%
%TA.AperFunction,ViaDrill,NotFilled*%
%ADD68C,0.30000*%
D61*
X1000000Y2600000D02*
D03*
X555500Y3883000D02*
D03*
X682500Y4137000D02*
D03*
X809500Y3883000D02*
D03*
X936500Y4137000D02*
D03*
X1063500Y3883000D02*
D03*
X1190500Y4137000D02*
D03*
X1317500Y3883000D02*
D03*
X1444500Y4137000D02*
D03*
D62*
X1070000Y2530000D02*
D03*
X930000Y2670000D02*
D03*
D63*
X1070000D02*
D03*
X930000Y2530000D02*
D03*
D64*
X1800000Y220000D02*
D03*
X200000D02*
D03*
D65*
X1225000Y225000D02*
D03*
X775000D02*
D03*
D66*
X1546500Y3400000D02*
D03*
X1292500D02*
D03*
X707500D02*
D03*
X453500D02*
D03*
D67*
X1790000Y4467000D02*
D03*
X210000D02*
D03*
D68*
X770000Y2340000D02*
D03*
X200000Y2250000D02*
D03*
X870000Y1800000D02*
D03*
X1290000Y900000D02*
D03*
X1400000Y790000D02*
D03*
X250000Y1480000D02*
D03*
X320000Y1280000D02*
D03*
X1660000Y3010000D02*
D03*
X360000Y1380000D02*
D03*
X1610000Y2320000D02*
D03*
X690000Y2100000D02*
D03*
X1230000Y2260000D02*
D03*
X1310000Y2870000D02*
D03*
X1370000Y2740000D02*
D03*
X810000Y2110000D02*
D03*
Y3250000D02*
D03*
X1000000Y3380000D02*
D03*
X1340000Y3130000D02*
D03*
X1190000Y3570000D02*
D03*
X850000Y2960000D02*
D03*
X480000Y840000D02*
D03*
X1370000Y2575000D02*
D03*
X900000Y850000D02*
D03*
Y650000D02*
D03*
%TF.MD5,b3f469a604ea387bf4a7375d08c4346b*%
M02*
