G04*
G04 #@! TF.GenerationSoftware,Altium Limited,Altium Designer,23.1.1 (15)*
G04*
G04 Layer_Color=255*
%FSLAX44Y44*%
%MOMM*%
G71*
G04*
G04 #@! TF.SameCoordinates,0A2B7A54-8BD8-49A5-B6CA-EEF6859B9906*
G04*
G04*
G04 #@! TF.FilePolarity,Positive*
G04*
G01*
G75*
%ADD11R,0.9000X0.9500*%
%ADD12C,0.5000*%
%ADD13R,1.3000X1.7000*%
%ADD14R,0.6000X0.7000*%
%ADD15R,0.7000X0.6000*%
%ADD16R,0.3000X0.7000*%
%ADD17R,3.5000X3.5000*%
%ADD18R,0.7000X0.3000*%
%ADD19R,0.5000X1.2000*%
%ADD20R,1.2000X0.5000*%
%ADD21R,0.6000X1.1000*%
%ADD44C,1.3000*%
%ADD45C,2.3000*%
%ADD46C,1.6000*%
%ADD47C,0.8000*%
%ADD48C,1.4000*%
%ADD49C,1.5200*%
%ADD50C,1.4200*%
%ADD51C,2.1000*%
%ADD52C,3.2500*%
D11*
X30000Y265250D02*
D03*
X42000Y249750D02*
D03*
Y265250D02*
D03*
X30000Y249750D02*
D03*
D12*
X115000Y209000D02*
D03*
X105000Y215000D02*
D03*
X90000Y220000D02*
D03*
X43000Y189000D02*
D03*
X13000Y285000D02*
D03*
X8500Y160500D02*
D03*
X182000Y145000D02*
D03*
X10500Y138000D02*
D03*
Y46000D02*
D03*
D13*
X64000D02*
D03*
X90000D02*
D03*
X110000D02*
D03*
X135000D02*
D03*
D14*
X144500Y313000D02*
D03*
X154500D02*
D03*
X81000Y315000D02*
D03*
X71000D02*
D03*
X154500Y301000D02*
D03*
X144500D02*
D03*
X149000Y240000D02*
D03*
X139000D02*
D03*
X50000Y235000D02*
D03*
X60000D02*
D03*
X20000Y277000D02*
D03*
X30000D02*
D03*
X139000Y213000D02*
D03*
X129000D02*
D03*
X20500Y116000D02*
D03*
X10500D02*
D03*
X20500Y128000D02*
D03*
X10500D02*
D03*
D15*
X110000Y75000D02*
D03*
Y65000D02*
D03*
X149000Y255000D02*
D03*
Y265000D02*
D03*
X38000Y225000D02*
D03*
Y235000D02*
D03*
X73000Y84000D02*
D03*
Y94000D02*
D03*
X32500Y56000D02*
D03*
Y46000D02*
D03*
X21500Y56000D02*
D03*
Y46000D02*
D03*
D16*
X100000Y285000D02*
D03*
X105000D02*
D03*
X110000D02*
D03*
X115000D02*
D03*
X95000D02*
D03*
X90000D02*
D03*
X85000D02*
D03*
X100000Y235000D02*
D03*
X95000D02*
D03*
X90000D02*
D03*
X85000D02*
D03*
X105000D02*
D03*
X110000D02*
D03*
X115000D02*
D03*
D17*
X100000Y260000D02*
D03*
D18*
X75000D02*
D03*
Y265000D02*
D03*
Y270000D02*
D03*
Y275000D02*
D03*
Y255000D02*
D03*
Y250000D02*
D03*
Y245000D02*
D03*
X125000Y260000D02*
D03*
Y255000D02*
D03*
Y250000D02*
D03*
Y245000D02*
D03*
Y265000D02*
D03*
Y270000D02*
D03*
Y275000D02*
D03*
D19*
X129000Y195500D02*
D03*
X121000D02*
D03*
X113000D02*
D03*
X105000D02*
D03*
X73000D02*
D03*
X81000D02*
D03*
X89000D02*
D03*
X97000D02*
D03*
X73000Y110500D02*
D03*
X81000D02*
D03*
X89000D02*
D03*
X97000D02*
D03*
X129000D02*
D03*
X121000D02*
D03*
X113000D02*
D03*
X105000D02*
D03*
D20*
X58500Y181000D02*
D03*
Y173000D02*
D03*
Y165000D02*
D03*
Y157000D02*
D03*
Y125000D02*
D03*
Y133000D02*
D03*
Y141000D02*
D03*
Y149000D02*
D03*
X143500Y125000D02*
D03*
Y133000D02*
D03*
Y141000D02*
D03*
Y149000D02*
D03*
Y181000D02*
D03*
Y173000D02*
D03*
Y165000D02*
D03*
Y157000D02*
D03*
D21*
X20000Y75000D02*
D03*
X10500Y101000D02*
D03*
X29500D02*
D03*
Y75000D02*
D03*
X10500D02*
D03*
D44*
X180000Y22000D02*
D03*
X20000D02*
D03*
D45*
X122500Y22500D02*
D03*
X77500D02*
D03*
D46*
X100000Y260000D02*
D03*
D47*
X108000Y252000D02*
D03*
Y268000D02*
D03*
X92000D02*
D03*
Y252000D02*
D03*
D48*
X162000Y96000D02*
D03*
Y74000D02*
D03*
X182000Y107000D02*
D03*
Y85000D02*
D03*
Y63000D02*
D03*
D49*
X154650Y340000D02*
D03*
X129250D02*
D03*
X70750D02*
D03*
X45350D02*
D03*
D50*
X55550Y388300D02*
D03*
X68250Y413700D02*
D03*
X80950Y388300D02*
D03*
X93650Y413700D02*
D03*
X106350Y388300D02*
D03*
X119050Y413700D02*
D03*
X131750Y388300D02*
D03*
X144450Y413700D02*
D03*
D51*
X179000Y446700D02*
D03*
X21000D02*
D03*
D52*
X42850Y477200D02*
D03*
X157150D02*
D03*
M02*
