%TF.GenerationSoftware,Altium Limited,Altium Designer,23.1.1 (15)*%
G04 Layer_Physical_Order=2*
G04 Layer_Color=16711680*
%FSLAX45Y45*%
%MOMM*%
%TF.SameCoordinates,8534D3C2-D56F-49E7-8A62-4489C1F11DDD*%
%TF.FilePolarity,Positive*%
%TF.FileFunction,Copper,L2,Bot,Signal*%
%TF.Part,Single*%
G01*
G75*
%TA.AperFunction,Conductor*%
%ADD21C,0.30000*%
%TA.AperFunction,ComponentPad*%
%ADD22C,1.30000*%
%ADD23C,3.25000*%
%ADD24C,2.10000*%
%ADD25C,1.42000*%
%ADD26C,1.52000*%
%ADD27C,1.60000*%
%ADD28C,0.80000*%
%ADD29C,1.40000*%
%ADD30C,2.30000*%
%TA.AperFunction,ViaPad*%
%ADD31C,0.60000*%
D21*
X250000Y1350000D02*
X320000Y1280000D01*
X250000Y1350000D02*
Y1480000D01*
X1080000Y3010000D02*
X1660000D01*
X1000000Y2600000D02*
Y2930000D01*
X1080000Y3010000D01*
X500000Y2260000D02*
X1230000D01*
X210000D02*
X500000D01*
Y2530000D01*
X570000Y2600000D02*
X1000000D01*
X500000Y2530000D02*
X570000Y2600000D01*
X360000Y1380000D02*
X800000Y1820000D01*
X1540000D01*
X1610000Y1890000D02*
Y2320000D01*
X1540000Y1820000D02*
X1610000Y1890000D01*
X870000Y970000D02*
X1060000D01*
X1400000Y630000D01*
X1820000D01*
X1420000Y940000D02*
Y1260000D01*
Y940000D02*
X1620000Y740000D01*
X980000Y1700000D02*
X1420000Y1260000D01*
X200000Y2250000D02*
X210000Y2260000D01*
X760000Y2030000D02*
X1480000D01*
X690000Y2100000D02*
X760000Y2030000D01*
X1480000D02*
X1540000Y2090000D01*
Y2770000D01*
X1440000Y2870000D02*
X1540000Y2770000D01*
X1310000Y2870000D02*
X1440000D01*
X1370000Y2740000D02*
X1470000Y2640000D01*
Y2170000D02*
Y2640000D01*
X1410000Y2110000D02*
X1470000Y2170000D01*
X810000Y2110000D02*
X1410000D01*
X1333250Y3613250D02*
X1420000Y3526500D01*
X1063500Y3883000D02*
X1333250Y3613250D01*
X1120000Y3350000D02*
Y3400000D01*
X1333250Y3613250D01*
X810000Y3250000D02*
X1020000D01*
X1120000Y3350000D01*
X840000Y3540000D02*
Y3598500D01*
Y3540000D02*
X1000000Y3380000D01*
X555500Y3883000D02*
X840000Y3598500D01*
X1340000Y3130000D02*
X1420000Y3210000D01*
Y3526500D01*
X936500Y3743500D02*
Y4137000D01*
Y3743500D02*
X1020000Y3660000D01*
X1100000D02*
X1190000Y3570000D01*
X1020000Y3660000D02*
X1100000D01*
X850000Y2960000D02*
X852500D01*
X1292500Y3400000D01*
X585000Y225000D02*
X775000D01*
X480000Y330000D02*
X585000Y225000D01*
X480000Y330000D02*
Y840000D01*
X700000Y2350000D02*
X700000Y2350000D01*
X1340000D01*
X1370000Y2380000D01*
Y2570000D01*
X900000Y650000D02*
Y850000D01*
D22*
X200000Y220000D02*
D03*
X1800000D02*
D03*
D23*
X1571500Y4772000D02*
D03*
X428500D02*
D03*
D24*
X210000Y4467000D02*
D03*
X1790000D02*
D03*
D25*
X1444500Y4137000D02*
D03*
X1317500Y3883000D02*
D03*
X1190500Y4137000D02*
D03*
X1063500Y3883000D02*
D03*
X936500Y4137000D02*
D03*
X809500Y3883000D02*
D03*
X682500Y4137000D02*
D03*
X555500Y3883000D02*
D03*
D26*
X453500Y3400000D02*
D03*
X707500D02*
D03*
X1292500D02*
D03*
X1546500D02*
D03*
D27*
X1000000Y2600000D02*
D03*
D28*
X1080000Y2520000D02*
D03*
Y2680000D02*
D03*
X920000D02*
D03*
Y2520000D02*
D03*
D29*
X1620000Y960000D02*
D03*
Y740000D02*
D03*
X1820000Y1070000D02*
D03*
Y850000D02*
D03*
Y630000D02*
D03*
D30*
X775000Y225000D02*
D03*
X1225000D02*
D03*
D31*
X250000Y1480000D02*
D03*
X320000Y1280000D02*
D03*
X1660000Y3010000D02*
D03*
X360000Y1380000D02*
D03*
X1610000Y2320000D02*
D03*
X870000Y970000D02*
D03*
X980000Y1700000D02*
D03*
X200000Y2250000D02*
D03*
X690000Y2100000D02*
D03*
X1230000Y2260000D02*
D03*
X1310000Y2870000D02*
D03*
X1370000Y2740000D02*
D03*
X810000Y2110000D02*
D03*
Y3250000D02*
D03*
X1000000Y3380000D02*
D03*
X1340000Y3130000D02*
D03*
X1190000Y3570000D02*
D03*
X850000Y2960000D02*
D03*
X480000Y840000D02*
D03*
X700000Y2350000D02*
D03*
X1370000Y2575000D02*
D03*
X900000Y850000D02*
D03*
Y650000D02*
D03*
%TF.MD5,e9be55043b86452f9ba30a059797e8eb*%
M02*
