%TF.GenerationSoftware,Altium Limited,Altium Designer,23.1.1 (15)*%
G04 Layer_Color=0*
%FSLAX45Y45*%
%MOMM*%
%TF.SameCoordinates,8534D3C2-D56F-49E7-8A62-4489C1F11DDD*%
%TF.FilePolarity,Positive*%
%TF.FileFunction,Plated,1,2,PTH,Drill*%
%TF.Part,Single*%
G01*
G75*
%TA.AperFunction,ComponentDrill*%
%ADD56C,1.00000*%
%ADD57C,1.60000*%
%ADD58C,0.90000*%
%ADD59C,1.02000*%
%ADD60C,0.50000*%
%ADD61C,0.50000*%
%ADD62C,1.90000*%
%TA.AperFunction,ViaDrill,NotFilled*%
%ADD63C,0.30000*%
D56*
X200000Y220000D02*
D03*
X1800000D02*
D03*
X1620000Y960000D02*
D03*
Y740000D02*
D03*
X1820000Y1070000D02*
D03*
Y850000D02*
D03*
Y630000D02*
D03*
D57*
X210000Y4467000D02*
D03*
X1790000D02*
D03*
D58*
X1444500Y4137000D02*
D03*
X1317500Y3883000D02*
D03*
X1190500Y4137000D02*
D03*
X1063500Y3883000D02*
D03*
X936500Y4137000D02*
D03*
X809500Y3883000D02*
D03*
X682500Y4137000D02*
D03*
X555500Y3883000D02*
D03*
X1000000Y2600000D02*
D03*
D59*
X453500Y3400000D02*
D03*
X707500D02*
D03*
X1292500D02*
D03*
X1546500D02*
D03*
D60*
X1080000Y2520000D02*
D03*
X920000Y2680000D02*
D03*
D61*
X1080000D02*
D03*
X920000Y2520000D02*
D03*
D62*
X775000Y225000D02*
D03*
X1225000D02*
D03*
D63*
X250000Y1480000D02*
D03*
X320000Y1280000D02*
D03*
X1660000Y3010000D02*
D03*
X360000Y1380000D02*
D03*
X1610000Y2320000D02*
D03*
X870000Y970000D02*
D03*
X980000Y1700000D02*
D03*
X200000Y2250000D02*
D03*
X690000Y2100000D02*
D03*
X1230000Y2260000D02*
D03*
X1310000Y2870000D02*
D03*
X1370000Y2740000D02*
D03*
X810000Y2110000D02*
D03*
Y3250000D02*
D03*
X1000000Y3380000D02*
D03*
X1340000Y3130000D02*
D03*
X1190000Y3570000D02*
D03*
X850000Y2960000D02*
D03*
X480000Y840000D02*
D03*
X700000Y2350000D02*
D03*
X1370000Y2575000D02*
D03*
X900000Y850000D02*
D03*
Y650000D02*
D03*
%TF.MD5,6954e091381783ba27842fb4ab40c24e*%
M02*
