%TF.GenerationSoftware,Altium Limited,Altium Designer,23.1.1 (15)*%
G04 Layer_Color=8388736*
%FSLAX45Y45*%
%MOMM*%
%TF.SameCoordinates,70D3D16F-5039-4D94-BC45-45D6FC6AA8C1*%
%TF.FilePolarity,Negative*%
%TF.FileFunction,Soldermask,Top*%
%TF.Part,Single*%
G01*
G75*
%TA.AperFunction,SMDPad,CuDef*%
%ADD36R,0.80320X0.90320*%
%ADD37R,0.70320X1.20320*%
%ADD38R,1.20320X0.70320*%
%ADD39R,1.40320X0.70320*%
%ADD40R,0.70320X1.40320*%
%ADD41R,2.60320X2.60320*%
%ADD42R,0.40320X0.90320*%
%ADD43R,0.90320X0.40320*%
%ADD44R,1.10320X1.15320*%
%ADD45C,0.70320*%
%ADD46R,1.50320X1.90320*%
%ADD47R,0.90320X0.80320*%
%ADD48R,0.80320X1.30320*%
%TA.AperFunction,ComponentPad*%
%ADD49C,1.80320*%
%ADD50C,0.80320*%
%ADD51C,1.50320*%
%ADD52C,2.50320*%
%ADD53C,1.72320*%
%ADD54C,1.62320*%
%ADD55C,2.30320*%
%ADD56C,3.45320*%
%TA.AperFunction,ViaPad*%
%ADD57C,0.80320*%
D36*
X300000Y2370000D02*
D03*
X200000D02*
D03*
X1445000Y3130000D02*
D03*
X1545000D02*
D03*
X810000Y3150000D02*
D03*
X710000D02*
D03*
X1545000Y3010000D02*
D03*
X1445000D02*
D03*
X1490000Y2400000D02*
D03*
X1390000D02*
D03*
X200000Y2770000D02*
D03*
X300000D02*
D03*
X1390000Y2130000D02*
D03*
X1290000D02*
D03*
X205000Y1280000D02*
D03*
X105000D02*
D03*
D37*
X655000Y2350000D02*
D03*
X485000D02*
D03*
X105000Y1160000D02*
D03*
X275000D02*
D03*
D38*
X1490000Y2685000D02*
D03*
Y2515000D02*
D03*
X360000Y425000D02*
D03*
Y595000D02*
D03*
D39*
X1435000Y1570000D02*
D03*
Y1650000D02*
D03*
Y1730000D02*
D03*
Y1810000D02*
D03*
Y1490000D02*
D03*
Y1410000D02*
D03*
Y1330000D02*
D03*
Y1250000D02*
D03*
X585000Y1490000D02*
D03*
Y1410000D02*
D03*
Y1330000D02*
D03*
Y1250000D02*
D03*
Y1570000D02*
D03*
Y1650000D02*
D03*
Y1730000D02*
D03*
Y1810000D02*
D03*
D40*
X1050000Y1105000D02*
D03*
X1130000D02*
D03*
X1210000D02*
D03*
X1290000D02*
D03*
X970000D02*
D03*
X890000D02*
D03*
X810000D02*
D03*
X730000D02*
D03*
X970000Y1955000D02*
D03*
X890000D02*
D03*
X810000D02*
D03*
X730000D02*
D03*
X1050000D02*
D03*
X1130000D02*
D03*
X1210000D02*
D03*
X1290000D02*
D03*
D41*
X1000000Y2600000D02*
D03*
D42*
Y2800000D02*
D03*
X1040000D02*
D03*
X1080000D02*
D03*
X1120000D02*
D03*
X960000D02*
D03*
X920000D02*
D03*
X880000D02*
D03*
X1000000Y2400000D02*
D03*
X960000D02*
D03*
X920000D02*
D03*
X880000D02*
D03*
X1040000D02*
D03*
X1080000D02*
D03*
X1120000D02*
D03*
D43*
X800000Y2600000D02*
D03*
Y2640000D02*
D03*
Y2680000D02*
D03*
Y2720000D02*
D03*
Y2560000D02*
D03*
Y2520000D02*
D03*
Y2480000D02*
D03*
X1200000Y2600000D02*
D03*
Y2560000D02*
D03*
Y2520000D02*
D03*
Y2480000D02*
D03*
Y2640000D02*
D03*
Y2680000D02*
D03*
Y2720000D02*
D03*
D44*
X300000Y2652500D02*
D03*
X420000Y2497500D02*
D03*
Y2652500D02*
D03*
X300000Y2497500D02*
D03*
D45*
X1150000Y2090000D02*
D03*
X1050000Y2150000D02*
D03*
X900000Y2200000D02*
D03*
X430000Y1890000D02*
D03*
X130000Y2850000D02*
D03*
X85000Y1605000D02*
D03*
X1750000Y2230000D02*
D03*
X105000Y1380000D02*
D03*
Y460000D02*
D03*
D46*
X640000D02*
D03*
X900000D02*
D03*
X1100000D02*
D03*
X1350000D02*
D03*
D47*
X1100000Y750000D02*
D03*
Y650000D02*
D03*
X730000Y840000D02*
D03*
Y940000D02*
D03*
X215000Y560000D02*
D03*
Y460000D02*
D03*
D48*
X200000Y750000D02*
D03*
X105000Y1010000D02*
D03*
X295000D02*
D03*
Y750000D02*
D03*
X105000D02*
D03*
D49*
X1000000Y2600000D02*
D03*
D50*
X1070000Y2530000D02*
D03*
Y2670000D02*
D03*
X930000D02*
D03*
Y2530000D02*
D03*
D51*
X1800000Y220000D02*
D03*
X200000D02*
D03*
D52*
X1225000Y225000D02*
D03*
X775000D02*
D03*
D53*
X1546500Y3400000D02*
D03*
X1292500D02*
D03*
X707500D02*
D03*
X453500D02*
D03*
D54*
X555500Y3883000D02*
D03*
X682500Y4137000D02*
D03*
X809500Y3883000D02*
D03*
X936500Y4137000D02*
D03*
X1063500Y3883000D02*
D03*
X1190500Y4137000D02*
D03*
X1317500Y3883000D02*
D03*
X1444500Y4137000D02*
D03*
D55*
X1790000Y4467000D02*
D03*
X210000D02*
D03*
D56*
X428500Y4772000D02*
D03*
X1571500D02*
D03*
D57*
X770000Y2340000D02*
D03*
X200000Y2250000D02*
D03*
X870000Y1800000D02*
D03*
X1290000Y900000D02*
D03*
X1400000Y790000D02*
D03*
X250000Y1480000D02*
D03*
X320000Y1280000D02*
D03*
X1660000Y3010000D02*
D03*
X360000Y1380000D02*
D03*
X1610000Y2320000D02*
D03*
X690000Y2100000D02*
D03*
X1230000Y2260000D02*
D03*
X1310000Y2870000D02*
D03*
X1370000Y2740000D02*
D03*
X810000Y2110000D02*
D03*
Y3250000D02*
D03*
X1000000Y3380000D02*
D03*
X1340000Y3130000D02*
D03*
X1190000Y3570000D02*
D03*
X850000Y2960000D02*
D03*
X480000Y840000D02*
D03*
X1370000Y2575000D02*
D03*
X900000Y850000D02*
D03*
Y650000D02*
D03*
%TF.MD5,db6cd437255424547170b976a1b9c918*%
M02*
