%TF.GenerationSoftware,Altium Limited,Altium Designer,23.1.1 (15)*%
G04 Layer_Color=16711935*
%FSLAX45Y45*%
%MOMM*%
%TF.SameCoordinates,8534D3C2-D56F-49E7-8A62-4489C1F11DDD*%
%TF.FilePolarity,Negative*%
%TF.FileFunction,Soldermask,Bot*%
%TF.Part,Single*%
G01*
G75*
%TA.AperFunction,ComponentPad*%
%ADD44C,1.50320*%
%ADD45C,3.45320*%
%ADD46C,2.30320*%
%ADD47C,1.62320*%
%ADD48C,1.72320*%
%ADD49C,1.80320*%
%ADD50C,1.00320*%
%ADD51C,1.60320*%
%ADD52C,2.50320*%
%TA.AperFunction,ViaPad*%
%ADD53C,0.80320*%
D44*
X200000Y220000D02*
D03*
X1800000D02*
D03*
D45*
X1571500Y4772000D02*
D03*
X428500D02*
D03*
D46*
X210000Y4467000D02*
D03*
X1790000D02*
D03*
D47*
X1444500Y4137000D02*
D03*
X1317500Y3883000D02*
D03*
X1190500Y4137000D02*
D03*
X1063500Y3883000D02*
D03*
X936500Y4137000D02*
D03*
X809500Y3883000D02*
D03*
X682500Y4137000D02*
D03*
X555500Y3883000D02*
D03*
D48*
X453500Y3400000D02*
D03*
X707500D02*
D03*
X1292500D02*
D03*
X1546500D02*
D03*
D49*
X1000000Y2600000D02*
D03*
D50*
X1080000Y2520000D02*
D03*
Y2680000D02*
D03*
X920000D02*
D03*
Y2520000D02*
D03*
D51*
X1620000Y960000D02*
D03*
Y740000D02*
D03*
X1820000Y1070000D02*
D03*
Y850000D02*
D03*
Y630000D02*
D03*
D52*
X775000Y225000D02*
D03*
X1225000D02*
D03*
D53*
X250000Y1480000D02*
D03*
X320000Y1280000D02*
D03*
X1660000Y3010000D02*
D03*
X360000Y1380000D02*
D03*
X1610000Y2320000D02*
D03*
X870000Y970000D02*
D03*
X980000Y1700000D02*
D03*
X200000Y2250000D02*
D03*
X690000Y2100000D02*
D03*
X1230000Y2260000D02*
D03*
X1310000Y2870000D02*
D03*
X1370000Y2740000D02*
D03*
X810000Y2110000D02*
D03*
Y3250000D02*
D03*
X1000000Y3380000D02*
D03*
X1340000Y3130000D02*
D03*
X1190000Y3570000D02*
D03*
X850000Y2960000D02*
D03*
X480000Y840000D02*
D03*
X700000Y2350000D02*
D03*
X1370000Y2575000D02*
D03*
X900000Y850000D02*
D03*
Y650000D02*
D03*
%TF.MD5,f77f204b4aaa7bf17db5d9904a884bca*%
M02*
