G04*
G04 #@! TF.GenerationSoftware,Altium Limited,Altium Designer,23.1.1 (15)*
G04*
G04 Layer_Color=8388736*
%FSLAX44Y44*%
%MOMM*%
G71*
G04*
G04 #@! TF.SameCoordinates,FB4B256A-0760-47AD-9AE0-A9630314D06F*
G04*
G04*
G04 #@! TF.FilePolarity,Negative*
G04*
G01*
G75*
%ADD22R,1.1032X1.1532*%
%ADD23C,0.7032*%
%ADD24R,1.5032X1.9032*%
%ADD25R,0.8032X0.9032*%
%ADD26R,0.9032X0.8032*%
%ADD27R,0.5032X0.9032*%
%ADD28R,3.7032X3.7032*%
%ADD29R,0.9032X0.5032*%
%ADD30R,0.7032X1.4032*%
%ADD31R,1.4032X0.7032*%
%ADD32R,0.8032X1.3032*%
%ADD33C,1.5032*%
%ADD34C,2.5032*%
%ADD35C,1.8032*%
%ADD36C,1.0032*%
%ADD37C,1.6032*%
%ADD38C,1.7232*%
%ADD39C,1.6232*%
%ADD40C,2.3032*%
%ADD41C,3.4532*%
%ADD42C,0.8032*%
D22*
X30000Y265250D02*
D03*
X42000Y249750D02*
D03*
Y265250D02*
D03*
X30000Y249750D02*
D03*
D23*
X115000Y209000D02*
D03*
X105000Y215000D02*
D03*
X90000Y220000D02*
D03*
X43000Y189000D02*
D03*
X13000Y285000D02*
D03*
X8500Y160500D02*
D03*
X182000Y145000D02*
D03*
X10500Y138000D02*
D03*
Y46000D02*
D03*
D24*
X64000D02*
D03*
X90000D02*
D03*
X110000D02*
D03*
X135000D02*
D03*
D25*
X144500Y313000D02*
D03*
X154500D02*
D03*
X81000Y315000D02*
D03*
X71000D02*
D03*
X154500Y301000D02*
D03*
X144500D02*
D03*
X149000Y240000D02*
D03*
X139000D02*
D03*
X50000Y235000D02*
D03*
X60000D02*
D03*
X20000Y277000D02*
D03*
X30000D02*
D03*
X139000Y213000D02*
D03*
X129000D02*
D03*
X20500Y116000D02*
D03*
X10500D02*
D03*
X20500Y128000D02*
D03*
X10500D02*
D03*
D26*
X110000Y75000D02*
D03*
Y65000D02*
D03*
X149000Y255000D02*
D03*
Y265000D02*
D03*
X38000Y225000D02*
D03*
Y235000D02*
D03*
X73000Y84000D02*
D03*
Y94000D02*
D03*
X32500Y56000D02*
D03*
Y46000D02*
D03*
X21500Y56000D02*
D03*
Y46000D02*
D03*
D27*
X100000Y285000D02*
D03*
X105000D02*
D03*
X110000D02*
D03*
X115000D02*
D03*
X95000D02*
D03*
X90000D02*
D03*
X85000D02*
D03*
X100000Y235000D02*
D03*
X95000D02*
D03*
X90000D02*
D03*
X85000D02*
D03*
X105000D02*
D03*
X110000D02*
D03*
X115000D02*
D03*
D28*
X100000Y260000D02*
D03*
D29*
X75000D02*
D03*
Y265000D02*
D03*
Y270000D02*
D03*
Y275000D02*
D03*
Y255000D02*
D03*
Y250000D02*
D03*
Y245000D02*
D03*
X125000Y260000D02*
D03*
Y255000D02*
D03*
Y250000D02*
D03*
Y245000D02*
D03*
Y265000D02*
D03*
Y270000D02*
D03*
Y275000D02*
D03*
D30*
X129000Y195500D02*
D03*
X121000D02*
D03*
X113000D02*
D03*
X105000D02*
D03*
X73000D02*
D03*
X81000D02*
D03*
X89000D02*
D03*
X97000D02*
D03*
X73000Y110500D02*
D03*
X81000D02*
D03*
X89000D02*
D03*
X97000D02*
D03*
X129000D02*
D03*
X121000D02*
D03*
X113000D02*
D03*
X105000D02*
D03*
D31*
X58500Y181000D02*
D03*
Y173000D02*
D03*
Y165000D02*
D03*
Y157000D02*
D03*
Y125000D02*
D03*
Y133000D02*
D03*
Y141000D02*
D03*
Y149000D02*
D03*
X143500Y125000D02*
D03*
Y133000D02*
D03*
Y141000D02*
D03*
Y149000D02*
D03*
Y181000D02*
D03*
Y173000D02*
D03*
Y165000D02*
D03*
Y157000D02*
D03*
D32*
X20000Y75000D02*
D03*
X10500Y101000D02*
D03*
X29500D02*
D03*
Y75000D02*
D03*
X10500D02*
D03*
D33*
X180000Y22000D02*
D03*
X20000D02*
D03*
D34*
X122500Y22500D02*
D03*
X77500D02*
D03*
D35*
X100000Y260000D02*
D03*
D36*
X108000Y252000D02*
D03*
Y268000D02*
D03*
X92000D02*
D03*
Y252000D02*
D03*
D37*
X162000Y96000D02*
D03*
Y74000D02*
D03*
X182000Y107000D02*
D03*
Y85000D02*
D03*
Y63000D02*
D03*
D38*
X154650Y340000D02*
D03*
X129250D02*
D03*
X70750D02*
D03*
X45350D02*
D03*
D39*
X55550Y388300D02*
D03*
X68250Y413700D02*
D03*
X80950Y388300D02*
D03*
X93650Y413700D02*
D03*
X106350Y388300D02*
D03*
X119050Y413700D02*
D03*
X131750Y388300D02*
D03*
X144450Y413700D02*
D03*
D40*
X179000Y446700D02*
D03*
X21000D02*
D03*
D41*
X42850Y477200D02*
D03*
X157150D02*
D03*
D42*
X25000Y148000D02*
D03*
X32000Y128000D02*
D03*
X166000Y301000D02*
D03*
X36000Y138000D02*
D03*
X161000Y232000D02*
D03*
X87000Y97000D02*
D03*
X98000Y170000D02*
D03*
X20000Y225000D02*
D03*
X69000Y210000D02*
D03*
X123000Y226000D02*
D03*
X131000Y287000D02*
D03*
X137000Y274000D02*
D03*
X81000Y211000D02*
D03*
Y325000D02*
D03*
X100000Y338000D02*
D03*
X134000Y313000D02*
D03*
X119000Y357000D02*
D03*
X85000Y296000D02*
D03*
X48000Y84000D02*
D03*
X70000Y235000D02*
D03*
X137000Y257500D02*
D03*
X90000Y85000D02*
D03*
Y65000D02*
D03*
M02*
