G04*
G04 #@! TF.GenerationSoftware,Altium Limited,Altium Designer,23.1.1 (15)*
G04*
G04 Layer_Color=255*
%FSLAX44Y44*%
%MOMM*%
G71*
G04*
G04 #@! TF.SameCoordinates,0A2B7A54-8BD8-49A5-B6CA-EEF6859B9906*
G04*
G04*
G04 #@! TF.FilePolarity,Positive*
G04*
G01*
G75*
%ADD44C,1.3000*%
%ADD45C,2.3000*%
%ADD46C,1.6000*%
%ADD47C,0.8000*%
%ADD48C,1.4000*%
%ADD49C,1.5200*%
%ADD50C,1.4200*%
%ADD51C,2.1000*%
%ADD52C,3.2500*%
D44*
X180000Y22000D02*
D03*
X20000D02*
D03*
D45*
X122500Y22500D02*
D03*
X77500D02*
D03*
D46*
X100000Y260000D02*
D03*
D47*
X108000Y252000D02*
D03*
Y268000D02*
D03*
X92000D02*
D03*
Y252000D02*
D03*
D48*
X162000Y96000D02*
D03*
Y74000D02*
D03*
X182000Y107000D02*
D03*
Y85000D02*
D03*
Y63000D02*
D03*
D49*
X154650Y340000D02*
D03*
X129250D02*
D03*
X70750D02*
D03*
X45350D02*
D03*
D50*
X55550Y388300D02*
D03*
X68250Y413700D02*
D03*
X80950Y388300D02*
D03*
X93650Y413700D02*
D03*
X106350Y388300D02*
D03*
X119050Y413700D02*
D03*
X131750Y388300D02*
D03*
X144450Y413700D02*
D03*
D51*
X179000Y446700D02*
D03*
X21000D02*
D03*
D52*
X42850Y477200D02*
D03*
X157150D02*
D03*
M02*
