G04*
G04 #@! TF.GenerationSoftware,Altium Limited,Altium Designer,23.1.1 (15)*
G04*
G04 Layer_Color=8421504*
%FSLAX44Y44*%
%MOMM*%
G71*
G04*
G04 #@! TF.SameCoordinates,7C6788F6-0183-4130-A877-ABEC5F4682B5*
G04*
G04*
G04 #@! TF.FilePolarity,Positive*
G04*
G01*
G75*
%ADD11C,0.5000*%
%ADD12R,0.6000X0.7000*%
%ADD13R,0.5000X1.2000*%
%ADD14R,1.2000X0.5000*%
%ADD15R,0.7000X0.6000*%
%ADD16R,0.3000X0.7000*%
%ADD17R,3.5000X3.5000*%
%ADD18R,0.7000X0.3000*%
%ADD19R,1.3000X1.7000*%
%ADD20R,0.6000X1.1000*%
%ADD21R,0.9000X0.9500*%
D11*
X105000Y215000D02*
D03*
X115000Y209000D02*
D03*
X43000Y189000D02*
D03*
X8500Y160500D02*
D03*
X10500Y138000D02*
D03*
Y46000D02*
D03*
X13000Y285000D02*
D03*
X90000Y220000D02*
D03*
X182000Y145000D02*
D03*
D12*
X149000Y240000D02*
D03*
X139000D02*
D03*
X154500Y301000D02*
D03*
X144500D02*
D03*
X81000Y315000D02*
D03*
X71000D02*
D03*
X144500Y313000D02*
D03*
X154500D02*
D03*
X129000Y213000D02*
D03*
X139000D02*
D03*
X10500Y128000D02*
D03*
X20500D02*
D03*
X10500Y116000D02*
D03*
X20500D02*
D03*
X30000Y277000D02*
D03*
X20000D02*
D03*
X60000Y235000D02*
D03*
X50000D02*
D03*
D13*
X129000Y195500D02*
D03*
X121000D02*
D03*
X113000D02*
D03*
X105000D02*
D03*
X73000D02*
D03*
X81000D02*
D03*
X89000D02*
D03*
X97000D02*
D03*
X73000Y110500D02*
D03*
X81000D02*
D03*
X89000D02*
D03*
X97000D02*
D03*
X129000D02*
D03*
X121000D02*
D03*
X113000D02*
D03*
X105000D02*
D03*
D14*
X58500Y181000D02*
D03*
Y173000D02*
D03*
Y165000D02*
D03*
Y157000D02*
D03*
Y125000D02*
D03*
Y133000D02*
D03*
Y141000D02*
D03*
Y149000D02*
D03*
X143500Y125000D02*
D03*
Y133000D02*
D03*
Y141000D02*
D03*
Y149000D02*
D03*
Y181000D02*
D03*
Y173000D02*
D03*
Y165000D02*
D03*
Y157000D02*
D03*
D15*
X149000Y255000D02*
D03*
Y265000D02*
D03*
X73000Y94000D02*
D03*
Y84000D02*
D03*
X32500Y46000D02*
D03*
Y56000D02*
D03*
X110000Y65000D02*
D03*
Y75000D02*
D03*
X21500Y46000D02*
D03*
Y56000D02*
D03*
X38000Y235000D02*
D03*
Y225000D02*
D03*
D16*
X100000Y285000D02*
D03*
X105000D02*
D03*
X110000D02*
D03*
X115000D02*
D03*
X95000D02*
D03*
X90000D02*
D03*
X85000D02*
D03*
X100000Y235000D02*
D03*
X95000D02*
D03*
X90000D02*
D03*
X85000D02*
D03*
X105000D02*
D03*
X110000D02*
D03*
X115000D02*
D03*
D17*
X100000Y260000D02*
D03*
D18*
X75000D02*
D03*
Y265000D02*
D03*
Y270000D02*
D03*
Y275000D02*
D03*
Y255000D02*
D03*
Y250000D02*
D03*
Y245000D02*
D03*
X125000Y260000D02*
D03*
Y255000D02*
D03*
Y250000D02*
D03*
Y245000D02*
D03*
Y265000D02*
D03*
Y270000D02*
D03*
Y275000D02*
D03*
D19*
X135000Y46000D02*
D03*
X110000D02*
D03*
X90000D02*
D03*
X64000D02*
D03*
D20*
X10500Y75000D02*
D03*
X29500D02*
D03*
Y101000D02*
D03*
X10500D02*
D03*
X20000Y75000D02*
D03*
D21*
X30000Y265250D02*
D03*
X42000Y249750D02*
D03*
Y265250D02*
D03*
X30000Y249750D02*
D03*
M02*
