G04*
G04 #@! TF.GenerationSoftware,Altium Limited,Altium Designer,23.1.1 (15)*
G04*
G04 Layer_Physical_Order=2*
G04 Layer_Color=16711680*
%FSLAX44Y44*%
%MOMM*%
G71*
G04*
G04 #@! TF.SameCoordinates,0A2B7A54-8BD8-49A5-B6CA-EEF6859B9906*
G04*
G04*
G04 #@! TF.FilePolarity,Positive*
G04*
G01*
G75*
%ADD43C,0.3000*%
%ADD44C,1.3000*%
%ADD45C,2.3000*%
%ADD46C,1.6000*%
%ADD47C,0.8000*%
%ADD48C,1.4000*%
%ADD49C,1.5200*%
%ADD50C,1.4200*%
%ADD51C,2.1000*%
%ADD52C,3.2500*%
%ADD53C,0.6000*%
G36*
X200000Y0D02*
X0D01*
Y580000D01*
X200000D01*
Y0D01*
D02*
G37*
%LPC*%
G36*
X158849Y494450D02*
X155451D01*
X152118Y493787D01*
X148979Y492487D01*
X146154Y490599D01*
X143751Y488196D01*
X141863Y485371D01*
X140563Y482232D01*
X139900Y478899D01*
Y475501D01*
X140563Y472168D01*
X141863Y469029D01*
X143751Y466204D01*
X146154Y463801D01*
X148979Y461913D01*
X152118Y460613D01*
X155451Y459950D01*
X158849D01*
X162182Y460613D01*
X165321Y461913D01*
X168146Y463801D01*
X170549Y466204D01*
X172437Y469029D01*
X173737Y472168D01*
X174400Y475501D01*
Y478899D01*
X173737Y482232D01*
X172437Y485371D01*
X170549Y488196D01*
X168146Y490599D01*
X165321Y492487D01*
X162182Y493787D01*
X158849Y494450D01*
D02*
G37*
G36*
X44549D02*
X41151D01*
X37818Y493787D01*
X34679Y492487D01*
X31854Y490599D01*
X29451Y488196D01*
X27563Y485371D01*
X26263Y482232D01*
X25600Y478899D01*
Y475501D01*
X26263Y472168D01*
X27563Y469029D01*
X29451Y466204D01*
X31854Y463801D01*
X34679Y461913D01*
X37818Y460613D01*
X41151Y459950D01*
X44549D01*
X47882Y460613D01*
X51021Y461913D01*
X53846Y463801D01*
X56249Y466204D01*
X58137Y469029D01*
X59437Y472168D01*
X60100Y475501D01*
Y478899D01*
X59437Y482232D01*
X58137Y485371D01*
X56249Y488196D01*
X53846Y490599D01*
X51021Y492487D01*
X47882Y493787D01*
X44549Y494450D01*
D02*
G37*
G36*
X22717Y459740D02*
X22270D01*
Y447970D01*
X34040D01*
Y448417D01*
X33151Y451733D01*
X31435Y454707D01*
X29007Y457135D01*
X26033Y458851D01*
X22717Y459740D01*
D02*
G37*
G36*
X180717D02*
X180270D01*
Y447970D01*
X192040D01*
Y448417D01*
X191151Y451733D01*
X189435Y454707D01*
X187007Y457135D01*
X184033Y458851D01*
X180717Y459740D01*
D02*
G37*
G36*
X177730D02*
X177283D01*
X173967Y458851D01*
X170993Y457135D01*
X168565Y454707D01*
X166849Y451733D01*
X165960Y448417D01*
Y447970D01*
X177730D01*
Y459740D01*
D02*
G37*
G36*
X19730D02*
X19283D01*
X15967Y458851D01*
X12993Y457135D01*
X10565Y454707D01*
X8849Y451733D01*
X7960Y448417D01*
Y447970D01*
X19730D01*
Y459740D01*
D02*
G37*
G36*
X192040Y445430D02*
X180270D01*
Y433660D01*
X180717D01*
X184033Y434549D01*
X187007Y436265D01*
X189435Y438693D01*
X191151Y441667D01*
X192040Y444983D01*
Y445430D01*
D02*
G37*
G36*
X177730D02*
X165960D01*
Y444983D01*
X166849Y441667D01*
X168565Y438693D01*
X170993Y436265D01*
X173967Y434549D01*
X177283Y433660D01*
X177730D01*
Y445430D01*
D02*
G37*
G36*
X34040D02*
X22270D01*
Y433660D01*
X22717D01*
X26033Y434549D01*
X29007Y436265D01*
X31435Y438693D01*
X33151Y441667D01*
X34040Y444983D01*
Y445430D01*
D02*
G37*
G36*
X19730D02*
X7960D01*
Y444983D01*
X8849Y441667D01*
X10565Y438693D01*
X12993Y436265D01*
X15967Y434549D01*
X19283Y433660D01*
X19730D01*
Y445430D01*
D02*
G37*
G36*
X145720Y423340D02*
Y414970D01*
X154090D01*
X153433Y417421D01*
X152164Y419619D01*
X150369Y421414D01*
X148171Y422683D01*
X145720Y423340D01*
D02*
G37*
G36*
X143180D02*
X140729Y422683D01*
X138531Y421414D01*
X136736Y419619D01*
X135467Y417421D01*
X134810Y414970D01*
X143180D01*
Y423340D01*
D02*
G37*
G36*
X120116Y421800D02*
X117984D01*
X115924Y421248D01*
X114076Y420182D01*
X112568Y418674D01*
X111502Y416827D01*
X110950Y414766D01*
Y412634D01*
X111502Y410574D01*
X112568Y408727D01*
X114076Y407218D01*
X115924Y406152D01*
X117984Y405600D01*
X120116D01*
X122177Y406152D01*
X124024Y407218D01*
X125532Y408727D01*
X126598Y410574D01*
X127150Y412634D01*
Y414766D01*
X126598Y416827D01*
X125532Y418674D01*
X124024Y420182D01*
X122177Y421248D01*
X120116Y421800D01*
D02*
G37*
G36*
X69316D02*
X67184D01*
X65124Y421248D01*
X63277Y420182D01*
X61768Y418674D01*
X60702Y416827D01*
X60150Y414766D01*
Y412634D01*
X60702Y410574D01*
X61768Y408727D01*
X63277Y407218D01*
X65124Y406152D01*
X67184Y405600D01*
X69316D01*
X71377Y406152D01*
X73224Y407218D01*
X74732Y408727D01*
X75798Y410574D01*
X76350Y412634D01*
Y414766D01*
X75798Y416827D01*
X74732Y418674D01*
X73224Y420182D01*
X71377Y421248D01*
X69316Y421800D01*
D02*
G37*
G36*
X154090Y412430D02*
X145720D01*
Y404060D01*
X148171Y404717D01*
X150369Y405986D01*
X152164Y407781D01*
X153433Y409979D01*
X154090Y412430D01*
D02*
G37*
G36*
X143180D02*
X134810D01*
X135467Y409979D01*
X136736Y407781D01*
X138531Y405986D01*
X140729Y404717D01*
X143180Y404060D01*
Y412430D01*
D02*
G37*
G36*
X132816Y396400D02*
X130684D01*
X128624Y395848D01*
X126777Y394782D01*
X125268Y393274D01*
X124202Y391427D01*
X123650Y389366D01*
Y387234D01*
X124202Y385173D01*
X125268Y383326D01*
X126777Y381818D01*
X128624Y380752D01*
X130684Y380200D01*
X132816D01*
X134876Y380752D01*
X136723Y381818D01*
X138232Y383326D01*
X139298Y385173D01*
X139850Y387234D01*
Y389366D01*
X139298Y391427D01*
X138232Y393274D01*
X136723Y394782D01*
X134876Y395848D01*
X132816Y396400D01*
D02*
G37*
G36*
X82016D02*
X79884D01*
X77824Y395848D01*
X75977Y394782D01*
X74468Y393274D01*
X73402Y391427D01*
X72850Y389366D01*
Y387234D01*
X73402Y385173D01*
X74468Y383326D01*
X75977Y381818D01*
X77824Y380752D01*
X79884Y380200D01*
X82016D01*
X84076Y380752D01*
X85924Y381818D01*
X87432Y383326D01*
X88498Y385173D01*
X89050Y387234D01*
Y389366D01*
X88498Y391427D01*
X87432Y393274D01*
X85924Y394782D01*
X84076Y395848D01*
X82016Y396400D01*
D02*
G37*
G36*
X56616D02*
X54484D01*
X52424Y395848D01*
X50577Y394782D01*
X49068Y393274D01*
X48002Y391427D01*
X47450Y389366D01*
Y387234D01*
X48002Y385173D01*
X49068Y383326D01*
X50577Y381818D01*
X52424Y380752D01*
X54484Y380200D01*
X56616D01*
X58677Y380752D01*
X59194Y381051D01*
X81451Y358794D01*
Y354000D01*
X81645Y353024D01*
X82198Y352198D01*
X96000Y338395D01*
Y337204D01*
X96609Y335734D01*
X97734Y334609D01*
X99204Y334000D01*
X100796D01*
X102266Y334609D01*
X103391Y335734D01*
X104000Y337204D01*
Y338796D01*
X103391Y340266D01*
X102266Y341391D01*
X100796Y342000D01*
X99605D01*
X86549Y355056D01*
Y359850D01*
X86355Y360826D01*
X85802Y361652D01*
X62799Y384656D01*
X63098Y385173D01*
X63650Y387234D01*
Y389366D01*
X63098Y391427D01*
X62032Y393274D01*
X60524Y394782D01*
X58677Y395848D01*
X56616Y396400D01*
D02*
G37*
G36*
X155782Y348600D02*
X153518D01*
X151330Y348014D01*
X149369Y346882D01*
X147768Y345280D01*
X146636Y343320D01*
X146050Y341132D01*
Y338868D01*
X146636Y336680D01*
X147768Y334720D01*
X149369Y333118D01*
X151330Y331986D01*
X153518Y331400D01*
X155782D01*
X157970Y331986D01*
X159930Y333118D01*
X161532Y334720D01*
X162664Y336680D01*
X163250Y338868D01*
Y341132D01*
X162664Y343320D01*
X161532Y345280D01*
X159930Y346882D01*
X157970Y348014D01*
X155782Y348600D01*
D02*
G37*
G36*
X71882D02*
X69618D01*
X67431Y348014D01*
X65469Y346882D01*
X63868Y345280D01*
X62736Y343320D01*
X62150Y341132D01*
Y338868D01*
X62736Y336680D01*
X63868Y334720D01*
X65469Y333118D01*
X67431Y331986D01*
X69618Y331400D01*
X71882D01*
X74069Y331986D01*
X76031Y333118D01*
X77632Y334720D01*
X78764Y336680D01*
X79350Y338868D01*
Y341132D01*
X78764Y343320D01*
X77632Y345280D01*
X76031Y346882D01*
X74069Y348014D01*
X71882Y348600D01*
D02*
G37*
G36*
X46482D02*
X44218D01*
X42031Y348014D01*
X40069Y346882D01*
X38468Y345280D01*
X37336Y343320D01*
X36750Y341132D01*
Y338868D01*
X37336Y336680D01*
X38468Y334720D01*
X40069Y333118D01*
X42031Y331986D01*
X44218Y331400D01*
X46482D01*
X48670Y331986D01*
X50630Y333118D01*
X52232Y334720D01*
X53364Y336680D01*
X53950Y338868D01*
Y341132D01*
X53364Y343320D01*
X52232Y345280D01*
X50630Y346882D01*
X48670Y348014D01*
X46482Y348600D01*
D02*
G37*
G36*
X94716Y421800D02*
X92584D01*
X90524Y421248D01*
X88677Y420182D01*
X87168Y418674D01*
X86102Y416827D01*
X85550Y414766D01*
Y412634D01*
X86102Y410574D01*
X87168Y408727D01*
X88677Y407218D01*
X90524Y406152D01*
X91101Y405997D01*
Y374350D01*
X91295Y373374D01*
X91848Y372548D01*
X100198Y364198D01*
X101025Y363645D01*
X102000Y363451D01*
X108944D01*
X115000Y357395D01*
Y356204D01*
X115609Y354734D01*
X116734Y353609D01*
X118204Y353000D01*
X119599D01*
X119989Y352467D01*
X120222Y351827D01*
X110198Y341802D01*
X109645Y340975D01*
X109451Y340000D01*
Y336056D01*
X100944Y327549D01*
X84108D01*
X83266Y328391D01*
X81796Y329000D01*
X80204D01*
X78734Y328391D01*
X77609Y327266D01*
X77000Y325796D01*
Y324204D01*
X77609Y322734D01*
X78734Y321609D01*
X80204Y321000D01*
X81796D01*
X83266Y321609D01*
X84108Y322451D01*
X102000D01*
X102976Y322645D01*
X103802Y323198D01*
X113802Y333198D01*
X114355Y334025D01*
X114549Y335000D01*
Y338944D01*
X120924Y345320D01*
X121941Y344540D01*
X121236Y343320D01*
X120650Y341132D01*
Y338868D01*
X121236Y336680D01*
X121635Y335990D01*
X85645Y300000D01*
X84204D01*
X82734Y299391D01*
X81609Y298266D01*
X81000Y296796D01*
Y295204D01*
X81609Y293734D01*
X82734Y292609D01*
X84204Y292000D01*
X85796D01*
X87266Y292609D01*
X88391Y293734D01*
X89000Y295204D01*
Y296145D01*
X125240Y332385D01*
X125931Y331986D01*
X128118Y331400D01*
X130382D01*
X132570Y331986D01*
X134530Y333118D01*
X136132Y334720D01*
X137264Y336680D01*
X137850Y338868D01*
Y341132D01*
X137264Y343320D01*
X136132Y345280D01*
X134530Y346882D01*
X132570Y348014D01*
X130382Y348600D01*
X128118D01*
X125931Y348014D01*
X124710Y347309D01*
X123930Y348326D01*
X133325Y357720D01*
X139451Y351594D01*
Y322056D01*
X134395Y317000D01*
X133204D01*
X131734Y316391D01*
X130609Y315266D01*
X130000Y313796D01*
Y312204D01*
X130609Y310734D01*
X131734Y309609D01*
X133204Y309000D01*
X134796D01*
X136266Y309609D01*
X137391Y310734D01*
X138000Y312204D01*
Y313395D01*
X143802Y319198D01*
X144355Y320025D01*
X144549Y321000D01*
Y352650D01*
X144355Y353625D01*
X143802Y354452D01*
X135127Y363127D01*
X113599Y384656D01*
X113898Y385173D01*
X114450Y387234D01*
Y389366D01*
X113898Y391427D01*
X112832Y393274D01*
X111323Y394782D01*
X109476Y395848D01*
X107416Y396400D01*
X105284D01*
X103223Y395848D01*
X101376Y394782D01*
X99868Y393274D01*
X98802Y391427D01*
X98250Y389366D01*
Y387234D01*
X98802Y385173D01*
X99868Y383326D01*
X101376Y381818D01*
X103223Y380752D01*
X105284Y380200D01*
X107416D01*
X109476Y380752D01*
X109994Y381051D01*
X129720Y361325D01*
X124173Y355778D01*
X123533Y356011D01*
X123000Y356401D01*
Y357796D01*
X122391Y359266D01*
X121266Y360391D01*
X119796Y361000D01*
X118605D01*
X111802Y367802D01*
X110975Y368355D01*
X110000Y368549D01*
X103056D01*
X96199Y375406D01*
Y405997D01*
X96777Y406152D01*
X98624Y407218D01*
X100132Y408727D01*
X101198Y410574D01*
X101750Y412634D01*
Y414766D01*
X101198Y416827D01*
X100132Y418674D01*
X98624Y420182D01*
X96777Y421248D01*
X94716Y421800D01*
D02*
G37*
G36*
X167270Y306470D02*
Y302270D01*
X171470D01*
X170697Y304138D01*
X169138Y305697D01*
X167270Y306470D01*
D02*
G37*
G36*
X164730D02*
X162862Y305697D01*
X161303Y304138D01*
X160530Y302270D01*
X164730D01*
Y306470D01*
D02*
G37*
G36*
X171470Y299730D02*
X167270D01*
Y295530D01*
X169138Y296303D01*
X170697Y297862D01*
X171470Y299730D01*
D02*
G37*
G36*
X164730D02*
X160530D01*
X161303Y297862D01*
X162862Y296303D01*
X164730Y295530D01*
Y299730D01*
D02*
G37*
G36*
X106730Y274430D02*
X105476Y274094D01*
X103984Y273233D01*
X102767Y272016D01*
X101906Y270524D01*
X101875Y270409D01*
X101388Y270540D01*
X101270D01*
Y261270D01*
X110540D01*
Y261388D01*
X110409Y261875D01*
X110524Y261906D01*
X112016Y262767D01*
X113233Y263984D01*
X114094Y265476D01*
X114430Y266730D01*
X108000D01*
Y268000D01*
X106730D01*
Y274430D01*
D02*
G37*
G36*
X109270Y274430D02*
Y269270D01*
X114430D01*
X114094Y270524D01*
X113233Y272016D01*
X112016Y273233D01*
X110524Y274094D01*
X109270Y274430D01*
D02*
G37*
G36*
X90730D02*
X89476Y274094D01*
X87984Y273233D01*
X86767Y272016D01*
X85906Y270524D01*
X85570Y269270D01*
X90730D01*
Y274430D01*
D02*
G37*
G36*
X93270D02*
Y268000D01*
X92000D01*
Y266730D01*
X85570D01*
X85906Y265476D01*
X86767Y263984D01*
X87984Y262767D01*
X89476Y261906D01*
X89591Y261875D01*
X89460Y261388D01*
Y261270D01*
X98730D01*
Y270540D01*
X98612D01*
X98125Y270409D01*
X98094Y270524D01*
X97233Y272016D01*
X96016Y273233D01*
X94524Y274094D01*
X93270Y274430D01*
D02*
G37*
G36*
X98730Y258730D02*
X89460D01*
Y258612D01*
X89591Y258125D01*
X89476Y258094D01*
X87984Y257233D01*
X86767Y256016D01*
X85906Y254524D01*
X85570Y253270D01*
X92000D01*
Y252000D01*
X93270D01*
Y245570D01*
X94524Y245906D01*
X96016Y246767D01*
X97233Y247984D01*
X98094Y249476D01*
X98125Y249591D01*
X98612Y249460D01*
X98730D01*
Y258730D01*
D02*
G37*
G36*
X114430Y250730D02*
X109270D01*
Y245570D01*
X110524Y245906D01*
X112016Y246767D01*
X113233Y247984D01*
X114094Y249476D01*
X114430Y250730D01*
D02*
G37*
G36*
X90730Y250730D02*
X85570D01*
X85906Y249476D01*
X86767Y247984D01*
X87984Y246767D01*
X89476Y245906D01*
X90730Y245570D01*
Y250730D01*
D02*
G37*
G36*
X110540Y258730D02*
X101270D01*
Y249460D01*
X101388D01*
X101875Y249591D01*
X101906Y249476D01*
X102767Y247984D01*
X103984Y246767D01*
X105476Y245906D01*
X106730Y245569D01*
Y252000D01*
X108000D01*
Y253270D01*
X114430D01*
X114094Y254524D01*
X113233Y256016D01*
X112016Y257233D01*
X110524Y258094D01*
X110409Y258125D01*
X110540Y258612D01*
Y258730D01*
D02*
G37*
G36*
X137796Y261500D02*
X136204D01*
X134734Y260891D01*
X133609Y259766D01*
X133000Y258296D01*
Y256704D01*
X133609Y255234D01*
X134451Y254392D01*
Y239056D01*
X132944Y237549D01*
X73108D01*
X72266Y238391D01*
X70796Y239000D01*
X69204D01*
X67734Y238391D01*
X66609Y237266D01*
X66000Y235796D01*
Y234204D01*
X66609Y232734D01*
X67734Y231609D01*
X69204Y231000D01*
X70796D01*
X72266Y231609D01*
X73108Y232451D01*
X120779D01*
X121031Y231181D01*
X119862Y230697D01*
X118303Y229138D01*
X117530Y227270D01*
X128470D01*
X127697Y229138D01*
X126138Y230697D01*
X124969Y231181D01*
X125221Y232451D01*
X134000D01*
X134975Y232645D01*
X135802Y233198D01*
X138802Y236198D01*
X139355Y237024D01*
X139549Y238000D01*
Y254392D01*
X140391Y255234D01*
X141000Y256704D01*
Y258296D01*
X140391Y259766D01*
X139266Y260891D01*
X137796Y261500D01*
D02*
G37*
G36*
X128470Y224730D02*
X124270D01*
Y220530D01*
X126138Y221303D01*
X127697Y222862D01*
X128470Y224730D01*
D02*
G37*
G36*
X121730D02*
X117530D01*
X118303Y222862D01*
X119862Y221303D01*
X121730Y220530D01*
Y224730D01*
D02*
G37*
G36*
X55000Y287000D02*
X15000D01*
X11000Y283000D01*
Y225500D01*
X11500Y225000D01*
X14460D01*
Y223898D01*
X15303Y221862D01*
X16862Y220303D01*
X18730Y219530D01*
Y225000D01*
X21270D01*
Y219530D01*
X23138Y220303D01*
X24697Y221862D01*
X25540Y223898D01*
Y225000D01*
X38000D01*
X48000Y235000D01*
X60000D01*
X60000Y235000D01*
Y248000D01*
X62000Y250000D01*
X75000D01*
Y265000D01*
X63000D01*
X60000Y268000D01*
Y282000D01*
X55000Y287000D01*
D02*
G37*
G36*
X137796Y278000D02*
X136204D01*
X134734Y277391D01*
X133609Y276266D01*
X133000Y274796D01*
Y273204D01*
X133609Y271734D01*
X134734Y270609D01*
X136204Y270000D01*
X137395D01*
X144451Y262944D01*
Y218056D01*
X139944Y213549D01*
X84108D01*
X83266Y214391D01*
X81796Y215000D01*
X80204D01*
X78734Y214391D01*
X77609Y213266D01*
X77000Y211796D01*
Y210204D01*
X77609Y208734D01*
X78734Y207609D01*
X80204Y207000D01*
X81796D01*
X83266Y207609D01*
X84108Y208451D01*
X141000D01*
X141975Y208645D01*
X142802Y209198D01*
X148802Y215198D01*
X149355Y216025D01*
X149549Y217000D01*
Y264000D01*
X149355Y264975D01*
X148802Y265802D01*
X141000Y273605D01*
Y274796D01*
X140391Y276266D01*
X139266Y277391D01*
X137796Y278000D01*
D02*
G37*
G36*
X26270Y153470D02*
Y149270D01*
X30470D01*
X29697Y151138D01*
X28138Y152697D01*
X26270Y153470D01*
D02*
G37*
G36*
X23730D02*
X21862Y152697D01*
X20303Y151138D01*
X19530Y149270D01*
X23730D01*
Y153470D01*
D02*
G37*
G36*
X30470Y146730D02*
X26270D01*
Y142530D01*
X28138Y143303D01*
X29697Y144862D01*
X30470Y146730D01*
D02*
G37*
G36*
X23730D02*
X19530D01*
X20303Y144862D01*
X21862Y143303D01*
X23730Y142530D01*
Y146730D01*
D02*
G37*
G36*
X131796Y291000D02*
X130204D01*
X128734Y290391D01*
X127609Y289266D01*
X127000Y287796D01*
Y286204D01*
X127609Y284734D01*
X128734Y283609D01*
X130204Y283000D01*
X131796D01*
X133266Y283609D01*
X134108Y284451D01*
X142944D01*
X151451Y275944D01*
Y210056D01*
X146944Y205549D01*
X77056D01*
X73000Y209605D01*
Y210796D01*
X72391Y212266D01*
X71266Y213391D01*
X69796Y214000D01*
X68204D01*
X66734Y213391D01*
X65609Y212266D01*
X65000Y210796D01*
Y209204D01*
X65609Y207734D01*
X66734Y206609D01*
X68204Y206000D01*
X69395D01*
X74198Y201198D01*
X75025Y200645D01*
X76000Y200451D01*
X148000D01*
X148975Y200645D01*
X149802Y201198D01*
X155802Y207198D01*
X156355Y208025D01*
X156549Y209000D01*
Y228519D01*
X157819Y229072D01*
X158451Y228534D01*
Y190056D01*
X152944Y184549D01*
X80000D01*
X79025Y184355D01*
X78198Y183802D01*
X36395Y142000D01*
X35204D01*
X33734Y141391D01*
X32609Y140266D01*
X32000Y138796D01*
Y137204D01*
X32609Y135734D01*
X33734Y134609D01*
X33270Y133700D01*
Y129270D01*
X37470D01*
X36697Y131138D01*
X35138Y132697D01*
X34824Y132827D01*
X35204Y134000D01*
X36796D01*
X38266Y134609D01*
X39391Y135734D01*
X40000Y137204D01*
Y138395D01*
X81056Y179451D01*
X154000D01*
X154976Y179645D01*
X155802Y180198D01*
X162802Y187198D01*
X163355Y188025D01*
X163549Y189000D01*
Y228892D01*
X164391Y229734D01*
X165000Y231204D01*
Y232796D01*
X164391Y234266D01*
X163266Y235391D01*
X161796Y236000D01*
X160204D01*
X158734Y235391D01*
X157819Y234476D01*
X156828Y234708D01*
X156549Y234865D01*
Y277000D01*
X156355Y277976D01*
X155802Y278802D01*
X145802Y288802D01*
X144976Y289355D01*
X144000Y289549D01*
X134108D01*
X133266Y290391D01*
X131796Y291000D01*
D02*
G37*
G36*
X30730Y133470D02*
X28862Y132697D01*
X27303Y131138D01*
X26530Y129270D01*
X30730D01*
Y133470D01*
D02*
G37*
G36*
X37470Y126730D02*
X33270D01*
Y122530D01*
X35138Y123303D01*
X36697Y124862D01*
X37470Y126730D01*
D02*
G37*
G36*
X30730D02*
X26530D01*
X27303Y124862D01*
X28862Y123303D01*
X30730Y122530D01*
Y126730D01*
D02*
G37*
G36*
X183270Y116536D02*
Y108270D01*
X191536D01*
X190890Y110682D01*
X189634Y112858D01*
X187858Y114634D01*
X185682Y115890D01*
X183270Y116536D01*
D02*
G37*
G36*
X180730D02*
X178318Y115890D01*
X176142Y114634D01*
X174366Y112858D01*
X173110Y110682D01*
X172464Y108270D01*
X180730D01*
Y116536D01*
D02*
G37*
G36*
X191536Y105730D02*
X183270D01*
Y97464D01*
X185682Y98110D01*
X187858Y99366D01*
X189634Y101142D01*
X190890Y103318D01*
X191536Y105730D01*
D02*
G37*
G36*
X180730D02*
X172464D01*
X173110Y103318D01*
X174366Y101142D01*
X176142Y99366D01*
X178318Y98110D01*
X180730Y97464D01*
Y105730D01*
D02*
G37*
G36*
X163053Y104000D02*
X160947D01*
X158912Y103455D01*
X157088Y102402D01*
X155598Y100912D01*
X154545Y99088D01*
X154000Y97053D01*
Y94947D01*
X154545Y92912D01*
X155598Y91088D01*
X157088Y89598D01*
X158912Y88545D01*
X160947Y88000D01*
X163053D01*
X165088Y88545D01*
X166912Y89598D01*
X168402Y91088D01*
X169455Y92912D01*
X170000Y94947D01*
Y97053D01*
X169455Y99088D01*
X168402Y100912D01*
X166912Y102402D01*
X165088Y103455D01*
X163053Y104000D01*
D02*
G37*
G36*
X49270Y89470D02*
Y85270D01*
X53470D01*
X52697Y87138D01*
X51138Y88697D01*
X49270Y89470D01*
D02*
G37*
G36*
X46730D02*
X44862Y88697D01*
X43303Y87138D01*
X42530Y85270D01*
X46730D01*
Y89470D01*
D02*
G37*
G36*
X53470Y82730D02*
X49270D01*
Y78530D01*
X51138Y79303D01*
X52697Y80862D01*
X53470Y82730D01*
D02*
G37*
G36*
X46730D02*
X42530D01*
X43303Y80862D01*
X44862Y79303D01*
X46730Y78530D01*
Y82730D01*
D02*
G37*
G36*
X183053Y93000D02*
X180947D01*
X178912Y92455D01*
X177088Y91402D01*
X175598Y89912D01*
X174545Y88088D01*
X174000Y86053D01*
Y83947D01*
X174545Y81912D01*
X175598Y80088D01*
X177088Y78598D01*
X178912Y77545D01*
X180947Y77000D01*
X183053D01*
X185088Y77545D01*
X186912Y78598D01*
X188402Y80088D01*
X189455Y81912D01*
X190000Y83947D01*
Y86053D01*
X189455Y88088D01*
X188402Y89912D01*
X186912Y91402D01*
X185088Y92455D01*
X183053Y93000D01*
D02*
G37*
G36*
X98796Y174000D02*
X97204D01*
X95734Y173391D01*
X94609Y172266D01*
X94000Y170796D01*
Y169204D01*
X94609Y167734D01*
X95734Y166609D01*
X97204Y166000D01*
X98395D01*
X139451Y124944D01*
Y94000D01*
X139645Y93025D01*
X140198Y92198D01*
X154824Y77571D01*
X154545Y77088D01*
X154000Y75053D01*
Y72947D01*
X154545Y70912D01*
X155598Y69088D01*
X157088Y67598D01*
X158438Y66819D01*
X158098Y65549D01*
X141056D01*
X107802Y98802D01*
X106975Y99355D01*
X106000Y99549D01*
X90108D01*
X89266Y100391D01*
X87796Y101000D01*
X86204D01*
X84734Y100391D01*
X83609Y99266D01*
X83000Y97796D01*
Y96204D01*
X83609Y94734D01*
X84734Y93609D01*
X86204Y93000D01*
X87796D01*
X89266Y93609D01*
X90108Y94451D01*
X104944D01*
X138198Y61198D01*
X139024Y60645D01*
X140000Y60451D01*
X174401D01*
X174545Y59912D01*
X175598Y58088D01*
X177088Y56598D01*
X178912Y55545D01*
X180947Y55000D01*
X183053D01*
X185088Y55545D01*
X186912Y56598D01*
X188402Y58088D01*
X189455Y59912D01*
X190000Y61947D01*
Y64053D01*
X189455Y66088D01*
X188402Y67912D01*
X186912Y69402D01*
X185088Y70455D01*
X183053Y71000D01*
X180947D01*
X178912Y70455D01*
X177088Y69402D01*
X175598Y67912D01*
X174545Y66088D01*
X174401Y65549D01*
X165902D01*
X165562Y66819D01*
X166912Y67598D01*
X168402Y69088D01*
X169455Y70912D01*
X170000Y72947D01*
Y75053D01*
X169455Y77088D01*
X168402Y78912D01*
X166912Y80402D01*
X165088Y81455D01*
X163053Y82000D01*
X160947D01*
X158912Y81455D01*
X158429Y81176D01*
X144549Y95056D01*
Y126000D01*
X144355Y126975D01*
X143802Y127802D01*
X102000Y169605D01*
Y170796D01*
X101391Y172266D01*
X100266Y173391D01*
X98796Y174000D01*
D02*
G37*
G36*
X90796Y89000D02*
X89204D01*
X87734Y88391D01*
X86609Y87266D01*
X86000Y85796D01*
Y84204D01*
X86609Y82734D01*
X87451Y81892D01*
Y68108D01*
X86609Y67266D01*
X86000Y65796D01*
Y64204D01*
X86609Y62734D01*
X87734Y61609D01*
X89204Y61000D01*
X90796D01*
X92266Y61609D01*
X93391Y62734D01*
X94000Y64204D01*
Y65796D01*
X93391Y67266D01*
X92549Y68108D01*
Y81892D01*
X93391Y82734D01*
X94000Y84204D01*
Y85796D01*
X93391Y87266D01*
X92266Y88391D01*
X90796Y89000D01*
D02*
G37*
G36*
X124348Y36540D02*
X123770D01*
Y23770D01*
X136540D01*
Y24348D01*
X135583Y27919D01*
X133735Y31121D01*
X131121Y33735D01*
X127919Y35583D01*
X124348Y36540D01*
D02*
G37*
G36*
X121230D02*
X120652D01*
X117081Y35583D01*
X113879Y33735D01*
X111265Y31121D01*
X109417Y27919D01*
X108460Y24348D01*
Y23770D01*
X121230D01*
Y36540D01*
D02*
G37*
G36*
X79348D02*
X78770D01*
Y23770D01*
X91540D01*
Y24348D01*
X90583Y27919D01*
X88735Y31121D01*
X86121Y33735D01*
X82919Y35583D01*
X79348Y36540D01*
D02*
G37*
G36*
X76230D02*
X75652D01*
X72081Y35583D01*
X68879Y33735D01*
X66265Y31121D01*
X64417Y27919D01*
X63460Y24348D01*
Y23770D01*
X76230D01*
Y36540D01*
D02*
G37*
G36*
X181270Y31019D02*
Y23270D01*
X189019D01*
X188424Y25489D01*
X187234Y27551D01*
X185551Y29234D01*
X183489Y30424D01*
X181270Y31019D01*
D02*
G37*
G36*
X178730Y31019D02*
X176511Y30424D01*
X174449Y29234D01*
X172766Y27551D01*
X171576Y25489D01*
X170981Y23270D01*
X178730D01*
Y31019D01*
D02*
G37*
G36*
X20987Y29500D02*
X19013D01*
X17105Y28989D01*
X15395Y28001D01*
X13999Y26605D01*
X13011Y24895D01*
X12500Y22987D01*
Y21013D01*
X13011Y19105D01*
X13999Y17395D01*
X15395Y15999D01*
X17105Y15011D01*
X19013Y14500D01*
X20987D01*
X22895Y15011D01*
X24605Y15999D01*
X26002Y17395D01*
X26989Y19105D01*
X27500Y21013D01*
Y22987D01*
X26989Y24895D01*
X26002Y26605D01*
X24605Y28001D01*
X22895Y28989D01*
X20987Y29500D01*
D02*
G37*
G36*
X189019Y20730D02*
X181270D01*
Y12981D01*
X183489Y13576D01*
X185551Y14766D01*
X187234Y16449D01*
X188424Y18511D01*
X189019Y20730D01*
D02*
G37*
G36*
X178730D02*
X170981D01*
X171576Y18511D01*
X172766Y16449D01*
X174449Y14766D01*
X176511Y13576D01*
X178730Y12981D01*
Y20730D01*
D02*
G37*
G36*
X136540Y21230D02*
X123770D01*
Y8460D01*
X124348D01*
X127919Y9417D01*
X131121Y11265D01*
X133735Y13879D01*
X135583Y17081D01*
X136540Y20652D01*
Y21230D01*
D02*
G37*
G36*
X121230D02*
X108460D01*
Y20652D01*
X109417Y17081D01*
X111265Y13879D01*
X113879Y11265D01*
X117081Y9417D01*
X120652Y8460D01*
X121230D01*
Y21230D01*
D02*
G37*
G36*
X91540Y21230D02*
X78770D01*
Y8460D01*
X79348D01*
X82919Y9417D01*
X86121Y11265D01*
X88735Y13879D01*
X90583Y17081D01*
X91540Y20652D01*
Y21230D01*
D02*
G37*
G36*
X76230D02*
X63460D01*
Y20652D01*
X64417Y17081D01*
X66265Y13879D01*
X68879Y11265D01*
X72081Y9417D01*
X75652Y8460D01*
X76230D01*
Y21230D01*
D02*
G37*
%LPD*%
D43*
X80000Y257000D02*
X83000Y260000D01*
X100000D01*
X80000Y248000D02*
Y257000D01*
X78000Y246000D02*
X80000Y248000D01*
X65000Y246000D02*
X78000D01*
X63000Y244000D02*
X65000Y246000D01*
X61243Y231000D02*
X63000Y232757D01*
X55000Y231000D02*
X61243D01*
X63000Y232757D02*
Y244000D01*
X50000Y226000D02*
X55000Y231000D01*
X21000Y226000D02*
X50000D01*
X123000D01*
X70000Y235000D02*
X134000D01*
X70000Y235000D02*
X70000Y235000D01*
X25000Y135000D02*
X32000Y128000D01*
X25000Y135000D02*
Y148000D01*
X108000Y301000D02*
X166000D01*
X100000Y260000D02*
Y293000D01*
X108000Y301000D01*
X36000Y138000D02*
X80000Y182000D01*
X154000D01*
X161000Y189000D02*
Y232000D01*
X154000Y182000D02*
X161000Y189000D01*
X87000Y97000D02*
X106000D01*
X140000Y63000D01*
X182000D01*
X142000Y94000D02*
Y126000D01*
Y94000D02*
X162000Y74000D01*
X98000Y170000D02*
X142000Y126000D01*
X20000Y225000D02*
X21000Y226000D01*
X76000Y203000D02*
X148000D01*
X69000Y210000D02*
X76000Y203000D01*
X148000D02*
X154000Y209000D01*
Y277000D01*
X144000Y287000D02*
X154000Y277000D01*
X131000Y287000D02*
X144000D01*
X137000Y274000D02*
X147000Y264000D01*
Y217000D02*
Y264000D01*
X141000Y211000D02*
X147000Y217000D01*
X81000Y211000D02*
X141000D01*
X133325Y361325D02*
X142000Y352650D01*
X106350Y388300D02*
X133325Y361325D01*
X112000Y335000D02*
Y340000D01*
X133325Y361325D01*
X81000Y325000D02*
X102000D01*
X112000Y335000D01*
X84000Y354000D02*
Y359850D01*
Y354000D02*
X100000Y338000D01*
X55550Y388300D02*
X84000Y359850D01*
X134000Y313000D02*
X142000Y321000D01*
Y352650D01*
X93650Y374350D02*
Y413700D01*
Y374350D02*
X102000Y366000D01*
X110000D02*
X119000Y357000D01*
X102000Y366000D02*
X110000D01*
X85000Y296000D02*
X85250D01*
X129250Y340000D01*
X58500Y22500D02*
X77500D01*
X48000Y33000D02*
X58500Y22500D01*
X48000Y33000D02*
Y84000D01*
X134000Y235000D02*
X137000Y238000D01*
Y257000D01*
X90000Y65000D02*
Y85000D01*
D44*
X180000Y22000D02*
D03*
X20000D02*
D03*
D45*
X122500Y22500D02*
D03*
X77500D02*
D03*
D46*
X100000Y260000D02*
D03*
D47*
X108000Y252000D02*
D03*
Y268000D02*
D03*
X92000D02*
D03*
Y252000D02*
D03*
D48*
X162000Y96000D02*
D03*
Y74000D02*
D03*
X182000Y107000D02*
D03*
Y85000D02*
D03*
Y63000D02*
D03*
D49*
X154650Y340000D02*
D03*
X129250D02*
D03*
X70750D02*
D03*
X45350D02*
D03*
D50*
X55550Y388300D02*
D03*
X68250Y413700D02*
D03*
X80950Y388300D02*
D03*
X93650Y413700D02*
D03*
X106350Y388300D02*
D03*
X119050Y413700D02*
D03*
X131750Y388300D02*
D03*
X144450Y413700D02*
D03*
D51*
X179000Y446700D02*
D03*
X21000D02*
D03*
D52*
X42850Y477200D02*
D03*
X157150D02*
D03*
D53*
X70000Y235000D02*
D03*
X25000Y148000D02*
D03*
X32000Y128000D02*
D03*
X166000Y301000D02*
D03*
X36000Y138000D02*
D03*
X161000Y232000D02*
D03*
X87000Y97000D02*
D03*
X98000Y170000D02*
D03*
X20000Y225000D02*
D03*
X69000Y210000D02*
D03*
X123000Y226000D02*
D03*
X131000Y287000D02*
D03*
X137000Y274000D02*
D03*
X81000Y211000D02*
D03*
Y325000D02*
D03*
X100000Y338000D02*
D03*
X134000Y313000D02*
D03*
X119000Y357000D02*
D03*
X85000Y296000D02*
D03*
X48000Y84000D02*
D03*
X137000Y257500D02*
D03*
X90000Y85000D02*
D03*
Y65000D02*
D03*
M02*
