%TF.GenerationSoftware,Altium Limited,Altium Designer,23.1.1 (15)*%
G04 Layer_Color=32896*
%FSLAX45Y45*%
%MOMM*%
%TF.SameCoordinates,70D3D16F-5039-4D94-BC45-45D6FC6AA8C1*%
%TF.FilePolarity,Positive*%
%TF.FileFunction,Legend,Bot*%
%TF.Part,Single*%
G01*
G75*
%TA.AperFunction,NonConductor*%
%ADD35C,0.10000*%
G36*
X1500000Y1030000D02*
X1450000Y1055000D01*
X1500000Y1080000D01*
Y1030000D01*
D02*
G37*
G36*
X721300Y5230502D02*
X723935Y5230224D01*
X726431Y5229808D01*
X728927Y5229253D01*
X731146Y5228560D01*
X733227Y5227867D01*
X735168Y5227035D01*
X736832Y5226341D01*
X738497Y5225509D01*
X739883Y5224677D01*
X740993Y5223983D01*
X742102Y5223290D01*
X742796Y5222735D01*
X743489Y5222319D01*
X743767Y5222042D01*
X743905Y5221903D01*
X745708Y5220239D01*
X747372Y5218297D01*
X748898Y5216356D01*
X750285Y5214414D01*
X751533Y5212334D01*
X752504Y5210392D01*
X754307Y5206371D01*
X755000Y5204568D01*
X755555Y5202903D01*
X755971Y5201378D01*
X756387Y5200130D01*
X756664Y5199020D01*
X756803Y5198188D01*
X756942Y5197633D01*
Y5197495D01*
X741270Y5194721D01*
X740438Y5198743D01*
X739329Y5202210D01*
X738081Y5205261D01*
X736694Y5207619D01*
X735584Y5209560D01*
X734475Y5210808D01*
X733781Y5211641D01*
X733504Y5211918D01*
X731008Y5213860D01*
X728511Y5215246D01*
X725876Y5216356D01*
X723519Y5217049D01*
X721300Y5217465D01*
X720468Y5217604D01*
X719636D01*
X718942Y5217743D01*
X718110D01*
X714782Y5217465D01*
X711869Y5216911D01*
X709234Y5215940D01*
X707015Y5214969D01*
X705351Y5213860D01*
X704103Y5212889D01*
X703271Y5212334D01*
X702994Y5212057D01*
X701884Y5210947D01*
X701052Y5209838D01*
X699526Y5207341D01*
X698417Y5204984D01*
X697724Y5202765D01*
X697307Y5200685D01*
X697169Y5199159D01*
X697030Y5198466D01*
Y5198050D01*
Y5197772D01*
Y5197633D01*
X697169Y5195692D01*
X697446Y5193889D01*
X697724Y5192086D01*
X698278Y5190561D01*
X699665Y5187787D01*
X701052Y5185568D01*
X702577Y5183765D01*
X703964Y5182517D01*
X704519Y5182101D01*
X704796Y5181824D01*
X705074Y5181546D01*
X705212D01*
X708264Y5179743D01*
X711453Y5178495D01*
X714504Y5177524D01*
X717278Y5176970D01*
X719636Y5176554D01*
X720606Y5176415D01*
X721577D01*
X722271Y5176276D01*
X724073D01*
X724906Y5176415D01*
X725599Y5176554D01*
X725876D01*
X727541Y5162824D01*
X725183Y5163379D01*
X722964Y5163795D01*
X721161Y5164072D01*
X719497Y5164349D01*
X718249D01*
X717278Y5164488D01*
X716446D01*
X714504Y5164349D01*
X712563Y5164211D01*
X709096Y5163379D01*
X706045Y5162269D01*
X703410Y5161021D01*
X701329Y5159634D01*
X700497Y5159079D01*
X699804Y5158525D01*
X699249Y5158109D01*
X698833Y5157693D01*
X698694Y5157554D01*
X698556Y5157415D01*
X697307Y5156028D01*
X696198Y5154641D01*
X695227Y5153255D01*
X694395Y5151729D01*
X693147Y5148817D01*
X692176Y5145904D01*
X691760Y5143408D01*
X691621Y5142437D01*
X691483Y5141466D01*
X691344Y5140773D01*
Y5140080D01*
Y5139802D01*
Y5139664D01*
X691483Y5137583D01*
X691621Y5135642D01*
X692592Y5131897D01*
X693702Y5128708D01*
X695089Y5125934D01*
X695921Y5124686D01*
X696614Y5123715D01*
X697169Y5122744D01*
X697724Y5122051D01*
X698278Y5121496D01*
X698694Y5121080D01*
X698833Y5120803D01*
X698972Y5120664D01*
X700497Y5119277D01*
X702023Y5118168D01*
X703548Y5117197D01*
X705074Y5116226D01*
X708264Y5114839D01*
X711315Y5114007D01*
X713811Y5113452D01*
X715059Y5113314D01*
X715891Y5113175D01*
X716723Y5113036D01*
X717833D01*
X721161Y5113314D01*
X724351Y5114007D01*
X726986Y5114839D01*
X729343Y5115949D01*
X731285Y5117058D01*
X732672Y5117890D01*
X733088Y5118306D01*
X733504Y5118584D01*
X733643Y5118861D01*
X733781D01*
X734891Y5120109D01*
X736000Y5121357D01*
X737942Y5124270D01*
X739467Y5127459D01*
X740716Y5130649D01*
X741686Y5133561D01*
X741964Y5134810D01*
X742241Y5135919D01*
X742518Y5136890D01*
X742657Y5137583D01*
X742796Y5137999D01*
Y5138138D01*
X758467Y5136058D01*
X758051Y5133145D01*
X757496Y5130372D01*
X756664Y5127737D01*
X755832Y5125240D01*
X754861Y5122883D01*
X753752Y5120803D01*
X752642Y5118722D01*
X751533Y5117058D01*
X750423Y5115394D01*
X749453Y5114007D01*
X748482Y5112759D01*
X747650Y5111788D01*
X746818Y5110956D01*
X746263Y5110401D01*
X745986Y5110124D01*
X745847Y5109985D01*
X743767Y5108182D01*
X741409Y5106657D01*
X739190Y5105409D01*
X736832Y5104160D01*
X734475Y5103190D01*
X732117Y5102496D01*
X729898Y5101803D01*
X727679Y5101248D01*
X725599Y5100832D01*
X723796Y5100555D01*
X722132Y5100277D01*
X720606Y5100139D01*
X719497D01*
X718526Y5100000D01*
X717833D01*
X714366Y5100139D01*
X711176Y5100555D01*
X708125Y5101109D01*
X705212Y5101803D01*
X702439Y5102635D01*
X699942Y5103606D01*
X697585Y5104715D01*
X695505Y5105825D01*
X693563Y5106795D01*
X691899Y5107905D01*
X690373Y5108876D01*
X689264Y5109708D01*
X688293Y5110401D01*
X687600Y5110956D01*
X687184Y5111372D01*
X687045Y5111511D01*
X684826Y5113730D01*
X683023Y5116087D01*
X681359Y5118445D01*
X679972Y5120941D01*
X678724Y5123299D01*
X677753Y5125656D01*
X676921Y5127875D01*
X676228Y5130094D01*
X675673Y5132175D01*
X675395Y5133978D01*
X675118Y5135642D01*
X674841Y5137167D01*
Y5138277D01*
X674702Y5139248D01*
Y5139802D01*
Y5139941D01*
Y5142160D01*
X674979Y5144379D01*
X675673Y5148401D01*
X676782Y5151868D01*
X677337Y5153393D01*
X677892Y5154780D01*
X678446Y5156167D01*
X679001Y5157276D01*
X679556Y5158247D01*
X680111Y5158941D01*
X680527Y5159634D01*
X680804Y5160050D01*
X680943Y5160327D01*
X681081Y5160466D01*
X683578Y5163379D01*
X686490Y5165736D01*
X689402Y5167539D01*
X692176Y5169065D01*
X694811Y5170174D01*
X695921Y5170590D01*
X696753Y5170867D01*
X697585Y5171145D01*
X698140Y5171284D01*
X698556Y5171422D01*
X698694D01*
X695643Y5173086D01*
X693008Y5174751D01*
X690651Y5176554D01*
X688848Y5178356D01*
X687322Y5179882D01*
X686351Y5181130D01*
X685658Y5181962D01*
X685519Y5182101D01*
Y5182240D01*
X683994Y5184875D01*
X682884Y5187510D01*
X682052Y5190006D01*
X681497Y5192364D01*
X681220Y5194305D01*
X680943Y5195969D01*
Y5196524D01*
Y5196940D01*
Y5197217D01*
Y5197356D01*
X681081Y5200546D01*
X681636Y5203597D01*
X682468Y5206371D01*
X683300Y5208867D01*
X684132Y5210947D01*
X684549Y5211779D01*
X684965Y5212473D01*
X685242Y5213027D01*
X685519Y5213582D01*
X685658Y5213721D01*
Y5213860D01*
X687600Y5216633D01*
X689819Y5218991D01*
X692037Y5221071D01*
X694256Y5222874D01*
X696198Y5224261D01*
X697724Y5225232D01*
X698417Y5225648D01*
X698833Y5225925D01*
X699110Y5226064D01*
X699249D01*
X702577Y5227589D01*
X705906Y5228699D01*
X709234Y5229531D01*
X712147Y5230086D01*
X714782Y5230363D01*
X715752Y5230502D01*
X716723Y5230640D01*
X718526D01*
X721300Y5230502D01*
D02*
G37*
G36*
X1017806D02*
X1020996Y5230224D01*
X1023908Y5229808D01*
X1026682Y5229115D01*
X1029317Y5228421D01*
X1031675Y5227589D01*
X1033894Y5226757D01*
X1035835Y5225925D01*
X1037638Y5224954D01*
X1039164Y5224122D01*
X1040550Y5223290D01*
X1041660Y5222597D01*
X1042492Y5221903D01*
X1043047Y5221487D01*
X1043463Y5221210D01*
X1043601Y5221071D01*
X1045543Y5219268D01*
X1047207Y5217188D01*
X1048733Y5215108D01*
X1050120Y5212750D01*
X1051229Y5210531D01*
X1052339Y5208312D01*
X1053171Y5205955D01*
X1053864Y5203874D01*
X1054557Y5201794D01*
X1054974Y5199852D01*
X1055390Y5198050D01*
X1055667Y5196524D01*
X1055806Y5195276D01*
X1055944Y5194444D01*
X1056083Y5193889D01*
Y5193612D01*
X1039996Y5191947D01*
X1039857Y5194166D01*
X1039718Y5196247D01*
X1038886Y5199852D01*
X1037777Y5203181D01*
X1037222Y5204568D01*
X1036529Y5205816D01*
X1035974Y5206925D01*
X1035280Y5207896D01*
X1034726Y5208728D01*
X1034310Y5209422D01*
X1033755Y5209976D01*
X1033477Y5210392D01*
X1033339Y5210531D01*
X1033200Y5210670D01*
X1031813Y5211918D01*
X1030426Y5213027D01*
X1028901Y5213860D01*
X1027375Y5214692D01*
X1024324Y5215940D01*
X1021412Y5216772D01*
X1018916Y5217188D01*
X1017806Y5217465D01*
X1016835D01*
X1016003Y5217604D01*
X1012952D01*
X1011011Y5217327D01*
X1007544Y5216633D01*
X1004631Y5215524D01*
X1001996Y5214414D01*
X1000055Y5213166D01*
X999223Y5212611D01*
X998529Y5212057D01*
X997974Y5211641D01*
X997558Y5211363D01*
X997420Y5211225D01*
X997281Y5211086D01*
X996033Y5209838D01*
X995062Y5208590D01*
X994091Y5207341D01*
X993398Y5205955D01*
X992150Y5203320D01*
X991318Y5200823D01*
X990901Y5198743D01*
X990624Y5197772D01*
Y5196940D01*
X990485Y5196385D01*
Y5195831D01*
Y5195553D01*
Y5195415D01*
X990624Y5193750D01*
X990763Y5192086D01*
X991595Y5188758D01*
X992843Y5185568D01*
X994230Y5182656D01*
X995617Y5180159D01*
X996171Y5179189D01*
X996865Y5178218D01*
X997281Y5177524D01*
X997697Y5176970D01*
X997836Y5176692D01*
X997974Y5176554D01*
X999500Y5174612D01*
X1001303Y5172532D01*
X1003383Y5170313D01*
X1005602Y5168094D01*
X1010179Y5163517D01*
X1014894Y5159218D01*
X1017113Y5157138D01*
X1019332Y5155335D01*
X1021273Y5153671D01*
X1022938Y5152284D01*
X1024324Y5151036D01*
X1025295Y5150204D01*
X1025989Y5149510D01*
X1026266Y5149371D01*
X1028762Y5147291D01*
X1030981Y5145350D01*
X1033200Y5143547D01*
X1035142Y5141744D01*
X1037083Y5140080D01*
X1038747Y5138415D01*
X1040273Y5137029D01*
X1041660Y5135642D01*
X1042908Y5134394D01*
X1043879Y5133284D01*
X1044850Y5132313D01*
X1045543Y5131620D01*
X1046236Y5130926D01*
X1046652Y5130510D01*
X1046791Y5130233D01*
X1046930Y5130094D01*
X1049426Y5127043D01*
X1051506Y5123992D01*
X1053309Y5121080D01*
X1054696Y5118445D01*
X1055806Y5116226D01*
X1056222Y5115255D01*
X1056638Y5114562D01*
X1056915Y5113868D01*
X1057054Y5113452D01*
X1057192Y5113175D01*
Y5113036D01*
X1057886Y5111095D01*
X1058302Y5109153D01*
X1058718Y5107350D01*
X1058857Y5105686D01*
X1058995Y5104299D01*
Y5103190D01*
Y5102496D01*
Y5102219D01*
X974259D01*
Y5117335D01*
X1037361D01*
X1035142Y5120387D01*
X1034032Y5121773D01*
X1032923Y5123022D01*
X1031952Y5124131D01*
X1031259Y5124963D01*
X1030704Y5125518D01*
X1030565Y5125656D01*
X1029733Y5126489D01*
X1028624Y5127598D01*
X1027375Y5128708D01*
X1025989Y5129956D01*
X1023076Y5132729D01*
X1020025Y5135364D01*
X1017113Y5137861D01*
X1015865Y5138970D01*
X1014616Y5139941D01*
X1013784Y5140773D01*
X1012952Y5141328D01*
X1012536Y5141744D01*
X1012398Y5141883D01*
X1009346Y5144518D01*
X1006434Y5147014D01*
X1003799Y5149233D01*
X1001441Y5151452D01*
X999223Y5153393D01*
X997281Y5155335D01*
X995478Y5156999D01*
X993814Y5158525D01*
X992427Y5159773D01*
X991318Y5161021D01*
X990347Y5161992D01*
X989515Y5162824D01*
X988960Y5163517D01*
X988405Y5163933D01*
X988267Y5164211D01*
X988128Y5164349D01*
X985493Y5167400D01*
X983413Y5170174D01*
X981610Y5172809D01*
X980084Y5175167D01*
X978975Y5177108D01*
X978143Y5178634D01*
X977865Y5179189D01*
X977727Y5179605D01*
X977588Y5179743D01*
Y5179882D01*
X976478Y5182656D01*
X975785Y5185429D01*
X975230Y5187926D01*
X974814Y5190283D01*
X974537Y5192225D01*
X974398Y5193750D01*
Y5194305D01*
Y5194721D01*
Y5194860D01*
Y5194998D01*
X974537Y5197772D01*
X974814Y5200407D01*
X975369Y5202903D01*
X976062Y5205400D01*
X976894Y5207619D01*
X977865Y5209699D01*
X978836Y5211641D01*
X979807Y5213305D01*
X980778Y5214969D01*
X981748Y5216356D01*
X982719Y5217604D01*
X983551Y5218575D01*
X984245Y5219268D01*
X984799Y5219962D01*
X985077Y5220239D01*
X985215Y5220378D01*
X987296Y5222181D01*
X989515Y5223706D01*
X991872Y5225093D01*
X994369Y5226341D01*
X996726Y5227312D01*
X999223Y5228144D01*
X1001580Y5228837D01*
X1003938Y5229392D01*
X1006018Y5229808D01*
X1008098Y5230086D01*
X1009901Y5230363D01*
X1011427Y5230502D01*
X1012675Y5230640D01*
X1014478D01*
X1017806Y5230502D01*
D02*
G37*
G36*
X818933D02*
X822123Y5230224D01*
X825035Y5229808D01*
X827809Y5229115D01*
X830444Y5228421D01*
X832802Y5227589D01*
X835021Y5226757D01*
X836962Y5225925D01*
X838765Y5224954D01*
X840291Y5224122D01*
X841678Y5223290D01*
X842787Y5222597D01*
X843619Y5221903D01*
X844174Y5221487D01*
X844590Y5221210D01*
X844729Y5221071D01*
X846670Y5219268D01*
X848334Y5217188D01*
X849860Y5215108D01*
X851247Y5212750D01*
X852356Y5210531D01*
X853466Y5208312D01*
X854298Y5205955D01*
X854991Y5203874D01*
X855685Y5201794D01*
X856101Y5199852D01*
X856517Y5198050D01*
X856794Y5196524D01*
X856933Y5195276D01*
X857071Y5194444D01*
X857210Y5193889D01*
Y5193612D01*
X841123Y5191947D01*
X840984Y5194166D01*
X840845Y5196247D01*
X840013Y5199852D01*
X838904Y5203181D01*
X838349Y5204568D01*
X837656Y5205816D01*
X837101Y5206925D01*
X836408Y5207896D01*
X835853Y5208728D01*
X835437Y5209422D01*
X834882Y5209976D01*
X834605Y5210392D01*
X834466Y5210531D01*
X834327Y5210670D01*
X832940Y5211918D01*
X831554Y5213027D01*
X830028Y5213860D01*
X828503Y5214692D01*
X825451Y5215940D01*
X822539Y5216772D01*
X820043Y5217188D01*
X818933Y5217465D01*
X817963D01*
X817130Y5217604D01*
X814079D01*
X812138Y5217327D01*
X808671Y5216633D01*
X805758Y5215524D01*
X803123Y5214414D01*
X801182Y5213166D01*
X800350Y5212611D01*
X799656Y5212057D01*
X799102Y5211641D01*
X798685Y5211363D01*
X798547Y5211225D01*
X798408Y5211086D01*
X797160Y5209838D01*
X796189Y5208590D01*
X795218Y5207341D01*
X794525Y5205955D01*
X793277Y5203320D01*
X792445Y5200823D01*
X792029Y5198743D01*
X791751Y5197772D01*
Y5196940D01*
X791613Y5196385D01*
Y5195831D01*
Y5195553D01*
Y5195415D01*
X791751Y5193750D01*
X791890Y5192086D01*
X792722Y5188758D01*
X793970Y5185568D01*
X795357Y5182656D01*
X796744Y5180159D01*
X797299Y5179189D01*
X797992Y5178218D01*
X798408Y5177524D01*
X798824Y5176970D01*
X798963Y5176692D01*
X799102Y5176554D01*
X800627Y5174612D01*
X802430Y5172532D01*
X804510Y5170313D01*
X806729Y5168094D01*
X811306Y5163517D01*
X816021Y5159218D01*
X818240Y5157138D01*
X820459Y5155335D01*
X822400Y5153671D01*
X824065Y5152284D01*
X825451Y5151036D01*
X826422Y5150204D01*
X827116Y5149510D01*
X827393Y5149371D01*
X829889Y5147291D01*
X832108Y5145350D01*
X834327Y5143547D01*
X836269Y5141744D01*
X838210Y5140080D01*
X839875Y5138415D01*
X841400Y5137029D01*
X842787Y5135642D01*
X844035Y5134394D01*
X845006Y5133284D01*
X845977Y5132313D01*
X846670Y5131620D01*
X847364Y5130926D01*
X847780Y5130510D01*
X847918Y5130233D01*
X848057Y5130094D01*
X850553Y5127043D01*
X852634Y5123992D01*
X854436Y5121080D01*
X855823Y5118445D01*
X856933Y5116226D01*
X857349Y5115255D01*
X857765Y5114562D01*
X858042Y5113868D01*
X858181Y5113452D01*
X858320Y5113175D01*
Y5113036D01*
X859013Y5111095D01*
X859429Y5109153D01*
X859845Y5107350D01*
X859984Y5105686D01*
X860122Y5104299D01*
Y5103190D01*
Y5102496D01*
Y5102219D01*
X775387D01*
Y5117335D01*
X838488D01*
X836269Y5120387D01*
X835159Y5121773D01*
X834050Y5123022D01*
X833079Y5124131D01*
X832386Y5124963D01*
X831831Y5125518D01*
X831692Y5125656D01*
X830860Y5126489D01*
X829751Y5127598D01*
X828503Y5128708D01*
X827116Y5129956D01*
X824203Y5132729D01*
X821152Y5135364D01*
X818240Y5137861D01*
X816992Y5138970D01*
X815744Y5139941D01*
X814912Y5140773D01*
X814079Y5141328D01*
X813663Y5141744D01*
X813525Y5141883D01*
X810474Y5144518D01*
X807561Y5147014D01*
X804926Y5149233D01*
X802569Y5151452D01*
X800350Y5153393D01*
X798408Y5155335D01*
X796605Y5156999D01*
X794941Y5158525D01*
X793554Y5159773D01*
X792445Y5161021D01*
X791474Y5161992D01*
X790642Y5162824D01*
X790087Y5163517D01*
X789532Y5163933D01*
X789394Y5164211D01*
X789255Y5164349D01*
X786620Y5167400D01*
X784540Y5170174D01*
X782737Y5172809D01*
X781211Y5175167D01*
X780102Y5177108D01*
X779270Y5178634D01*
X778992Y5179189D01*
X778854Y5179605D01*
X778715Y5179743D01*
Y5179882D01*
X777606Y5182656D01*
X776912Y5185429D01*
X776357Y5187926D01*
X775941Y5190283D01*
X775664Y5192225D01*
X775525Y5193750D01*
Y5194305D01*
Y5194721D01*
Y5194860D01*
Y5194998D01*
X775664Y5197772D01*
X775941Y5200407D01*
X776496Y5202903D01*
X777189Y5205400D01*
X778022Y5207619D01*
X778992Y5209699D01*
X779963Y5211641D01*
X780934Y5213305D01*
X781905Y5214969D01*
X782875Y5216356D01*
X783846Y5217604D01*
X784678Y5218575D01*
X785372Y5219268D01*
X785927Y5219962D01*
X786204Y5220239D01*
X786343Y5220378D01*
X788423Y5222181D01*
X790642Y5223706D01*
X792999Y5225093D01*
X795496Y5226341D01*
X797853Y5227312D01*
X800350Y5228144D01*
X802707Y5228837D01*
X805065Y5229392D01*
X807145Y5229808D01*
X809225Y5230086D01*
X811028Y5230363D01*
X812554Y5230502D01*
X813802Y5230640D01*
X815605D01*
X818933Y5230502D01*
D02*
G37*
G36*
X1211270Y5147291D02*
Y5132868D01*
X1155519D01*
Y5102219D01*
X1139848D01*
Y5132868D01*
X1122513D01*
Y5147291D01*
X1139848D01*
Y5230224D01*
X1152746D01*
X1211270Y5147291D01*
D02*
G37*
G36*
X1097688Y5102219D02*
X1079798D01*
Y5120109D01*
X1097688D01*
Y5102219D01*
D02*
G37*
G36*
X1266189Y5230502D02*
X1268686Y5230363D01*
X1271043Y5229947D01*
X1273262Y5229531D01*
X1275204Y5228976D01*
X1277145Y5228283D01*
X1278948Y5227589D01*
X1280474Y5226896D01*
X1281999Y5226202D01*
X1283247Y5225509D01*
X1284357Y5224954D01*
X1285189Y5224261D01*
X1285882Y5223845D01*
X1286437Y5223429D01*
X1286714Y5223290D01*
X1286853Y5223151D01*
X1288517Y5221626D01*
X1290043Y5220100D01*
X1292817Y5216633D01*
X1295313Y5213166D01*
X1297254Y5209699D01*
X1298087Y5208035D01*
X1298780Y5206648D01*
X1299335Y5205261D01*
X1299889Y5204152D01*
X1300167Y5203181D01*
X1300444Y5202349D01*
X1300722Y5201933D01*
Y5201794D01*
X1301554Y5199159D01*
X1302247Y5196247D01*
X1303357Y5190283D01*
X1304189Y5184181D01*
X1304466Y5181269D01*
X1304743Y5178356D01*
X1304882Y5175721D01*
X1305021Y5173225D01*
X1305159Y5171006D01*
Y5169065D01*
X1305298Y5167539D01*
Y5166291D01*
Y5165597D01*
Y5165320D01*
X1305159Y5158802D01*
X1304743Y5152700D01*
X1304189Y5147153D01*
X1303357Y5142021D01*
X1302386Y5137306D01*
X1301276Y5133007D01*
X1300167Y5129262D01*
X1298919Y5125795D01*
X1297809Y5122883D01*
X1296700Y5120248D01*
X1295590Y5118168D01*
X1294619Y5116365D01*
X1293787Y5114978D01*
X1293233Y5114007D01*
X1292817Y5113452D01*
X1292678Y5113314D01*
X1290598Y5110956D01*
X1288379Y5109014D01*
X1286021Y5107212D01*
X1283663Y5105686D01*
X1281306Y5104438D01*
X1278809Y5103328D01*
X1276452Y5102496D01*
X1274233Y5101803D01*
X1272014Y5101248D01*
X1270072Y5100832D01*
X1268269Y5100555D01*
X1266744Y5100416D01*
X1265496Y5100277D01*
X1264525Y5100139D01*
X1263693D01*
X1261058Y5100277D01*
X1258700Y5100416D01*
X1256343Y5100832D01*
X1254124Y5101248D01*
X1252043Y5101942D01*
X1250241Y5102496D01*
X1248438Y5103190D01*
X1246912Y5103883D01*
X1245387Y5104577D01*
X1244138Y5105270D01*
X1243029Y5105963D01*
X1242197Y5106518D01*
X1241503Y5106934D01*
X1240949Y5107350D01*
X1240671Y5107489D01*
X1240533Y5107628D01*
X1238868Y5109153D01*
X1237204Y5110679D01*
X1234431Y5114146D01*
X1232073Y5117613D01*
X1230131Y5121080D01*
X1229299Y5122744D01*
X1228606Y5124270D01*
X1228051Y5125518D01*
X1227496Y5126766D01*
X1227080Y5127598D01*
X1226942Y5128430D01*
X1226664Y5128846D01*
Y5128985D01*
X1225832Y5131620D01*
X1225139Y5134532D01*
X1223891Y5140496D01*
X1223059Y5146598D01*
X1222781Y5149510D01*
X1222504Y5152423D01*
X1222365Y5155058D01*
X1222226Y5157554D01*
X1222088Y5159634D01*
X1221949Y5161576D01*
Y5163101D01*
Y5164349D01*
Y5165043D01*
Y5165320D01*
Y5168787D01*
X1222088Y5172116D01*
X1222226Y5175167D01*
X1222365Y5178079D01*
X1222642Y5180714D01*
X1222920Y5183210D01*
X1223197Y5185429D01*
X1223336Y5187510D01*
X1223613Y5189312D01*
X1223891Y5190838D01*
X1224168Y5192225D01*
X1224445Y5193334D01*
X1224584Y5194305D01*
X1224723Y5194860D01*
X1224861Y5195276D01*
Y5195415D01*
X1225971Y5199436D01*
X1227358Y5203181D01*
X1228606Y5206371D01*
X1229854Y5209144D01*
X1230547Y5210254D01*
X1230964Y5211363D01*
X1231518Y5212334D01*
X1231934Y5213027D01*
X1232350Y5213582D01*
X1232489Y5213998D01*
X1232766Y5214276D01*
Y5214414D01*
X1234708Y5217188D01*
X1236927Y5219684D01*
X1239007Y5221765D01*
X1241087Y5223429D01*
X1242890Y5224816D01*
X1244277Y5225648D01*
X1244832Y5226064D01*
X1245248Y5226341D01*
X1245525Y5226480D01*
X1245664D01*
X1248715Y5227867D01*
X1251766Y5228837D01*
X1254817Y5229669D01*
X1257591Y5230086D01*
X1260087Y5230363D01*
X1261058Y5230502D01*
X1262029Y5230640D01*
X1263693D01*
X1266189Y5230502D01*
D02*
G37*
G36*
X918231D02*
X920727Y5230363D01*
X923085Y5229947D01*
X925304Y5229531D01*
X927246Y5228976D01*
X929187Y5228283D01*
X930990Y5227589D01*
X932516Y5226896D01*
X934041Y5226202D01*
X935289Y5225509D01*
X936399Y5224954D01*
X937231Y5224261D01*
X937924Y5223845D01*
X938479Y5223429D01*
X938756Y5223290D01*
X938895Y5223151D01*
X940559Y5221626D01*
X942085Y5220100D01*
X944858Y5216633D01*
X947355Y5213166D01*
X949296Y5209699D01*
X950128Y5208035D01*
X950822Y5206648D01*
X951377Y5205261D01*
X951931Y5204152D01*
X952209Y5203181D01*
X952486Y5202349D01*
X952763Y5201933D01*
Y5201794D01*
X953596Y5199159D01*
X954289Y5196247D01*
X955398Y5190283D01*
X956230Y5184181D01*
X956508Y5181269D01*
X956785Y5178356D01*
X956924Y5175721D01*
X957063Y5173225D01*
X957201Y5171006D01*
Y5169065D01*
X957340Y5167539D01*
Y5166291D01*
Y5165597D01*
Y5165320D01*
X957201Y5158802D01*
X956785Y5152700D01*
X956230Y5147153D01*
X955398Y5142021D01*
X954428Y5137306D01*
X953318Y5133007D01*
X952209Y5129262D01*
X950961Y5125795D01*
X949851Y5122883D01*
X948742Y5120248D01*
X947632Y5118168D01*
X946661Y5116365D01*
X945829Y5114978D01*
X945274Y5114007D01*
X944858Y5113452D01*
X944720Y5113314D01*
X942639Y5110956D01*
X940421Y5109014D01*
X938063Y5107212D01*
X935705Y5105686D01*
X933348Y5104438D01*
X930851Y5103328D01*
X928494Y5102496D01*
X926275Y5101803D01*
X924056Y5101248D01*
X922114Y5100832D01*
X920311Y5100555D01*
X918786Y5100416D01*
X917538Y5100277D01*
X916567Y5100139D01*
X915735D01*
X913100Y5100277D01*
X910742Y5100416D01*
X908385Y5100832D01*
X906166Y5101248D01*
X904085Y5101942D01*
X902282Y5102496D01*
X900480Y5103190D01*
X898954Y5103883D01*
X897428Y5104577D01*
X896180Y5105270D01*
X895071Y5105963D01*
X894239Y5106518D01*
X893545Y5106934D01*
X892991Y5107350D01*
X892713Y5107489D01*
X892575Y5107628D01*
X890910Y5109153D01*
X889246Y5110679D01*
X886472Y5114146D01*
X884115Y5117613D01*
X882173Y5121080D01*
X881341Y5122744D01*
X880648Y5124270D01*
X880093Y5125518D01*
X879538Y5126766D01*
X879122Y5127598D01*
X878984Y5128430D01*
X878706Y5128846D01*
Y5128985D01*
X877874Y5131620D01*
X877181Y5134532D01*
X875932Y5140496D01*
X875100Y5146598D01*
X874823Y5149510D01*
X874546Y5152423D01*
X874407Y5155058D01*
X874268Y5157554D01*
X874130Y5159634D01*
X873991Y5161576D01*
Y5163101D01*
Y5164349D01*
Y5165043D01*
Y5165320D01*
Y5168787D01*
X874130Y5172116D01*
X874268Y5175167D01*
X874407Y5178079D01*
X874684Y5180714D01*
X874962Y5183210D01*
X875239Y5185429D01*
X875378Y5187510D01*
X875655Y5189312D01*
X875932Y5190838D01*
X876210Y5192225D01*
X876487Y5193334D01*
X876626Y5194305D01*
X876765Y5194860D01*
X876903Y5195276D01*
Y5195415D01*
X878013Y5199436D01*
X879400Y5203181D01*
X880648Y5206371D01*
X881896Y5209144D01*
X882589Y5210254D01*
X883005Y5211363D01*
X883560Y5212334D01*
X883976Y5213027D01*
X884392Y5213582D01*
X884531Y5213998D01*
X884808Y5214276D01*
Y5214414D01*
X886750Y5217188D01*
X888969Y5219684D01*
X891049Y5221765D01*
X893129Y5223429D01*
X894932Y5224816D01*
X896319Y5225648D01*
X896874Y5226064D01*
X897290Y5226341D01*
X897567Y5226480D01*
X897706D01*
X900757Y5227867D01*
X903808Y5228837D01*
X906859Y5229669D01*
X909633Y5230086D01*
X912129Y5230363D01*
X913100Y5230502D01*
X914071Y5230640D01*
X915735D01*
X918231Y5230502D01*
D02*
G37*
G36*
X1382352Y5302912D02*
X1365432D01*
Y5363240D01*
X1299003D01*
Y5302912D01*
X1282083D01*
Y5430918D01*
X1299003D01*
Y5378357D01*
X1365432D01*
Y5430918D01*
X1382352D01*
Y5302912D01*
D02*
G37*
G36*
X1048955Y5356999D02*
Y5302912D01*
X1032036D01*
Y5356999D01*
X981000Y5430918D01*
X1000693D01*
X1025518Y5393196D01*
X1028430Y5388619D01*
X1031204Y5384320D01*
X1033562Y5380575D01*
X1034671Y5378773D01*
X1035642Y5377247D01*
X1036474Y5375860D01*
X1037306Y5374473D01*
X1037861Y5373364D01*
X1038415Y5372532D01*
X1038970Y5371700D01*
X1039248Y5371145D01*
X1039386Y5370868D01*
X1039525Y5370729D01*
X1041744Y5374751D01*
X1044102Y5378634D01*
X1046320Y5382240D01*
X1048262Y5385429D01*
X1049233Y5386955D01*
X1050065Y5388203D01*
X1050758Y5389451D01*
X1051313Y5390422D01*
X1051868Y5391115D01*
X1052284Y5391809D01*
X1052423Y5392086D01*
X1052561Y5392225D01*
X1077802Y5430918D01*
X1098327D01*
X1048955Y5356999D01*
D02*
G37*
G36*
X1463205Y5432859D02*
X1465562Y5432582D01*
X1467920Y5432166D01*
X1470000Y5431611D01*
X1472080Y5431056D01*
X1473883Y5430224D01*
X1475686Y5429531D01*
X1477212Y5428699D01*
X1478599Y5427867D01*
X1479847Y5427173D01*
X1480956Y5426341D01*
X1481788Y5425786D01*
X1482482Y5425232D01*
X1483036Y5424816D01*
X1483314Y5424538D01*
X1483452Y5424400D01*
X1484978Y5422735D01*
X1486365Y5421071D01*
X1487613Y5419407D01*
X1488722Y5417743D01*
X1489555Y5416079D01*
X1490248Y5414414D01*
X1491357Y5411225D01*
X1491773Y5409838D01*
X1492051Y5408590D01*
X1492190Y5407341D01*
X1492328Y5406371D01*
X1492467Y5405539D01*
Y5404984D01*
Y5404568D01*
Y5404429D01*
X1492328Y5402210D01*
X1492051Y5400130D01*
X1491496Y5398050D01*
X1490941Y5396247D01*
X1490525Y5394583D01*
X1489971Y5393473D01*
X1489693Y5392641D01*
X1489555Y5392502D01*
Y5392364D01*
X1488168Y5389867D01*
X1486504Y5387232D01*
X1484562Y5384597D01*
X1482620Y5382101D01*
X1480817Y5379743D01*
X1479985Y5378773D01*
X1479292Y5377940D01*
X1478737Y5377247D01*
X1478321Y5376692D01*
X1478044Y5376415D01*
X1477905Y5376276D01*
X1480679Y5374889D01*
X1483314Y5373503D01*
X1485671Y5372116D01*
X1487890Y5370590D01*
X1489971Y5369203D01*
X1491912Y5367817D01*
X1493576Y5366430D01*
X1495102Y5365182D01*
X1496350Y5363933D01*
X1497598Y5362963D01*
X1498569Y5361992D01*
X1499401Y5361160D01*
X1499956Y5360466D01*
X1500372Y5359912D01*
X1500649Y5359634D01*
X1500788Y5359496D01*
X1502175Y5357693D01*
X1503284Y5355890D01*
X1504255Y5354087D01*
X1505226Y5352145D01*
X1506613Y5348539D01*
X1507445Y5345350D01*
X1507722Y5343824D01*
X1508000Y5342437D01*
X1508138Y5341189D01*
X1508277Y5340218D01*
X1508416Y5339248D01*
Y5338693D01*
Y5338277D01*
Y5338138D01*
X1508277Y5335642D01*
X1508000Y5333284D01*
X1507583Y5330927D01*
X1506890Y5328708D01*
X1505503Y5324686D01*
X1504671Y5322744D01*
X1503700Y5321080D01*
X1502868Y5319555D01*
X1502036Y5318168D01*
X1501343Y5316920D01*
X1500511Y5315949D01*
X1499956Y5315117D01*
X1499540Y5314562D01*
X1499262Y5314146D01*
X1499124Y5314007D01*
X1496905Y5311650D01*
X1494408Y5309708D01*
X1491912Y5307905D01*
X1489416Y5306380D01*
X1486781Y5305131D01*
X1484146Y5304022D01*
X1481650Y5303190D01*
X1479153Y5302496D01*
X1476934Y5301942D01*
X1474715Y5301526D01*
X1472774Y5301248D01*
X1471110Y5301110D01*
X1469861Y5300971D01*
X1468752Y5300832D01*
X1467920D01*
X1464037Y5300971D01*
X1460292Y5301526D01*
X1456964Y5302219D01*
X1454051Y5302912D01*
X1452665Y5303328D01*
X1451555Y5303745D01*
X1450584Y5304022D01*
X1449614Y5304299D01*
X1449059Y5304577D01*
X1448504Y5304854D01*
X1448227Y5304993D01*
X1448088D01*
X1444760Y5306796D01*
X1441570Y5308876D01*
X1438658Y5310956D01*
X1436161Y5313036D01*
X1434081Y5314978D01*
X1433249Y5315810D01*
X1432555Y5316503D01*
X1432001Y5317058D01*
X1431585Y5317474D01*
X1431307Y5317752D01*
X1431169Y5317890D01*
X1429227Y5315671D01*
X1427424Y5313730D01*
X1425621Y5311788D01*
X1423818Y5310124D01*
X1422154Y5308460D01*
X1420490Y5306934D01*
X1418964Y5305686D01*
X1417578Y5304438D01*
X1416191Y5303467D01*
X1415081Y5302496D01*
X1413972Y5301803D01*
X1413140Y5301110D01*
X1412446Y5300693D01*
X1411892Y5300277D01*
X1411614Y5300139D01*
X1411475Y5300000D01*
X1400935Y5312482D01*
X1404957Y5315533D01*
X1408840Y5318861D01*
X1412169Y5322190D01*
X1415220Y5325241D01*
X1416468Y5326766D01*
X1417578Y5328014D01*
X1418687Y5329262D01*
X1419519Y5330233D01*
X1420213Y5331065D01*
X1420629Y5331620D01*
X1420906Y5332036D01*
X1421045Y5332175D01*
X1419658Y5334255D01*
X1418410Y5336474D01*
X1416191Y5340912D01*
X1414249Y5345627D01*
X1412585Y5349926D01*
X1411892Y5351868D01*
X1411337Y5353809D01*
X1410782Y5355474D01*
X1410366Y5356861D01*
X1409950Y5357970D01*
X1409673Y5358941D01*
X1409534Y5359496D01*
Y5359634D01*
X1425899Y5363101D01*
X1426731Y5359496D01*
X1427840Y5356028D01*
X1428811Y5352977D01*
X1429782Y5350342D01*
X1430614Y5348262D01*
X1431030Y5347291D01*
X1431307Y5346598D01*
X1431585Y5346043D01*
X1431862Y5345627D01*
X1432001Y5345350D01*
Y5345211D01*
X1455161Y5374335D01*
X1452942Y5375583D01*
X1450862Y5376831D01*
X1447117Y5379466D01*
X1443789Y5382101D01*
X1441015Y5384736D01*
X1438658Y5387371D01*
X1436716Y5390006D01*
X1435052Y5392502D01*
X1433804Y5394860D01*
X1432833Y5397079D01*
X1432001Y5399159D01*
X1431446Y5400962D01*
X1431169Y5402488D01*
X1430891Y5403736D01*
X1430753Y5404706D01*
Y5405400D01*
Y5405539D01*
X1430891Y5407619D01*
X1431169Y5409699D01*
X1431585Y5411502D01*
X1432001Y5413444D01*
X1433388Y5416633D01*
X1434913Y5419546D01*
X1435745Y5420794D01*
X1436577Y5421765D01*
X1437271Y5422735D01*
X1437825Y5423568D01*
X1438380Y5424122D01*
X1438796Y5424538D01*
X1439074Y5424816D01*
X1439212Y5424954D01*
X1440876Y5426341D01*
X1442541Y5427589D01*
X1444344Y5428699D01*
X1446008Y5429670D01*
X1447949Y5430363D01*
X1449614Y5431056D01*
X1453081Y5432027D01*
X1454606Y5432305D01*
X1456132Y5432582D01*
X1457380Y5432721D01*
X1458489Y5432859D01*
X1459460Y5432998D01*
X1460708D01*
X1463205Y5432859D01*
D02*
G37*
G36*
X618619Y5302912D02*
X602254D01*
Y5411918D01*
X565364Y5302912D01*
X550109D01*
X512664Y5410115D01*
Y5302912D01*
X496300D01*
Y5430918D01*
X519183D01*
X549970Y5341883D01*
X550803Y5339386D01*
X551635Y5337167D01*
X552328Y5334948D01*
X553021Y5333007D01*
X553576Y5331065D01*
X554131Y5329401D01*
X554686Y5327876D01*
X555102Y5326489D01*
X555518Y5325379D01*
X555795Y5324270D01*
X556073Y5323438D01*
X556350Y5322606D01*
X556489Y5322051D01*
X556627Y5321635D01*
X556766Y5321496D01*
Y5321357D01*
X557182Y5322606D01*
X557598Y5323992D01*
X558569Y5326905D01*
X559540Y5330094D01*
X560510Y5333146D01*
X561481Y5335919D01*
X561897Y5337167D01*
X562175Y5338138D01*
X562452Y5338970D01*
X562729Y5339664D01*
X562868Y5340080D01*
Y5340218D01*
X593240Y5430918D01*
X618619D01*
Y5302912D01*
D02*
G37*
G36*
X856046Y5415801D02*
X813886D01*
Y5302912D01*
X796967D01*
Y5415801D01*
X754807D01*
Y5430918D01*
X856046D01*
Y5415801D01*
D02*
G37*
G36*
X736916Y5302912D02*
X641363D01*
Y5318029D01*
X719997D01*
Y5361576D01*
X649130D01*
Y5376692D01*
X719997D01*
Y5415801D01*
X644276D01*
Y5430918D01*
X736916D01*
Y5302912D01*
D02*
G37*
G36*
X1582057Y5432998D02*
X1586495Y5432443D01*
X1590378Y5431750D01*
X1592181Y5431334D01*
X1593845Y5430918D01*
X1595370Y5430502D01*
X1596757Y5430086D01*
X1598005Y5429670D01*
X1598976Y5429392D01*
X1599670Y5429115D01*
X1600363Y5428838D01*
X1600640Y5428699D01*
X1600779D01*
X1604524Y5426896D01*
X1607713Y5424816D01*
X1610487Y5422735D01*
X1612706Y5420655D01*
X1614509Y5418714D01*
X1615896Y5417188D01*
X1616312Y5416633D01*
X1616589Y5416217D01*
X1616866Y5415940D01*
Y5415801D01*
X1618669Y5412611D01*
X1620056Y5409422D01*
X1620888Y5406509D01*
X1621582Y5403736D01*
X1621998Y5401239D01*
X1622136Y5400269D01*
Y5399436D01*
X1622275Y5398743D01*
Y5398188D01*
Y5397911D01*
Y5397772D01*
X1622136Y5394583D01*
X1621582Y5391532D01*
X1620888Y5388758D01*
X1620056Y5386400D01*
X1619224Y5384459D01*
X1618531Y5382933D01*
X1618253Y5382378D01*
X1617976Y5381962D01*
X1617837Y5381824D01*
Y5381685D01*
X1616034Y5379189D01*
X1613815Y5376831D01*
X1611596Y5374889D01*
X1609239Y5373087D01*
X1607297Y5371700D01*
X1605633Y5370729D01*
X1604940Y5370452D01*
X1604524Y5370174D01*
X1604246Y5369897D01*
X1604108D01*
X1602721Y5369203D01*
X1601056Y5368510D01*
X1599254Y5367817D01*
X1597312Y5367123D01*
X1593290Y5365736D01*
X1589130Y5364488D01*
X1587188Y5363933D01*
X1585524Y5363379D01*
X1583860Y5362963D01*
X1582334Y5362547D01*
X1581225Y5362269D01*
X1580254Y5361992D01*
X1579699Y5361853D01*
X1579560D01*
X1576371Y5361160D01*
X1573458Y5360328D01*
X1570962Y5359773D01*
X1568604Y5359079D01*
X1566524Y5358525D01*
X1564583Y5358109D01*
X1563057Y5357554D01*
X1561532Y5357138D01*
X1560422Y5356861D01*
X1559313Y5356444D01*
X1558480Y5356167D01*
X1557926Y5356028D01*
X1557371Y5355890D01*
X1557094Y5355751D01*
X1556816Y5355612D01*
X1554043Y5354364D01*
X1551685Y5353116D01*
X1549605Y5351868D01*
X1548079Y5350758D01*
X1546831Y5349649D01*
X1545999Y5348817D01*
X1545444Y5348262D01*
X1545306Y5348123D01*
X1544057Y5346459D01*
X1543225Y5344656D01*
X1542532Y5342853D01*
X1542116Y5341189D01*
X1541838Y5339802D01*
X1541700Y5338554D01*
Y5337861D01*
Y5337722D01*
Y5337583D01*
X1541838Y5335503D01*
X1542254Y5333423D01*
X1542948Y5331620D01*
X1543503Y5329956D01*
X1544196Y5328569D01*
X1544889Y5327459D01*
X1545306Y5326905D01*
X1545444Y5326627D01*
X1546970Y5324825D01*
X1548634Y5323299D01*
X1550576Y5321912D01*
X1552378Y5320803D01*
X1554043Y5319971D01*
X1555291Y5319277D01*
X1555846Y5319000D01*
X1556262Y5318861D01*
X1556400Y5318722D01*
X1556539D01*
X1559313Y5317752D01*
X1562225Y5317058D01*
X1565137Y5316642D01*
X1567772Y5316365D01*
X1569991Y5316087D01*
X1570962D01*
X1571794Y5315949D01*
X1573458D01*
X1577480Y5316087D01*
X1581086Y5316503D01*
X1584553Y5317197D01*
X1587465Y5317890D01*
X1588714Y5318168D01*
X1589823Y5318445D01*
X1590794Y5318861D01*
X1591626Y5319138D01*
X1592319Y5319416D01*
X1592735Y5319555D01*
X1593013Y5319693D01*
X1593151D01*
X1596203Y5321219D01*
X1598838Y5322883D01*
X1601056Y5324408D01*
X1602859Y5326073D01*
X1604246Y5327459D01*
X1605217Y5328569D01*
X1605910Y5329262D01*
X1606049Y5329540D01*
X1607436Y5332036D01*
X1608545Y5334671D01*
X1609378Y5337306D01*
X1610071Y5339802D01*
X1610626Y5342160D01*
X1610764Y5342992D01*
X1610903Y5343824D01*
X1611042Y5344518D01*
X1611180Y5345072D01*
Y5345350D01*
Y5345488D01*
X1627129Y5344102D01*
X1626990Y5341744D01*
X1626713Y5339386D01*
X1625881Y5335087D01*
X1624771Y5331065D01*
X1624217Y5329262D01*
X1623523Y5327737D01*
X1622969Y5326211D01*
X1622275Y5324825D01*
X1621720Y5323715D01*
X1621166Y5322744D01*
X1620750Y5321912D01*
X1620472Y5321357D01*
X1620334Y5321080D01*
X1620195Y5320941D01*
X1617560Y5317336D01*
X1614509Y5314285D01*
X1611458Y5311650D01*
X1608545Y5309569D01*
X1605910Y5307905D01*
X1604801Y5307350D01*
X1603830Y5306796D01*
X1602998Y5306380D01*
X1602443Y5306102D01*
X1602027Y5305825D01*
X1601889D01*
X1597173Y5304161D01*
X1592319Y5302912D01*
X1587465Y5302080D01*
X1582889Y5301526D01*
X1580670Y5301248D01*
X1578728Y5301110D01*
X1577064Y5300971D01*
X1575539D01*
X1574290Y5300832D01*
X1572626D01*
X1567634Y5301110D01*
X1563057Y5301664D01*
X1558897Y5302358D01*
X1556955Y5302912D01*
X1555291Y5303328D01*
X1553627Y5303745D01*
X1552240Y5304299D01*
X1550992Y5304715D01*
X1550021Y5304993D01*
X1549189Y5305409D01*
X1548634Y5305547D01*
X1548218Y5305825D01*
X1548079D01*
X1544196Y5307905D01*
X1540868Y5310124D01*
X1537955Y5312482D01*
X1535598Y5314701D01*
X1533656Y5316781D01*
X1532408Y5318306D01*
X1531853Y5319000D01*
X1531576Y5319416D01*
X1531298Y5319693D01*
Y5319832D01*
X1530189Y5321496D01*
X1529357Y5323299D01*
X1527831Y5326627D01*
X1526722Y5329817D01*
X1526028Y5332729D01*
X1525612Y5335364D01*
X1525474Y5336335D01*
Y5337306D01*
X1525335Y5337999D01*
Y5338554D01*
Y5338832D01*
Y5338970D01*
X1525612Y5342715D01*
X1526167Y5346182D01*
X1526999Y5349233D01*
X1527970Y5351868D01*
X1529079Y5354087D01*
X1529496Y5355058D01*
X1529912Y5355751D01*
X1530189Y5356306D01*
X1530466Y5356722D01*
X1530744Y5356999D01*
Y5357138D01*
X1531853Y5358525D01*
X1532963Y5359912D01*
X1535598Y5362547D01*
X1538233Y5364765D01*
X1541006Y5366568D01*
X1543364Y5368094D01*
X1544473Y5368787D01*
X1545444Y5369203D01*
X1546138Y5369619D01*
X1546692Y5369897D01*
X1547108Y5370174D01*
X1547247D01*
X1548773Y5370868D01*
X1550714Y5371561D01*
X1552656Y5372254D01*
X1554875Y5372948D01*
X1559590Y5374196D01*
X1564305Y5375444D01*
X1566524Y5376138D01*
X1568604Y5376554D01*
X1570546Y5377108D01*
X1572210Y5377386D01*
X1573597Y5377802D01*
X1574568Y5378079D01*
X1575261Y5378218D01*
X1575539D01*
X1579283Y5379050D01*
X1582612Y5380021D01*
X1585524Y5380853D01*
X1588298Y5381685D01*
X1590655Y5382517D01*
X1592735Y5383210D01*
X1594538Y5383904D01*
X1596064Y5384597D01*
X1597312Y5385291D01*
X1598421Y5385845D01*
X1599254Y5386262D01*
X1599947Y5386678D01*
X1600502Y5387094D01*
X1600779Y5387371D01*
X1601056Y5387510D01*
X1602721Y5389313D01*
X1603830Y5391115D01*
X1604662Y5393057D01*
X1605356Y5394860D01*
X1605633Y5396385D01*
X1605772Y5397634D01*
X1605910Y5398466D01*
Y5398604D01*
Y5398743D01*
X1605772Y5400269D01*
X1605633Y5401655D01*
X1604801Y5404152D01*
X1603691Y5406509D01*
X1602443Y5408451D01*
X1601195Y5410115D01*
X1600086Y5411363D01*
X1599254Y5412057D01*
X1599115Y5412334D01*
X1598976D01*
X1597589Y5413305D01*
X1595925Y5414276D01*
X1592458Y5415663D01*
X1588852Y5416633D01*
X1585108Y5417327D01*
X1583444Y5417604D01*
X1581779Y5417743D01*
X1580393Y5417881D01*
X1579144D01*
X1578035Y5418020D01*
X1574013D01*
X1571517Y5417743D01*
X1569159Y5417465D01*
X1566940Y5417049D01*
X1564999Y5416633D01*
X1563196Y5416079D01*
X1561532Y5415524D01*
X1560006Y5414969D01*
X1558758Y5414276D01*
X1557648Y5413721D01*
X1556678Y5413166D01*
X1555846Y5412750D01*
X1555291Y5412334D01*
X1554736Y5412057D01*
X1554597Y5411918D01*
X1554459Y5411779D01*
X1553072Y5410531D01*
X1551824Y5409283D01*
X1549882Y5406371D01*
X1548218Y5403320D01*
X1547108Y5400407D01*
X1546276Y5397772D01*
X1545999Y5396663D01*
X1545722Y5395553D01*
X1545583Y5394721D01*
Y5394167D01*
X1545444Y5393750D01*
Y5393612D01*
X1529218Y5394860D01*
X1529634Y5399020D01*
X1530466Y5402765D01*
X1531437Y5406232D01*
X1532547Y5409144D01*
X1533240Y5410393D01*
X1533656Y5411641D01*
X1534211Y5412611D01*
X1534627Y5413444D01*
X1535043Y5414137D01*
X1535320Y5414553D01*
X1535459Y5414830D01*
X1535598Y5414969D01*
X1537955Y5418159D01*
X1540590Y5420794D01*
X1543364Y5423151D01*
X1546138Y5425093D01*
X1548495Y5426480D01*
X1549605Y5427035D01*
X1550437Y5427589D01*
X1551130Y5428005D01*
X1551824Y5428144D01*
X1552101Y5428421D01*
X1552240D01*
X1556400Y5429947D01*
X1560699Y5431195D01*
X1564999Y5432027D01*
X1568882Y5432582D01*
X1570685Y5432721D01*
X1572210Y5432859D01*
X1573736Y5432998D01*
X1574984Y5433137D01*
X1577342D01*
X1582057Y5432998D01*
D02*
G37*
G36*
X1164757D02*
X1169195Y5432443D01*
X1173078Y5431750D01*
X1174881Y5431334D01*
X1176545Y5430918D01*
X1178070Y5430502D01*
X1179457Y5430086D01*
X1180705Y5429670D01*
X1181676Y5429392D01*
X1182369Y5429115D01*
X1183063Y5428838D01*
X1183340Y5428699D01*
X1183479D01*
X1187223Y5426896D01*
X1190413Y5424816D01*
X1193187Y5422735D01*
X1195406Y5420655D01*
X1197209Y5418714D01*
X1198596Y5417188D01*
X1199012Y5416633D01*
X1199289Y5416217D01*
X1199566Y5415940D01*
Y5415801D01*
X1201369Y5412611D01*
X1202756Y5409422D01*
X1203588Y5406509D01*
X1204282Y5403736D01*
X1204698Y5401239D01*
X1204836Y5400269D01*
Y5399436D01*
X1204975Y5398743D01*
Y5398188D01*
Y5397911D01*
Y5397772D01*
X1204836Y5394583D01*
X1204282Y5391532D01*
X1203588Y5388758D01*
X1202756Y5386400D01*
X1201924Y5384459D01*
X1201231Y5382933D01*
X1200953Y5382378D01*
X1200676Y5381962D01*
X1200537Y5381824D01*
Y5381685D01*
X1198734Y5379189D01*
X1196515Y5376831D01*
X1194296Y5374889D01*
X1191939Y5373087D01*
X1189997Y5371700D01*
X1188333Y5370729D01*
X1187639Y5370452D01*
X1187223Y5370174D01*
X1186946Y5369897D01*
X1186807D01*
X1185421Y5369203D01*
X1183756Y5368510D01*
X1181953Y5367817D01*
X1180012Y5367123D01*
X1175990Y5365736D01*
X1171830Y5364488D01*
X1169888Y5363933D01*
X1168224Y5363379D01*
X1166560Y5362963D01*
X1165034Y5362547D01*
X1163925Y5362269D01*
X1162954Y5361992D01*
X1162399Y5361853D01*
X1162260D01*
X1159071Y5361160D01*
X1156158Y5360328D01*
X1153662Y5359773D01*
X1151304Y5359079D01*
X1149224Y5358525D01*
X1147282Y5358109D01*
X1145757Y5357554D01*
X1144231Y5357138D01*
X1143122Y5356861D01*
X1142012Y5356444D01*
X1141180Y5356167D01*
X1140626Y5356028D01*
X1140071Y5355890D01*
X1139794Y5355751D01*
X1139516Y5355612D01*
X1136742Y5354364D01*
X1134385Y5353116D01*
X1132305Y5351868D01*
X1130779Y5350758D01*
X1129531Y5349649D01*
X1128699Y5348817D01*
X1128144Y5348262D01*
X1128005Y5348123D01*
X1126757Y5346459D01*
X1125925Y5344656D01*
X1125232Y5342853D01*
X1124816Y5341189D01*
X1124538Y5339802D01*
X1124400Y5338554D01*
Y5337861D01*
Y5337722D01*
Y5337583D01*
X1124538Y5335503D01*
X1124954Y5333423D01*
X1125648Y5331620D01*
X1126202Y5329956D01*
X1126896Y5328569D01*
X1127589Y5327459D01*
X1128005Y5326905D01*
X1128144Y5326627D01*
X1129670Y5324825D01*
X1131334Y5323299D01*
X1133275Y5321912D01*
X1135078Y5320803D01*
X1136742Y5319971D01*
X1137991Y5319277D01*
X1138545Y5319000D01*
X1138961Y5318861D01*
X1139100Y5318722D01*
X1139239D01*
X1142012Y5317752D01*
X1144925Y5317058D01*
X1147837Y5316642D01*
X1150472Y5316365D01*
X1152691Y5316087D01*
X1153662D01*
X1154494Y5315949D01*
X1156158D01*
X1160180Y5316087D01*
X1163786Y5316503D01*
X1167253Y5317197D01*
X1170165Y5317890D01*
X1171413Y5318168D01*
X1172523Y5318445D01*
X1173494Y5318861D01*
X1174326Y5319138D01*
X1175019Y5319416D01*
X1175435Y5319555D01*
X1175713Y5319693D01*
X1175851D01*
X1178902Y5321219D01*
X1181537Y5322883D01*
X1183756Y5324408D01*
X1185559Y5326073D01*
X1186946Y5327459D01*
X1187917Y5328569D01*
X1188610Y5329262D01*
X1188749Y5329540D01*
X1190136Y5332036D01*
X1191245Y5334671D01*
X1192077Y5337306D01*
X1192771Y5339802D01*
X1193326Y5342160D01*
X1193464Y5342992D01*
X1193603Y5343824D01*
X1193742Y5344518D01*
X1193880Y5345072D01*
Y5345350D01*
Y5345488D01*
X1209829Y5344102D01*
X1209690Y5341744D01*
X1209413Y5339386D01*
X1208581Y5335087D01*
X1207471Y5331065D01*
X1206917Y5329262D01*
X1206223Y5327737D01*
X1205668Y5326211D01*
X1204975Y5324825D01*
X1204420Y5323715D01*
X1203866Y5322744D01*
X1203449Y5321912D01*
X1203172Y5321357D01*
X1203033Y5321080D01*
X1202895Y5320941D01*
X1200260Y5317336D01*
X1197209Y5314285D01*
X1194158Y5311650D01*
X1191245Y5309569D01*
X1188610Y5307905D01*
X1187501Y5307350D01*
X1186530Y5306796D01*
X1185698Y5306380D01*
X1185143Y5306102D01*
X1184727Y5305825D01*
X1184588D01*
X1179873Y5304161D01*
X1175019Y5302912D01*
X1170165Y5302080D01*
X1165589Y5301526D01*
X1163370Y5301248D01*
X1161428Y5301110D01*
X1159764Y5300971D01*
X1158238D01*
X1156990Y5300832D01*
X1155326D01*
X1150333Y5301110D01*
X1145757Y5301664D01*
X1141596Y5302358D01*
X1139655Y5302912D01*
X1137991Y5303328D01*
X1136326Y5303745D01*
X1134940Y5304299D01*
X1133691Y5304715D01*
X1132721Y5304993D01*
X1131889Y5305409D01*
X1131334Y5305547D01*
X1130918Y5305825D01*
X1130779D01*
X1126896Y5307905D01*
X1123567Y5310124D01*
X1120655Y5312482D01*
X1118297Y5314701D01*
X1116356Y5316781D01*
X1115108Y5318306D01*
X1114553Y5319000D01*
X1114276Y5319416D01*
X1113998Y5319693D01*
Y5319832D01*
X1112889Y5321496D01*
X1112057Y5323299D01*
X1110531Y5326627D01*
X1109422Y5329817D01*
X1108728Y5332729D01*
X1108312Y5335364D01*
X1108174Y5336335D01*
Y5337306D01*
X1108035Y5337999D01*
Y5338554D01*
Y5338832D01*
Y5338970D01*
X1108312Y5342715D01*
X1108867Y5346182D01*
X1109699Y5349233D01*
X1110670Y5351868D01*
X1111779Y5354087D01*
X1112195Y5355058D01*
X1112611Y5355751D01*
X1112889Y5356306D01*
X1113166Y5356722D01*
X1113444Y5356999D01*
Y5357138D01*
X1114553Y5358525D01*
X1115662Y5359912D01*
X1118297Y5362547D01*
X1120932Y5364765D01*
X1123706Y5366568D01*
X1126064Y5368094D01*
X1127173Y5368787D01*
X1128144Y5369203D01*
X1128837Y5369619D01*
X1129392Y5369897D01*
X1129808Y5370174D01*
X1129947D01*
X1131472Y5370868D01*
X1133414Y5371561D01*
X1135356Y5372254D01*
X1137575Y5372948D01*
X1142290Y5374196D01*
X1147005Y5375444D01*
X1149224Y5376138D01*
X1151304Y5376554D01*
X1153246Y5377108D01*
X1154910Y5377386D01*
X1156297Y5377802D01*
X1157268Y5378079D01*
X1157961Y5378218D01*
X1158238D01*
X1161983Y5379050D01*
X1165311Y5380021D01*
X1168224Y5380853D01*
X1170997Y5381685D01*
X1173355Y5382517D01*
X1175435Y5383210D01*
X1177238Y5383904D01*
X1178764Y5384597D01*
X1180012Y5385291D01*
X1181121Y5385845D01*
X1181953Y5386262D01*
X1182647Y5386678D01*
X1183202Y5387094D01*
X1183479Y5387371D01*
X1183756Y5387510D01*
X1185421Y5389313D01*
X1186530Y5391115D01*
X1187362Y5393057D01*
X1188056Y5394860D01*
X1188333Y5396385D01*
X1188472Y5397634D01*
X1188610Y5398466D01*
Y5398604D01*
Y5398743D01*
X1188472Y5400269D01*
X1188333Y5401655D01*
X1187501Y5404152D01*
X1186391Y5406509D01*
X1185143Y5408451D01*
X1183895Y5410115D01*
X1182786Y5411363D01*
X1181953Y5412057D01*
X1181815Y5412334D01*
X1181676D01*
X1180289Y5413305D01*
X1178625Y5414276D01*
X1175158Y5415663D01*
X1171552Y5416633D01*
X1167808Y5417327D01*
X1166143Y5417604D01*
X1164479Y5417743D01*
X1163092Y5417881D01*
X1161844D01*
X1160735Y5418020D01*
X1156713D01*
X1154217Y5417743D01*
X1151859Y5417465D01*
X1149640Y5417049D01*
X1147698Y5416633D01*
X1145896Y5416079D01*
X1144231Y5415524D01*
X1142706Y5414969D01*
X1141458Y5414276D01*
X1140348Y5413721D01*
X1139377Y5413166D01*
X1138545Y5412750D01*
X1137991Y5412334D01*
X1137436Y5412057D01*
X1137297Y5411918D01*
X1137159Y5411779D01*
X1135772Y5410531D01*
X1134524Y5409283D01*
X1132582Y5406371D01*
X1130918Y5403320D01*
X1129808Y5400407D01*
X1128976Y5397772D01*
X1128699Y5396663D01*
X1128421Y5395553D01*
X1128283Y5394721D01*
Y5394167D01*
X1128144Y5393750D01*
Y5393612D01*
X1111918Y5394860D01*
X1112334Y5399020D01*
X1113166Y5402765D01*
X1114137Y5406232D01*
X1115246Y5409144D01*
X1115940Y5410393D01*
X1116356Y5411641D01*
X1116911Y5412611D01*
X1117327Y5413444D01*
X1117743Y5414137D01*
X1118020Y5414553D01*
X1118159Y5414830D01*
X1118297Y5414969D01*
X1120655Y5418159D01*
X1123290Y5420794D01*
X1126064Y5423151D01*
X1128837Y5425093D01*
X1131195Y5426480D01*
X1132305Y5427035D01*
X1133137Y5427589D01*
X1133830Y5428005D01*
X1134524Y5428144D01*
X1134801Y5428421D01*
X1134940D01*
X1139100Y5429947D01*
X1143399Y5431195D01*
X1147698Y5432027D01*
X1151582Y5432582D01*
X1153385Y5432721D01*
X1154910Y5432859D01*
X1156436Y5432998D01*
X1157684Y5433137D01*
X1160041D01*
X1164757Y5432998D01*
D02*
G37*
G36*
X926220D02*
X930658Y5432443D01*
X934541Y5431750D01*
X936344Y5431334D01*
X938008Y5430918D01*
X939534Y5430502D01*
X940921Y5430086D01*
X942169Y5429670D01*
X943140Y5429392D01*
X943833Y5429115D01*
X944526Y5428838D01*
X944804Y5428699D01*
X944942D01*
X948687Y5426896D01*
X951877Y5424816D01*
X954650Y5422735D01*
X956869Y5420655D01*
X958672Y5418714D01*
X960059Y5417188D01*
X960475Y5416633D01*
X960752Y5416217D01*
X961030Y5415940D01*
Y5415801D01*
X962833Y5412611D01*
X964220Y5409422D01*
X965052Y5406509D01*
X965745Y5403736D01*
X966161Y5401239D01*
X966300Y5400269D01*
Y5399436D01*
X966439Y5398743D01*
Y5398188D01*
Y5397911D01*
Y5397772D01*
X966300Y5394583D01*
X965745Y5391532D01*
X965052Y5388758D01*
X964220Y5386400D01*
X963387Y5384459D01*
X962694Y5382933D01*
X962417Y5382378D01*
X962139Y5381962D01*
X962001Y5381824D01*
Y5381685D01*
X960198Y5379189D01*
X957979Y5376831D01*
X955760Y5374889D01*
X953402Y5373087D01*
X951461Y5371700D01*
X949796Y5370729D01*
X949103Y5370452D01*
X948687Y5370174D01*
X948410Y5369897D01*
X948271D01*
X946884Y5369203D01*
X945220Y5368510D01*
X943417Y5367817D01*
X941475Y5367123D01*
X937454Y5365736D01*
X933293Y5364488D01*
X931351Y5363933D01*
X929687Y5363379D01*
X928023Y5362963D01*
X926498Y5362547D01*
X925388Y5362269D01*
X924417Y5361992D01*
X923863Y5361853D01*
X923724D01*
X920534Y5361160D01*
X917622Y5360328D01*
X915125Y5359773D01*
X912768Y5359079D01*
X910688Y5358525D01*
X908746Y5358109D01*
X907220Y5357554D01*
X905695Y5357138D01*
X904585Y5356861D01*
X903476Y5356444D01*
X902644Y5356167D01*
X902089Y5356028D01*
X901534Y5355890D01*
X901257Y5355751D01*
X900980Y5355612D01*
X898206Y5354364D01*
X895848Y5353116D01*
X893768Y5351868D01*
X892243Y5350758D01*
X890994Y5349649D01*
X890162Y5348817D01*
X889608Y5348262D01*
X889469Y5348123D01*
X888221Y5346459D01*
X887389Y5344656D01*
X886695Y5342853D01*
X886279Y5341189D01*
X886002Y5339802D01*
X885863Y5338554D01*
Y5337861D01*
Y5337722D01*
Y5337583D01*
X886002Y5335503D01*
X886418Y5333423D01*
X887111Y5331620D01*
X887666Y5329956D01*
X888359Y5328569D01*
X889053Y5327459D01*
X889469Y5326905D01*
X889608Y5326627D01*
X891133Y5324825D01*
X892797Y5323299D01*
X894739Y5321912D01*
X896542Y5320803D01*
X898206Y5319971D01*
X899454Y5319277D01*
X900009Y5319000D01*
X900425Y5318861D01*
X900564Y5318722D01*
X900702D01*
X903476Y5317752D01*
X906388Y5317058D01*
X909301Y5316642D01*
X911936Y5316365D01*
X914155Y5316087D01*
X915125D01*
X915958Y5315949D01*
X917622D01*
X921644Y5316087D01*
X925249Y5316503D01*
X928716Y5317197D01*
X931629Y5317890D01*
X932877Y5318168D01*
X933986Y5318445D01*
X934957Y5318861D01*
X935789Y5319138D01*
X936483Y5319416D01*
X936899Y5319555D01*
X937176Y5319693D01*
X937315D01*
X940366Y5321219D01*
X943001Y5322883D01*
X945220Y5324408D01*
X947023Y5326073D01*
X948410Y5327459D01*
X949380Y5328569D01*
X950074Y5329262D01*
X950212Y5329540D01*
X951599Y5332036D01*
X952709Y5334671D01*
X953541Y5337306D01*
X954234Y5339802D01*
X954789Y5342160D01*
X954928Y5342992D01*
X955066Y5343824D01*
X955205Y5344518D01*
X955344Y5345072D01*
Y5345350D01*
Y5345488D01*
X971292Y5344102D01*
X971154Y5341744D01*
X970876Y5339386D01*
X970044Y5335087D01*
X968935Y5331065D01*
X968380Y5329262D01*
X967687Y5327737D01*
X967132Y5326211D01*
X966439Y5324825D01*
X965884Y5323715D01*
X965329Y5322744D01*
X964913Y5321912D01*
X964636Y5321357D01*
X964497Y5321080D01*
X964358Y5320941D01*
X961723Y5317336D01*
X958672Y5314285D01*
X955621Y5311650D01*
X952709Y5309569D01*
X950074Y5307905D01*
X948964Y5307350D01*
X947994Y5306796D01*
X947161Y5306380D01*
X946607Y5306102D01*
X946191Y5305825D01*
X946052D01*
X941337Y5304161D01*
X936483Y5302912D01*
X931629Y5302080D01*
X927052Y5301526D01*
X924833Y5301248D01*
X922892Y5301110D01*
X921228Y5300971D01*
X919702D01*
X918454Y5300832D01*
X916790D01*
X911797Y5301110D01*
X907220Y5301664D01*
X903060Y5302358D01*
X901118Y5302912D01*
X899454Y5303328D01*
X897790Y5303745D01*
X896403Y5304299D01*
X895155Y5304715D01*
X894184Y5304993D01*
X893352Y5305409D01*
X892797Y5305547D01*
X892381Y5305825D01*
X892243D01*
X888359Y5307905D01*
X885031Y5310124D01*
X882119Y5312482D01*
X879761Y5314701D01*
X877819Y5316781D01*
X876571Y5318306D01*
X876017Y5319000D01*
X875739Y5319416D01*
X875462Y5319693D01*
Y5319832D01*
X874352Y5321496D01*
X873520Y5323299D01*
X871995Y5326627D01*
X870885Y5329817D01*
X870192Y5332729D01*
X869776Y5335364D01*
X869637Y5336335D01*
Y5337306D01*
X869498Y5337999D01*
Y5338554D01*
Y5338832D01*
Y5338970D01*
X869776Y5342715D01*
X870330Y5346182D01*
X871163Y5349233D01*
X872133Y5351868D01*
X873243Y5354087D01*
X873659Y5355058D01*
X874075Y5355751D01*
X874352Y5356306D01*
X874630Y5356722D01*
X874907Y5356999D01*
Y5357138D01*
X876017Y5358525D01*
X877126Y5359912D01*
X879761Y5362547D01*
X882396Y5364765D01*
X885170Y5366568D01*
X887527Y5368094D01*
X888637Y5368787D01*
X889608Y5369203D01*
X890301Y5369619D01*
X890856Y5369897D01*
X891272Y5370174D01*
X891410D01*
X892936Y5370868D01*
X894878Y5371561D01*
X896819Y5372254D01*
X899038Y5372948D01*
X903753Y5374196D01*
X908469Y5375444D01*
X910688Y5376138D01*
X912768Y5376554D01*
X914709Y5377108D01*
X916374Y5377386D01*
X917760Y5377802D01*
X918731Y5378079D01*
X919425Y5378218D01*
X919702D01*
X923446Y5379050D01*
X926775Y5380021D01*
X929687Y5380853D01*
X932461Y5381685D01*
X934819Y5382517D01*
X936899Y5383210D01*
X938702Y5383904D01*
X940227Y5384597D01*
X941475Y5385291D01*
X942585Y5385845D01*
X943417Y5386262D01*
X944110Y5386678D01*
X944665Y5387094D01*
X944942Y5387371D01*
X945220Y5387510D01*
X946884Y5389313D01*
X947994Y5391115D01*
X948826Y5393057D01*
X949519Y5394860D01*
X949796Y5396385D01*
X949935Y5397634D01*
X950074Y5398466D01*
Y5398604D01*
Y5398743D01*
X949935Y5400269D01*
X949796Y5401655D01*
X948964Y5404152D01*
X947855Y5406509D01*
X946607Y5408451D01*
X945359Y5410115D01*
X944249Y5411363D01*
X943417Y5412057D01*
X943278Y5412334D01*
X943140D01*
X941753Y5413305D01*
X940089Y5414276D01*
X936621Y5415663D01*
X933016Y5416633D01*
X929271Y5417327D01*
X927607Y5417604D01*
X925943Y5417743D01*
X924556Y5417881D01*
X923308D01*
X922198Y5418020D01*
X918176D01*
X915680Y5417743D01*
X913323Y5417465D01*
X911104Y5417049D01*
X909162Y5416633D01*
X907359Y5416079D01*
X905695Y5415524D01*
X904169Y5414969D01*
X902921Y5414276D01*
X901812Y5413721D01*
X900841Y5413166D01*
X900009Y5412750D01*
X899454Y5412334D01*
X898899Y5412057D01*
X898761Y5411918D01*
X898622Y5411779D01*
X897235Y5410531D01*
X895987Y5409283D01*
X894045Y5406371D01*
X892381Y5403320D01*
X891272Y5400407D01*
X890440Y5397772D01*
X890162Y5396663D01*
X889885Y5395553D01*
X889746Y5394721D01*
Y5394167D01*
X889608Y5393750D01*
Y5393612D01*
X873382Y5394860D01*
X873798Y5399020D01*
X874630Y5402765D01*
X875600Y5406232D01*
X876710Y5409144D01*
X877403Y5410393D01*
X877819Y5411641D01*
X878374Y5412611D01*
X878790Y5413444D01*
X879206Y5414137D01*
X879484Y5414553D01*
X879622Y5414830D01*
X879761Y5414969D01*
X882119Y5418159D01*
X884754Y5420794D01*
X887527Y5423151D01*
X890301Y5425093D01*
X892659Y5426480D01*
X893768Y5427035D01*
X894600Y5427589D01*
X895294Y5428005D01*
X895987Y5428144D01*
X896264Y5428421D01*
X896403D01*
X900564Y5429947D01*
X904863Y5431195D01*
X909162Y5432027D01*
X913045Y5432582D01*
X914848Y5432721D01*
X916374Y5432859D01*
X917899Y5432998D01*
X919147Y5433137D01*
X921505D01*
X926220Y5432998D01*
D02*
G37*
G36*
X429593D02*
X434031Y5432443D01*
X437914Y5431750D01*
X439717Y5431334D01*
X441381Y5430918D01*
X442906Y5430502D01*
X444293Y5430086D01*
X445541Y5429670D01*
X446512Y5429392D01*
X447206Y5429115D01*
X447899Y5428838D01*
X448176Y5428699D01*
X448315D01*
X452060Y5426896D01*
X455249Y5424816D01*
X458023Y5422735D01*
X460242Y5420655D01*
X462045Y5418714D01*
X463432Y5417188D01*
X463848Y5416633D01*
X464125Y5416217D01*
X464402Y5415940D01*
Y5415801D01*
X466205Y5412611D01*
X467592Y5409422D01*
X468424Y5406509D01*
X469118Y5403736D01*
X469534Y5401239D01*
X469672Y5400269D01*
Y5399436D01*
X469811Y5398743D01*
Y5398188D01*
Y5397911D01*
Y5397772D01*
X469672Y5394583D01*
X469118Y5391532D01*
X468424Y5388758D01*
X467592Y5386400D01*
X466760Y5384459D01*
X466067Y5382933D01*
X465789Y5382378D01*
X465512Y5381962D01*
X465373Y5381824D01*
Y5381685D01*
X463570Y5379189D01*
X461351Y5376831D01*
X459132Y5374889D01*
X456775Y5373087D01*
X454833Y5371700D01*
X453169Y5370729D01*
X452476Y5370452D01*
X452060Y5370174D01*
X451782Y5369897D01*
X451643D01*
X450257Y5369203D01*
X448592Y5368510D01*
X446790Y5367817D01*
X444848Y5367123D01*
X440826Y5365736D01*
X436666Y5364488D01*
X434724Y5363933D01*
X433060Y5363379D01*
X431396Y5362963D01*
X429870Y5362547D01*
X428761Y5362269D01*
X427790Y5361992D01*
X427235Y5361853D01*
X427096D01*
X423907Y5361160D01*
X420994Y5360328D01*
X418498Y5359773D01*
X416140Y5359079D01*
X414060Y5358525D01*
X412119Y5358109D01*
X410593Y5357554D01*
X409068Y5357138D01*
X407958Y5356861D01*
X406849Y5356444D01*
X406016Y5356167D01*
X405462Y5356028D01*
X404907Y5355890D01*
X404630Y5355751D01*
X404352Y5355612D01*
X401579Y5354364D01*
X399221Y5353116D01*
X397141Y5351868D01*
X395615Y5350758D01*
X394367Y5349649D01*
X393535Y5348817D01*
X392980Y5348262D01*
X392841Y5348123D01*
X391593Y5346459D01*
X390761Y5344656D01*
X390068Y5342853D01*
X389652Y5341189D01*
X389374Y5339802D01*
X389236Y5338554D01*
Y5337861D01*
Y5337722D01*
Y5337583D01*
X389374Y5335503D01*
X389790Y5333423D01*
X390484Y5331620D01*
X391039Y5329956D01*
X391732Y5328569D01*
X392425Y5327459D01*
X392841Y5326905D01*
X392980Y5326627D01*
X394506Y5324825D01*
X396170Y5323299D01*
X398111Y5321912D01*
X399914Y5320803D01*
X401579Y5319971D01*
X402827Y5319277D01*
X403381Y5319000D01*
X403798Y5318861D01*
X403936Y5318722D01*
X404075D01*
X406849Y5317752D01*
X409761Y5317058D01*
X412673Y5316642D01*
X415308Y5316365D01*
X417527Y5316087D01*
X418498D01*
X419330Y5315949D01*
X420994D01*
X425016Y5316087D01*
X428622Y5316503D01*
X432089Y5317197D01*
X435001Y5317890D01*
X436250Y5318168D01*
X437359Y5318445D01*
X438330Y5318861D01*
X439162Y5319138D01*
X439855Y5319416D01*
X440271Y5319555D01*
X440549Y5319693D01*
X440687D01*
X443739Y5321219D01*
X446374Y5322883D01*
X448592Y5324408D01*
X450395Y5326073D01*
X451782Y5327459D01*
X452753Y5328569D01*
X453446Y5329262D01*
X453585Y5329540D01*
X454972Y5332036D01*
X456081Y5334671D01*
X456913Y5337306D01*
X457607Y5339802D01*
X458162Y5342160D01*
X458300Y5342992D01*
X458439Y5343824D01*
X458578Y5344518D01*
X458716Y5345072D01*
Y5345350D01*
Y5345488D01*
X474665Y5344102D01*
X474526Y5341744D01*
X474249Y5339386D01*
X473417Y5335087D01*
X472307Y5331065D01*
X471753Y5329262D01*
X471059Y5327737D01*
X470505Y5326211D01*
X469811Y5324825D01*
X469256Y5323715D01*
X468702Y5322744D01*
X468286Y5321912D01*
X468008Y5321357D01*
X467870Y5321080D01*
X467731Y5320941D01*
X465096Y5317336D01*
X462045Y5314285D01*
X458994Y5311650D01*
X456081Y5309569D01*
X453446Y5307905D01*
X452337Y5307350D01*
X451366Y5306796D01*
X450534Y5306380D01*
X449979Y5306102D01*
X449563Y5305825D01*
X449425D01*
X444709Y5304161D01*
X439855Y5302912D01*
X435001Y5302080D01*
X430425Y5301526D01*
X428206Y5301248D01*
X426264Y5301110D01*
X424600Y5300971D01*
X423075D01*
X421826Y5300832D01*
X420162D01*
X415170Y5301110D01*
X410593Y5301664D01*
X406433Y5302358D01*
X404491Y5302912D01*
X402827Y5303328D01*
X401163Y5303745D01*
X399776Y5304299D01*
X398528Y5304715D01*
X397557Y5304993D01*
X396725Y5305409D01*
X396170Y5305547D01*
X395754Y5305825D01*
X395615D01*
X391732Y5307905D01*
X388404Y5310124D01*
X385491Y5312482D01*
X383134Y5314701D01*
X381192Y5316781D01*
X379944Y5318306D01*
X379389Y5319000D01*
X379112Y5319416D01*
X378834Y5319693D01*
Y5319832D01*
X377725Y5321496D01*
X376893Y5323299D01*
X375367Y5326627D01*
X374258Y5329817D01*
X373564Y5332729D01*
X373148Y5335364D01*
X373010Y5336335D01*
Y5337306D01*
X372871Y5337999D01*
Y5338554D01*
Y5338832D01*
Y5338970D01*
X373148Y5342715D01*
X373703Y5346182D01*
X374535Y5349233D01*
X375506Y5351868D01*
X376615Y5354087D01*
X377032Y5355058D01*
X377448Y5355751D01*
X377725Y5356306D01*
X378002Y5356722D01*
X378280Y5356999D01*
Y5357138D01*
X379389Y5358525D01*
X380499Y5359912D01*
X383134Y5362547D01*
X385769Y5364765D01*
X388542Y5366568D01*
X390900Y5368094D01*
X392009Y5368787D01*
X392980Y5369203D01*
X393674Y5369619D01*
X394228Y5369897D01*
X394644Y5370174D01*
X394783D01*
X396309Y5370868D01*
X398250Y5371561D01*
X400192Y5372254D01*
X402411Y5372948D01*
X407126Y5374196D01*
X411841Y5375444D01*
X414060Y5376138D01*
X416140Y5376554D01*
X418082Y5377108D01*
X419746Y5377386D01*
X421133Y5377802D01*
X422104Y5378079D01*
X422797Y5378218D01*
X423075D01*
X426819Y5379050D01*
X430147Y5380021D01*
X433060Y5380853D01*
X435834Y5381685D01*
X438191Y5382517D01*
X440271Y5383210D01*
X442074Y5383904D01*
X443600Y5384597D01*
X444848Y5385291D01*
X445957Y5385845D01*
X446790Y5386262D01*
X447483Y5386678D01*
X448038Y5387094D01*
X448315Y5387371D01*
X448592Y5387510D01*
X450257Y5389313D01*
X451366Y5391115D01*
X452198Y5393057D01*
X452892Y5394860D01*
X453169Y5396385D01*
X453308Y5397634D01*
X453446Y5398466D01*
Y5398604D01*
Y5398743D01*
X453308Y5400269D01*
X453169Y5401655D01*
X452337Y5404152D01*
X451227Y5406509D01*
X449979Y5408451D01*
X448731Y5410115D01*
X447622Y5411363D01*
X446790Y5412057D01*
X446651Y5412334D01*
X446512D01*
X445125Y5413305D01*
X443461Y5414276D01*
X439994Y5415663D01*
X436388Y5416633D01*
X432644Y5417327D01*
X430980Y5417604D01*
X429315Y5417743D01*
X427929Y5417881D01*
X426680D01*
X425571Y5418020D01*
X421549D01*
X419053Y5417743D01*
X416695Y5417465D01*
X414476Y5417049D01*
X412535Y5416633D01*
X410732Y5416079D01*
X409068Y5415524D01*
X407542Y5414969D01*
X406294Y5414276D01*
X405184Y5413721D01*
X404214Y5413166D01*
X403381Y5412750D01*
X402827Y5412334D01*
X402272Y5412057D01*
X402133Y5411918D01*
X401995Y5411779D01*
X400608Y5410531D01*
X399360Y5409283D01*
X397418Y5406371D01*
X395754Y5403320D01*
X394644Y5400407D01*
X393812Y5397772D01*
X393535Y5396663D01*
X393258Y5395553D01*
X393119Y5394721D01*
Y5394167D01*
X392980Y5393750D01*
Y5393612D01*
X376754Y5394860D01*
X377170Y5399020D01*
X378002Y5402765D01*
X378973Y5406232D01*
X380083Y5409144D01*
X380776Y5410393D01*
X381192Y5411641D01*
X381747Y5412611D01*
X382163Y5413444D01*
X382579Y5414137D01*
X382856Y5414553D01*
X382995Y5414830D01*
X383134Y5414969D01*
X385491Y5418159D01*
X388126Y5420794D01*
X390900Y5423151D01*
X393674Y5425093D01*
X396031Y5426480D01*
X397141Y5427035D01*
X397973Y5427589D01*
X398666Y5428005D01*
X399360Y5428144D01*
X399637Y5428421D01*
X399776D01*
X403936Y5429947D01*
X408235Y5431195D01*
X412535Y5432027D01*
X416418Y5432582D01*
X418221Y5432721D01*
X419746Y5432859D01*
X421272Y5432998D01*
X422520Y5433137D01*
X424877D01*
X429593Y5432998D01*
D02*
G37*
G36*
X1523601Y5502080D02*
X1505989D01*
X1479084Y5599575D01*
X1478390Y5601933D01*
X1477697Y5604429D01*
X1477004Y5607064D01*
X1476449Y5609422D01*
X1475894Y5611363D01*
X1475755Y5612334D01*
X1475617Y5613027D01*
X1475339Y5613721D01*
Y5614137D01*
X1475201Y5614414D01*
Y5614553D01*
X1475062Y5613998D01*
X1474785Y5613166D01*
X1474507Y5612195D01*
X1474230Y5611086D01*
X1473537Y5608589D01*
X1472843Y5606093D01*
X1472150Y5603597D01*
X1471872Y5602487D01*
X1471595Y5601517D01*
X1471318Y5600685D01*
X1471179Y5600130D01*
X1471040Y5599714D01*
Y5599575D01*
X1444274Y5502080D01*
X1427771D01*
X1392684Y5630086D01*
X1409742D01*
X1429851Y5547707D01*
X1431238Y5542021D01*
X1432486Y5536751D01*
X1433041Y5534394D01*
X1433596Y5532036D01*
X1434012Y5529956D01*
X1434428Y5528014D01*
X1434844Y5526211D01*
X1435260Y5524686D01*
X1435537Y5523299D01*
X1435815Y5522051D01*
X1435953Y5521219D01*
X1436092Y5520525D01*
X1436231Y5520109D01*
Y5519970D01*
X1437617Y5528014D01*
X1439143Y5535919D01*
X1439975Y5539802D01*
X1440807Y5543547D01*
X1441639Y5547152D01*
X1442471Y5550481D01*
X1443303Y5553671D01*
X1443997Y5556444D01*
X1444690Y5558941D01*
X1445245Y5561021D01*
X1445661Y5562824D01*
X1446077Y5564072D01*
X1446216Y5564904D01*
X1446354Y5565181D01*
X1464522Y5630086D01*
X1484909D01*
X1509317Y5543547D01*
X1509594Y5542715D01*
X1509872Y5541605D01*
X1510149Y5540218D01*
X1510565Y5538554D01*
X1511120Y5536612D01*
X1511536Y5534671D01*
X1512645Y5530510D01*
X1513061Y5528569D01*
X1513616Y5526627D01*
X1514032Y5524824D01*
X1514310Y5523160D01*
X1514726Y5521912D01*
X1514864Y5520803D01*
X1515142Y5520248D01*
Y5519970D01*
X1515974Y5524824D01*
X1516945Y5529540D01*
X1517777Y5533839D01*
X1518193Y5535919D01*
X1518609Y5537861D01*
X1519025Y5539664D01*
X1519441Y5541189D01*
X1519718Y5542576D01*
X1519996Y5543824D01*
X1520273Y5544795D01*
X1520412Y5545488D01*
X1520550Y5545904D01*
Y5546043D01*
X1539828Y5630086D01*
X1557302D01*
X1523601Y5502080D01*
D02*
G37*
G36*
X1046806D02*
X1029193D01*
X1002288Y5599575D01*
X1001595Y5601933D01*
X1000901Y5604429D01*
X1000208Y5607064D01*
X999653Y5609422D01*
X999099Y5611363D01*
X998960Y5612334D01*
X998821Y5613027D01*
X998544Y5613721D01*
Y5614137D01*
X998405Y5614414D01*
Y5614553D01*
X998266Y5613998D01*
X997989Y5613166D01*
X997712Y5612195D01*
X997434Y5611086D01*
X996741Y5608589D01*
X996048Y5606093D01*
X995354Y5603597D01*
X995077Y5602487D01*
X994799Y5601517D01*
X994522Y5600685D01*
X994383Y5600130D01*
X994245Y5599714D01*
Y5599575D01*
X967479Y5502080D01*
X950975D01*
X915888Y5630086D01*
X932946D01*
X953055Y5547707D01*
X954442Y5542021D01*
X955690Y5536751D01*
X956245Y5534394D01*
X956800Y5532036D01*
X957216Y5529956D01*
X957632Y5528014D01*
X958048Y5526211D01*
X958464Y5524686D01*
X958742Y5523299D01*
X959019Y5522051D01*
X959158Y5521219D01*
X959296Y5520525D01*
X959435Y5520109D01*
Y5519970D01*
X960822Y5528014D01*
X962347Y5535919D01*
X963179Y5539802D01*
X964012Y5543547D01*
X964844Y5547152D01*
X965676Y5550481D01*
X966508Y5553671D01*
X967201Y5556444D01*
X967895Y5558941D01*
X968449Y5561021D01*
X968865Y5562824D01*
X969282Y5564072D01*
X969420Y5564904D01*
X969559Y5565181D01*
X987726Y5630086D01*
X1008113D01*
X1032521Y5543547D01*
X1032799Y5542715D01*
X1033076Y5541605D01*
X1033354Y5540218D01*
X1033770Y5538554D01*
X1034324Y5536612D01*
X1034740Y5534671D01*
X1035850Y5530510D01*
X1036266Y5528569D01*
X1036821Y5526627D01*
X1037237Y5524824D01*
X1037514Y5523160D01*
X1037930Y5521912D01*
X1038069Y5520803D01*
X1038346Y5520248D01*
Y5519970D01*
X1039178Y5524824D01*
X1040149Y5529540D01*
X1040981Y5533839D01*
X1041397Y5535919D01*
X1041813Y5537861D01*
X1042229Y5539664D01*
X1042645Y5541189D01*
X1042923Y5542576D01*
X1043200Y5543824D01*
X1043477Y5544795D01*
X1043616Y5545488D01*
X1043755Y5545904D01*
Y5546043D01*
X1063032Y5630086D01*
X1080506D01*
X1046806Y5502080D01*
D02*
G37*
G36*
X579996D02*
X562383D01*
X535478Y5599575D01*
X534785Y5601933D01*
X534091Y5604429D01*
X533398Y5607064D01*
X532843Y5609422D01*
X532288Y5611363D01*
X532150Y5612334D01*
X532011Y5613027D01*
X531734Y5613721D01*
Y5614137D01*
X531595Y5614414D01*
Y5614553D01*
X531456Y5613998D01*
X531179Y5613166D01*
X530901Y5612195D01*
X530624Y5611086D01*
X529931Y5608589D01*
X529237Y5606093D01*
X528544Y5603597D01*
X528266Y5602487D01*
X527989Y5601517D01*
X527712Y5600685D01*
X527573Y5600130D01*
X527434Y5599714D01*
Y5599575D01*
X500668Y5502080D01*
X484165D01*
X449078Y5630086D01*
X466136D01*
X486245Y5547707D01*
X487632Y5542021D01*
X488880Y5536751D01*
X489435Y5534394D01*
X489990Y5532036D01*
X490406Y5529956D01*
X490822Y5528014D01*
X491238Y5526211D01*
X491654Y5524686D01*
X491931Y5523299D01*
X492209Y5522051D01*
X492347Y5521219D01*
X492486Y5520525D01*
X492625Y5520109D01*
Y5519970D01*
X494011Y5528014D01*
X495537Y5535919D01*
X496369Y5539802D01*
X497201Y5543547D01*
X498033Y5547152D01*
X498865Y5550481D01*
X499698Y5553671D01*
X500391Y5556444D01*
X501084Y5558941D01*
X501639Y5561021D01*
X502055Y5562824D01*
X502471Y5564072D01*
X502610Y5564904D01*
X502749Y5565181D01*
X520916Y5630086D01*
X541303D01*
X565711Y5543547D01*
X565988Y5542715D01*
X566266Y5541605D01*
X566543Y5540218D01*
X566959Y5538554D01*
X567514Y5536612D01*
X567930Y5534671D01*
X569040Y5530510D01*
X569456Y5528569D01*
X570010Y5526627D01*
X570426Y5524824D01*
X570704Y5523160D01*
X571120Y5521912D01*
X571258Y5520803D01*
X571536Y5520248D01*
Y5519970D01*
X572368Y5524824D01*
X573339Y5529540D01*
X574171Y5533839D01*
X574587Y5535919D01*
X575003Y5537861D01*
X575419Y5539664D01*
X575835Y5541189D01*
X576112Y5542576D01*
X576390Y5543824D01*
X576667Y5544795D01*
X576806Y5545488D01*
X576944Y5545904D01*
Y5546043D01*
X596222Y5630086D01*
X613696D01*
X579996Y5502080D01*
D02*
G37*
G36*
X1785021D02*
X1705000D01*
Y5517197D01*
X1768101D01*
Y5630086D01*
X1785021D01*
Y5502080D01*
D02*
G37*
G36*
X1327364D02*
X1310444D01*
Y5554087D01*
X1277715D01*
X1272722Y5554225D01*
X1268284Y5554641D01*
X1264124Y5555196D01*
X1260241Y5555890D01*
X1256912Y5556722D01*
X1253722Y5557692D01*
X1251087Y5558663D01*
X1248591Y5559773D01*
X1246511Y5560744D01*
X1244708Y5561714D01*
X1243182Y5562685D01*
X1242073Y5563517D01*
X1241102Y5564349D01*
X1240547Y5564904D01*
X1240131Y5565181D01*
X1239993Y5565320D01*
X1238190Y5567539D01*
X1236526Y5569758D01*
X1235139Y5572116D01*
X1234029Y5574473D01*
X1232920Y5576831D01*
X1232088Y5579050D01*
X1231394Y5581269D01*
X1230840Y5583349D01*
X1230423Y5585429D01*
X1230146Y5587232D01*
X1229869Y5588758D01*
X1229730Y5590145D01*
X1229591Y5591393D01*
Y5592225D01*
Y5592780D01*
Y5592918D01*
X1229730Y5596385D01*
X1230146Y5599714D01*
X1230840Y5602626D01*
X1231533Y5605261D01*
X1232365Y5607341D01*
X1232642Y5608312D01*
X1232920Y5609006D01*
X1233197Y5609560D01*
X1233475Y5609976D01*
X1233613Y5610254D01*
Y5610392D01*
X1235139Y5613305D01*
X1236803Y5615662D01*
X1238606Y5617881D01*
X1240131Y5619546D01*
X1241657Y5620932D01*
X1242766Y5621903D01*
X1243598Y5622597D01*
X1243737Y5622735D01*
X1243876D01*
X1246372Y5624261D01*
X1249007Y5625509D01*
X1251642Y5626618D01*
X1254138Y5627451D01*
X1256357Y5628144D01*
X1257328Y5628283D01*
X1258160Y5628560D01*
X1258715Y5628699D01*
X1259270D01*
X1259547Y5628837D01*
X1259686D01*
X1260934Y5629115D01*
X1262460Y5629253D01*
X1265511Y5629531D01*
X1268700Y5629808D01*
X1271890Y5629947D01*
X1274664Y5630086D01*
X1327364D01*
Y5502080D01*
D02*
G37*
G36*
X899801D02*
X804248D01*
Y5517197D01*
X882881D01*
Y5560744D01*
X812014D01*
Y5575860D01*
X882881D01*
Y5614969D01*
X807160D01*
Y5630086D01*
X899801D01*
Y5502080D01*
D02*
G37*
G36*
X780671D02*
X763752D01*
Y5558941D01*
X741978D01*
X740037Y5558802D01*
X738373Y5558663D01*
X736986D01*
X736015Y5558525D01*
X735322Y5558386D01*
X734906Y5558247D01*
X734767D01*
X733241Y5557831D01*
X731855Y5557276D01*
X730606Y5556722D01*
X729358Y5556167D01*
X728387Y5555612D01*
X727694Y5555196D01*
X727139Y5554919D01*
X727001Y5554780D01*
X725614Y5553809D01*
X724088Y5552422D01*
X722563Y5551036D01*
X721315Y5549649D01*
X720066Y5548401D01*
X719234Y5547291D01*
X718680Y5546598D01*
X718402Y5546459D01*
Y5546320D01*
X716461Y5543824D01*
X714380Y5541050D01*
X712439Y5538138D01*
X710497Y5535226D01*
X708833Y5532729D01*
X708001Y5531620D01*
X707446Y5530649D01*
X706891Y5529817D01*
X706475Y5529262D01*
X706337Y5528846D01*
X706198Y5528708D01*
X689279Y5502080D01*
X668060D01*
X690249Y5536890D01*
X692746Y5540496D01*
X695242Y5543824D01*
X697600Y5546736D01*
X699680Y5549233D01*
X701483Y5551174D01*
X702315Y5552006D01*
X703008Y5552700D01*
X703563Y5553255D01*
X703979Y5553671D01*
X704118Y5553809D01*
X704256Y5553948D01*
X705643Y5555057D01*
X707307Y5556306D01*
X708972Y5557276D01*
X710636Y5558247D01*
X712161Y5559079D01*
X713410Y5559773D01*
X714242Y5560189D01*
X714380Y5560327D01*
X714519D01*
X711191Y5560882D01*
X708001Y5561576D01*
X705089Y5562408D01*
X702454Y5563240D01*
X699957Y5564211D01*
X697738Y5565181D01*
X695797Y5566152D01*
X693994Y5567123D01*
X692330Y5568094D01*
X690943Y5569065D01*
X689833Y5569897D01*
X688862Y5570590D01*
X688169Y5571283D01*
X687614Y5571700D01*
X687337Y5571977D01*
X687198Y5572116D01*
X685673Y5573918D01*
X684286Y5575721D01*
X683038Y5577663D01*
X682067Y5579605D01*
X681235Y5581546D01*
X680541Y5583488D01*
X679432Y5587093D01*
X679016Y5588758D01*
X678739Y5590283D01*
X678600Y5591670D01*
X678461Y5592918D01*
X678322Y5593750D01*
Y5594582D01*
Y5594998D01*
Y5595137D01*
X678600Y5599020D01*
X679155Y5602626D01*
X679987Y5605816D01*
X680957Y5608728D01*
X681512Y5609976D01*
X682067Y5611086D01*
X682483Y5612057D01*
X682899Y5612889D01*
X683176Y5613582D01*
X683454Y5613998D01*
X683731Y5614276D01*
Y5614414D01*
X685811Y5617465D01*
X688169Y5619962D01*
X690527Y5622181D01*
X692884Y5623845D01*
X694826Y5625093D01*
X696490Y5625925D01*
X697184Y5626202D01*
X697600Y5626480D01*
X697877Y5626618D01*
X698016D01*
X699819Y5627173D01*
X701621Y5627728D01*
X705782Y5628560D01*
X710081Y5629253D01*
X714242Y5629669D01*
X716322Y5629808D01*
X718125Y5629947D01*
X719650D01*
X721176Y5630086D01*
X780671D01*
Y5502080D01*
D02*
G37*
G36*
X295000D02*
X214979D01*
Y5517197D01*
X278080D01*
Y5630086D01*
X295000D01*
Y5502080D01*
D02*
G37*
G36*
X1633717Y5632166D02*
X1638432Y5631472D01*
X1642870Y5630640D01*
X1647030Y5629531D01*
X1651052Y5628144D01*
X1654658Y5626618D01*
X1657986Y5624954D01*
X1661037Y5623290D01*
X1663811Y5621626D01*
X1666169Y5619962D01*
X1668110Y5618436D01*
X1669913Y5617049D01*
X1671161Y5615940D01*
X1672132Y5615108D01*
X1672825Y5614414D01*
X1672964Y5614276D01*
X1676015Y5610808D01*
X1678650Y5606925D01*
X1680869Y5603042D01*
X1682811Y5598882D01*
X1684475Y5594721D01*
X1685862Y5590561D01*
X1686971Y5586539D01*
X1687942Y5582517D01*
X1688635Y5578772D01*
X1689051Y5575444D01*
X1689468Y5572254D01*
X1689745Y5569619D01*
X1689884Y5567400D01*
Y5566568D01*
X1690022Y5565736D01*
Y5565181D01*
Y5564765D01*
Y5564488D01*
Y5564349D01*
X1689884Y5561298D01*
X1689745Y5558109D01*
X1688913Y5552284D01*
X1688358Y5549510D01*
X1687803Y5546875D01*
X1687110Y5544379D01*
X1686416Y5542160D01*
X1685723Y5539941D01*
X1685030Y5538138D01*
X1684475Y5536474D01*
X1683920Y5535087D01*
X1683504Y5533978D01*
X1683088Y5533145D01*
X1682949Y5532591D01*
X1682811Y5532452D01*
X1681285Y5529678D01*
X1679760Y5527043D01*
X1678095Y5524686D01*
X1676293Y5522328D01*
X1674490Y5520248D01*
X1672687Y5518306D01*
X1671023Y5516503D01*
X1669220Y5514839D01*
X1667555Y5513452D01*
X1666030Y5512204D01*
X1664643Y5511095D01*
X1663534Y5510263D01*
X1662563Y5509569D01*
X1661731Y5509014D01*
X1661315Y5508737D01*
X1661176Y5508598D01*
X1658402Y5507073D01*
X1655629Y5505825D01*
X1652855Y5504576D01*
X1650081Y5503606D01*
X1647308Y5502774D01*
X1644673Y5502080D01*
X1642038Y5501525D01*
X1639680Y5501109D01*
X1637322Y5500693D01*
X1635381Y5500416D01*
X1633439Y5500277D01*
X1631914Y5500139D01*
X1630666Y5500000D01*
X1628863D01*
X1625812Y5500139D01*
X1622761Y5500277D01*
X1616936Y5501248D01*
X1614301Y5501803D01*
X1611666Y5502496D01*
X1609308Y5503190D01*
X1607089Y5503883D01*
X1605009Y5504576D01*
X1603206Y5505270D01*
X1601681Y5505963D01*
X1600294Y5506518D01*
X1599184Y5507073D01*
X1598491Y5507489D01*
X1597936Y5507628D01*
X1597797Y5507766D01*
X1595162Y5509292D01*
X1592666Y5511095D01*
X1590308Y5512898D01*
X1588228Y5514700D01*
X1586287Y5516642D01*
X1584345Y5518584D01*
X1582681Y5520525D01*
X1581155Y5522328D01*
X1579907Y5524131D01*
X1578659Y5525795D01*
X1577688Y5527321D01*
X1576856Y5528569D01*
X1576301Y5529540D01*
X1575885Y5530372D01*
X1575608Y5530926D01*
X1575469Y5531065D01*
X1574082Y5533978D01*
X1572834Y5537029D01*
X1571864Y5539941D01*
X1570893Y5542992D01*
X1570061Y5545904D01*
X1569506Y5548817D01*
X1568951Y5551590D01*
X1568535Y5554225D01*
X1568258Y5556722D01*
X1567980Y5558941D01*
X1567842Y5560882D01*
X1567703Y5562546D01*
X1567564Y5563933D01*
Y5565043D01*
Y5565597D01*
Y5565875D01*
X1567703Y5569481D01*
X1567842Y5572809D01*
X1568258Y5576137D01*
X1568674Y5579327D01*
X1569229Y5582240D01*
X1569922Y5585152D01*
X1570615Y5587787D01*
X1571309Y5590145D01*
X1572002Y5592363D01*
X1572696Y5594305D01*
X1573250Y5596108D01*
X1573944Y5597495D01*
X1574360Y5598604D01*
X1574776Y5599436D01*
X1574915Y5599991D01*
X1575053Y5600130D01*
X1576579Y5602903D01*
X1578104Y5605538D01*
X1579907Y5608035D01*
X1581571Y5610254D01*
X1583374Y5612334D01*
X1585177Y5614276D01*
X1586980Y5616078D01*
X1588783Y5617743D01*
X1590447Y5619129D01*
X1591973Y5620378D01*
X1593221Y5621487D01*
X1594469Y5622319D01*
X1595440Y5623013D01*
X1596133Y5623429D01*
X1596688Y5623706D01*
X1596827Y5623845D01*
X1599600Y5625370D01*
X1602235Y5626618D01*
X1605009Y5627728D01*
X1607783Y5628699D01*
X1610556Y5629531D01*
X1613191Y5630224D01*
X1615688Y5630779D01*
X1618184Y5631195D01*
X1620403Y5631611D01*
X1622344Y5631888D01*
X1624147Y5632027D01*
X1625812Y5632166D01*
X1627060Y5632304D01*
X1628724D01*
X1633717Y5632166D01*
D02*
G37*
G36*
X1156921D02*
X1161636Y5631472D01*
X1166074Y5630640D01*
X1170235Y5629531D01*
X1174256Y5628144D01*
X1177862Y5626618D01*
X1181191Y5624954D01*
X1184242Y5623290D01*
X1187015Y5621626D01*
X1189373Y5619962D01*
X1191315Y5618436D01*
X1193118Y5617049D01*
X1194366Y5615940D01*
X1195336Y5615108D01*
X1196030Y5614414D01*
X1196169Y5614276D01*
X1199220Y5610808D01*
X1201855Y5606925D01*
X1204074Y5603042D01*
X1206015Y5598882D01*
X1207679Y5594721D01*
X1209066Y5590561D01*
X1210176Y5586539D01*
X1211146Y5582517D01*
X1211840Y5578772D01*
X1212256Y5575444D01*
X1212672Y5572254D01*
X1212949Y5569619D01*
X1213088Y5567400D01*
Y5566568D01*
X1213227Y5565736D01*
Y5565181D01*
Y5564765D01*
Y5564488D01*
Y5564349D01*
X1213088Y5561298D01*
X1212949Y5558109D01*
X1212117Y5552284D01*
X1211562Y5549510D01*
X1211008Y5546875D01*
X1210314Y5544379D01*
X1209621Y5542160D01*
X1208927Y5539941D01*
X1208234Y5538138D01*
X1207679Y5536474D01*
X1207125Y5535087D01*
X1206709Y5533978D01*
X1206292Y5533145D01*
X1206154Y5532591D01*
X1206015Y5532452D01*
X1204490Y5529678D01*
X1202964Y5527043D01*
X1201300Y5524686D01*
X1199497Y5522328D01*
X1197694Y5520248D01*
X1195891Y5518306D01*
X1194227Y5516503D01*
X1192424Y5514839D01*
X1190760Y5513452D01*
X1189234Y5512204D01*
X1187848Y5511095D01*
X1186738Y5510263D01*
X1185767Y5509569D01*
X1184935Y5509014D01*
X1184519Y5508737D01*
X1184380Y5508598D01*
X1181607Y5507073D01*
X1178833Y5505825D01*
X1176059Y5504576D01*
X1173286Y5503606D01*
X1170512Y5502774D01*
X1167877Y5502080D01*
X1165242Y5501525D01*
X1162884Y5501109D01*
X1160527Y5500693D01*
X1158585Y5500416D01*
X1156644Y5500277D01*
X1155118Y5500139D01*
X1153870Y5500000D01*
X1152067D01*
X1149016Y5500139D01*
X1145965Y5500277D01*
X1140140Y5501248D01*
X1137505Y5501803D01*
X1134870Y5502496D01*
X1132513Y5503190D01*
X1130294Y5503883D01*
X1128213Y5504576D01*
X1126410Y5505270D01*
X1124885Y5505963D01*
X1123498Y5506518D01*
X1122389Y5507073D01*
X1121695Y5507489D01*
X1121141Y5507628D01*
X1121002Y5507766D01*
X1118367Y5509292D01*
X1115871Y5511095D01*
X1113513Y5512898D01*
X1111433Y5514700D01*
X1109491Y5516642D01*
X1107549Y5518584D01*
X1105885Y5520525D01*
X1104360Y5522328D01*
X1103112Y5524131D01*
X1101863Y5525795D01*
X1100893Y5527321D01*
X1100061Y5528569D01*
X1099506Y5529540D01*
X1099090Y5530372D01*
X1098812Y5530926D01*
X1098674Y5531065D01*
X1097287Y5533978D01*
X1096039Y5537029D01*
X1095068Y5539941D01*
X1094097Y5542992D01*
X1093265Y5545904D01*
X1092710Y5548817D01*
X1092156Y5551590D01*
X1091739Y5554225D01*
X1091462Y5556722D01*
X1091185Y5558941D01*
X1091046Y5560882D01*
X1090907Y5562546D01*
X1090769Y5563933D01*
Y5565043D01*
Y5565597D01*
Y5565875D01*
X1090907Y5569481D01*
X1091046Y5572809D01*
X1091462Y5576137D01*
X1091878Y5579327D01*
X1092433Y5582240D01*
X1093126Y5585152D01*
X1093820Y5587787D01*
X1094513Y5590145D01*
X1095207Y5592363D01*
X1095900Y5594305D01*
X1096455Y5596108D01*
X1097148Y5597495D01*
X1097564Y5598604D01*
X1097980Y5599436D01*
X1098119Y5599991D01*
X1098258Y5600130D01*
X1099783Y5602903D01*
X1101309Y5605538D01*
X1103112Y5608035D01*
X1104776Y5610254D01*
X1106579Y5612334D01*
X1108382Y5614276D01*
X1110184Y5616078D01*
X1111987Y5617743D01*
X1113652Y5619129D01*
X1115177Y5620378D01*
X1116425Y5621487D01*
X1117673Y5622319D01*
X1118644Y5623013D01*
X1119338Y5623429D01*
X1119892Y5623706D01*
X1120031Y5623845D01*
X1122805Y5625370D01*
X1125440Y5626618D01*
X1128213Y5627728D01*
X1130987Y5628699D01*
X1133761Y5629531D01*
X1136396Y5630224D01*
X1138892Y5630779D01*
X1141388Y5631195D01*
X1143607Y5631611D01*
X1145549Y5631888D01*
X1147352Y5632027D01*
X1149016Y5632166D01*
X1150264Y5632304D01*
X1151928D01*
X1156921Y5632166D01*
D02*
G37*
G36*
X382232D02*
X386947Y5631472D01*
X391385Y5630640D01*
X395546Y5629531D01*
X399568Y5628144D01*
X403173Y5626618D01*
X406502Y5624954D01*
X409553Y5623290D01*
X412327Y5621626D01*
X414684Y5619962D01*
X416626Y5618436D01*
X418429Y5617049D01*
X419677Y5615940D01*
X420648Y5615108D01*
X421341Y5614414D01*
X421480Y5614276D01*
X424531Y5610808D01*
X427166Y5606925D01*
X429385Y5603042D01*
X431326Y5598882D01*
X432990Y5594721D01*
X434377Y5590561D01*
X435487Y5586539D01*
X436458Y5582517D01*
X437151Y5578772D01*
X437567Y5575444D01*
X437983Y5572254D01*
X438260Y5569619D01*
X438399Y5567400D01*
Y5566568D01*
X438538Y5565736D01*
Y5565181D01*
Y5564765D01*
Y5564488D01*
Y5564349D01*
X438399Y5561298D01*
X438260Y5558109D01*
X437428Y5552284D01*
X436874Y5549510D01*
X436319Y5546875D01*
X435625Y5544379D01*
X434932Y5542160D01*
X434239Y5539941D01*
X433545Y5538138D01*
X432990Y5536474D01*
X432436Y5535087D01*
X432020Y5533978D01*
X431604Y5533145D01*
X431465Y5532591D01*
X431326Y5532452D01*
X429801Y5529678D01*
X428275Y5527043D01*
X426611Y5524686D01*
X424808Y5522328D01*
X423005Y5520248D01*
X421202Y5518306D01*
X419538Y5516503D01*
X417735Y5514839D01*
X416071Y5513452D01*
X414546Y5512204D01*
X413159Y5511095D01*
X412049Y5510263D01*
X411078Y5509569D01*
X410246Y5509014D01*
X409830Y5508737D01*
X409692Y5508598D01*
X406918Y5507073D01*
X404144Y5505825D01*
X401371Y5504576D01*
X398597Y5503606D01*
X395823Y5502774D01*
X393188Y5502080D01*
X390553Y5501525D01*
X388196Y5501109D01*
X385838Y5500693D01*
X383896Y5500416D01*
X381955Y5500277D01*
X380429Y5500139D01*
X379181Y5500000D01*
X377378D01*
X374327Y5500139D01*
X371276Y5500277D01*
X365451Y5501248D01*
X362816Y5501803D01*
X360181Y5502496D01*
X357824Y5503190D01*
X355605Y5503883D01*
X353525Y5504576D01*
X351722Y5505270D01*
X350196Y5505963D01*
X348809Y5506518D01*
X347700Y5507073D01*
X347006Y5507489D01*
X346452Y5507628D01*
X346313Y5507766D01*
X343678Y5509292D01*
X341182Y5511095D01*
X338824Y5512898D01*
X336744Y5514700D01*
X334802Y5516642D01*
X332861Y5518584D01*
X331196Y5520525D01*
X329671Y5522328D01*
X328423Y5524131D01*
X327175Y5525795D01*
X326204Y5527321D01*
X325372Y5528569D01*
X324817Y5529540D01*
X324401Y5530372D01*
X324124Y5530926D01*
X323985Y5531065D01*
X322598Y5533978D01*
X321350Y5537029D01*
X320379Y5539941D01*
X319408Y5542992D01*
X318576Y5545904D01*
X318021Y5548817D01*
X317467Y5551590D01*
X317051Y5554225D01*
X316773Y5556722D01*
X316496Y5558941D01*
X316357Y5560882D01*
X316219Y5562546D01*
X316080Y5563933D01*
Y5565043D01*
Y5565597D01*
Y5565875D01*
X316219Y5569481D01*
X316357Y5572809D01*
X316773Y5576137D01*
X317189Y5579327D01*
X317744Y5582240D01*
X318438Y5585152D01*
X319131Y5587787D01*
X319824Y5590145D01*
X320518Y5592363D01*
X321211Y5594305D01*
X321766Y5596108D01*
X322459Y5597495D01*
X322875Y5598604D01*
X323291Y5599436D01*
X323430Y5599991D01*
X323569Y5600130D01*
X325094Y5602903D01*
X326620Y5605538D01*
X328423Y5608035D01*
X330087Y5610254D01*
X331890Y5612334D01*
X333693Y5614276D01*
X335496Y5616078D01*
X337299Y5617743D01*
X338963Y5619129D01*
X340488Y5620378D01*
X341736Y5621487D01*
X342985Y5622319D01*
X343955Y5623013D01*
X344649Y5623429D01*
X345204Y5623706D01*
X345342Y5623845D01*
X348116Y5625370D01*
X350751Y5626618D01*
X353525Y5627728D01*
X356298Y5628699D01*
X359072Y5629531D01*
X361707Y5630224D01*
X364203Y5630779D01*
X366700Y5631195D01*
X368918Y5631611D01*
X370860Y5631888D01*
X372663Y5632027D01*
X374327Y5632166D01*
X375575Y5632304D01*
X377240D01*
X382232Y5632166D01*
D02*
G37*
%LPC*%
G36*
X1155519Y5204984D02*
Y5147291D01*
X1195876D01*
X1155519Y5204984D01*
D02*
G37*
G36*
X1264802Y5217604D02*
X1263832D01*
X1261751Y5217465D01*
X1259948Y5217188D01*
X1258007Y5216633D01*
X1256343Y5215940D01*
X1253153Y5214276D01*
X1250518Y5212473D01*
X1249408Y5211502D01*
X1248438Y5210531D01*
X1247606Y5209560D01*
X1246773Y5208867D01*
X1246219Y5208173D01*
X1245803Y5207619D01*
X1245664Y5207341D01*
X1245525Y5207203D01*
X1244138Y5204984D01*
X1243029Y5202487D01*
X1242058Y5199436D01*
X1241226Y5196247D01*
X1240533Y5192918D01*
X1239839Y5189451D01*
X1239007Y5182378D01*
X1238591Y5179050D01*
X1238452Y5175860D01*
X1238314Y5172948D01*
X1238175Y5170451D01*
X1238036Y5168232D01*
Y5167400D01*
Y5166707D01*
Y5166152D01*
Y5165736D01*
Y5165459D01*
Y5165320D01*
X1238175Y5159634D01*
X1238314Y5154503D01*
X1238730Y5149788D01*
X1239146Y5145488D01*
X1239701Y5141605D01*
X1240394Y5138277D01*
X1241087Y5135226D01*
X1241781Y5132591D01*
X1242474Y5130372D01*
X1243168Y5128430D01*
X1243722Y5126766D01*
X1244416Y5125518D01*
X1244832Y5124547D01*
X1245248Y5123992D01*
X1245387Y5123576D01*
X1245525Y5123438D01*
X1246912Y5121635D01*
X1248438Y5119970D01*
X1249963Y5118584D01*
X1251489Y5117474D01*
X1253014Y5116365D01*
X1254540Y5115533D01*
X1255927Y5114839D01*
X1257313Y5114284D01*
X1259810Y5113591D01*
X1260919Y5113314D01*
X1261890Y5113175D01*
X1262583D01*
X1263277Y5113036D01*
X1263693D01*
X1265635Y5113175D01*
X1267576Y5113452D01*
X1269379Y5114007D01*
X1271043Y5114700D01*
X1274233Y5116226D01*
X1276868Y5118168D01*
X1278948Y5120109D01*
X1279780Y5120941D01*
X1280474Y5121635D01*
X1281167Y5122328D01*
X1281583Y5122883D01*
X1281722Y5123160D01*
X1281861Y5123299D01*
X1283109Y5125518D01*
X1284218Y5128153D01*
X1285328Y5131065D01*
X1286160Y5134255D01*
X1286853Y5137722D01*
X1287408Y5141189D01*
X1288240Y5148262D01*
X1288656Y5151590D01*
X1288795Y5154780D01*
X1288933Y5157693D01*
X1289072Y5160189D01*
X1289211Y5162269D01*
Y5163240D01*
Y5163933D01*
Y5164488D01*
Y5164904D01*
Y5165181D01*
Y5165320D01*
X1289072Y5171006D01*
X1288795Y5176137D01*
X1288517Y5180991D01*
X1287963Y5185291D01*
X1287408Y5189174D01*
X1286714Y5192780D01*
X1285882Y5195831D01*
X1285189Y5198604D01*
X1284496Y5201101D01*
X1283663Y5203042D01*
X1282970Y5204706D01*
X1282415Y5206093D01*
X1281861Y5207203D01*
X1281444Y5207896D01*
X1281306Y5208312D01*
X1281167Y5208451D01*
X1279919Y5210115D01*
X1278532Y5211502D01*
X1277145Y5212750D01*
X1275758Y5213721D01*
X1274233Y5214692D01*
X1272846Y5215385D01*
X1270072Y5216495D01*
X1267576Y5217188D01*
X1266467Y5217327D01*
X1265635Y5217465D01*
X1264802Y5217604D01*
D02*
G37*
G36*
X916844D02*
X915873D01*
X913793Y5217465D01*
X911990Y5217188D01*
X910049Y5216633D01*
X908385Y5215940D01*
X905195Y5214276D01*
X902560Y5212473D01*
X901450Y5211502D01*
X900480Y5210531D01*
X899647Y5209560D01*
X898815Y5208867D01*
X898261Y5208173D01*
X897845Y5207619D01*
X897706Y5207341D01*
X897567Y5207203D01*
X896180Y5204984D01*
X895071Y5202487D01*
X894100Y5199436D01*
X893268Y5196247D01*
X892575Y5192918D01*
X891881Y5189451D01*
X891049Y5182378D01*
X890633Y5179050D01*
X890494Y5175860D01*
X890356Y5172948D01*
X890217Y5170451D01*
X890078Y5168232D01*
Y5167400D01*
Y5166707D01*
Y5166152D01*
Y5165736D01*
Y5165459D01*
Y5165320D01*
X890217Y5159634D01*
X890356Y5154503D01*
X890772Y5149788D01*
X891188Y5145488D01*
X891742Y5141605D01*
X892436Y5138277D01*
X893129Y5135226D01*
X893823Y5132591D01*
X894516Y5130372D01*
X895210Y5128430D01*
X895764Y5126766D01*
X896458Y5125518D01*
X896874Y5124547D01*
X897290Y5123992D01*
X897428Y5123576D01*
X897567Y5123438D01*
X898954Y5121635D01*
X900480Y5119970D01*
X902005Y5118584D01*
X903531Y5117474D01*
X905056Y5116365D01*
X906582Y5115533D01*
X907968Y5114839D01*
X909355Y5114284D01*
X911852Y5113591D01*
X912961Y5113314D01*
X913932Y5113175D01*
X914625D01*
X915319Y5113036D01*
X915735D01*
X917676Y5113175D01*
X919618Y5113452D01*
X921421Y5114007D01*
X923085Y5114700D01*
X926275Y5116226D01*
X928910Y5118168D01*
X930990Y5120109D01*
X931822Y5120941D01*
X932516Y5121635D01*
X933209Y5122328D01*
X933625Y5122883D01*
X933764Y5123160D01*
X933902Y5123299D01*
X935151Y5125518D01*
X936260Y5128153D01*
X937369Y5131065D01*
X938202Y5134255D01*
X938895Y5137722D01*
X939450Y5141189D01*
X940282Y5148262D01*
X940698Y5151590D01*
X940837Y5154780D01*
X940975Y5157693D01*
X941114Y5160189D01*
X941253Y5162269D01*
Y5163240D01*
Y5163933D01*
Y5164488D01*
Y5164904D01*
Y5165181D01*
Y5165320D01*
X941114Y5171006D01*
X940837Y5176137D01*
X940559Y5180991D01*
X940004Y5185291D01*
X939450Y5189174D01*
X938756Y5192780D01*
X937924Y5195831D01*
X937231Y5198604D01*
X936537Y5201101D01*
X935705Y5203042D01*
X935012Y5204706D01*
X934457Y5206093D01*
X933902Y5207203D01*
X933486Y5207896D01*
X933348Y5208312D01*
X933209Y5208451D01*
X931961Y5210115D01*
X930574Y5211502D01*
X929187Y5212750D01*
X927800Y5213721D01*
X926275Y5214692D01*
X924888Y5215385D01*
X922114Y5216495D01*
X919618Y5217188D01*
X918508Y5217327D01*
X917676Y5217465D01*
X916844Y5217604D01*
D02*
G37*
G36*
X1462650Y5420100D02*
X1461540D01*
X1459321Y5419962D01*
X1457241Y5419407D01*
X1455438Y5418852D01*
X1454051Y5418020D01*
X1452803Y5417327D01*
X1451833Y5416633D01*
X1451278Y5416079D01*
X1451139Y5415940D01*
X1449752Y5414276D01*
X1448643Y5412473D01*
X1447949Y5410670D01*
X1447395Y5409006D01*
X1447117Y5407480D01*
X1446840Y5406232D01*
Y5405400D01*
Y5405261D01*
Y5405123D01*
X1446979Y5403181D01*
X1447256Y5401239D01*
X1447811Y5399575D01*
X1448365Y5398050D01*
X1448920Y5396940D01*
X1449475Y5395969D01*
X1449752Y5395415D01*
X1449891Y5395137D01*
X1450584Y5394305D01*
X1451278Y5393334D01*
X1453219Y5391532D01*
X1455438Y5389729D01*
X1457657Y5388203D01*
X1459737Y5386678D01*
X1461540Y5385568D01*
X1462234Y5385152D01*
X1462789Y5384875D01*
X1463066Y5384736D01*
X1463205Y5384597D01*
X1470277Y5392641D01*
X1471387Y5394028D01*
X1472219Y5395276D01*
X1473051Y5396524D01*
X1473745Y5397495D01*
X1474161Y5398327D01*
X1474577Y5399020D01*
X1474715Y5399436D01*
X1474854Y5399575D01*
X1475409Y5400823D01*
X1475686Y5401933D01*
X1475964Y5403042D01*
X1476241Y5404013D01*
Y5404706D01*
X1476380Y5405261D01*
Y5405677D01*
Y5405816D01*
X1476241Y5408035D01*
X1475686Y5409976D01*
X1474993Y5411641D01*
X1474299Y5413166D01*
X1473467Y5414276D01*
X1472912Y5415246D01*
X1472358Y5415801D01*
X1472219Y5415940D01*
X1470555Y5417327D01*
X1468752Y5418298D01*
X1466949Y5419130D01*
X1465285Y5419546D01*
X1463759Y5419823D01*
X1462650Y5420100D01*
D02*
G37*
G36*
X1469723Y5366152D02*
X1441154Y5330372D01*
X1442957Y5327876D01*
X1444898Y5325657D01*
X1446979Y5323715D01*
X1448781Y5322051D01*
X1450584Y5320803D01*
X1451971Y5319832D01*
X1452526Y5319416D01*
X1452942Y5319277D01*
X1453081Y5319000D01*
X1453219D01*
X1455993Y5317613D01*
X1458628Y5316503D01*
X1461124Y5315810D01*
X1463343Y5315255D01*
X1465146Y5314978D01*
X1466533Y5314839D01*
X1467088Y5314701D01*
X1467781D01*
X1469861Y5314839D01*
X1471803Y5315117D01*
X1473606Y5315533D01*
X1475270Y5315949D01*
X1478321Y5317336D01*
X1480817Y5318861D01*
X1482759Y5320387D01*
X1483591Y5321080D01*
X1484285Y5321773D01*
X1484701Y5322190D01*
X1485117Y5322606D01*
X1485255Y5322883D01*
X1485394Y5323022D01*
X1486504Y5324547D01*
X1487336Y5326073D01*
X1488861Y5328985D01*
X1489971Y5331759D01*
X1490664Y5334255D01*
X1491219Y5336197D01*
X1491357Y5337029D01*
Y5337722D01*
X1491496Y5338277D01*
Y5338832D01*
Y5338970D01*
Y5339109D01*
X1491357Y5341467D01*
X1490803Y5343824D01*
X1490109Y5346043D01*
X1489277Y5347985D01*
X1488445Y5349649D01*
X1487752Y5350897D01*
X1487197Y5351729D01*
X1487058Y5351868D01*
Y5352007D01*
X1486087Y5353255D01*
X1484978Y5354503D01*
X1482482Y5356999D01*
X1479569Y5359357D01*
X1476657Y5361576D01*
X1474022Y5363379D01*
X1472912Y5364211D01*
X1471803Y5364904D01*
X1470971Y5365459D01*
X1470277Y5365875D01*
X1469861Y5366014D01*
X1469723Y5366152D01*
D02*
G37*
G36*
X1310444Y5614969D02*
X1273693D01*
X1272029Y5614830D01*
X1270364D01*
X1268978Y5614692D01*
X1267591Y5614553D01*
X1266481Y5614414D01*
X1265511D01*
X1263846Y5614137D01*
X1262737Y5613859D01*
X1262043Y5613721D01*
X1261905D01*
X1259547Y5612889D01*
X1257467Y5611779D01*
X1255664Y5610531D01*
X1254000Y5609283D01*
X1252890Y5608173D01*
X1251920Y5607203D01*
X1251365Y5606509D01*
X1251226Y5606232D01*
X1249839Y5604013D01*
X1248868Y5601655D01*
X1248036Y5599436D01*
X1247620Y5597217D01*
X1247343Y5595415D01*
X1247066Y5593889D01*
Y5593334D01*
Y5592918D01*
Y5592641D01*
Y5592502D01*
X1247204Y5590422D01*
X1247343Y5588619D01*
X1248175Y5585152D01*
X1249285Y5582240D01*
X1250533Y5579743D01*
X1251781Y5577802D01*
X1252890Y5576415D01*
X1253306Y5575999D01*
X1253722Y5575583D01*
X1253861Y5575444D01*
X1254000Y5575305D01*
X1255387Y5574196D01*
X1257051Y5573364D01*
X1258715Y5572532D01*
X1260518Y5571838D01*
X1264401Y5570729D01*
X1268284Y5570035D01*
X1270087Y5569758D01*
X1271890Y5569481D01*
X1273416Y5569342D01*
X1274802D01*
X1275912Y5569203D01*
X1310444D01*
Y5614969D01*
D02*
G37*
G36*
X763752Y5615940D02*
X720621D01*
X718263Y5615662D01*
X716045Y5615385D01*
X713964Y5614969D01*
X712161Y5614553D01*
X710497Y5613998D01*
X708972Y5613582D01*
X707585Y5613027D01*
X706337Y5612473D01*
X705366Y5611918D01*
X704395Y5611363D01*
X703702Y5610947D01*
X703147Y5610531D01*
X702731Y5610254D01*
X702592Y5610115D01*
X702454Y5609976D01*
X701344Y5608867D01*
X700235Y5607619D01*
X698570Y5605261D01*
X697461Y5602765D01*
X696629Y5600407D01*
X696074Y5598327D01*
X695935Y5597356D01*
Y5596663D01*
X695797Y5595969D01*
Y5595553D01*
Y5595276D01*
Y5595137D01*
X695935Y5592918D01*
X696351Y5590699D01*
X696906Y5588758D01*
X697461Y5587093D01*
X698154Y5585568D01*
X698709Y5584597D01*
X699125Y5583904D01*
X699264Y5583626D01*
X700651Y5581823D01*
X702315Y5580159D01*
X703979Y5578911D01*
X705505Y5577802D01*
X707030Y5576970D01*
X708140Y5576415D01*
X708972Y5576137D01*
X709110Y5575999D01*
X709249D01*
X711884Y5575167D01*
X714796Y5574612D01*
X717847Y5574196D01*
X720760Y5573918D01*
X723395Y5573780D01*
X724504D01*
X725475Y5573641D01*
X763752D01*
Y5615940D01*
D02*
G37*
G36*
X1629556Y5617743D02*
X1626366D01*
X1624009Y5617465D01*
X1619709Y5616772D01*
X1615826Y5615662D01*
X1614162Y5615108D01*
X1612498Y5614553D01*
X1610972Y5613859D01*
X1609724Y5613305D01*
X1608615Y5612750D01*
X1607644Y5612195D01*
X1606812Y5611779D01*
X1606257Y5611502D01*
X1605980Y5611363D01*
X1605841Y5611224D01*
X1602235Y5608589D01*
X1599184Y5605677D01*
X1596549Y5602765D01*
X1594330Y5599852D01*
X1592666Y5597217D01*
X1591973Y5596108D01*
X1591418Y5595137D01*
X1591002Y5594305D01*
X1590725Y5593750D01*
X1590447Y5593334D01*
Y5593196D01*
X1588644Y5588619D01*
X1587257Y5584042D01*
X1586287Y5579466D01*
X1585732Y5575167D01*
X1585455Y5573225D01*
X1585316Y5571422D01*
X1585177Y5569897D01*
Y5568510D01*
X1585038Y5567400D01*
Y5566568D01*
Y5566014D01*
Y5565875D01*
X1585177Y5561437D01*
X1585593Y5557138D01*
X1586148Y5553255D01*
X1586980Y5549510D01*
X1587951Y5546043D01*
X1588922Y5542992D01*
X1590170Y5540080D01*
X1591279Y5537583D01*
X1592389Y5535226D01*
X1593498Y5533284D01*
X1594608Y5531620D01*
X1595578Y5530233D01*
X1596411Y5529124D01*
X1596965Y5528430D01*
X1597381Y5527875D01*
X1597520Y5527737D01*
X1599878Y5525379D01*
X1602374Y5523299D01*
X1605009Y5521635D01*
X1607644Y5520109D01*
X1610279Y5518722D01*
X1612914Y5517613D01*
X1615410Y5516781D01*
X1617907Y5516087D01*
X1620126Y5515533D01*
X1622344Y5515116D01*
X1624147Y5514839D01*
X1625812Y5514700D01*
X1627198Y5514562D01*
X1628169Y5514423D01*
X1629001D01*
X1632468Y5514562D01*
X1635658Y5514978D01*
X1638848Y5515671D01*
X1641760Y5516503D01*
X1644534Y5517474D01*
X1647030Y5518584D01*
X1649527Y5519832D01*
X1651607Y5521080D01*
X1653548Y5522189D01*
X1655213Y5523438D01*
X1656738Y5524547D01*
X1657986Y5525518D01*
X1658957Y5526350D01*
X1659650Y5527043D01*
X1660067Y5527459D01*
X1660205Y5527598D01*
X1662424Y5530233D01*
X1664227Y5533007D01*
X1665891Y5535919D01*
X1667278Y5538970D01*
X1668526Y5542021D01*
X1669497Y5544934D01*
X1670329Y5547985D01*
X1671023Y5550897D01*
X1671577Y5553532D01*
X1671855Y5556028D01*
X1672132Y5558247D01*
X1672409Y5560189D01*
Y5561853D01*
X1672548Y5563101D01*
Y5563795D01*
Y5564072D01*
X1672409Y5569342D01*
X1671993Y5574196D01*
X1671300Y5578634D01*
X1670468Y5582656D01*
X1669497Y5586400D01*
X1668526Y5589728D01*
X1667278Y5592780D01*
X1666030Y5595553D01*
X1664920Y5597772D01*
X1663672Y5599852D01*
X1662702Y5601517D01*
X1661592Y5602903D01*
X1660899Y5603874D01*
X1660205Y5604706D01*
X1659789Y5605122D01*
X1659650Y5605261D01*
X1657154Y5607480D01*
X1654519Y5609422D01*
X1651884Y5611086D01*
X1649249Y5612473D01*
X1646753Y5613721D01*
X1644118Y5614692D01*
X1641622Y5615524D01*
X1639264Y5616217D01*
X1637045Y5616633D01*
X1635103Y5617049D01*
X1633301Y5617327D01*
X1631775Y5617604D01*
X1630388D01*
X1629556Y5617743D01*
D02*
G37*
G36*
X1152760D02*
X1149571D01*
X1147213Y5617465D01*
X1142914Y5616772D01*
X1139031Y5615662D01*
X1137367Y5615108D01*
X1135702Y5614553D01*
X1134177Y5613859D01*
X1132929Y5613305D01*
X1131819Y5612750D01*
X1130848Y5612195D01*
X1130016Y5611779D01*
X1129462Y5611502D01*
X1129184Y5611363D01*
X1129045Y5611224D01*
X1125440Y5608589D01*
X1122389Y5605677D01*
X1119754Y5602765D01*
X1117535Y5599852D01*
X1115871Y5597217D01*
X1115177Y5596108D01*
X1114622Y5595137D01*
X1114206Y5594305D01*
X1113929Y5593750D01*
X1113652Y5593334D01*
Y5593196D01*
X1111849Y5588619D01*
X1110462Y5584042D01*
X1109491Y5579466D01*
X1108936Y5575167D01*
X1108659Y5573225D01*
X1108520Y5571422D01*
X1108382Y5569897D01*
Y5568510D01*
X1108243Y5567400D01*
Y5566568D01*
Y5566014D01*
Y5565875D01*
X1108382Y5561437D01*
X1108798Y5557138D01*
X1109352Y5553255D01*
X1110184Y5549510D01*
X1111155Y5546043D01*
X1112126Y5542992D01*
X1113374Y5540080D01*
X1114484Y5537583D01*
X1115593Y5535226D01*
X1116703Y5533284D01*
X1117812Y5531620D01*
X1118783Y5530233D01*
X1119615Y5529124D01*
X1120170Y5528430D01*
X1120586Y5527875D01*
X1120724Y5527737D01*
X1123082Y5525379D01*
X1125578Y5523299D01*
X1128213Y5521635D01*
X1130848Y5520109D01*
X1133483Y5518722D01*
X1136118Y5517613D01*
X1138615Y5516781D01*
X1141111Y5516087D01*
X1143330Y5515533D01*
X1145549Y5515116D01*
X1147352Y5514839D01*
X1149016Y5514700D01*
X1150403Y5514562D01*
X1151374Y5514423D01*
X1152206D01*
X1155673Y5514562D01*
X1158863Y5514978D01*
X1162052Y5515671D01*
X1164965Y5516503D01*
X1167738Y5517474D01*
X1170235Y5518584D01*
X1172731Y5519832D01*
X1174811Y5521080D01*
X1176753Y5522189D01*
X1178417Y5523438D01*
X1179943Y5524547D01*
X1181191Y5525518D01*
X1182161Y5526350D01*
X1182855Y5527043D01*
X1183271Y5527459D01*
X1183410Y5527598D01*
X1185629Y5530233D01*
X1187431Y5533007D01*
X1189096Y5535919D01*
X1190483Y5538970D01*
X1191731Y5542021D01*
X1192701Y5544934D01*
X1193534Y5547985D01*
X1194227Y5550897D01*
X1194782Y5553532D01*
X1195059Y5556028D01*
X1195336Y5558247D01*
X1195614Y5560189D01*
Y5561853D01*
X1195752Y5563101D01*
Y5563795D01*
Y5564072D01*
X1195614Y5569342D01*
X1195198Y5574196D01*
X1194504Y5578634D01*
X1193672Y5582656D01*
X1192701Y5586400D01*
X1191731Y5589728D01*
X1190483Y5592780D01*
X1189234Y5595553D01*
X1188125Y5597772D01*
X1186877Y5599852D01*
X1185906Y5601517D01*
X1184796Y5602903D01*
X1184103Y5603874D01*
X1183410Y5604706D01*
X1182994Y5605122D01*
X1182855Y5605261D01*
X1180359Y5607480D01*
X1177724Y5609422D01*
X1175089Y5611086D01*
X1172454Y5612473D01*
X1169957Y5613721D01*
X1167322Y5614692D01*
X1164826Y5615524D01*
X1162468Y5616217D01*
X1160249Y5616633D01*
X1158308Y5617049D01*
X1156505Y5617327D01*
X1154979Y5617604D01*
X1153593D01*
X1152760Y5617743D01*
D02*
G37*
G36*
X378072D02*
X374882D01*
X372524Y5617465D01*
X368225Y5616772D01*
X364342Y5615662D01*
X362678Y5615108D01*
X361014Y5614553D01*
X359488Y5613859D01*
X358240Y5613305D01*
X357130Y5612750D01*
X356160Y5612195D01*
X355327Y5611779D01*
X354773Y5611502D01*
X354495Y5611363D01*
X354357Y5611224D01*
X350751Y5608589D01*
X347700Y5605677D01*
X345065Y5602765D01*
X342846Y5599852D01*
X341182Y5597217D01*
X340488Y5596108D01*
X339934Y5595137D01*
X339517Y5594305D01*
X339240Y5593750D01*
X338963Y5593334D01*
Y5593196D01*
X337160Y5588619D01*
X335773Y5584042D01*
X334802Y5579466D01*
X334247Y5575167D01*
X333970Y5573225D01*
X333831Y5571422D01*
X333693Y5569897D01*
Y5568510D01*
X333554Y5567400D01*
Y5566568D01*
Y5566014D01*
Y5565875D01*
X333693Y5561437D01*
X334109Y5557138D01*
X334664Y5553255D01*
X335496Y5549510D01*
X336466Y5546043D01*
X337437Y5542992D01*
X338685Y5540080D01*
X339795Y5537583D01*
X340904Y5535226D01*
X342014Y5533284D01*
X343123Y5531620D01*
X344094Y5530233D01*
X344926Y5529124D01*
X345481Y5528430D01*
X345897Y5527875D01*
X346036Y5527737D01*
X348393Y5525379D01*
X350890Y5523299D01*
X353525Y5521635D01*
X356160Y5520109D01*
X358795Y5518722D01*
X361430Y5517613D01*
X363926Y5516781D01*
X366422Y5516087D01*
X368641Y5515533D01*
X370860Y5515116D01*
X372663Y5514839D01*
X374327Y5514700D01*
X375714Y5514562D01*
X376685Y5514423D01*
X377517D01*
X380984Y5514562D01*
X384174Y5514978D01*
X387363Y5515671D01*
X390276Y5516503D01*
X393050Y5517474D01*
X395546Y5518584D01*
X398042Y5519832D01*
X400122Y5521080D01*
X402064Y5522189D01*
X403728Y5523438D01*
X405254Y5524547D01*
X406502Y5525518D01*
X407473Y5526350D01*
X408166Y5527043D01*
X408582Y5527459D01*
X408721Y5527598D01*
X410940Y5530233D01*
X412743Y5533007D01*
X414407Y5535919D01*
X415794Y5538970D01*
X417042Y5542021D01*
X418013Y5544934D01*
X418845Y5547985D01*
X419538Y5550897D01*
X420093Y5553532D01*
X420370Y5556028D01*
X420648Y5558247D01*
X420925Y5560189D01*
Y5561853D01*
X421064Y5563101D01*
Y5563795D01*
Y5564072D01*
X420925Y5569342D01*
X420509Y5574196D01*
X419816Y5578634D01*
X418983Y5582656D01*
X418013Y5586400D01*
X417042Y5589728D01*
X415794Y5592780D01*
X414546Y5595553D01*
X413436Y5597772D01*
X412188Y5599852D01*
X411217Y5601517D01*
X410108Y5602903D01*
X409414Y5603874D01*
X408721Y5604706D01*
X408305Y5605122D01*
X408166Y5605261D01*
X405670Y5607480D01*
X403035Y5609422D01*
X400400Y5611086D01*
X397765Y5612473D01*
X395268Y5613721D01*
X392633Y5614692D01*
X390137Y5615524D01*
X387780Y5616217D01*
X385561Y5616633D01*
X383619Y5617049D01*
X381816Y5617327D01*
X380291Y5617604D01*
X378904D01*
X378072Y5617743D01*
D02*
G37*
%LPD*%
D35*
X1430000Y1650000D02*
X1762000D01*
X238000Y1110000D02*
X570000D01*
X1762000D02*
Y1650000D01*
X238000Y1110000D02*
Y1650000D01*
X1430000Y1110000D02*
X1762000D01*
X238000Y1650000D02*
X570000D01*
%TF.MD5,fac1dd14312790418bfd63432917409a*%
M02*
