G04*
G04 #@! TF.GenerationSoftware,Altium Limited,Altium Designer,23.1.1 (15)*
G04*
G04 Layer_Color=65535*
%FSLAX44Y44*%
%MOMM*%
G71*
G04*
G04 #@! TF.SameCoordinates,4E5856CB-A28F-4ADE-A671-DB89C4397F1F*
G04*
G04*
G04 #@! TF.FilePolarity,Positive*
G04*
G01*
G75*
%ADD10C,0.1000*%
G36*
X143500Y195500D02*
Y187000D01*
X135000Y195500D01*
X143500D01*
D02*
G37*
G36*
X125000Y240000D02*
Y235000D01*
X120000D01*
X125000Y240000D01*
D02*
G37*
G36*
X159556Y112892D02*
X165200D01*
Y112046D01*
X159556D01*
Y109938D01*
X158800D01*
Y115000D01*
X159556D01*
Y112892D01*
D02*
G37*
G36*
X172000Y57216D02*
X167000D01*
X167014Y57203D01*
X167049Y57168D01*
X167097Y57105D01*
X167167Y57015D01*
X167250Y56911D01*
X167340Y56780D01*
X167437Y56634D01*
X167541Y56468D01*
Y56461D01*
X167555Y56447D01*
X167569Y56426D01*
X167583Y56391D01*
X167611Y56350D01*
X167631Y56301D01*
X167694Y56190D01*
X167756Y56065D01*
X167826Y55927D01*
X167888Y55781D01*
X167943Y55642D01*
X167188D01*
X167181Y55649D01*
X167174Y55670D01*
X167153Y55705D01*
X167132Y55753D01*
X167104Y55809D01*
X167063Y55878D01*
X167021Y55954D01*
X166980Y56031D01*
X166869Y56211D01*
X166737Y56405D01*
X166598Y56606D01*
X166439Y56793D01*
X166432Y56800D01*
X166418Y56814D01*
X166397Y56842D01*
X166362Y56877D01*
X166321Y56911D01*
X166279Y56960D01*
X166161Y57064D01*
X166036Y57182D01*
X165891Y57300D01*
X165738Y57404D01*
X165579Y57494D01*
Y58000D01*
X172000D01*
Y57216D01*
D02*
G37*
D10*
X28000Y247500D02*
Y267500D01*
X44000D01*
Y247500D02*
Y267500D01*
X28000Y247500D02*
X44000D01*
Y243500D02*
X48000D01*
Y247500D01*
X149000Y315500D02*
X150000D01*
X149000Y310500D02*
X150000D01*
X75500Y312500D02*
X76500D01*
X75500Y317500D02*
X76500D01*
X112500Y69500D02*
Y70500D01*
X107500Y69500D02*
Y70500D01*
X125000Y235000D02*
Y240000D01*
X120000Y235000D02*
X125000D01*
X120000Y285000D02*
X125000D01*
Y280000D02*
Y285000D01*
X75000Y280000D02*
Y285000D01*
X80000D01*
X75000Y235000D02*
X80000D01*
X75000D02*
Y240000D01*
X143500Y187000D02*
Y195500D01*
X135000D02*
X143500D01*
X135000Y110500D02*
X143500D01*
Y119000D01*
X58500Y110500D02*
Y119000D01*
Y110500D02*
X67000D01*
X58500Y195500D02*
X67000D01*
X58500Y187000D02*
Y195500D01*
X35250Y79250D02*
Y96750D01*
X4750Y79250D02*
X35250D01*
X4750D02*
Y96750D01*
X35250D01*
X194000Y50000D02*
Y120000D01*
X150000D02*
X194000D01*
X150000Y50000D02*
Y120000D01*
Y50000D02*
X194000D01*
X181000Y459000D02*
Y585200D01*
X19000Y459000D02*
Y585200D01*
X181000D01*
Y330000D02*
Y434000D01*
X19000Y330000D02*
Y434000D01*
Y330000D02*
X181000D01*
X149000Y298500D02*
X150000D01*
X149000Y303500D02*
X150000D01*
X143500Y237500D02*
X144500D01*
X143500Y242500D02*
X144500D01*
X54500Y237500D02*
X55500D01*
X54500Y232500D02*
X55500D01*
X146500Y259500D02*
Y260500D01*
X151500Y259500D02*
Y260500D01*
X24500Y279500D02*
X25500D01*
X24500Y274500D02*
X25500D01*
X35500Y229500D02*
Y230500D01*
X40500Y229500D02*
Y230500D01*
X133500Y210500D02*
X134500D01*
X133500Y215500D02*
X134500D01*
X70500Y88500D02*
Y89500D01*
X75500Y88500D02*
Y89500D01*
X15000Y113500D02*
X16000D01*
X15000Y118500D02*
X16000D01*
X35000Y50500D02*
Y51500D01*
X30000Y50500D02*
Y51500D01*
X15000Y125500D02*
X16000D01*
X15000Y130500D02*
X16000D01*
X24000Y50500D02*
Y51500D01*
X19000Y50500D02*
Y51500D01*
M02*
