G04*
G04 #@! TF.GenerationSoftware,Altium Limited,Altium Designer,23.1.1 (15)*
G04*
G04 Layer_Color=32896*
%FSLAX44Y44*%
%MOMM*%
G71*
G04*
G04 #@! TF.SameCoordinates,7C6788F6-0183-4130-A877-ABEC5F4682B5*
G04*
G04*
G04 #@! TF.FilePolarity,Positive*
G04*
G01*
G75*
%ADD10C,0.1000*%
G36*
X172000Y56216D02*
X167000D01*
X167014Y56203D01*
X167049Y56168D01*
X167097Y56105D01*
X167167Y56015D01*
X167250Y55911D01*
X167340Y55780D01*
X167437Y55634D01*
X167541Y55468D01*
Y55461D01*
X167555Y55447D01*
X167569Y55426D01*
X167583Y55391D01*
X167611Y55350D01*
X167631Y55301D01*
X167694Y55190D01*
X167756Y55065D01*
X167826Y54927D01*
X167888Y54781D01*
X167943Y54642D01*
X167188D01*
X167181Y54649D01*
X167174Y54670D01*
X167153Y54705D01*
X167132Y54753D01*
X167104Y54809D01*
X167063Y54878D01*
X167021Y54954D01*
X166980Y55031D01*
X166869Y55211D01*
X166737Y55405D01*
X166598Y55606D01*
X166439Y55793D01*
X166432Y55800D01*
X166418Y55814D01*
X166397Y55842D01*
X166362Y55877D01*
X166321Y55911D01*
X166279Y55960D01*
X166161Y56064D01*
X166037Y56182D01*
X165891Y56300D01*
X165738Y56404D01*
X165579Y56494D01*
Y57000D01*
X172000D01*
Y56216D01*
D02*
G37*
G36*
X163467Y114993D02*
X163508D01*
X163619Y114979D01*
X163751Y114951D01*
X163890Y114917D01*
X164042Y114868D01*
X164188Y114806D01*
X164195D01*
X164202Y114799D01*
X164223Y114785D01*
X164250Y114771D01*
X164320Y114729D01*
X164403Y114674D01*
X164500Y114612D01*
X164597Y114528D01*
X164694Y114438D01*
X164784Y114334D01*
X164791Y114320D01*
X164819Y114286D01*
X164853Y114223D01*
X164902Y114140D01*
X164951Y114043D01*
X165006Y113925D01*
X165055Y113786D01*
X165096Y113634D01*
Y113627D01*
X165103Y113613D01*
Y113592D01*
X165110Y113558D01*
X165117Y113516D01*
X165131Y113468D01*
X165138Y113412D01*
X165145Y113350D01*
X165159Y113280D01*
X165166Y113197D01*
X165186Y113024D01*
X165193Y112823D01*
X165200Y112601D01*
Y110167D01*
X158800D01*
Y112684D01*
X158807Y112746D01*
Y112823D01*
X158814Y112899D01*
X158828Y112989D01*
X158848Y113169D01*
X158883Y113370D01*
X158932Y113558D01*
X159001Y113738D01*
Y113745D01*
X159008Y113759D01*
X159022Y113779D01*
X159036Y113814D01*
X159084Y113890D01*
X159147Y113995D01*
X159230Y114105D01*
X159334Y114216D01*
X159459Y114327D01*
X159597Y114431D01*
X159604D01*
X159618Y114445D01*
X159639Y114452D01*
X159667Y114473D01*
X159701Y114494D01*
X159750Y114515D01*
X159854Y114563D01*
X159979Y114605D01*
X160124Y114646D01*
X160277Y114674D01*
X160443Y114688D01*
X160450D01*
X160464D01*
X160485D01*
X160513D01*
X160589Y114674D01*
X160693Y114660D01*
X160811Y114632D01*
X160943Y114591D01*
X161074Y114535D01*
X161213Y114459D01*
X161220D01*
X161227Y114452D01*
X161248Y114438D01*
X161275Y114417D01*
X161338Y114369D01*
X161421Y114293D01*
X161511Y114202D01*
X161608Y114085D01*
X161705Y113953D01*
X161796Y113793D01*
Y113800D01*
X161802Y113821D01*
X161816Y113849D01*
X161830Y113890D01*
X161851Y113939D01*
X161872Y113995D01*
X161934Y114119D01*
X162010Y114265D01*
X162115Y114410D01*
X162232Y114556D01*
X162378Y114681D01*
X162385Y114688D01*
X162399Y114695D01*
X162420Y114709D01*
X162447Y114729D01*
X162489Y114757D01*
X162537Y114785D01*
X162593Y114813D01*
X162655Y114840D01*
X162794Y114896D01*
X162960Y114951D01*
X163148Y114986D01*
X163245Y115000D01*
X163349D01*
X163356D01*
X163370D01*
X163390D01*
X163425D01*
X163467Y114993D01*
D02*
G37*
%LPC*%
G36*
X163349Y114126D02*
X163342D01*
X163335D01*
X163314D01*
X163286D01*
X163224Y114119D01*
X163134Y114105D01*
X163037Y114078D01*
X162933Y114050D01*
X162829Y114001D01*
X162725Y113939D01*
X162711Y113932D01*
X162683Y113904D01*
X162635Y113863D01*
X162579Y113807D01*
X162517Y113731D01*
X162461Y113641D01*
X162406Y113544D01*
X162357Y113426D01*
Y113419D01*
X162350Y113412D01*
X162343Y113391D01*
X162336Y113364D01*
X162329Y113329D01*
X162323Y113294D01*
X162309Y113246D01*
X162302Y113190D01*
X162288Y113121D01*
X162281Y113051D01*
X162274Y112975D01*
X162260Y112892D01*
X162253Y112705D01*
X162246Y112490D01*
Y111013D01*
X164444D01*
Y112746D01*
X164437Y112837D01*
Y112927D01*
X164431Y113024D01*
X164424Y113114D01*
X164417Y113183D01*
Y113197D01*
X164410Y113232D01*
X164396Y113287D01*
X164375Y113357D01*
X164354Y113433D01*
X164320Y113509D01*
X164285Y113592D01*
X164243Y113669D01*
X164236Y113675D01*
X164223Y113703D01*
X164195Y113738D01*
X164153Y113786D01*
X164105Y113835D01*
X164042Y113890D01*
X163973Y113946D01*
X163890Y113995D01*
X163876Y114001D01*
X163848Y114015D01*
X163799Y114036D01*
X163730Y114064D01*
X163654Y114085D01*
X163564Y114105D01*
X163460Y114119D01*
X163349Y114126D01*
D02*
G37*
G36*
X160540Y113856D02*
X160534D01*
X160527D01*
X160485D01*
X160429Y113849D01*
X160353Y113835D01*
X160263Y113814D01*
X160166Y113786D01*
X160069Y113752D01*
X159979Y113696D01*
X159965Y113689D01*
X159937Y113669D01*
X159895Y113634D01*
X159847Y113585D01*
X159791Y113523D01*
X159736Y113447D01*
X159688Y113364D01*
X159646Y113259D01*
X159639Y113246D01*
Y113232D01*
X159632Y113204D01*
X159625Y113176D01*
X159618Y113135D01*
X159611Y113086D01*
X159597Y113038D01*
X159590Y112975D01*
X159584Y112899D01*
X159577Y112823D01*
X159570Y112732D01*
X159563Y112635D01*
Y112531D01*
X159556Y112414D01*
Y111013D01*
X161490D01*
Y112531D01*
X161483Y112587D01*
Y112705D01*
X161476Y112837D01*
X161463Y112975D01*
X161442Y113100D01*
X161435Y113155D01*
X161421Y113204D01*
Y113211D01*
X161414Y113218D01*
X161400Y113259D01*
X161380Y113315D01*
X161345Y113384D01*
X161303Y113461D01*
X161248Y113544D01*
X161178Y113620D01*
X161102Y113689D01*
X161088Y113696D01*
X161061Y113717D01*
X161012Y113745D01*
X160949Y113773D01*
X160866Y113800D01*
X160769Y113828D01*
X160665Y113849D01*
X160540Y113856D01*
D02*
G37*
%LPD*%
D10*
X150000Y50000D02*
Y120000D01*
X194000D01*
X150000Y50000D02*
X194000D01*
Y120000D01*
M02*
