M48
;Layer_Color=9474304
;FILE_FORMAT=4:4
METRIC,LZ
;TYPE=PLATED
T1F00S00C0.3000
T2F00S00C0.5000
T3F00S00C0.9000
T4F00S00C1.0000
T5F00S00C1.0200
T6F00S00C1.6000
T7F00S00C1.9000
;TYPE=NON_PLATED
T8F00S00C3.2500
%
T01
X00048Y00084
X0009Y00085
Y00065
X00129Y0009
X0014Y00079
X00087Y0018
X00081Y00211
X00069Y0021
X00077Y00234
X00123Y00226
X00161Y00232
X00137Y002575
Y00274
X00131Y00287
X00166Y00301
X00085Y00296
X0002Y00225
X00025Y00148
X00036Y00138
X00032Y00128
X00081Y00325
X001Y00338
X00119Y00357
X00134Y00313
T02
X00093Y00253
X00107
Y00267
X00093
T03
X001Y0026
X0010635Y003883
X0008095
X0005555
X0006825Y004137
X0009365
X0011905
X0014445
X0013175Y003883
T04
X0002Y00022
X0018
T05
X0004535Y0034
X0007075
X0012925
X0015465
T06
X00021Y004467
X00179
T07
X000775Y000225
X001225
T08
X0004285Y004772
X0015715
M30
