%TF.GenerationSoftware,Altium Limited,Altium Designer,23.1.1 (15)*%
G04 Layer_Physical_Order=1*
G04 Layer_Color=255*
%FSLAX45Y45*%
%MOMM*%
%TF.SameCoordinates,8534D3C2-D56F-49E7-8A62-4489C1F11DDD*%
%TF.FilePolarity,Positive*%
%TF.FileFunction,Copper,L1,Top,Signal*%
%TF.Part,Single*%
G01*
G75*
%TA.AperFunction,SMDPad,CuDef*%
%ADD10C,0.50000*%
%ADD11R,0.60000X0.70000*%
%ADD12R,0.50000X1.20000*%
%ADD13R,1.20000X0.50000*%
%ADD14R,0.70000X0.60000*%
%ADD15R,0.30000X0.70000*%
%ADD16R,3.50000X3.50000*%
%ADD17R,0.70000X0.30000*%
%ADD18R,1.30000X1.70000*%
%ADD19R,0.60000X1.10000*%
%ADD20R,0.90000X0.95000*%
%TA.AperFunction,Conductor*%
%ADD21C,0.30000*%
%TA.AperFunction,ComponentPad*%
%ADD22C,1.30000*%
%ADD23C,3.25000*%
%ADD24C,2.10000*%
%ADD25C,1.42000*%
%ADD26C,1.52000*%
%ADD27C,1.60000*%
%ADD28C,0.80000*%
%ADD29C,1.40000*%
%ADD30C,2.30000*%
%TA.AperFunction,ViaPad*%
%ADD31C,0.60000*%
D10*
X1050000Y2150000D02*
D03*
X1150000Y2090000D02*
D03*
X430000Y1890000D02*
D03*
X85000Y1605000D02*
D03*
X105000Y1380000D02*
D03*
Y460000D02*
D03*
X130000Y2850000D02*
D03*
X900000Y2200000D02*
D03*
X1820000Y1450000D02*
D03*
D11*
X1490000Y2400000D02*
D03*
X1390000D02*
D03*
X1545000Y3010000D02*
D03*
X1445000D02*
D03*
X810000Y3150000D02*
D03*
X710000D02*
D03*
X1445000Y3130000D02*
D03*
X1545000D02*
D03*
X1290000Y2130000D02*
D03*
X1390000D02*
D03*
X105000Y1280000D02*
D03*
X205000D02*
D03*
X105000Y1160000D02*
D03*
X205000D02*
D03*
X300000Y2770000D02*
D03*
X200000D02*
D03*
X600000Y2350000D02*
D03*
X500000D02*
D03*
D12*
X1290000Y1955000D02*
D03*
X1210000D02*
D03*
X1130000D02*
D03*
X1050000D02*
D03*
X730000D02*
D03*
X810000D02*
D03*
X890000D02*
D03*
X970000D02*
D03*
X730000Y1105000D02*
D03*
X810000D02*
D03*
X890000D02*
D03*
X970000D02*
D03*
X1290000D02*
D03*
X1210000D02*
D03*
X1130000D02*
D03*
X1050000D02*
D03*
D13*
X585000Y1810000D02*
D03*
Y1730000D02*
D03*
Y1650000D02*
D03*
Y1570000D02*
D03*
Y1250000D02*
D03*
Y1330000D02*
D03*
Y1410000D02*
D03*
Y1490000D02*
D03*
X1435000Y1250000D02*
D03*
Y1330000D02*
D03*
Y1410000D02*
D03*
Y1490000D02*
D03*
Y1810000D02*
D03*
Y1730000D02*
D03*
Y1650000D02*
D03*
Y1570000D02*
D03*
D14*
X1490000Y2550000D02*
D03*
Y2650000D02*
D03*
X730000Y940000D02*
D03*
Y840000D02*
D03*
X325000Y460000D02*
D03*
Y560000D02*
D03*
X1100000Y650000D02*
D03*
Y750000D02*
D03*
X215000Y460000D02*
D03*
Y560000D02*
D03*
X380000Y2350000D02*
D03*
Y2250000D02*
D03*
D15*
X1000000Y2850000D02*
D03*
X1050000D02*
D03*
X1100000D02*
D03*
X1150000D02*
D03*
X950000D02*
D03*
X900000D02*
D03*
X850000D02*
D03*
X1000000Y2350000D02*
D03*
X950000D02*
D03*
X900000D02*
D03*
X850000D02*
D03*
X1050000D02*
D03*
X1100000D02*
D03*
X1150000D02*
D03*
D16*
X1000000Y2600000D02*
D03*
D17*
X750000D02*
D03*
Y2650000D02*
D03*
Y2700000D02*
D03*
Y2750000D02*
D03*
Y2550000D02*
D03*
Y2500000D02*
D03*
Y2450000D02*
D03*
X1250000Y2600000D02*
D03*
Y2550000D02*
D03*
Y2500000D02*
D03*
Y2450000D02*
D03*
Y2650000D02*
D03*
Y2700000D02*
D03*
Y2750000D02*
D03*
D18*
X1350000Y460000D02*
D03*
X1100000D02*
D03*
X900000D02*
D03*
X640000D02*
D03*
D19*
X105000Y750000D02*
D03*
X295000D02*
D03*
Y1010000D02*
D03*
X105000D02*
D03*
X200000Y750000D02*
D03*
D20*
X300000Y2652500D02*
D03*
X420000Y2497500D02*
D03*
Y2652500D02*
D03*
X300000Y2497500D02*
D03*
D21*
X585000Y1410000D02*
X585000Y1410000D01*
X470000Y1410000D02*
X585000D01*
X250000Y1480000D02*
X400000D01*
X470000Y1410000D01*
X205000Y1280000D02*
X320000D01*
X1225000Y225000D02*
X1227500Y222500D01*
X1797500D02*
X1800000Y220000D01*
X1227500Y222500D02*
X1797500D01*
X200000Y220000D02*
X325000Y345000D01*
Y460000D01*
X1100000Y2174142D02*
Y2350000D01*
X1079685Y2153827D02*
X1100000Y2174142D01*
X1053827Y2153827D02*
X1079685D01*
X380000Y2250000D02*
X470000D01*
X210000D02*
X380000D01*
X1660000Y3010000D02*
X1710000Y2960000D01*
Y2190000D02*
Y2960000D01*
X1650000Y2130000D02*
X1710000Y2190000D01*
X1530000Y2240000D02*
X1610000Y2320000D01*
X1550000Y2650000D02*
X1610000Y2590000D01*
Y2320000D02*
Y2590000D01*
X730000Y940000D02*
X831882D01*
X861882Y970000D01*
X870000D01*
X980000Y1700000D02*
X1050000Y1770000D01*
Y1955000D01*
X1730000Y940000D02*
X1820000Y850000D01*
X1730000Y940000D02*
Y1010000D01*
X1290000Y1105000D02*
X1635000D01*
X1730000Y1010000D01*
X1545000Y3010000D02*
X1660000D01*
Y3921500D01*
X1444500Y4137000D02*
X1660000Y3921500D01*
X1290000Y1955000D02*
Y2210000D01*
X1490000Y2650000D02*
X1550000D01*
X1390000Y2130000D02*
X1650000D01*
X1435000Y1810000D02*
Y1995000D01*
X1390000Y2040000D02*
X1435000Y1995000D01*
X1390000Y2040000D02*
Y2130000D01*
X1435000Y1730000D02*
X1790000D01*
X1435000Y1730000D02*
X1435000Y1730000D01*
X1820000Y1450000D02*
Y1700000D01*
X1790000Y1730000D02*
X1820000Y1700000D01*
Y1070000D02*
Y1450000D01*
Y1070000D02*
X1820000Y1070000D01*
X1050000Y2150000D02*
X1053827Y2153827D01*
X950000Y2150000D02*
X1050000D01*
X1150000Y2090000D02*
Y2350000D01*
X1000000Y2090000D02*
X1150000D01*
X1250000Y960000D02*
X1620000D01*
X1210000Y1000000D02*
X1250000Y960000D01*
X1210000Y1000000D02*
Y1105000D01*
X1130000Y920000D02*
Y1105000D01*
Y920000D02*
X1220000Y830000D01*
Y700000D02*
Y830000D01*
X200000Y2260000D02*
Y2770000D01*
Y2260000D02*
X210000Y2250000D01*
X730000Y1955000D02*
Y2060000D01*
X690000Y2100000D02*
X730000Y2060000D01*
X1230000Y2260000D02*
X1270000Y2300000D01*
X1470000D01*
X1320000Y2240000D02*
X1530000D01*
X1290000Y2210000D02*
X1320000Y2240000D01*
X1470000Y2300000D02*
X1490000Y2320000D01*
Y2400000D01*
X1370000Y2490000D02*
Y2575000D01*
Y2490000D02*
X1390000Y2470000D01*
Y2400000D02*
Y2470000D01*
X1490000Y2400000D02*
Y2550000D01*
X1490000Y2550000D01*
X1250000Y2750000D02*
Y2810000D01*
X1310000Y2870000D01*
X1250000Y2700000D02*
X1330000D01*
X1370000Y2740000D01*
X810000Y1955000D02*
Y2110000D01*
X1445000Y2835000D02*
X1490000Y2790000D01*
Y2650000D02*
Y2790000D01*
X1445000Y2835000D02*
Y3010000D01*
X1250000Y2650000D02*
X1490000D01*
X1445000Y3010000D02*
Y3130000D01*
X810000Y3150000D02*
Y3250000D01*
X1050000Y2850000D02*
Y3323934D01*
X1000000Y3373934D02*
X1050000Y3323934D01*
X1000000Y3373934D02*
Y3380000D01*
X1340000Y3130000D02*
X1445000D01*
X708750Y3151250D02*
Y3398750D01*
Y3151250D02*
X710000Y3150000D01*
X707500Y3400000D02*
X708750Y3398750D01*
X1545750Y3399250D02*
X1546500Y3400000D01*
X1545000Y3130000D02*
X1545750Y3130750D01*
Y3399250D01*
X1323000Y4467000D02*
X1444500Y4345500D01*
Y4137000D02*
Y4345500D01*
X210000Y4467000D02*
X1323000D01*
X1444500Y4137000D02*
X1452250D01*
X1782250Y4467000D02*
X1790000D01*
X1452250Y4137000D02*
X1782250Y4467000D01*
X936500Y4010000D02*
X1063500Y3883000D01*
X809500Y4010000D02*
X936500D01*
X682500Y4137000D02*
X809500Y4010000D01*
Y3883000D02*
X910000Y3782500D01*
Y3230000D02*
X1000000Y3140000D01*
X910000Y3230000D02*
Y3782500D01*
X1150000Y2850000D02*
Y3530000D01*
X1190000Y3570000D01*
Y4136500D02*
X1190500Y4137000D01*
X1190000Y3720000D02*
Y4136500D01*
X1100000Y2850000D02*
Y3630000D01*
X1190000Y3720000D01*
X1000000Y2850000D02*
Y3140000D01*
X850000Y2850000D02*
Y2960000D01*
X453500Y3176500D02*
Y3400000D01*
X750000Y2750000D02*
Y2880000D01*
X453500Y3176500D02*
X750000Y2880000D01*
X110000Y2830000D02*
X150000Y2870000D01*
X110000Y1680000D02*
Y2830000D01*
Y1680000D02*
X140000Y1650000D01*
X150000Y2870000D02*
X550000D01*
X680000Y2700000D02*
X750000D01*
X660000Y2720000D02*
X680000Y2700000D01*
X660000Y2720000D02*
Y2880000D01*
X610000Y2930000D02*
X660000Y2880000D01*
X110000Y2930000D02*
X610000D01*
X50000Y2870000D02*
X110000Y2930000D01*
X50000Y1640000D02*
Y2870000D01*
X120000Y1570000D02*
X585000D01*
X50000Y1640000D02*
X120000Y1570000D01*
X140000Y1650000D02*
X585000D01*
X550000Y2870000D02*
X600000Y2820000D01*
Y2680000D02*
Y2820000D01*
Y2680000D02*
X630000Y2650000D01*
X750000D01*
X470000Y2250000D02*
X500000Y2280000D01*
Y2350000D01*
X440000Y2492500D02*
X492500D01*
X420000Y2472500D02*
X440000Y2492500D01*
X420000Y2430000D02*
Y2472500D01*
X380000Y2390000D02*
X420000Y2430000D01*
X380000Y2350000D02*
Y2390000D01*
X580000Y2260000D02*
X870000D01*
X430000Y1770000D02*
Y2110000D01*
X580000Y2260000D01*
X300000Y2770000D02*
X300000Y2770000D01*
Y2652500D02*
Y2770000D01*
X300000Y2770000D02*
X470000D01*
X520000Y2720000D01*
X550000Y2600000D02*
X750000D01*
X520000Y2630000D02*
X550000Y2600000D01*
X520000Y2630000D02*
Y2720000D01*
X550000Y2550000D02*
X750000D01*
X492500Y2492500D02*
X550000Y2550000D01*
X600000Y2350000D02*
Y2480000D01*
X600000Y2350000D02*
X600000Y2350000D01*
Y2480000D02*
X620000Y2500000D01*
X750000D01*
X700000Y2350000D02*
X850000D01*
Y2350000D02*
Y2350000D01*
X1361882Y2575000D02*
X1370000D01*
X1250000Y2600000D02*
X1336882D01*
X1361882Y2575000D01*
X1250000Y2550000D02*
X1336882D01*
X1361882Y2575000D01*
X470000Y1730000D02*
X585000D01*
X430000Y1770000D02*
X470000Y1730000D01*
X900000Y2290000D02*
Y2350000D01*
X870000Y2260000D02*
X900000Y2290000D01*
X1050000Y2230000D02*
Y2350000D01*
X585000Y1810000D02*
Y2165000D01*
X620000Y2200000D01*
X1020000D01*
X1050000Y2230000D01*
X890000Y1955000D02*
Y2090000D01*
X950000Y2150000D01*
X970000Y1955000D02*
Y2060000D01*
X1000000Y2090000D01*
X890000Y1410000D02*
X1210000Y1730000D01*
X730000Y1250000D02*
X890000Y1410000D01*
X585000D02*
X890000D01*
X1210000Y1730000D02*
X1290000Y1810000D01*
X1210000Y1730000D02*
X1435000D01*
X1290000Y1810000D02*
X1435000D01*
X585000Y1250000D02*
X730000D01*
X325000Y560000D02*
X440000D01*
X480000Y600000D02*
Y840000D01*
X440000Y560000D02*
X480000Y600000D01*
X390000Y930000D02*
X480000Y840000D01*
X390000Y930000D02*
Y1130000D01*
X450000Y1010000D02*
X520000Y940000D01*
X450000Y1010000D02*
Y1330000D01*
X360000Y1160000D02*
X390000Y1130000D01*
X205000Y1160000D02*
X360000D01*
X480000Y840000D02*
X730000D01*
X520000Y940000D02*
X730000D01*
X450000Y1330000D02*
X585000D01*
X410000D02*
X450000D01*
X105000Y1280000D02*
Y1380000D01*
X360000D01*
X410000Y1330000D01*
X205000Y1160000D02*
Y1280000D01*
X1050000Y1000000D02*
Y1105000D01*
X900000Y850000D02*
X1050000Y1000000D01*
X730000Y940000D02*
Y1105000D01*
X1170000Y650000D02*
X1220000Y700000D01*
X1100000Y650000D02*
X1170000D01*
X900000Y460000D02*
Y650000D01*
X105000Y1160000D02*
Y1280000D01*
Y1010000D02*
Y1160000D01*
X640000Y460000D02*
Y710000D01*
X680000Y750000D01*
X1100000D01*
X215000Y460000D02*
X215000Y460000D01*
X105000Y460000D02*
X215000D01*
X105000D02*
Y750000D01*
X1100000Y460000D02*
Y650000D01*
X1350000Y320000D02*
Y460000D01*
X1255000Y225000D02*
X1350000Y320000D01*
X1225000Y225000D02*
X1255000D01*
X775000D02*
X1225000D01*
X200000Y650000D02*
Y750000D01*
X215000Y560000D02*
Y635000D01*
X200000Y650000D02*
X215000Y635000D01*
Y560000D02*
X325000D01*
X295000Y750000D02*
Y845000D01*
X270000Y870000D02*
X295000Y845000D01*
X130000Y870000D02*
X270000D01*
X105000Y845000D02*
X130000Y870000D01*
X105000Y750000D02*
Y845000D01*
X215000Y460000D02*
X325000D01*
X640000D01*
D22*
X200000Y220000D02*
D03*
X1800000D02*
D03*
D23*
X1571500Y4772000D02*
D03*
X428500D02*
D03*
D24*
X210000Y4467000D02*
D03*
X1790000D02*
D03*
D25*
X1444500Y4137000D02*
D03*
X1317500Y3883000D02*
D03*
X1190500Y4137000D02*
D03*
X1063500Y3883000D02*
D03*
X936500Y4137000D02*
D03*
X809500Y3883000D02*
D03*
X682500Y4137000D02*
D03*
X555500Y3883000D02*
D03*
D26*
X453500Y3400000D02*
D03*
X707500D02*
D03*
X1292500D02*
D03*
X1546500D02*
D03*
D27*
X1000000Y2600000D02*
D03*
D28*
X1080000Y2520000D02*
D03*
Y2680000D02*
D03*
X920000D02*
D03*
Y2520000D02*
D03*
D29*
X1620000Y960000D02*
D03*
Y740000D02*
D03*
X1820000Y1070000D02*
D03*
Y850000D02*
D03*
Y630000D02*
D03*
D30*
X775000Y225000D02*
D03*
X1225000D02*
D03*
D31*
X250000Y1480000D02*
D03*
X320000Y1280000D02*
D03*
X1660000Y3010000D02*
D03*
X360000Y1380000D02*
D03*
X1610000Y2320000D02*
D03*
X870000Y970000D02*
D03*
X980000Y1700000D02*
D03*
X200000Y2250000D02*
D03*
X690000Y2100000D02*
D03*
X1230000Y2260000D02*
D03*
X1310000Y2870000D02*
D03*
X1370000Y2740000D02*
D03*
X810000Y2110000D02*
D03*
Y3250000D02*
D03*
X1000000Y3380000D02*
D03*
X1340000Y3130000D02*
D03*
X1190000Y3570000D02*
D03*
X850000Y2960000D02*
D03*
X480000Y840000D02*
D03*
X700000Y2350000D02*
D03*
X1370000Y2575000D02*
D03*
X900000Y850000D02*
D03*
Y650000D02*
D03*
%TF.MD5,5272655f76934871f00ab23b2e8dc853*%
M02*
