%TF.GenerationSoftware,Altium Limited,Altium Designer,23.1.1 (15)*%
G04 Layer_Physical_Order=1*
G04 Layer_Color=255*
%FSLAX45Y45*%
%MOMM*%
%TF.SameCoordinates,70D3D16F-5039-4D94-BC45-45D6FC6AA8C1*%
%TF.FilePolarity,Positive*%
%TF.FileFunction,Copper,L1,Top,Signal*%
%TF.Part,Single*%
G01*
G75*
%TA.AperFunction,SMDPad,CuDef*%
%ADD10R,0.60000X0.70000*%
%ADD11R,0.50000X1.00000*%
%ADD12R,1.00000X0.50000*%
%ADD13R,1.20000X0.50000*%
%ADD14R,0.50000X1.20000*%
%ADD15R,2.40000X2.40000*%
%ADD16R,0.20000X0.70000*%
%ADD17R,0.70000X0.20000*%
%ADD18R,0.90000X0.95000*%
%ADD19C,0.50000*%
%ADD20R,1.30000X1.70000*%
%ADD21R,0.70000X0.60000*%
%ADD22R,0.60000X1.10000*%
%TA.AperFunction,Conductor*%
%ADD23C,0.30000*%
%ADD24C,0.20000*%
%TA.AperFunction,ComponentPad*%
%ADD25C,1.60000*%
%ADD26C,0.60000*%
%ADD27C,1.30000*%
%ADD28C,2.30000*%
%ADD29C,1.52000*%
%ADD30C,1.42000*%
%ADD31C,2.10000*%
%ADD32C,3.25000*%
%TA.AperFunction,ViaPad*%
%ADD33C,0.60000*%
G36*
X2000000Y0D02*
X0D01*
Y5800000D01*
X2000000D01*
Y0D01*
D02*
G37*
%LPC*%
G36*
X1588490Y4944500D02*
X1554510D01*
X1521184Y4937871D01*
X1489791Y4924868D01*
X1461538Y4905990D01*
X1437510Y4881963D01*
X1418632Y4853710D01*
X1405629Y4822316D01*
X1399000Y4788990D01*
Y4755010D01*
X1405629Y4721684D01*
X1418632Y4690291D01*
X1437510Y4662038D01*
X1461538Y4638011D01*
X1489791Y4619132D01*
X1521184Y4606129D01*
X1554510Y4599500D01*
X1588490D01*
X1621816Y4606129D01*
X1653210Y4619132D01*
X1681462Y4638011D01*
X1705490Y4662038D01*
X1724368Y4690291D01*
X1737371Y4721684D01*
X1744000Y4755010D01*
Y4788990D01*
X1737371Y4822316D01*
X1724368Y4853710D01*
X1705490Y4881963D01*
X1681462Y4905990D01*
X1653210Y4924868D01*
X1621816Y4937871D01*
X1588490Y4944500D01*
D02*
G37*
G36*
X445490D02*
X411510D01*
X378184Y4937871D01*
X346791Y4924868D01*
X318538Y4905990D01*
X294510Y4881963D01*
X275632Y4853710D01*
X262629Y4822316D01*
X256000Y4788990D01*
Y4755010D01*
X262629Y4721684D01*
X275632Y4690291D01*
X294510Y4662038D01*
X318538Y4638011D01*
X346791Y4619132D01*
X378184Y4606129D01*
X411510Y4599500D01*
X445490D01*
X478816Y4606129D01*
X510210Y4619132D01*
X538462Y4638011D01*
X562490Y4662038D01*
X581368Y4690291D01*
X594371Y4721684D01*
X601000Y4755010D01*
Y4788990D01*
X594371Y4822316D01*
X581368Y4853710D01*
X562490Y4881963D01*
X538462Y4905990D01*
X510210Y4924868D01*
X478816Y4937871D01*
X445490Y4944500D01*
D02*
G37*
G36*
X947164Y4218000D02*
X925836D01*
X905235Y4212480D01*
X886765Y4201816D01*
X871684Y4186735D01*
X861020Y4168265D01*
X855500Y4147664D01*
Y4126336D01*
X861020Y4105735D01*
X871684Y4087265D01*
X886765Y4072184D01*
X905235Y4061520D01*
X925836Y4056000D01*
X947164D01*
X967765Y4061520D01*
X986235Y4072184D01*
X1001316Y4087265D01*
X1011980Y4105735D01*
X1017500Y4126336D01*
Y4147664D01*
X1011980Y4168265D01*
X1001316Y4186735D01*
X986235Y4201816D01*
X967765Y4212480D01*
X947164Y4218000D01*
D02*
G37*
G36*
X1328164Y3964000D02*
X1306836D01*
X1286235Y3958480D01*
X1267765Y3947816D01*
X1252684Y3932735D01*
X1242020Y3914265D01*
X1236500Y3893664D01*
Y3872336D01*
X1242020Y3851735D01*
X1252684Y3833265D01*
X1267765Y3818184D01*
X1286235Y3807520D01*
X1306836Y3802000D01*
X1328164D01*
X1348765Y3807520D01*
X1367235Y3818184D01*
X1382316Y3833265D01*
X1392980Y3851735D01*
X1398500Y3872336D01*
Y3893664D01*
X1392980Y3914265D01*
X1382316Y3932735D01*
X1367235Y3947816D01*
X1348765Y3958480D01*
X1328164Y3964000D01*
D02*
G37*
G36*
X693164Y4218000D02*
X671836D01*
X651235Y4212480D01*
X632765Y4201816D01*
X617684Y4186735D01*
X607020Y4168265D01*
X601500Y4147664D01*
Y4126336D01*
X607020Y4105735D01*
X617684Y4087265D01*
X632765Y4072184D01*
X651235Y4061520D01*
X671836Y4056000D01*
X693164D01*
X713765Y4061520D01*
X718943Y4064510D01*
X791476Y3991976D01*
X799745Y3986451D01*
X809500Y3984510D01*
X925942D01*
X991010Y3919443D01*
X988020Y3914265D01*
X982500Y3893664D01*
Y3872336D01*
X988020Y3851735D01*
X998684Y3833265D01*
X1013765Y3818184D01*
X1032235Y3807520D01*
X1052836Y3802000D01*
X1074164D01*
X1094765Y3807520D01*
X1113235Y3818184D01*
X1128316Y3833265D01*
X1138980Y3851735D01*
X1144500Y3872336D01*
Y3893664D01*
X1138980Y3914265D01*
X1128316Y3932735D01*
X1113235Y3947816D01*
X1094765Y3958480D01*
X1074164Y3964000D01*
X1052836D01*
X1032235Y3958480D01*
X1027057Y3955490D01*
X954524Y4028024D01*
X946255Y4033549D01*
X936500Y4035490D01*
X820058D01*
X754990Y4100557D01*
X757980Y4105735D01*
X763500Y4126336D01*
Y4147664D01*
X757980Y4168265D01*
X747316Y4186735D01*
X732235Y4201816D01*
X713765Y4212480D01*
X693164Y4218000D01*
D02*
G37*
G36*
X566164Y3964000D02*
X544836D01*
X524235Y3958480D01*
X505765Y3947816D01*
X490684Y3932735D01*
X480020Y3914265D01*
X474500Y3893664D01*
Y3872336D01*
X480020Y3851735D01*
X490684Y3833265D01*
X505765Y3818184D01*
X524235Y3807520D01*
X544836Y3802000D01*
X566164D01*
X586765Y3807520D01*
X605235Y3818184D01*
X620316Y3833265D01*
X630980Y3851735D01*
X636500Y3872336D01*
Y3893664D01*
X630980Y3914265D01*
X620316Y3932735D01*
X605235Y3947816D01*
X586765Y3958480D01*
X566164Y3964000D01*
D02*
G37*
G36*
X1201164Y4218000D02*
X1179836D01*
X1159235Y4212480D01*
X1140765Y4201816D01*
X1125684Y4186735D01*
X1115020Y4168265D01*
X1109500Y4147664D01*
Y4126336D01*
X1115020Y4105735D01*
X1125684Y4087265D01*
X1140765Y4072184D01*
X1159235Y4061520D01*
X1169608Y4058741D01*
Y3728446D01*
X1065581Y3624419D01*
X1061160Y3617804D01*
X1059608Y3610000D01*
Y3367191D01*
X1048444Y3362567D01*
X1039697Y3371313D01*
X1040000Y3372044D01*
Y3387957D01*
X1033910Y3402658D01*
X1022658Y3413910D01*
X1007957Y3420000D01*
X992043D01*
X977342Y3413910D01*
X966090Y3402658D01*
X960000Y3387957D01*
Y3372044D01*
X966090Y3357342D01*
X977342Y3346090D01*
X992043Y3340000D01*
X1007957D01*
X1010223Y3340939D01*
X1019608Y3331554D01*
Y3167191D01*
X1006908Y3161930D01*
X930392Y3238447D01*
Y3780000D01*
X928840Y3787804D01*
X924419Y3794419D01*
X924419Y3794420D01*
X878437Y3840402D01*
X884980Y3851735D01*
X890500Y3872336D01*
Y3893664D01*
X884980Y3914265D01*
X874316Y3932735D01*
X859235Y3947816D01*
X840765Y3958480D01*
X820164Y3964000D01*
X798836D01*
X778235Y3958480D01*
X759765Y3947816D01*
X744684Y3932735D01*
X734020Y3914265D01*
X728500Y3893664D01*
Y3872336D01*
X734020Y3851735D01*
X744684Y3833265D01*
X759765Y3818184D01*
X778235Y3807520D01*
X798836Y3802000D01*
X820164D01*
X840765Y3807520D01*
X848928Y3812233D01*
X889608Y3771554D01*
Y3230000D01*
X891160Y3222196D01*
X895581Y3215581D01*
X979608Y3131553D01*
Y2853980D01*
X970628Y2845000D01*
X940000Y2845000D01*
X927300Y2845000D01*
X900392D01*
Y2921881D01*
X900392Y2921882D01*
X898840Y2929686D01*
X894419Y2936301D01*
X894419Y2936302D01*
X886684Y2944037D01*
X890000Y2952043D01*
Y2967956D01*
X883910Y2982658D01*
X872658Y2993910D01*
X857957Y3000000D01*
X842044D01*
X827342Y2993910D01*
X816090Y2982658D01*
X810000Y2967956D01*
Y2952043D01*
X816090Y2937342D01*
X827342Y2926090D01*
X842044Y2920000D01*
X853044D01*
X859608Y2913436D01*
Y2800000D01*
X860000Y2798030D01*
Y2755000D01*
X927300D01*
X940000Y2755000D01*
X952700Y2755000D01*
X1047300D01*
X1059999Y2755000D01*
Y2755000D01*
X1060001D01*
Y2755000D01*
X1140000D01*
Y2798030D01*
X1140392Y2800000D01*
Y3491553D01*
X1179777Y3530939D01*
X1182043Y3530000D01*
X1197956D01*
X1212658Y3536090D01*
X1223910Y3547342D01*
X1230000Y3562043D01*
Y3577957D01*
X1223910Y3592658D01*
X1212658Y3603910D01*
X1197956Y3610000D01*
X1182043D01*
X1167342Y3603910D01*
X1156090Y3592658D01*
X1150000Y3577957D01*
Y3562043D01*
X1150939Y3559777D01*
X1113092Y3521931D01*
X1100392Y3527191D01*
Y3601553D01*
X1204418Y3705580D01*
X1204419Y3705581D01*
X1208840Y3712196D01*
X1210392Y3720000D01*
Y4058473D01*
X1221765Y4061520D01*
X1240235Y4072184D01*
X1255316Y4087265D01*
X1265980Y4105735D01*
X1271500Y4126336D01*
Y4147664D01*
X1265980Y4168265D01*
X1255316Y4186735D01*
X1240235Y4201816D01*
X1221765Y4212480D01*
X1201164Y4218000D01*
D02*
G37*
G36*
X1303822Y3486000D02*
X1281178D01*
X1259305Y3480139D01*
X1239695Y3468817D01*
X1223683Y3452805D01*
X1212361Y3433195D01*
X1206500Y3411322D01*
Y3388678D01*
X1212361Y3366805D01*
X1223683Y3347195D01*
X1239695Y3331183D01*
X1259305Y3319861D01*
X1281178Y3314000D01*
X1303822D01*
X1325695Y3319861D01*
X1345305Y3331183D01*
X1361317Y3347195D01*
X1372639Y3366805D01*
X1378500Y3388678D01*
Y3411322D01*
X1372639Y3433195D01*
X1361317Y3452805D01*
X1345305Y3468817D01*
X1325695Y3480139D01*
X1303822Y3486000D01*
D02*
G37*
G36*
X817956Y3290000D02*
X802043D01*
X787342Y3283910D01*
X776090Y3272658D01*
X770000Y3257957D01*
Y3242044D01*
X776090Y3227342D01*
X784510Y3218921D01*
Y3195000D01*
X770000D01*
Y3105000D01*
X850000D01*
Y3195000D01*
X835490D01*
Y3218921D01*
X843910Y3227342D01*
X850000Y3242044D01*
Y3257957D01*
X843910Y3272658D01*
X832658Y3283910D01*
X817956Y3290000D01*
D02*
G37*
G36*
X718822Y3486000D02*
X696178D01*
X674305Y3480139D01*
X654695Y3468817D01*
X638683Y3452805D01*
X627361Y3433195D01*
X621500Y3411322D01*
Y3388678D01*
X627361Y3366805D01*
X638683Y3347195D01*
X654695Y3331183D01*
X674305Y3319861D01*
X683261Y3317461D01*
Y3195000D01*
X670000D01*
Y3105000D01*
X750000D01*
Y3195000D01*
X734240D01*
Y3318131D01*
X740695Y3319861D01*
X760305Y3331183D01*
X776317Y3347195D01*
X787639Y3366805D01*
X793500Y3388678D01*
Y3411322D01*
X787639Y3433195D01*
X776317Y3452805D01*
X760305Y3468817D01*
X740695Y3480139D01*
X718822Y3486000D01*
D02*
G37*
G36*
X1557822D02*
X1535178D01*
X1513305Y3480139D01*
X1493695Y3468817D01*
X1477683Y3452805D01*
X1466361Y3433195D01*
X1460500Y3411322D01*
Y3388678D01*
X1466361Y3366805D01*
X1477683Y3347195D01*
X1493695Y3331183D01*
X1513305Y3319861D01*
X1520260Y3317997D01*
Y3175000D01*
X1505000D01*
Y3085000D01*
X1585000D01*
Y3175000D01*
X1571240D01*
Y3317595D01*
X1579695Y3319861D01*
X1599305Y3331183D01*
X1615317Y3347195D01*
X1626639Y3366805D01*
X1632500Y3388678D01*
Y3411322D01*
X1626639Y3433195D01*
X1615317Y3452805D01*
X1599305Y3468817D01*
X1579695Y3480139D01*
X1557822Y3486000D01*
D02*
G37*
G36*
X464822D02*
X442178D01*
X420305Y3480139D01*
X400695Y3468817D01*
X384683Y3452805D01*
X373361Y3433195D01*
X367500Y3411322D01*
Y3388678D01*
X373361Y3366805D01*
X384683Y3347195D01*
X400695Y3331183D01*
X420305Y3319861D01*
X433108Y3316431D01*
Y3176500D01*
X434660Y3168697D01*
X439081Y3162081D01*
X686052Y2915110D01*
X685277Y2908732D01*
X671923Y2904125D01*
X628024Y2948024D01*
X619755Y2953549D01*
X610000Y2955490D01*
X110000D01*
X100245Y2953549D01*
X91976Y2948024D01*
X31976Y2888024D01*
X26451Y2879754D01*
X24510Y2870000D01*
Y1640000D01*
X26451Y1630245D01*
X31976Y1621976D01*
X50000Y1603952D01*
Y1598038D01*
X55328Y1585174D01*
X65174Y1575329D01*
X78038Y1570000D01*
X83952D01*
X101976Y1551976D01*
X110245Y1546451D01*
X120000Y1544510D01*
X506020D01*
X515000Y1535530D01*
Y1525000D01*
X515000Y1522300D01*
Y1455000D01*
X655000D01*
Y1522300D01*
X655000Y1525000D01*
Y1535000D01*
X655000Y1537701D01*
Y1605000D01*
X655000D01*
Y1615001D01*
X655000D01*
Y1685000D01*
X655000D01*
Y1695001D01*
X655000D01*
Y1765000D01*
X655000D01*
Y1775001D01*
X655000D01*
Y1845000D01*
X610490D01*
Y2154442D01*
X630558Y2174510D01*
X875992D01*
X880174Y2170328D01*
X893038Y2165000D01*
X906962D01*
X913841Y2167849D01*
X921034Y2157083D01*
X871976Y2108024D01*
X866451Y2099755D01*
X864510Y2090000D01*
Y2033980D01*
X857019Y2026490D01*
X843482Y2026577D01*
X835490Y2034879D01*
Y2078921D01*
X843910Y2087342D01*
X850000Y2102044D01*
Y2117957D01*
X843910Y2132658D01*
X832658Y2143910D01*
X817956Y2150000D01*
X802043D01*
X787342Y2143910D01*
X776090Y2132658D01*
X770000Y2117957D01*
Y2102044D01*
X776090Y2087342D01*
X784510Y2078921D01*
Y2033980D01*
X777019Y2026490D01*
X763483Y2026577D01*
X755490Y2034879D01*
Y2060000D01*
X753549Y2069755D01*
X748024Y2078024D01*
X730000Y2096048D01*
Y2107957D01*
X723910Y2122658D01*
X712658Y2133910D01*
X697956Y2140000D01*
X682043D01*
X667342Y2133910D01*
X656090Y2122658D01*
X650000Y2107957D01*
Y2092044D01*
X656090Y2077342D01*
X667342Y2066090D01*
X682043Y2060000D01*
X693952D01*
X704510Y2049442D01*
Y2025000D01*
X695000D01*
Y1885000D01*
X762300D01*
X765000Y1885000D01*
X775000D01*
X777700Y1885000D01*
X842300D01*
X845000Y1885000D01*
X855000D01*
X857700Y1885000D01*
X924999D01*
Y1885000D01*
X935001D01*
Y1885000D01*
X1002300D01*
X1005000Y1885000D01*
X1015000D01*
X1024510Y1875121D01*
Y1850558D01*
X999442Y1825490D01*
X901079D01*
X892658Y1833910D01*
X877957Y1840000D01*
X862043D01*
X847342Y1833910D01*
X836090Y1822658D01*
X830000Y1807957D01*
Y1792043D01*
X836090Y1777342D01*
X847342Y1766090D01*
X862043Y1760000D01*
X877957D01*
X892658Y1766090D01*
X901079Y1774510D01*
X1010000D01*
X1019755Y1776451D01*
X1028024Y1781976D01*
X1068024Y1821976D01*
X1073549Y1830246D01*
X1075490Y1840000D01*
Y1876020D01*
X1084470Y1885000D01*
X1095000D01*
X1097700Y1885000D01*
X1162300D01*
X1165000Y1885000D01*
X1175000D01*
X1177700Y1885000D01*
X1242300D01*
X1245000Y1885000D01*
X1255000D01*
X1257700Y1885000D01*
X1325000D01*
Y2025000D01*
X1315490D01*
Y2085000D01*
X1330000D01*
Y2175000D01*
X1315490D01*
Y2199442D01*
X1330558Y2214510D01*
X1530000D01*
X1539755Y2216451D01*
X1548024Y2221976D01*
X1606048Y2280000D01*
X1617957D01*
X1632658Y2286090D01*
X1643910Y2297342D01*
X1650000Y2312044D01*
Y2327957D01*
X1643910Y2342658D01*
X1635490Y2351079D01*
Y2650000D01*
X1633549Y2659754D01*
X1628024Y2668024D01*
X1593024Y2703024D01*
X1584755Y2708549D01*
X1575000Y2710490D01*
X1550000D01*
Y2720000D01*
X1515490D01*
Y2790000D01*
X1513549Y2799754D01*
X1508024Y2808024D01*
X1470490Y2845558D01*
Y2965000D01*
X1485000D01*
Y3055000D01*
X1470490D01*
Y3085000D01*
X1485000D01*
Y3175000D01*
X1405000D01*
Y3155490D01*
X1371079D01*
X1362658Y3163910D01*
X1347957Y3170000D01*
X1332044D01*
X1317342Y3163910D01*
X1306090Y3152658D01*
X1300000Y3137957D01*
Y3122044D01*
X1306090Y3107342D01*
X1317342Y3096090D01*
X1332044Y3090000D01*
X1347957D01*
X1362658Y3096090D01*
X1371079Y3104510D01*
X1405000D01*
Y3085000D01*
X1419510D01*
Y3055000D01*
X1405000D01*
Y2965000D01*
X1419510D01*
Y2835000D01*
X1421451Y2825245D01*
X1426976Y2816976D01*
X1464510Y2779442D01*
Y2720000D01*
X1430000D01*
Y2705392D01*
X1409921D01*
X1403910Y2717342D01*
X1410000Y2732044D01*
Y2747957D01*
X1403910Y2762658D01*
X1392658Y2773910D01*
X1377957Y2780000D01*
X1362044D01*
X1347342Y2773910D01*
X1343092Y2769660D01*
X1330392Y2774921D01*
Y2835151D01*
X1332658Y2836090D01*
X1343910Y2847342D01*
X1350000Y2862044D01*
Y2877957D01*
X1343910Y2892658D01*
X1332658Y2903910D01*
X1317956Y2910000D01*
X1302043D01*
X1287342Y2903910D01*
X1276090Y2892658D01*
X1270000Y2877957D01*
Y2862044D01*
X1276090Y2847342D01*
X1287342Y2836090D01*
X1289608Y2835151D01*
Y2758447D01*
X1271553Y2740392D01*
X1200000D01*
X1198030Y2740000D01*
X1155000D01*
Y2672700D01*
X1155000Y2660001D01*
X1155000D01*
Y2659999D01*
X1155000D01*
Y2552700D01*
X1155000Y2540001D01*
X1155000D01*
Y2539999D01*
X1155000D01*
Y2460000D01*
X1245000D01*
Y2539608D01*
X1300000D01*
X1307804Y2541160D01*
X1314419Y2545581D01*
X1323418Y2554579D01*
X1335649Y2553406D01*
X1336090Y2552342D01*
X1344510Y2543921D01*
Y2490000D01*
X1346451Y2480245D01*
X1351976Y2471976D01*
X1364510Y2459442D01*
Y2445000D01*
X1350000D01*
Y2355000D01*
X1430000D01*
Y2445000D01*
X1415490D01*
Y2470000D01*
X1413549Y2479755D01*
X1408024Y2488024D01*
X1395490Y2500558D01*
Y2543921D01*
X1403910Y2552342D01*
X1410000Y2567043D01*
Y2582956D01*
X1403910Y2597658D01*
X1392658Y2608910D01*
X1380109Y2614108D01*
X1377522Y2619325D01*
X1377438Y2619642D01*
X1376539Y2627700D01*
X1413446Y2664608D01*
X1430000D01*
Y2650000D01*
X1550000D01*
Y2659510D01*
X1564442D01*
X1584510Y2639442D01*
Y2351079D01*
X1576090Y2342658D01*
X1570000Y2327957D01*
Y2316048D01*
X1519442Y2265490D01*
X1320000D01*
X1310245Y2263549D01*
X1301976Y2258024D01*
X1271976Y2228024D01*
X1266451Y2219755D01*
X1264510Y2210000D01*
Y2175000D01*
X1250000D01*
Y2085000D01*
X1264510D01*
Y2033980D01*
X1255530Y2025000D01*
X1245000D01*
X1242300Y2025000D01*
X1177700D01*
X1175000Y2025000D01*
X1165000D01*
X1162300Y2025000D01*
X1097700D01*
X1095000Y2025000D01*
X1085000D01*
X1082300Y2025000D01*
X1017700D01*
X1015000Y2025000D01*
X1005000D01*
X995490Y2034879D01*
Y2049442D01*
X1010558Y2064510D01*
X1125992D01*
X1130174Y2060328D01*
X1143038Y2055000D01*
X1156962D01*
X1169826Y2060328D01*
X1179672Y2070174D01*
X1185000Y2083038D01*
Y2096962D01*
X1179672Y2109826D01*
X1170392Y2119105D01*
Y2239999D01*
X1170392Y2240000D01*
X1168840Y2247804D01*
X1164419Y2254419D01*
X1164419Y2254420D01*
X1140392Y2278447D01*
Y2400000D01*
X1140000Y2401970D01*
Y2445000D01*
X1072700D01*
X1060001Y2445000D01*
Y2445000D01*
X1059999D01*
Y2445000D01*
X940000D01*
Y2445000D01*
X927300Y2445000D01*
X860000D01*
Y2401970D01*
X859608Y2400000D01*
Y2368447D01*
X851553Y2360392D01*
X804849D01*
X803910Y2362658D01*
X792658Y2373910D01*
X777957Y2380000D01*
X762043D01*
X747342Y2373910D01*
X736090Y2362658D01*
X730000Y2347956D01*
Y2332043D01*
X736090Y2317342D01*
X747342Y2306090D01*
X754579Y2303092D01*
X752053Y2290392D01*
X690000D01*
Y2410000D01*
X675392D01*
Y2466553D01*
X708447Y2499608D01*
X755000D01*
Y2460000D01*
X845000D01*
Y2527300D01*
X845000Y2539999D01*
X845000D01*
Y2540001D01*
X845000D01*
Y2647300D01*
X845000Y2659999D01*
X845000D01*
Y2660001D01*
X845000D01*
Y2740000D01*
X801970D01*
X800000Y2740392D01*
X748447D01*
X730392Y2758446D01*
Y2920000D01*
X728840Y2927804D01*
X724420Y2934419D01*
X473892Y3184947D01*
Y3316431D01*
X486695Y3319861D01*
X506305Y3331183D01*
X522317Y3347195D01*
X533639Y3366805D01*
X539500Y3388678D01*
Y3411322D01*
X533639Y3433195D01*
X522317Y3452805D01*
X506305Y3468817D01*
X486695Y3480139D01*
X464822Y3486000D01*
D02*
G37*
G36*
X367957Y1420000D02*
X352043D01*
X337342Y1413910D01*
X328921Y1405490D01*
X129008D01*
X124826Y1409672D01*
X111962Y1415000D01*
X98038D01*
X85174Y1409672D01*
X75329Y1399826D01*
X70000Y1386962D01*
Y1373038D01*
X75329Y1360174D01*
X79510Y1355992D01*
Y1325000D01*
X65000D01*
Y1235000D01*
X79510D01*
Y1220000D01*
X70000D01*
Y1100000D01*
X79510D01*
Y1075000D01*
X65000D01*
Y945000D01*
X145000D01*
Y1075000D01*
X130490D01*
Y1100000D01*
X140000D01*
Y1220000D01*
X130490D01*
Y1235000D01*
X145000D01*
Y1325000D01*
X130490D01*
Y1354510D01*
X328921D01*
X337342Y1346090D01*
X352043Y1340000D01*
X363952D01*
X391976Y1311976D01*
X400245Y1306451D01*
X410000Y1304510D01*
X424510D01*
Y1010000D01*
X426451Y1000246D01*
X431976Y991976D01*
X501977Y921976D01*
X510246Y916451D01*
X520000Y914510D01*
X685000D01*
Y900000D01*
X775000D01*
Y980000D01*
X755490D01*
Y1026020D01*
X764470Y1035000D01*
X775000D01*
X777700Y1035000D01*
X842300D01*
X845000Y1035000D01*
X855000D01*
X857700Y1035000D01*
X922300D01*
X925000Y1035000D01*
X935000D01*
X937700Y1035000D01*
X1002300D01*
X1005000Y1035000D01*
X1015000D01*
X1024510Y1025121D01*
Y1010558D01*
X903952Y890000D01*
X892043D01*
X877342Y883910D01*
X866090Y872658D01*
X860000Y857957D01*
Y842044D01*
X866090Y827342D01*
X877342Y816090D01*
X892043Y810000D01*
X907957D01*
X922658Y816090D01*
X933910Y827342D01*
X940000Y842044D01*
Y853952D01*
X1068024Y981976D01*
X1073549Y990245D01*
X1075490Y1000000D01*
Y1026020D01*
X1082981Y1033511D01*
X1096517Y1033424D01*
X1104510Y1025122D01*
Y920000D01*
X1106451Y910245D01*
X1111976Y901976D01*
X1194510Y819442D01*
Y710558D01*
X1159442Y675490D01*
X1145000D01*
Y690000D01*
X1055000D01*
Y610000D01*
X1074510D01*
Y555000D01*
X1025000D01*
Y365000D01*
X1175000D01*
Y555000D01*
X1125490D01*
Y610000D01*
X1145000D01*
Y624511D01*
X1170000D01*
X1179755Y626451D01*
X1188024Y631976D01*
X1238024Y681976D01*
X1243549Y690246D01*
X1245490Y700000D01*
Y830000D01*
X1243549Y839754D01*
X1238024Y848024D01*
X1155490Y930558D01*
Y1026020D01*
X1162981Y1033511D01*
X1176518Y1033424D01*
X1184510Y1025122D01*
Y940000D01*
X1186451Y930245D01*
X1191976Y921976D01*
X1231976Y881976D01*
X1240246Y876451D01*
X1250000Y874510D01*
X1258921D01*
X1267342Y866090D01*
X1282043Y860000D01*
X1297957D01*
X1312658Y866090D01*
X1323910Y877342D01*
X1330000Y892043D01*
Y907957D01*
X1323910Y922658D01*
X1312658Y933910D01*
X1297957Y940000D01*
X1282043D01*
X1267342Y933910D01*
X1259740Y926308D01*
X1235490Y950558D01*
Y1026020D01*
X1244470Y1035000D01*
X1255000D01*
X1257700Y1035000D01*
X1325000D01*
Y1079511D01*
X1354442D01*
X1374510Y1059442D01*
Y821079D01*
X1366090Y812658D01*
X1360000Y797956D01*
Y782043D01*
X1366090Y767342D01*
X1377342Y756090D01*
X1392043Y750000D01*
X1407957D01*
X1422658Y756090D01*
X1433910Y767342D01*
X1440000Y782043D01*
Y797956D01*
X1433910Y812658D01*
X1425490Y821079D01*
Y1070000D01*
X1423549Y1079754D01*
X1418024Y1088024D01*
X1383023Y1123024D01*
X1374754Y1128550D01*
X1365000Y1130490D01*
X1325000D01*
Y1175000D01*
X1257700D01*
X1255000Y1175000D01*
X1245000D01*
X1242300Y1175000D01*
X1177700D01*
X1175000Y1175000D01*
X1165000D01*
X1162300Y1175000D01*
X1097700D01*
X1095000Y1175000D01*
X1085000D01*
X1082300Y1175000D01*
X1017700D01*
X1015000Y1175000D01*
X1005000D01*
X1002300Y1175000D01*
X937700D01*
X935000Y1175000D01*
X925000D01*
X922300Y1175000D01*
X857700D01*
X855000Y1175000D01*
X845000D01*
X842300Y1175000D01*
X777700D01*
X775000Y1175000D01*
X765000D01*
X762300Y1175000D01*
X695000D01*
Y1035000D01*
X704510D01*
Y980000D01*
X685000D01*
Y965490D01*
X530559D01*
X475490Y1020558D01*
Y1304510D01*
X515000D01*
Y1295000D01*
X655000D01*
Y1365000D01*
X515000D01*
Y1355490D01*
X420558D01*
X400000Y1376048D01*
Y1387957D01*
X393910Y1402658D01*
X382658Y1413910D01*
X367957Y1420000D01*
D02*
G37*
G36*
X1505000Y1685000D02*
X1365000D01*
Y1617700D01*
X1365000Y1615000D01*
Y1605000D01*
X1365000Y1602300D01*
Y1537701D01*
X1365000Y1535000D01*
Y1525000D01*
X1365000Y1522300D01*
Y1457700D01*
X1365000Y1455000D01*
Y1445000D01*
X1365000Y1442300D01*
Y1377700D01*
X1365000Y1375000D01*
Y1365000D01*
X1365000Y1362300D01*
Y1297700D01*
X1365000Y1295000D01*
Y1285000D01*
X1365000Y1282300D01*
Y1215000D01*
X1505000D01*
Y1282300D01*
X1505000Y1285000D01*
Y1295000D01*
X1505000Y1297700D01*
Y1362300D01*
X1505000Y1365000D01*
Y1375000D01*
X1505000Y1377700D01*
Y1442300D01*
X1505000Y1445000D01*
Y1455000D01*
X1505000Y1457700D01*
Y1522300D01*
X1505000Y1525000D01*
Y1535000D01*
X1505000Y1537701D01*
Y1602300D01*
X1505000Y1605000D01*
Y1615000D01*
X1505000Y1617700D01*
Y1685000D01*
D02*
G37*
G36*
X335000Y1075000D02*
X255000D01*
Y945000D01*
X335000D01*
Y1075000D01*
D02*
G37*
G36*
X270000Y895490D02*
X130000D01*
X120245Y893549D01*
X111976Y888024D01*
X86976Y863024D01*
X81451Y854755D01*
X79510Y845000D01*
Y815000D01*
X65000D01*
Y685000D01*
X79510D01*
Y484008D01*
X75329Y479826D01*
X70000Y466962D01*
Y453038D01*
X75329Y440174D01*
X85174Y430329D01*
X98038Y425000D01*
X111962D01*
X124826Y430329D01*
X129008Y434510D01*
X170000D01*
Y420000D01*
X260000D01*
Y420000D01*
X266742Y422793D01*
X282885Y406650D01*
X291154Y401125D01*
X300000Y399365D01*
Y390000D01*
X317359D01*
X322219Y378267D01*
X232051Y288098D01*
X228949Y289889D01*
X209874Y295000D01*
X190126D01*
X171051Y289889D01*
X153949Y280015D01*
X139985Y266051D01*
X130111Y248949D01*
X125000Y229874D01*
Y210126D01*
X130111Y191051D01*
X139985Y173949D01*
X153949Y159985D01*
X171051Y150111D01*
X190126Y145000D01*
X209874D01*
X228949Y150111D01*
X246051Y159985D01*
X260015Y173949D01*
X269889Y191051D01*
X275000Y210126D01*
Y229874D01*
X269889Y248949D01*
X268098Y252051D01*
X378024Y361976D01*
X383549Y370245D01*
X385490Y380000D01*
Y390000D01*
X420000D01*
Y399510D01*
X495000D01*
X504755Y401451D01*
X513024Y406976D01*
X540558Y434510D01*
X565000D01*
Y365000D01*
X715000D01*
Y555000D01*
X665489D01*
Y699442D01*
X690558Y724510D01*
X1055000D01*
Y710000D01*
X1145000D01*
Y790000D01*
X1055000D01*
Y775490D01*
X680000D01*
X670245Y773549D01*
X661976Y768024D01*
X621976Y728024D01*
X616450Y719754D01*
X614510Y710000D01*
Y555000D01*
X565000D01*
Y485490D01*
X530000D01*
X520246Y483549D01*
X511976Y478024D01*
X484442Y450490D01*
X420000D01*
Y460000D01*
X301631D01*
X283606Y478024D01*
X275337Y483549D01*
X265583Y485490D01*
X260000D01*
Y500000D01*
X170000D01*
Y485490D01*
X130490D01*
Y685000D01*
X145000D01*
Y815000D01*
X130490D01*
Y834442D01*
X140558Y844510D01*
X259442D01*
X269511Y834442D01*
Y815000D01*
X255000D01*
Y685000D01*
X335000D01*
Y815000D01*
X320490D01*
Y845000D01*
X318550Y854754D01*
X313024Y863024D01*
X288024Y888024D01*
X279755Y893549D01*
X270000Y895490D01*
D02*
G37*
G36*
X907957Y690000D02*
X892043D01*
X877342Y683910D01*
X866090Y672658D01*
X860000Y657957D01*
Y642043D01*
X866090Y627342D01*
X874510Y618921D01*
Y555000D01*
X825000D01*
Y365000D01*
X975000D01*
Y555000D01*
X925490D01*
Y618921D01*
X933910Y627342D01*
X940000Y642043D01*
Y657957D01*
X933910Y672658D01*
X922658Y683910D01*
X907957Y690000D01*
D02*
G37*
%LPD*%
G36*
X573604Y2262443D02*
X415581Y2104419D01*
X411160Y2097804D01*
X409608Y2090000D01*
Y1919106D01*
X400328Y1909826D01*
X395000Y1896962D01*
Y1883038D01*
X400328Y1870174D01*
X404510Y1865992D01*
Y1770000D01*
X406451Y1760246D01*
X411976Y1751976D01*
X451976Y1711977D01*
X460245Y1706451D01*
X470000Y1704511D01*
X507299D01*
X515000Y1695000D01*
Y1688190D01*
X507299Y1675490D01*
X150558D01*
X135490Y1690558D01*
Y2274176D01*
X568744D01*
X573604Y2262443D01*
D02*
G37*
D10*
X300000Y2370000D02*
D03*
X200000D02*
D03*
X1445000Y3130000D02*
D03*
X1545000D02*
D03*
X810000Y3150000D02*
D03*
X710000D02*
D03*
X1545000Y3010000D02*
D03*
X1445000D02*
D03*
X1490000Y2400000D02*
D03*
X1390000D02*
D03*
X200000Y2770000D02*
D03*
X300000D02*
D03*
X1390000Y2130000D02*
D03*
X1290000D02*
D03*
X205000Y1280000D02*
D03*
X105000D02*
D03*
D11*
X655000Y2350000D02*
D03*
X485000D02*
D03*
X105000Y1160000D02*
D03*
X275000D02*
D03*
D12*
X1490000Y2685000D02*
D03*
Y2515000D02*
D03*
X360000Y425000D02*
D03*
Y595000D02*
D03*
D13*
X1435000Y1570000D02*
D03*
Y1650000D02*
D03*
Y1730000D02*
D03*
Y1810000D02*
D03*
Y1490000D02*
D03*
Y1410000D02*
D03*
Y1330000D02*
D03*
Y1250000D02*
D03*
X585000Y1490000D02*
D03*
Y1410000D02*
D03*
Y1330000D02*
D03*
Y1250000D02*
D03*
Y1570000D02*
D03*
Y1650000D02*
D03*
Y1730000D02*
D03*
Y1810000D02*
D03*
D14*
X1050000Y1105000D02*
D03*
X1130000D02*
D03*
X1210000D02*
D03*
X1290000D02*
D03*
X970000D02*
D03*
X890000D02*
D03*
X810000D02*
D03*
X730000D02*
D03*
X970000Y1955000D02*
D03*
X890000D02*
D03*
X810000D02*
D03*
X730000D02*
D03*
X1050000D02*
D03*
X1130000D02*
D03*
X1210000D02*
D03*
X1290000D02*
D03*
D15*
X1000000Y2600000D02*
D03*
D16*
Y2800000D02*
D03*
X1040000D02*
D03*
X1080000D02*
D03*
X1120000D02*
D03*
X960000D02*
D03*
X920000D02*
D03*
X880000D02*
D03*
X1000000Y2400000D02*
D03*
X960000D02*
D03*
X920000D02*
D03*
X880000D02*
D03*
X1040000D02*
D03*
X1080000D02*
D03*
X1120000D02*
D03*
D17*
X800000Y2600000D02*
D03*
Y2640000D02*
D03*
Y2680000D02*
D03*
Y2720000D02*
D03*
Y2560000D02*
D03*
Y2520000D02*
D03*
Y2480000D02*
D03*
X1200000Y2600000D02*
D03*
Y2560000D02*
D03*
Y2520000D02*
D03*
Y2480000D02*
D03*
Y2640000D02*
D03*
Y2680000D02*
D03*
Y2720000D02*
D03*
D18*
X300000Y2652500D02*
D03*
X420000Y2497500D02*
D03*
Y2652500D02*
D03*
X300000Y2497500D02*
D03*
D19*
X1150000Y2090000D02*
D03*
X1050000Y2150000D02*
D03*
X900000Y2200000D02*
D03*
X430000Y1890000D02*
D03*
X130000Y2850000D02*
D03*
X85000Y1605000D02*
D03*
X1750000Y2230000D02*
D03*
X105000Y1380000D02*
D03*
Y460000D02*
D03*
D20*
X640000D02*
D03*
X900000D02*
D03*
X1100000D02*
D03*
X1350000D02*
D03*
D21*
X1100000Y750000D02*
D03*
Y650000D02*
D03*
X730000Y840000D02*
D03*
Y940000D02*
D03*
X215000Y560000D02*
D03*
Y460000D02*
D03*
D22*
X200000Y750000D02*
D03*
X105000Y1010000D02*
D03*
X295000D02*
D03*
Y750000D02*
D03*
X105000D02*
D03*
D23*
X380000Y2250000D02*
X485000D01*
Y2350000D01*
X1490000Y2291381D02*
Y2400000D01*
X1261382Y2291381D02*
X1490000D01*
X1230000Y2260000D02*
X1261382Y2291381D01*
X1740000Y2130000D02*
X1750000Y2140000D01*
X1390000Y2130000D02*
X1740000D01*
X1750000Y2140000D02*
Y2230000D01*
X410000Y2487500D02*
X420000Y2497500D01*
X410000Y2390000D02*
Y2487500D01*
X390000Y2370000D02*
X410000Y2390000D01*
X300000Y2370000D02*
X390000D01*
X210000Y2250000D02*
X380000D01*
X1610000Y2320000D02*
Y2650000D01*
X1490000Y2685000D02*
X1575000D01*
X1610000Y2650000D01*
X1490000Y2685000D02*
Y2790000D01*
X1444500Y4344500D02*
Y4345500D01*
Y4137000D02*
Y4344500D01*
X200000Y2260000D02*
X210000Y2250000D01*
X870000Y1800000D02*
X1010000D01*
X1050000Y1840000D01*
Y1955000D01*
X1250000Y900000D02*
X1290000D01*
X1210000Y940000D02*
X1250000Y900000D01*
X1210000Y940000D02*
Y1105000D01*
X1400000Y790000D02*
Y1070000D01*
X1365000Y1105000D02*
X1400000Y1070000D01*
X1290000Y1105000D02*
X1365000D01*
X360000Y1160000D02*
Y1240000D01*
X320000Y1280000D02*
X360000Y1240000D01*
X275000Y1160000D02*
X360000D01*
X200000Y220000D02*
X360000Y380000D01*
Y425000D01*
X215000Y460000D02*
X265583D01*
X300908Y424674D01*
X359674D02*
X360000Y425000D01*
X300908Y424674D02*
X359674D01*
X360000Y425000D02*
X495000D01*
X530000Y460000D01*
X640000D02*
Y710000D01*
Y460000D02*
Y460000D01*
X640000D01*
X530000D02*
X640000D01*
X207500Y452500D02*
X215000Y460000D01*
X215000Y560000D02*
X215000Y560000D01*
X270000D02*
X300000Y590000D01*
X215000Y560000D02*
X270000D01*
X300000Y590000D02*
X355000D01*
X360000Y595000D01*
X462426D02*
X480000Y612574D01*
X360000Y595000D02*
X462426D01*
X480000Y612574D02*
Y840000D01*
X430000Y1770000D02*
Y1890000D01*
X50000Y1640000D02*
X85000Y1605000D01*
X120000Y1570000D01*
X850000Y2951882D02*
Y2960000D01*
X110000Y2830000D02*
X130000Y2850000D01*
X620000Y2200000D02*
X900000D01*
X1660000Y3010000D02*
Y4090000D01*
X1444500Y4137000D02*
X1613000D01*
X1660000Y4090000D01*
X1567000Y4467000D02*
X1790000D01*
X1444500Y4344500D02*
X1567000Y4467000D01*
X1323000D02*
X1444500Y4345500D01*
X390000Y857574D02*
Y1130000D01*
X407574Y840000D02*
X480000D01*
X390000Y857574D02*
X407574Y840000D01*
X1255000Y222500D02*
X1797500D01*
X1350000Y460000D02*
X1750000D01*
X1800000Y220000D02*
Y410000D01*
X1750000Y460000D02*
X1800000Y410000D01*
X1797500Y222500D02*
X1800000Y220000D01*
X1225000Y225000D02*
X1255000D01*
X775000D02*
X1225000D01*
X1660000Y3010000D02*
X1732426D01*
X1750000Y2230000D02*
Y2992426D01*
X1732426Y3010000D02*
X1750000Y2992426D01*
X585000Y1410000D02*
X585000Y1410000D01*
X470000Y1410000D02*
X585000D01*
X250000Y1480000D02*
X400000D01*
X470000Y1410000D01*
X205000Y1280000D02*
X320000D01*
X1530000Y2240000D02*
X1610000Y2320000D01*
X1545000Y3010000D02*
X1660000D01*
X1290000Y1955000D02*
Y2210000D01*
X1435000Y1810000D02*
Y1995000D01*
X1390000Y2040000D02*
X1435000Y1995000D01*
X1390000Y2040000D02*
Y2130000D01*
X1435000Y1730000D02*
X1435000Y1730000D01*
X950000Y2150000D02*
X1050000D01*
X1000000Y2090000D02*
X1150000D01*
X1130000Y920000D02*
Y1105000D01*
Y920000D02*
X1220000Y830000D01*
Y700000D02*
Y830000D01*
X200000Y2260000D02*
Y2770000D01*
X730000Y1955000D02*
Y2060000D01*
X690000Y2100000D02*
X730000Y2060000D01*
X1320000Y2240000D02*
X1530000D01*
X1290000Y2210000D02*
X1320000Y2240000D01*
X1370000Y2490000D02*
Y2575000D01*
Y2490000D02*
X1390000Y2470000D01*
Y2400000D02*
Y2470000D01*
X1490000Y2400000D02*
Y2515000D01*
X810000Y1955000D02*
Y2110000D01*
X1445000Y2835000D02*
X1490000Y2790000D01*
X1445000Y2835000D02*
Y3010000D01*
Y3130000D01*
X810000Y3150000D02*
Y3250000D01*
X1340000Y3130000D02*
X1445000D01*
X708750Y3151250D02*
Y3398750D01*
Y3151250D02*
X710000Y3150000D01*
X707500Y3400000D02*
X708750Y3398750D01*
X1545750Y3399250D02*
X1546500Y3400000D01*
X1545000Y3130000D02*
X1545750Y3130750D01*
Y3399250D01*
X210000Y4467000D02*
X1323000D01*
X936500Y4010000D02*
X1063500Y3883000D01*
X809500Y4010000D02*
X936500D01*
X682500Y4137000D02*
X809500Y4010000D01*
X110000Y1680000D02*
Y2830000D01*
Y1680000D02*
X140000Y1650000D01*
X660000Y2720000D02*
Y2880000D01*
X610000Y2930000D02*
X660000Y2880000D01*
X110000Y2930000D02*
X610000D01*
X50000Y2870000D02*
X110000Y2930000D01*
X50000Y1640000D02*
Y2870000D01*
X120000Y1570000D02*
X585000D01*
X140000Y1650000D02*
X585000D01*
X300000Y2652500D02*
Y2770000D01*
X470000Y1730000D02*
X585000D01*
X430000Y1770000D02*
X470000Y1730000D01*
X585000Y1810000D02*
Y2165000D01*
X620000Y2200000D01*
X890000Y1955000D02*
Y2090000D01*
X950000Y2150000D01*
X970000Y1955000D02*
Y2060000D01*
X1000000Y2090000D01*
X890000Y1410000D02*
X1210000Y1730000D01*
X730000Y1250000D02*
X890000Y1410000D01*
X585000D02*
X890000D01*
X1210000Y1730000D02*
X1290000Y1810000D01*
X1210000Y1730000D02*
X1435000D01*
X1290000Y1810000D02*
X1435000D01*
X585000Y1250000D02*
X730000D01*
X450000Y1010000D02*
X520000Y940000D01*
X450000Y1010000D02*
Y1330000D01*
X360000Y1160000D02*
X390000Y1130000D01*
X480000Y840000D02*
X730000D01*
X520000Y940000D02*
X730000D01*
X450000Y1330000D02*
X585000D01*
X410000D02*
X450000D01*
X105000Y1280000D02*
Y1380000D01*
X360000D01*
X410000Y1330000D01*
X1050000Y1000000D02*
Y1105000D01*
X900000Y850000D02*
X1050000Y1000000D01*
X730000Y940000D02*
Y1105000D01*
X1170000Y650000D02*
X1220000Y700000D01*
X1100000Y650000D02*
X1170000D01*
X900000Y460000D02*
Y650000D01*
X105000Y1010000D02*
Y1280000D01*
X640000Y710000D02*
X680000Y750000D01*
X1100000D01*
X105000Y460000D02*
X215000D01*
X105000D02*
Y750000D01*
X1100000Y460000D02*
Y650000D01*
X200000Y650000D02*
Y750000D01*
X215000Y560000D02*
Y635000D01*
X200000Y650000D02*
X215000Y635000D01*
X295000Y750000D02*
Y845000D01*
X270000Y870000D02*
X295000Y845000D01*
X130000Y870000D02*
X270000D01*
X105000Y845000D02*
X130000Y870000D01*
X105000Y750000D02*
Y845000D01*
D24*
X655000Y2350000D02*
Y2475000D01*
X700000Y2520000D01*
X800000D01*
X770000Y2340000D02*
X860000D01*
X1405000Y2685000D02*
X1490000D01*
X1360000Y2640000D02*
X1405000Y2685000D01*
X920000Y2290000D02*
Y2400000D01*
X900000Y2270000D02*
X920000Y2290000D01*
X610000Y2270000D02*
X900000D01*
X430000Y2090000D02*
X610000Y2270000D01*
X430000Y1890000D02*
Y2090000D01*
X900000Y2200000D02*
X1000000D01*
X1040000Y2240000D01*
Y2400000D01*
X1050000Y2150000D02*
X1080000Y2180000D01*
Y2400000D01*
X1120000Y2270000D02*
Y2400000D01*
Y2270000D02*
X1150000Y2240000D01*
Y2090000D02*
Y2240000D01*
X880000Y2360000D02*
Y2400000D01*
X860000Y2340000D02*
X880000Y2360000D01*
X420000Y2497500D02*
X517500D01*
X580000Y2560000D01*
X800000D01*
X580000Y2600000D02*
X800000D01*
X540000Y2640000D02*
X580000Y2600000D01*
X540000Y2640000D02*
Y2740000D01*
X600000Y2680000D02*
Y2820000D01*
Y2680000D02*
X640000Y2640000D01*
X800000D01*
X550000Y2870000D02*
X600000Y2820000D01*
X510000Y2770000D02*
X540000Y2740000D01*
X300000Y2770000D02*
X510000D01*
X660000Y2720000D02*
X700000Y2680000D01*
X800000D01*
X150000Y2870000D02*
X550000D01*
X130000Y2850000D02*
X150000Y2870000D01*
X453500Y3176500D02*
X710000Y2920000D01*
X740000Y2720000D02*
X800000D01*
X710000Y2750000D02*
X740000Y2720000D01*
X710000Y2750000D02*
Y2920000D01*
X1300000Y2560000D02*
X1315000Y2575000D01*
X1200000Y2560000D02*
X1300000D01*
X1200000Y2600000D02*
X1290000D01*
X1315000Y2575000D01*
X1370000D01*
X1200000Y2640000D02*
X1360000D01*
X1200000Y2680000D02*
X1310000D01*
X1370000Y2740000D01*
X1310000Y2750000D02*
Y2870000D01*
X1200000Y2720000D02*
X1280000D01*
X1310000Y2750000D01*
X1120000Y3500000D02*
X1190000Y3570000D01*
X1120000Y2800000D02*
Y3500000D01*
X1190000Y3720000D02*
Y4136500D01*
X1190500Y4137000D01*
X1080000Y2800000D02*
Y3610000D01*
X1190000Y3720000D01*
X1040000Y2800000D02*
Y3340000D01*
X1000000Y3380000D02*
X1040000Y3340000D01*
X809500Y3880500D02*
Y3883000D01*
Y3880500D02*
X910000Y3780000D01*
Y3230000D02*
Y3780000D01*
Y3230000D02*
X1000000Y3140000D01*
Y2800000D02*
Y3140000D01*
X850000Y2951882D02*
X880000Y2921882D01*
Y2800000D02*
Y2921882D01*
X453500Y3176500D02*
Y3400000D01*
X300000Y2770000D02*
X300000Y2770000D01*
D25*
X1000000Y2600000D02*
D03*
D26*
X1070000Y2530000D02*
D03*
Y2670000D02*
D03*
X930000D02*
D03*
Y2530000D02*
D03*
D27*
X1800000Y220000D02*
D03*
X200000D02*
D03*
D28*
X1225000Y225000D02*
D03*
X775000D02*
D03*
D29*
X1546500Y3400000D02*
D03*
X1292500D02*
D03*
X707500D02*
D03*
X453500D02*
D03*
D30*
X555500Y3883000D02*
D03*
X682500Y4137000D02*
D03*
X809500Y3883000D02*
D03*
X936500Y4137000D02*
D03*
X1063500Y3883000D02*
D03*
X1190500Y4137000D02*
D03*
X1317500Y3883000D02*
D03*
X1444500Y4137000D02*
D03*
D31*
X1790000Y4467000D02*
D03*
X210000D02*
D03*
D32*
X428500Y4772000D02*
D03*
X1571500D02*
D03*
D33*
X770000Y2340000D02*
D03*
X200000Y2250000D02*
D03*
X870000Y1800000D02*
D03*
X1290000Y900000D02*
D03*
X1400000Y790000D02*
D03*
X250000Y1480000D02*
D03*
X320000Y1280000D02*
D03*
X1660000Y3010000D02*
D03*
X360000Y1380000D02*
D03*
X1610000Y2320000D02*
D03*
X690000Y2100000D02*
D03*
X1230000Y2260000D02*
D03*
X1310000Y2870000D02*
D03*
X1370000Y2740000D02*
D03*
X810000Y2110000D02*
D03*
Y3250000D02*
D03*
X1000000Y3380000D02*
D03*
X1340000Y3130000D02*
D03*
X1190000Y3570000D02*
D03*
X850000Y2960000D02*
D03*
X480000Y840000D02*
D03*
X1370000Y2575000D02*
D03*
X900000Y850000D02*
D03*
Y650000D02*
D03*
%TF.MD5,4c48054350c22b10e6b5507b155f569a*%
M02*
