G04*
G04 #@! TF.GenerationSoftware,Altium Limited,Altium Designer,23.1.1 (15)*
G04*
G04 Layer_Color=65535*
%FSLAX44Y44*%
%MOMM*%
G71*
G04*
G04 #@! TF.SameCoordinates,0A2B7A54-8BD8-49A5-B6CA-EEF6859B9906*
G04*
G04*
G04 #@! TF.FilePolarity,Positive*
G04*
G01*
G75*
%ADD10C,0.1000*%
G36*
X143500Y195500D02*
Y187000D01*
X135000Y195500D01*
X143500D01*
D02*
G37*
G36*
X125000Y240000D02*
Y235000D01*
X120000D01*
X125000Y240000D01*
D02*
G37*
G36*
X159559Y112892D02*
X165199D01*
Y112041D01*
X159559D01*
Y109933D01*
X158801D01*
Y115000D01*
X159559D01*
Y112892D01*
D02*
G37*
G36*
X172000Y57214D02*
X166998D01*
X167007Y57205D01*
X167044Y57159D01*
X167100Y57103D01*
X167164Y57011D01*
X167248Y56909D01*
X167340Y56780D01*
X167442Y56632D01*
X167544Y56465D01*
Y56456D01*
X167553Y56447D01*
X167590Y56391D01*
X167636Y56299D01*
X167691Y56188D01*
X167756Y56058D01*
X167821Y55920D01*
X167886Y55781D01*
X167941Y55642D01*
X167183D01*
Y55652D01*
X167164Y55670D01*
X167155Y55707D01*
X167127Y55753D01*
X167100Y55809D01*
X167063Y55873D01*
X166970Y56031D01*
X166869Y56216D01*
X166739Y56400D01*
X166591Y56595D01*
X166434Y56789D01*
X166425Y56798D01*
X166416Y56807D01*
X166388Y56835D01*
X166360Y56872D01*
X166268Y56955D01*
X166157Y57066D01*
X166027Y57177D01*
X165879Y57297D01*
X165731Y57399D01*
X165574Y57491D01*
Y58000D01*
X172000D01*
Y57214D01*
D02*
G37*
D10*
X28000Y247500D02*
Y267500D01*
X44000D01*
Y247500D02*
Y267500D01*
X28000Y247500D02*
X44000D01*
Y243500D02*
X48000D01*
Y247500D01*
X149000Y315500D02*
X150000D01*
X149000Y310500D02*
X150000D01*
X75500Y312500D02*
X76500D01*
X75500Y317500D02*
X76500D01*
X112500Y69500D02*
Y70500D01*
X107500Y69500D02*
Y70500D01*
X125000Y235000D02*
Y240000D01*
X120000Y235000D02*
X125000D01*
X120000Y285000D02*
X125000D01*
Y280000D02*
Y285000D01*
X75000Y280000D02*
Y285000D01*
X80000D01*
X75000Y235000D02*
X80000D01*
X75000D02*
Y240000D01*
X143500Y187000D02*
Y195500D01*
X135000D02*
X143500D01*
X135000Y110500D02*
X143500D01*
Y119000D01*
X58500Y110500D02*
Y119000D01*
Y110500D02*
X67000D01*
X58500Y195500D02*
X67000D01*
X58500Y187000D02*
Y195500D01*
X35250Y79250D02*
Y96750D01*
X4750Y79250D02*
X35250D01*
X4750D02*
Y96750D01*
X35250D01*
X194000Y50000D02*
Y120000D01*
X150000D02*
X194000D01*
X150000Y50000D02*
Y120000D01*
Y50000D02*
X194000D01*
X181000Y459000D02*
Y585200D01*
X19000Y459000D02*
Y585200D01*
X181000D01*
Y330000D02*
Y434000D01*
X19000Y330000D02*
Y434000D01*
Y330000D02*
X181000D01*
X149000Y298500D02*
X150000D01*
X149000Y303500D02*
X150000D01*
X143500Y237500D02*
X144500D01*
X143500Y242500D02*
X144500D01*
X54500Y237500D02*
X55500D01*
X54500Y232500D02*
X55500D01*
X146500Y259500D02*
Y260500D01*
X151500Y259500D02*
Y260500D01*
X24500Y279500D02*
X25500D01*
X24500Y274500D02*
X25500D01*
X35500Y229500D02*
Y230500D01*
X40500Y229500D02*
Y230500D01*
X133500Y210500D02*
X134500D01*
X133500Y215500D02*
X134500D01*
X70500Y88500D02*
Y89500D01*
X75500Y88500D02*
Y89500D01*
X15000Y113500D02*
X16000D01*
X15000Y118500D02*
X16000D01*
X35000Y50500D02*
Y51500D01*
X30000Y50500D02*
Y51500D01*
X15000Y125500D02*
X16000D01*
X15000Y130500D02*
X16000D01*
X24000Y50500D02*
Y51500D01*
X19000Y50500D02*
Y51500D01*
M02*
