G04*
G04 #@! TF.GenerationSoftware,Altium Limited,Altium Designer,23.1.1 (15)*
G04*
G04 Layer_Color=128*
%FSLAX44Y44*%
%MOMM*%
G71*
G04*
G04 #@! TF.SameCoordinates,0A2B7A54-8BD8-49A5-B6CA-EEF6859B9906*
G04*
G04*
G04 #@! TF.FilePolarity,Positive*
G04*
G01*
G75*
%ADD54C,0.1270*%
D54*
X175000Y22000D02*
X185000D01*
X180000Y17000D02*
Y27000D01*
X15000Y22000D02*
X25000D01*
X20000Y17000D02*
Y27000D01*
X113000Y22500D02*
X132000D01*
X122500Y13000D02*
Y32000D01*
X68000Y22500D02*
X87000D01*
X77500Y13000D02*
Y32000D01*
X95500Y260000D02*
X104500D01*
X100000Y255500D02*
Y264500D01*
X105500Y252000D02*
X110500D01*
X108000Y249500D02*
Y254500D01*
X105500Y268000D02*
X110500D01*
X108000Y265500D02*
Y270500D01*
X89500Y268000D02*
X94500D01*
X92000Y265500D02*
Y270500D01*
X89500Y252000D02*
X94500D01*
X92000Y249500D02*
Y254500D01*
X157000Y96000D02*
X167000D01*
X162000Y91000D02*
Y101000D01*
X157000Y74000D02*
X167000D01*
X162000Y69000D02*
Y79000D01*
X177000Y107000D02*
X187000D01*
X182000Y102000D02*
Y112000D01*
X177000Y85000D02*
X187000D01*
X182000Y80000D02*
Y90000D01*
X177000Y63000D02*
X187000D01*
X182000Y58000D02*
Y68000D01*
X149550Y340000D02*
X159750D01*
X154650Y334900D02*
Y345100D01*
X124150Y340000D02*
X134350D01*
X129250Y334900D02*
Y345100D01*
X65650Y340000D02*
X75850D01*
X70750Y334900D02*
Y345100D01*
X40250Y340000D02*
X50450D01*
X45350Y334900D02*
Y345100D01*
X51050Y388300D02*
X60050D01*
X55550Y383800D02*
Y392800D01*
X63750Y413700D02*
X72750D01*
X68250Y409200D02*
Y418200D01*
X76450Y388300D02*
X85450D01*
X80950Y383800D02*
Y392800D01*
X89150Y413700D02*
X98150D01*
X93650Y409200D02*
Y418200D01*
X101850Y388300D02*
X110850D01*
X106350Y383800D02*
Y392800D01*
X114550Y413700D02*
X123550D01*
X119050Y409200D02*
Y418200D01*
X127250Y388300D02*
X136250D01*
X131750Y383800D02*
Y392800D01*
X139950Y413700D02*
X148950D01*
X144450Y409200D02*
Y418200D01*
X171000Y446700D02*
X187000D01*
X179000Y438700D02*
Y454700D01*
X13000Y446700D02*
X29000D01*
X21000Y438700D02*
Y454700D01*
X26600Y477200D02*
X59100D01*
X42850Y460950D02*
Y493450D01*
X140900Y477200D02*
X173400D01*
X157150Y460950D02*
Y493450D01*
X68500Y235000D02*
X71500D01*
X70000Y233500D02*
Y236500D01*
X23500Y148000D02*
X26500D01*
X25000Y146500D02*
Y149500D01*
X30500Y128000D02*
X33500D01*
X32000Y126500D02*
Y129500D01*
X164500Y301000D02*
X167500D01*
X166000Y299500D02*
Y302500D01*
X34500Y138000D02*
X37500D01*
X36000Y136500D02*
Y139500D01*
X159500Y232000D02*
X162500D01*
X161000Y230500D02*
Y233500D01*
X85500Y97000D02*
X88500D01*
X87000Y95500D02*
Y98500D01*
X96500Y170000D02*
X99500D01*
X98000Y168500D02*
Y171500D01*
X18500Y225000D02*
X21500D01*
X20000Y223500D02*
Y226500D01*
X67500Y210000D02*
X70500D01*
X69000Y208500D02*
Y211500D01*
X121500Y226000D02*
X124500D01*
X123000Y224500D02*
Y227500D01*
X129500Y287000D02*
X132500D01*
X131000Y285500D02*
Y288500D01*
X135500Y274000D02*
X138500D01*
X137000Y272500D02*
Y275500D01*
X79500Y211000D02*
X82500D01*
X81000Y209500D02*
Y212500D01*
X79500Y325000D02*
X82500D01*
X81000Y323500D02*
Y326500D01*
X98500Y338000D02*
X101500D01*
X100000Y336500D02*
Y339500D01*
X132500Y313000D02*
X135500D01*
X134000Y311500D02*
Y314500D01*
X117500Y357000D02*
X120500D01*
X119000Y355500D02*
Y358500D01*
X83500Y296000D02*
X86500D01*
X85000Y294500D02*
Y297500D01*
X46500Y84000D02*
X49500D01*
X48000Y82500D02*
Y85500D01*
X135500Y257500D02*
X138500D01*
X137000Y256000D02*
Y259000D01*
X88500Y85000D02*
X91500D01*
X90000Y83500D02*
Y86500D01*
X88500Y65000D02*
X91500D01*
X90000Y63500D02*
Y66500D01*
M02*
