G04*
G04 #@! TF.GenerationSoftware,Altium Limited,Altium Designer,23.1.1 (15)*
G04*
G04 Layer_Physical_Order=1*
G04 Layer_Color=255*
%FSLAX44Y44*%
%MOMM*%
G71*
G04*
G04 #@! TF.SameCoordinates,7C6788F6-0183-4130-A877-ABEC5F4682B5*
G04*
G04*
G04 #@! TF.FilePolarity,Positive*
G04*
G01*
G75*
%ADD11C,0.5000*%
%ADD12R,0.6000X0.7000*%
%ADD13R,0.5000X1.2000*%
%ADD14R,1.2000X0.5000*%
%ADD15R,0.7000X0.6000*%
%ADD16R,0.3000X0.7000*%
%ADD17R,3.5000X3.5000*%
%ADD18R,0.7000X0.3000*%
%ADD19R,1.3000X1.7000*%
%ADD20R,0.6000X1.1000*%
%ADD21R,0.9000X0.9500*%
%ADD43C,0.3000*%
%ADD44C,1.3000*%
%ADD45C,3.2500*%
%ADD46C,2.1000*%
%ADD47C,1.4200*%
%ADD48C,1.5200*%
%ADD49C,1.6000*%
%ADD50C,0.8000*%
%ADD51C,1.4000*%
%ADD52C,2.3000*%
%ADD53C,0.6000*%
D11*
X105000Y215000D02*
D03*
X115000Y209000D02*
D03*
X43000Y189000D02*
D03*
X8500Y160500D02*
D03*
X10500Y138000D02*
D03*
Y46000D02*
D03*
X13000Y285000D02*
D03*
X90000Y220000D02*
D03*
X182000Y145000D02*
D03*
D12*
X149000Y240000D02*
D03*
X139000D02*
D03*
X154500Y301000D02*
D03*
X144500D02*
D03*
X81000Y315000D02*
D03*
X71000D02*
D03*
X144500Y313000D02*
D03*
X154500D02*
D03*
X129000Y213000D02*
D03*
X139000D02*
D03*
X10500Y128000D02*
D03*
X20500D02*
D03*
X10500Y116000D02*
D03*
X20500D02*
D03*
X30000Y277000D02*
D03*
X20000D02*
D03*
X60000Y235000D02*
D03*
X50000D02*
D03*
D13*
X129000Y195500D02*
D03*
X121000D02*
D03*
X113000D02*
D03*
X105000D02*
D03*
X73000D02*
D03*
X81000D02*
D03*
X89000D02*
D03*
X97000D02*
D03*
X73000Y110500D02*
D03*
X81000D02*
D03*
X89000D02*
D03*
X97000D02*
D03*
X129000D02*
D03*
X121000D02*
D03*
X113000D02*
D03*
X105000D02*
D03*
D14*
X58500Y181000D02*
D03*
Y173000D02*
D03*
Y165000D02*
D03*
Y157000D02*
D03*
Y125000D02*
D03*
Y133000D02*
D03*
Y141000D02*
D03*
Y149000D02*
D03*
X143500Y125000D02*
D03*
Y133000D02*
D03*
Y141000D02*
D03*
Y149000D02*
D03*
Y181000D02*
D03*
Y173000D02*
D03*
Y165000D02*
D03*
Y157000D02*
D03*
D15*
X149000Y255000D02*
D03*
Y265000D02*
D03*
X73000Y94000D02*
D03*
Y84000D02*
D03*
X32500Y46000D02*
D03*
Y56000D02*
D03*
X110000Y65000D02*
D03*
Y75000D02*
D03*
X21500Y46000D02*
D03*
Y56000D02*
D03*
X38000Y235000D02*
D03*
Y225000D02*
D03*
D16*
X100000Y285000D02*
D03*
X105000D02*
D03*
X110000D02*
D03*
X115000D02*
D03*
X95000D02*
D03*
X90000D02*
D03*
X85000D02*
D03*
X100000Y235000D02*
D03*
X95000D02*
D03*
X90000D02*
D03*
X85000D02*
D03*
X105000D02*
D03*
X110000D02*
D03*
X115000D02*
D03*
D17*
X100000Y260000D02*
D03*
D18*
X75000D02*
D03*
Y265000D02*
D03*
Y270000D02*
D03*
Y275000D02*
D03*
Y255000D02*
D03*
Y250000D02*
D03*
Y245000D02*
D03*
X125000Y260000D02*
D03*
Y255000D02*
D03*
Y250000D02*
D03*
Y245000D02*
D03*
Y265000D02*
D03*
Y270000D02*
D03*
Y275000D02*
D03*
D19*
X135000Y46000D02*
D03*
X110000D02*
D03*
X90000D02*
D03*
X64000D02*
D03*
D20*
X10500Y75000D02*
D03*
X29500D02*
D03*
Y101000D02*
D03*
X10500D02*
D03*
X20000Y75000D02*
D03*
D21*
X30000Y265250D02*
D03*
X42000Y249750D02*
D03*
Y265250D02*
D03*
X30000Y249750D02*
D03*
D43*
X58500Y141000D02*
X58500Y141000D01*
X47000Y141000D02*
X58500D01*
X25000Y148000D02*
X40000D01*
X47000Y141000D01*
X20500Y128000D02*
X32000D01*
X122500Y22500D02*
X122750Y22250D01*
X179750D02*
X180000Y22000D01*
X122750Y22250D02*
X179750D01*
X20000Y22000D02*
X32500Y34500D01*
Y46000D01*
X110000Y217414D02*
Y235000D01*
X107969Y215383D02*
X110000Y217414D01*
X105383Y215383D02*
X107969D01*
X38000Y225000D02*
X47000D01*
X21000D02*
X38000D01*
X166000Y301000D02*
X171000Y296000D01*
Y219000D02*
Y296000D01*
X165000Y213000D02*
X171000Y219000D01*
X153000Y224000D02*
X161000Y232000D01*
X155000Y265000D02*
X161000Y259000D01*
Y232000D02*
Y259000D01*
X73000Y94000D02*
X83188D01*
X86188Y97000D01*
X87000D01*
X98000Y170000D02*
X105000Y177000D01*
Y195500D01*
X173000Y94000D02*
X182000Y85000D01*
X173000Y94000D02*
Y101000D01*
X129000Y110500D02*
X163500D01*
X173000Y101000D01*
X154500Y301000D02*
X166000D01*
Y392150D01*
X144450Y413700D02*
X166000Y392150D01*
X129000Y195500D02*
Y221000D01*
X149000Y265000D02*
X155000D01*
X139000Y213000D02*
X165000D01*
X143500Y181000D02*
Y199500D01*
X139000Y204000D02*
X143500Y199500D01*
X139000Y204000D02*
Y213000D01*
X143500Y173000D02*
X179000D01*
X143500Y173000D02*
X143500Y173000D01*
X182000Y145000D02*
Y170000D01*
X179000Y173000D02*
X182000Y170000D01*
Y107000D02*
Y145000D01*
Y107000D02*
X182000Y107000D01*
X105000Y215000D02*
X105383Y215383D01*
X95000Y215000D02*
X105000D01*
X115000Y209000D02*
Y235000D01*
X100000Y209000D02*
X115000D01*
X125000Y96000D02*
X162000D01*
X121000Y100000D02*
X125000Y96000D01*
X121000Y100000D02*
Y110500D01*
X113000Y92000D02*
Y110500D01*
Y92000D02*
X122000Y83000D01*
Y70000D02*
Y83000D01*
X20000Y226000D02*
Y277000D01*
Y226000D02*
X21000Y225000D01*
X73000Y195500D02*
Y206000D01*
X69000Y210000D02*
X73000Y206000D01*
X123000Y226000D02*
X127000Y230000D01*
X147000D01*
X132000Y224000D02*
X153000D01*
X129000Y221000D02*
X132000Y224000D01*
X147000Y230000D02*
X149000Y232000D01*
Y240000D01*
X137000Y249000D02*
Y257500D01*
Y249000D02*
X139000Y247000D01*
Y240000D02*
Y247000D01*
X149000Y240000D02*
Y255000D01*
X149000Y255000D01*
X125000Y275000D02*
Y281000D01*
X131000Y287000D01*
X125000Y270000D02*
X133000D01*
X137000Y274000D01*
X81000Y195500D02*
Y211000D01*
X144500Y283500D02*
X149000Y279000D01*
Y265000D02*
Y279000D01*
X144500Y283500D02*
Y301000D01*
X125000Y265000D02*
X149000D01*
X144500Y301000D02*
Y313000D01*
X81000Y315000D02*
Y325000D01*
X105000Y285000D02*
Y332393D01*
X100000Y337393D02*
X105000Y332393D01*
X100000Y337393D02*
Y338000D01*
X134000Y313000D02*
X144500D01*
X70875Y315125D02*
Y339875D01*
Y315125D02*
X71000Y315000D01*
X70750Y340000D02*
X70875Y339875D01*
X154575Y339925D02*
X154650Y340000D01*
X154500Y313000D02*
X154575Y313075D01*
Y339925D01*
X132300Y446700D02*
X144450Y434550D01*
Y413700D02*
Y434550D01*
X21000Y446700D02*
X132300D01*
X144450Y413700D02*
X145225D01*
X178225Y446700D02*
X179000D01*
X145225Y413700D02*
X178225Y446700D01*
X93650Y401000D02*
X106350Y388300D01*
X80950Y401000D02*
X93650D01*
X68250Y413700D02*
X80950Y401000D01*
Y388300D02*
X91000Y378250D01*
Y323000D02*
X100000Y314000D01*
X91000Y323000D02*
Y378250D01*
X115000Y285000D02*
Y353000D01*
X119000Y357000D01*
Y413650D02*
X119050Y413700D01*
X119000Y372000D02*
Y413650D01*
X110000Y285000D02*
Y363000D01*
X119000Y372000D01*
X100000Y285000D02*
Y314000D01*
X85000Y285000D02*
Y296000D01*
X45350Y317650D02*
Y340000D01*
X75000Y275000D02*
Y288000D01*
X45350Y317650D02*
X75000Y288000D01*
X11000Y283000D02*
X15000Y287000D01*
X11000Y168000D02*
Y283000D01*
Y168000D02*
X14000Y165000D01*
X15000Y287000D02*
X55000D01*
X68000Y270000D02*
X75000D01*
X66000Y272000D02*
X68000Y270000D01*
X66000Y272000D02*
Y288000D01*
X61000Y293000D02*
X66000Y288000D01*
X11000Y293000D02*
X61000D01*
X5000Y287000D02*
X11000Y293000D01*
X5000Y164000D02*
Y287000D01*
X12000Y157000D02*
X58500D01*
X5000Y164000D02*
X12000Y157000D01*
X14000Y165000D02*
X58500D01*
X55000Y287000D02*
X60000Y282000D01*
Y268000D02*
Y282000D01*
Y268000D02*
X63000Y265000D01*
X75000D01*
X47000Y225000D02*
X50000Y228000D01*
Y235000D01*
X44000Y249250D02*
X49250D01*
X42000Y247250D02*
X44000Y249250D01*
X42000Y243000D02*
Y247250D01*
X38000Y239000D02*
X42000Y243000D01*
X38000Y235000D02*
Y239000D01*
X58000Y226000D02*
X87000D01*
X43000Y177000D02*
Y211000D01*
X58000Y226000D01*
X30000Y277000D02*
X30000Y277000D01*
Y265250D02*
Y277000D01*
X30000Y277000D02*
X47000D01*
X52000Y272000D01*
X55000Y260000D02*
X75000D01*
X52000Y263000D02*
X55000Y260000D01*
X52000Y263000D02*
Y272000D01*
X55000Y255000D02*
X75000D01*
X49250Y249250D02*
X55000Y255000D01*
X60000Y235000D02*
Y248000D01*
X60000Y235000D02*
X60000Y235000D01*
Y248000D02*
X62000Y250000D01*
X75000D01*
X70000Y235000D02*
X85000D01*
Y235000D02*
Y235000D01*
X136188Y257500D02*
X137000D01*
X125000Y260000D02*
X133688D01*
X136188Y257500D01*
X125000Y255000D02*
X133688D01*
X136188Y257500D01*
X47000Y173000D02*
X58500D01*
X43000Y177000D02*
X47000Y173000D01*
X90000Y229000D02*
Y235000D01*
X87000Y226000D02*
X90000Y229000D01*
X105000Y223000D02*
Y235000D01*
X58500Y181000D02*
Y216500D01*
X62000Y220000D01*
X102000D01*
X105000Y223000D01*
X89000Y195500D02*
Y209000D01*
X95000Y215000D01*
X97000Y195500D02*
Y206000D01*
X100000Y209000D01*
X89000Y141000D02*
X121000Y173000D01*
X73000Y125000D02*
X89000Y141000D01*
X58500D02*
X89000D01*
X121000Y173000D02*
X129000Y181000D01*
X121000Y173000D02*
X143500D01*
X129000Y181000D02*
X143500D01*
X58500Y125000D02*
X73000D01*
X32500Y56000D02*
X44000D01*
X48000Y60000D02*
Y84000D01*
X44000Y56000D02*
X48000Y60000D01*
X39000Y93000D02*
X48000Y84000D01*
X39000Y93000D02*
Y113000D01*
X45000Y101000D02*
X52000Y94000D01*
X45000Y101000D02*
Y133000D01*
X36000Y116000D02*
X39000Y113000D01*
X20500Y116000D02*
X36000D01*
X48000Y84000D02*
X73000D01*
X52000Y94000D02*
X73000D01*
X45000Y133000D02*
X58500D01*
X41000D02*
X45000D01*
X10500Y128000D02*
Y138000D01*
X36000D01*
X41000Y133000D01*
X20500Y116000D02*
Y128000D01*
X105000Y100000D02*
Y110500D01*
X90000Y85000D02*
X105000Y100000D01*
X73000Y94000D02*
Y110500D01*
X117000Y65000D02*
X122000Y70000D01*
X110000Y65000D02*
X117000D01*
X90000Y46000D02*
Y65000D01*
X10500Y116000D02*
Y128000D01*
Y101000D02*
Y116000D01*
X64000Y46000D02*
Y71000D01*
X68000Y75000D01*
X110000D01*
X21500Y46000D02*
X21500Y46000D01*
X10500Y46000D02*
X21500D01*
X10500D02*
Y75000D01*
X110000Y46000D02*
Y65000D01*
X135000Y32000D02*
Y46000D01*
X125500Y22500D02*
X135000Y32000D01*
X122500Y22500D02*
X125500D01*
X77500D02*
X122500D01*
X20000Y65000D02*
Y75000D01*
X21500Y56000D02*
Y63500D01*
X20000Y65000D02*
X21500Y63500D01*
Y56000D02*
X32500D01*
X29500Y75000D02*
Y84500D01*
X27000Y87000D02*
X29500Y84500D01*
X13000Y87000D02*
X27000D01*
X10500Y84500D02*
X13000Y87000D01*
X10500Y75000D02*
Y84500D01*
X21500Y46000D02*
X32500D01*
X64000D01*
D44*
X20000Y22000D02*
D03*
X180000D02*
D03*
D45*
X157150Y477200D02*
D03*
X42850D02*
D03*
D46*
X21000Y446700D02*
D03*
X179000D02*
D03*
D47*
X144450Y413700D02*
D03*
X131750Y388300D02*
D03*
X119050Y413700D02*
D03*
X106350Y388300D02*
D03*
X93650Y413700D02*
D03*
X80950Y388300D02*
D03*
X68250Y413700D02*
D03*
X55550Y388300D02*
D03*
D48*
X45350Y340000D02*
D03*
X70750D02*
D03*
X129250D02*
D03*
X154650D02*
D03*
D49*
X100000Y260000D02*
D03*
D50*
X108000Y252000D02*
D03*
Y268000D02*
D03*
X92000D02*
D03*
Y252000D02*
D03*
D51*
X162000Y96000D02*
D03*
Y74000D02*
D03*
X182000Y107000D02*
D03*
Y85000D02*
D03*
Y63000D02*
D03*
D52*
X77500Y22500D02*
D03*
X122500D02*
D03*
D53*
X25000Y148000D02*
D03*
X32000Y128000D02*
D03*
X166000Y301000D02*
D03*
X36000Y138000D02*
D03*
X161000Y232000D02*
D03*
X87000Y97000D02*
D03*
X98000Y170000D02*
D03*
X20000Y225000D02*
D03*
X69000Y210000D02*
D03*
X123000Y226000D02*
D03*
X131000Y287000D02*
D03*
X137000Y274000D02*
D03*
X81000Y211000D02*
D03*
Y325000D02*
D03*
X100000Y338000D02*
D03*
X134000Y313000D02*
D03*
X119000Y357000D02*
D03*
X85000Y296000D02*
D03*
X48000Y84000D02*
D03*
X70000Y235000D02*
D03*
X137000Y257500D02*
D03*
X90000Y85000D02*
D03*
Y65000D02*
D03*
M02*
