%TF.GenerationSoftware,Altium Limited,Altium Designer,23.1.1 (15)*%
G04 Layer_Color=65535*
%FSLAX45Y45*%
%MOMM*%
%TF.SameCoordinates,70D3D16F-5039-4D94-BC45-45D6FC6AA8C1*%
%TF.FilePolarity,Positive*%
%TF.FileFunction,Legend,Top*%
%TF.Part,Single*%
G01*
G75*
%TA.AperFunction,NonConductor*%
%ADD35C,0.10000*%
G36*
X1435000Y1955000D02*
Y1870000D01*
X1350000Y1955000D01*
X1435000D01*
D02*
G37*
G36*
X1200000Y2450000D02*
Y2400000D01*
X1150000D01*
X1200000Y2450000D01*
D02*
G37*
D35*
X245000Y2345000D02*
X255000D01*
X245000Y2395000D02*
X255000D01*
X526000Y2300000D02*
X614000D01*
X526000Y2400000D02*
X614000D01*
X1540000Y2556000D02*
Y2644000D01*
X1440000Y2556000D02*
Y2644000D01*
X585000Y1870000D02*
Y1955000D01*
X670000D01*
X585000Y1105000D02*
X670000D01*
X585000D02*
Y1190000D01*
X1435000Y1105000D02*
Y1190000D01*
X1350000Y1105000D02*
X1435000D01*
X1350000Y1955000D02*
X1435000D01*
Y1870000D02*
Y1955000D01*
X146000Y1210000D02*
X234000D01*
X146000Y1110000D02*
X234000D01*
X310000Y466000D02*
Y554000D01*
X410000Y466000D02*
Y554000D01*
X1200000Y2400000D02*
Y2450000D01*
X1150000Y2400000D02*
X1200000D01*
X1150000Y2800000D02*
X1200000D01*
X800000Y2750000D02*
Y2800000D01*
Y2400000D02*
X850000D01*
X800000D02*
Y2450000D01*
X1200000Y2750000D02*
Y2800000D01*
X800000D02*
X850000D01*
X280000Y2475000D02*
Y2675000D01*
X440000D01*
Y2475000D02*
Y2675000D01*
X280000Y2475000D02*
X440000D01*
Y2435000D02*
X480000D01*
Y2475000D01*
X1490000Y3155000D02*
X1500000D01*
X1490000Y3105000D02*
X1500000D01*
X755000Y3125000D02*
X765000D01*
X755000Y3175000D02*
X765000D01*
X1125000Y695000D02*
Y705000D01*
X1075000Y695000D02*
Y705000D01*
X352500Y792500D02*
Y967500D01*
X47500Y792500D02*
X352500D01*
X47500D02*
Y967500D01*
X352500D01*
X1810000Y4590000D02*
Y5852000D01*
X190000Y4590000D02*
Y5852000D01*
X1810000D01*
Y3300000D02*
Y4340000D01*
X190000Y3300000D02*
Y4340000D01*
Y3300000D02*
X1810000D01*
X1490000Y2985000D02*
X1500000D01*
X1490000Y3035000D02*
X1500000D01*
X1435000Y2375000D02*
X1445000D01*
X1435000Y2425000D02*
X1445000D01*
X245000Y2795000D02*
X255000D01*
X245000Y2745000D02*
X255000D01*
X1335000Y2105000D02*
X1345000D01*
X1335000Y2155000D02*
X1345000D01*
X705000Y885000D02*
Y895000D01*
X755000Y885000D02*
Y895000D01*
X150000Y1255000D02*
X160000D01*
X150000Y1305000D02*
X160000D01*
X240000Y505000D02*
Y515000D01*
X190000Y505000D02*
Y515000D01*
%TF.MD5,c0449a2673fda7e258272d37cf561cb2*%
M02*
