%TF.GenerationSoftware,Altium Limited,Altium Designer,23.1.1 (15)*%
G04 Layer_Color=8421504*
%FSLAX45Y45*%
%MOMM*%
%TF.SameCoordinates,8534D3C2-D56F-49E7-8A62-4489C1F11DDD*%
%TF.FilePolarity,Positive*%
%TF.FileFunction,Paste,Top*%
%TF.Part,Single*%
G01*
G75*
%TA.AperFunction,SMDPad,CuDef*%
%ADD10C,0.50000*%
%ADD11R,0.60000X0.70000*%
%ADD12R,0.50000X1.20000*%
%ADD13R,1.20000X0.50000*%
%ADD14R,0.70000X0.60000*%
%ADD15R,0.30000X0.70000*%
%ADD16R,3.50000X3.50000*%
%ADD17R,0.70000X0.30000*%
%ADD18R,1.30000X1.70000*%
%ADD19R,0.60000X1.10000*%
%ADD20R,0.90000X0.95000*%
D10*
X1050000Y2150000D02*
D03*
X1150000Y2090000D02*
D03*
X430000Y1890000D02*
D03*
X85000Y1605000D02*
D03*
X105000Y1380000D02*
D03*
Y460000D02*
D03*
X130000Y2850000D02*
D03*
X900000Y2200000D02*
D03*
X1820000Y1450000D02*
D03*
D11*
X1490000Y2400000D02*
D03*
X1390000D02*
D03*
X1545000Y3010000D02*
D03*
X1445000D02*
D03*
X810000Y3150000D02*
D03*
X710000D02*
D03*
X1445000Y3130000D02*
D03*
X1545000D02*
D03*
X1290000Y2130000D02*
D03*
X1390000D02*
D03*
X105000Y1280000D02*
D03*
X205000D02*
D03*
X105000Y1160000D02*
D03*
X205000D02*
D03*
X300000Y2770000D02*
D03*
X200000D02*
D03*
X600000Y2350000D02*
D03*
X500000D02*
D03*
D12*
X1290000Y1955000D02*
D03*
X1210000D02*
D03*
X1130000D02*
D03*
X1050000D02*
D03*
X730000D02*
D03*
X810000D02*
D03*
X890000D02*
D03*
X970000D02*
D03*
X730000Y1105000D02*
D03*
X810000D02*
D03*
X890000D02*
D03*
X970000D02*
D03*
X1290000D02*
D03*
X1210000D02*
D03*
X1130000D02*
D03*
X1050000D02*
D03*
D13*
X585000Y1810000D02*
D03*
Y1730000D02*
D03*
Y1650000D02*
D03*
Y1570000D02*
D03*
Y1250000D02*
D03*
Y1330000D02*
D03*
Y1410000D02*
D03*
Y1490000D02*
D03*
X1435000Y1250000D02*
D03*
Y1330000D02*
D03*
Y1410000D02*
D03*
Y1490000D02*
D03*
Y1810000D02*
D03*
Y1730000D02*
D03*
Y1650000D02*
D03*
Y1570000D02*
D03*
D14*
X1490000Y2550000D02*
D03*
Y2650000D02*
D03*
X730000Y940000D02*
D03*
Y840000D02*
D03*
X325000Y460000D02*
D03*
Y560000D02*
D03*
X1100000Y650000D02*
D03*
Y750000D02*
D03*
X215000Y460000D02*
D03*
Y560000D02*
D03*
X380000Y2350000D02*
D03*
Y2250000D02*
D03*
D15*
X1000000Y2850000D02*
D03*
X1050000D02*
D03*
X1100000D02*
D03*
X1150000D02*
D03*
X950000D02*
D03*
X900000D02*
D03*
X850000D02*
D03*
X1000000Y2350000D02*
D03*
X950000D02*
D03*
X900000D02*
D03*
X850000D02*
D03*
X1050000D02*
D03*
X1100000D02*
D03*
X1150000D02*
D03*
D16*
X1000000Y2600000D02*
D03*
D17*
X750000D02*
D03*
Y2650000D02*
D03*
Y2700000D02*
D03*
Y2750000D02*
D03*
Y2550000D02*
D03*
Y2500000D02*
D03*
Y2450000D02*
D03*
X1250000Y2600000D02*
D03*
Y2550000D02*
D03*
Y2500000D02*
D03*
Y2450000D02*
D03*
Y2650000D02*
D03*
Y2700000D02*
D03*
Y2750000D02*
D03*
D18*
X1350000Y460000D02*
D03*
X1100000D02*
D03*
X900000D02*
D03*
X640000D02*
D03*
D19*
X105000Y750000D02*
D03*
X295000D02*
D03*
Y1010000D02*
D03*
X105000D02*
D03*
X200000Y750000D02*
D03*
D20*
X300000Y2652500D02*
D03*
X420000Y2497500D02*
D03*
Y2652500D02*
D03*
X300000Y2497500D02*
D03*
%TF.MD5,6ceddc22a590f8f2f8c8339497a2f4e0*%
M02*
