%TF.GenerationSoftware,Altium Limited,Altium Designer,23.1.1 (15)*%
G04 Layer_Color=16711935*
%FSLAX45Y45*%
%MOMM*%
%TF.SameCoordinates,70D3D16F-5039-4D94-BC45-45D6FC6AA8C1*%
%TF.FilePolarity,Negative*%
%TF.FileFunction,Soldermask,Bot*%
%TF.Part,Single*%
G01*
G75*
%TA.AperFunction,ComponentPad*%
%ADD49C,1.80320*%
%ADD50C,0.80320*%
%ADD51C,1.50320*%
%ADD52C,2.50320*%
%ADD53C,1.72320*%
%ADD54C,1.62320*%
%ADD55C,2.30320*%
%ADD56C,3.45320*%
%TA.AperFunction,ViaPad*%
%ADD57C,0.80320*%
%TA.AperFunction,SMDPad,CuDef*%
%ADD58R,0.85320X2.97320*%
D49*
X1000000Y2600000D02*
D03*
D50*
X1070000Y2530000D02*
D03*
Y2670000D02*
D03*
X930000D02*
D03*
Y2530000D02*
D03*
D51*
X1800000Y220000D02*
D03*
X200000D02*
D03*
D52*
X1225000Y225000D02*
D03*
X775000D02*
D03*
D53*
X1546500Y3400000D02*
D03*
X1292500D02*
D03*
X707500D02*
D03*
X453500D02*
D03*
D54*
X555500Y3883000D02*
D03*
X682500Y4137000D02*
D03*
X809500Y3883000D02*
D03*
X936500Y4137000D02*
D03*
X1063500Y3883000D02*
D03*
X1190500Y4137000D02*
D03*
X1317500Y3883000D02*
D03*
X1444500Y4137000D02*
D03*
D55*
X1790000Y4467000D02*
D03*
X210000D02*
D03*
D56*
X428500Y4772000D02*
D03*
X1571500D02*
D03*
D57*
X770000Y2340000D02*
D03*
X200000Y2250000D02*
D03*
X870000Y1800000D02*
D03*
X1290000Y900000D02*
D03*
X1400000Y790000D02*
D03*
X250000Y1480000D02*
D03*
X320000Y1280000D02*
D03*
X1660000Y3010000D02*
D03*
X360000Y1380000D02*
D03*
X1610000Y2320000D02*
D03*
X690000Y2100000D02*
D03*
X1230000Y2260000D02*
D03*
X1310000Y2870000D02*
D03*
X1370000Y2740000D02*
D03*
X810000Y2110000D02*
D03*
Y3250000D02*
D03*
X1000000Y3380000D02*
D03*
X1340000Y3130000D02*
D03*
X1190000Y3570000D02*
D03*
X850000Y2960000D02*
D03*
X480000Y840000D02*
D03*
X1370000Y2575000D02*
D03*
X900000Y850000D02*
D03*
Y650000D02*
D03*
D58*
X873000Y1581500D02*
D03*
X1000000D02*
D03*
X1381000D02*
D03*
X1127000D02*
D03*
X1254000D02*
D03*
X873000Y1178500D02*
D03*
X1000000D02*
D03*
X1381000D02*
D03*
X1127000D02*
D03*
X1254000D02*
D03*
X746000Y1581500D02*
D03*
Y1178500D02*
D03*
X619000Y1581500D02*
D03*
Y1178500D02*
D03*
%TF.MD5,3fc22bd798bdbac7fcf5e2a533100685*%
M02*
