%TF.GenerationSoftware,Altium Limited,Altium Designer,23.1.1 (15)*%
G04 Layer_Physical_Order=2*
G04 Layer_Color=16711680*
%FSLAX45Y45*%
%MOMM*%
%TF.SameCoordinates,70D3D16F-5039-4D94-BC45-45D6FC6AA8C1*%
%TF.FilePolarity,Positive*%
%TF.FileFunction,Copper,L2,Bot,Signal*%
%TF.Part,Single*%
G01*
G75*
%TA.AperFunction,Conductor*%
%ADD23C,0.30000*%
%TA.AperFunction,ComponentPad*%
%ADD25C,1.60000*%
%ADD26C,0.60000*%
%ADD27C,1.30000*%
%ADD28C,2.30000*%
%ADD29C,1.52000*%
%ADD30C,1.42000*%
%ADD31C,2.10000*%
%ADD32C,3.25000*%
%TA.AperFunction,ViaPad*%
%ADD33C,0.60000*%
%TA.AperFunction,SMDPad,CuDef*%
%ADD34R,0.65000X2.77000*%
G36*
X2000000Y0D02*
X0D01*
Y5800000D01*
X2000000D01*
Y0D01*
D02*
G37*
%LPC*%
G36*
X1588490Y4944500D02*
X1554510D01*
X1521184Y4937871D01*
X1489791Y4924868D01*
X1461538Y4905990D01*
X1437510Y4881963D01*
X1418632Y4853710D01*
X1405629Y4822316D01*
X1399000Y4788990D01*
Y4755010D01*
X1405629Y4721684D01*
X1418632Y4690291D01*
X1437510Y4662038D01*
X1461538Y4638011D01*
X1489791Y4619132D01*
X1521184Y4606129D01*
X1554510Y4599500D01*
X1588490D01*
X1621816Y4606129D01*
X1653210Y4619132D01*
X1681462Y4638011D01*
X1705490Y4662038D01*
X1724368Y4690291D01*
X1737371Y4721684D01*
X1744000Y4755010D01*
Y4788990D01*
X1737371Y4822316D01*
X1724368Y4853710D01*
X1705490Y4881963D01*
X1681462Y4905990D01*
X1653210Y4924868D01*
X1621816Y4937871D01*
X1588490Y4944500D01*
D02*
G37*
G36*
X445490D02*
X411510D01*
X378184Y4937871D01*
X346791Y4924868D01*
X318538Y4905990D01*
X294510Y4881963D01*
X275632Y4853710D01*
X262629Y4822316D01*
X256000Y4788990D01*
Y4755010D01*
X262629Y4721684D01*
X275632Y4690291D01*
X294510Y4662038D01*
X318538Y4638011D01*
X346791Y4619132D01*
X378184Y4606129D01*
X411510Y4599500D01*
X445490D01*
X478816Y4606129D01*
X510210Y4619132D01*
X538462Y4638011D01*
X562490Y4662038D01*
X581368Y4690291D01*
X594371Y4721684D01*
X601000Y4755010D01*
Y4788990D01*
X594371Y4822316D01*
X581368Y4853710D01*
X562490Y4881963D01*
X538462Y4905990D01*
X510210Y4924868D01*
X478816Y4937871D01*
X445490Y4944500D01*
D02*
G37*
G36*
X1201164Y4218000D02*
X1179836D01*
X1159235Y4212480D01*
X1140765Y4201816D01*
X1125684Y4186735D01*
X1115020Y4168265D01*
X1109500Y4147664D01*
Y4126336D01*
X1115020Y4105735D01*
X1125684Y4087265D01*
X1140765Y4072184D01*
X1159235Y4061520D01*
X1179836Y4056000D01*
X1201164D01*
X1221765Y4061520D01*
X1240235Y4072184D01*
X1255316Y4087265D01*
X1265980Y4105735D01*
X1271500Y4126336D01*
Y4147664D01*
X1265980Y4168265D01*
X1255316Y4186735D01*
X1240235Y4201816D01*
X1221765Y4212480D01*
X1201164Y4218000D01*
D02*
G37*
G36*
X693164D02*
X671836D01*
X651235Y4212480D01*
X632765Y4201816D01*
X617684Y4186735D01*
X607020Y4168265D01*
X601500Y4147664D01*
Y4126336D01*
X607020Y4105735D01*
X617684Y4087265D01*
X632765Y4072184D01*
X651235Y4061520D01*
X671836Y4056000D01*
X693164D01*
X713765Y4061520D01*
X732235Y4072184D01*
X747316Y4087265D01*
X757980Y4105735D01*
X763500Y4126336D01*
Y4147664D01*
X757980Y4168265D01*
X747316Y4186735D01*
X732235Y4201816D01*
X713765Y4212480D01*
X693164Y4218000D01*
D02*
G37*
G36*
X1328164Y3964000D02*
X1306836D01*
X1286235Y3958480D01*
X1267765Y3947816D01*
X1252684Y3932735D01*
X1242020Y3914265D01*
X1236500Y3893664D01*
Y3872336D01*
X1242020Y3851735D01*
X1252684Y3833265D01*
X1267765Y3818184D01*
X1286235Y3807520D01*
X1306836Y3802000D01*
X1328164D01*
X1348765Y3807520D01*
X1367235Y3818184D01*
X1382316Y3833265D01*
X1392980Y3851735D01*
X1398500Y3872336D01*
Y3893664D01*
X1392980Y3914265D01*
X1382316Y3932735D01*
X1367235Y3947816D01*
X1348765Y3958480D01*
X1328164Y3964000D01*
D02*
G37*
G36*
X820164D02*
X798836D01*
X778235Y3958480D01*
X759765Y3947816D01*
X744684Y3932735D01*
X734020Y3914265D01*
X728500Y3893664D01*
Y3872336D01*
X734020Y3851735D01*
X744684Y3833265D01*
X759765Y3818184D01*
X778235Y3807520D01*
X798836Y3802000D01*
X820164D01*
X840765Y3807520D01*
X859235Y3818184D01*
X874316Y3833265D01*
X884980Y3851735D01*
X890500Y3872336D01*
Y3893664D01*
X884980Y3914265D01*
X874316Y3932735D01*
X859235Y3947816D01*
X840765Y3958480D01*
X820164Y3964000D01*
D02*
G37*
G36*
X566164D02*
X544836D01*
X524235Y3958480D01*
X505765Y3947816D01*
X490684Y3932735D01*
X480020Y3914265D01*
X474500Y3893664D01*
Y3872336D01*
X480020Y3851735D01*
X490684Y3833265D01*
X505765Y3818184D01*
X524235Y3807520D01*
X544836Y3802000D01*
X566164D01*
X586765Y3807520D01*
X591943Y3810510D01*
X814510Y3587942D01*
Y3540000D01*
X816451Y3530245D01*
X821976Y3521976D01*
X960000Y3383952D01*
Y3372044D01*
X966090Y3357342D01*
X977342Y3346090D01*
X992043Y3340000D01*
X1007957D01*
X1022658Y3346090D01*
X1033910Y3357342D01*
X1040000Y3372044D01*
Y3387957D01*
X1033910Y3402658D01*
X1022658Y3413910D01*
X1007957Y3420000D01*
X996048D01*
X865490Y3550558D01*
Y3598500D01*
X863549Y3608255D01*
X858024Y3616524D01*
X627990Y3846557D01*
X630980Y3851735D01*
X636500Y3872336D01*
Y3893664D01*
X630980Y3914265D01*
X620316Y3932735D01*
X605235Y3947816D01*
X586765Y3958480D01*
X566164Y3964000D01*
D02*
G37*
G36*
X1557822Y3486000D02*
X1535178D01*
X1513305Y3480139D01*
X1493695Y3468817D01*
X1477683Y3452805D01*
X1466361Y3433195D01*
X1460500Y3411322D01*
Y3388678D01*
X1466361Y3366805D01*
X1477683Y3347195D01*
X1493695Y3331183D01*
X1513305Y3319861D01*
X1535178Y3314000D01*
X1557822D01*
X1579695Y3319861D01*
X1599305Y3331183D01*
X1615317Y3347195D01*
X1626639Y3366805D01*
X1632500Y3388678D01*
Y3411322D01*
X1626639Y3433195D01*
X1615317Y3452805D01*
X1599305Y3468817D01*
X1579695Y3480139D01*
X1557822Y3486000D01*
D02*
G37*
G36*
X718822D02*
X696178D01*
X674305Y3480139D01*
X654695Y3468817D01*
X638683Y3452805D01*
X627361Y3433195D01*
X621500Y3411322D01*
Y3388678D01*
X627361Y3366805D01*
X638683Y3347195D01*
X654695Y3331183D01*
X674305Y3319861D01*
X696178Y3314000D01*
X718822D01*
X740695Y3319861D01*
X760305Y3331183D01*
X776317Y3347195D01*
X787639Y3366805D01*
X793500Y3388678D01*
Y3411322D01*
X787639Y3433195D01*
X776317Y3452805D01*
X760305Y3468817D01*
X740695Y3480139D01*
X718822Y3486000D01*
D02*
G37*
G36*
X464822D02*
X442178D01*
X420305Y3480139D01*
X400695Y3468817D01*
X384683Y3452805D01*
X373361Y3433195D01*
X367500Y3411322D01*
Y3388678D01*
X373361Y3366805D01*
X384683Y3347195D01*
X400695Y3331183D01*
X420305Y3319861D01*
X442178Y3314000D01*
X464822D01*
X486695Y3319861D01*
X506305Y3331183D01*
X522317Y3347195D01*
X533639Y3366805D01*
X539500Y3388678D01*
Y3411322D01*
X533639Y3433195D01*
X522317Y3452805D01*
X506305Y3468817D01*
X486695Y3480139D01*
X464822Y3486000D01*
D02*
G37*
G36*
X947164Y4218000D02*
X925836D01*
X905235Y4212480D01*
X886765Y4201816D01*
X871684Y4186735D01*
X861020Y4168265D01*
X855500Y4147664D01*
Y4126336D01*
X861020Y4105735D01*
X871684Y4087265D01*
X886765Y4072184D01*
X905235Y4061520D01*
X911010Y4059973D01*
Y3743500D01*
X912951Y3733745D01*
X918476Y3725476D01*
X1001976Y3641976D01*
X1010246Y3636451D01*
X1020000Y3634510D01*
X1089442D01*
X1150000Y3573952D01*
Y3562043D01*
X1156090Y3547342D01*
X1167342Y3536090D01*
X1182043Y3530000D01*
X1195992D01*
X1199892Y3524672D01*
X1202219Y3518267D01*
X1101976Y3418024D01*
X1096451Y3409755D01*
X1094510Y3400000D01*
Y3360558D01*
X1009442Y3275490D01*
X841079D01*
X832658Y3283910D01*
X817956Y3290000D01*
X802043D01*
X787342Y3283910D01*
X776090Y3272658D01*
X770000Y3257957D01*
Y3242044D01*
X776090Y3227342D01*
X787342Y3216090D01*
X802043Y3210000D01*
X817956D01*
X832658Y3216090D01*
X841079Y3224510D01*
X1020000D01*
X1029755Y3226451D01*
X1038024Y3231976D01*
X1138024Y3331976D01*
X1143549Y3340245D01*
X1145490Y3350000D01*
Y3389442D01*
X1209244Y3453197D01*
X1219407Y3445398D01*
X1212361Y3433195D01*
X1206500Y3411322D01*
Y3388678D01*
X1212361Y3366805D01*
X1216349Y3359897D01*
X856452Y3000000D01*
X842044D01*
X827342Y2993910D01*
X816090Y2982658D01*
X810000Y2967956D01*
Y2952043D01*
X816090Y2937342D01*
X827342Y2926090D01*
X842044Y2920000D01*
X857957D01*
X872658Y2926090D01*
X883910Y2937342D01*
X890000Y2952043D01*
Y2961452D01*
X1252397Y3323849D01*
X1259305Y3319861D01*
X1281178Y3314000D01*
X1303822D01*
X1325695Y3319861D01*
X1345305Y3331183D01*
X1361317Y3347195D01*
X1372639Y3366805D01*
X1378500Y3388678D01*
Y3411322D01*
X1372639Y3433195D01*
X1361317Y3452805D01*
X1345305Y3468817D01*
X1325695Y3480139D01*
X1303822Y3486000D01*
X1281178D01*
X1259305Y3480139D01*
X1247102Y3473093D01*
X1239304Y3483256D01*
X1333250Y3577202D01*
X1394510Y3515942D01*
Y3220558D01*
X1343952Y3170000D01*
X1332044D01*
X1317342Y3163910D01*
X1306090Y3152658D01*
X1300000Y3137957D01*
Y3122044D01*
X1306090Y3107342D01*
X1317342Y3096090D01*
X1332044Y3090000D01*
X1347957D01*
X1362658Y3096090D01*
X1373910Y3107342D01*
X1380000Y3122044D01*
Y3133952D01*
X1438024Y3191976D01*
X1443549Y3200246D01*
X1445490Y3210000D01*
Y3526500D01*
X1443549Y3536255D01*
X1438024Y3544524D01*
X1351274Y3631274D01*
X1135990Y3846557D01*
X1138980Y3851735D01*
X1144500Y3872336D01*
Y3893664D01*
X1138980Y3914265D01*
X1128316Y3932735D01*
X1113235Y3947816D01*
X1094765Y3958480D01*
X1074164Y3964000D01*
X1052836D01*
X1032235Y3958480D01*
X1013765Y3947816D01*
X998684Y3932735D01*
X988020Y3914265D01*
X982500Y3893664D01*
Y3872336D01*
X988020Y3851735D01*
X998684Y3833265D01*
X1013765Y3818184D01*
X1032235Y3807520D01*
X1052836Y3802000D01*
X1074164D01*
X1094765Y3807520D01*
X1099943Y3810510D01*
X1297202Y3613250D01*
X1241733Y3557781D01*
X1235327Y3560108D01*
X1230000Y3564008D01*
Y3577957D01*
X1223910Y3592658D01*
X1212658Y3603910D01*
X1197956Y3610000D01*
X1186048D01*
X1118024Y3678024D01*
X1109754Y3683549D01*
X1100000Y3685490D01*
X1030558D01*
X961990Y3754058D01*
Y4059973D01*
X967765Y4061520D01*
X986235Y4072184D01*
X1001316Y4087265D01*
X1011980Y4105735D01*
X1017500Y4126336D01*
Y4147664D01*
X1011980Y4168265D01*
X1001316Y4186735D01*
X986235Y4201816D01*
X967765Y4212480D01*
X947164Y4218000D01*
D02*
G37*
G36*
X1377957Y2615000D02*
X1362044D01*
X1347342Y2608910D01*
X1336090Y2597658D01*
X1330000Y2582956D01*
Y2567043D01*
X1336090Y2552342D01*
X1344510Y2543921D01*
Y2400558D01*
X1309442Y2365490D01*
X801079D01*
X792658Y2373910D01*
X777957Y2380000D01*
X762043D01*
X747342Y2373910D01*
X736090Y2362658D01*
X730000Y2347956D01*
Y2332043D01*
X736090Y2317342D01*
X747342Y2306090D01*
X762043Y2300000D01*
X777957D01*
X792658Y2306090D01*
X801079Y2314510D01*
X1320000D01*
X1329755Y2316451D01*
X1338024Y2321976D01*
X1388024Y2371976D01*
X1393549Y2380246D01*
X1395490Y2390000D01*
Y2543921D01*
X1403910Y2552342D01*
X1410000Y2567043D01*
Y2582956D01*
X1403910Y2597658D01*
X1392658Y2608910D01*
X1377957Y2615000D01*
D02*
G37*
G36*
X550000Y2870000D02*
X150000D01*
X110000Y2830000D01*
Y2255000D01*
X115000Y2250000D01*
X380000D01*
X480000Y2350000D01*
X600000D01*
X600000Y2350000D01*
Y2480000D01*
X620000Y2500000D01*
X750000D01*
Y2650000D01*
X630000D01*
X600000Y2680000D01*
Y2820000D01*
X550000Y2870000D01*
D02*
G37*
G36*
X1377957Y2780000D02*
X1362044D01*
X1347342Y2773910D01*
X1336090Y2762658D01*
X1330000Y2747957D01*
Y2732044D01*
X1336090Y2717342D01*
X1347342Y2706090D01*
X1362044Y2700000D01*
X1373952D01*
X1444510Y2629442D01*
Y2180558D01*
X1399442Y2135490D01*
X841079D01*
X832658Y2143910D01*
X817956Y2150000D01*
X802043D01*
X787342Y2143910D01*
X776090Y2132658D01*
X770000Y2117957D01*
Y2102044D01*
X776090Y2087342D01*
X787342Y2076090D01*
X802043Y2070000D01*
X817956D01*
X832658Y2076090D01*
X841079Y2084510D01*
X1410000D01*
X1419755Y2086451D01*
X1428024Y2091976D01*
X1488024Y2151976D01*
X1493549Y2160246D01*
X1495490Y2170000D01*
Y2640000D01*
X1493549Y2649755D01*
X1488024Y2658024D01*
X1410000Y2736048D01*
Y2747957D01*
X1403910Y2762658D01*
X1392658Y2773910D01*
X1377957Y2780000D01*
D02*
G37*
G36*
X877957Y1840000D02*
X862043D01*
X847342Y1833910D01*
X838921Y1825490D01*
X780000D01*
X770245Y1823549D01*
X761976Y1818024D01*
X727976Y1784024D01*
X722451Y1775755D01*
X720510Y1766000D01*
Y1730000D01*
X703500D01*
Y1433000D01*
X788500D01*
Y1730000D01*
X771490D01*
Y1755442D01*
X790558Y1774510D01*
X838921D01*
X847342Y1766090D01*
X862043Y1760000D01*
X877957D01*
X892658Y1766090D01*
X903910Y1777342D01*
X910000Y1792043D01*
Y1807957D01*
X903910Y1822658D01*
X892658Y1833910D01*
X877957Y1840000D01*
D02*
G37*
G36*
X1423500Y1730000D02*
X1338500D01*
Y1433000D01*
X1423500D01*
Y1730000D01*
D02*
G37*
G36*
X1042500D02*
X957500D01*
Y1433000D01*
X1042500D01*
Y1730000D01*
D02*
G37*
G36*
X915500D02*
X830500D01*
Y1433000D01*
X915500D01*
Y1730000D01*
D02*
G37*
G36*
X661500D02*
X576500D01*
Y1433000D01*
X661500D01*
Y1730000D01*
D02*
G37*
G36*
X1423500Y1327000D02*
X1338500D01*
Y1030000D01*
X1423500D01*
Y1327000D01*
D02*
G37*
G36*
X1317956Y2910000D02*
X1302043D01*
X1287342Y2903910D01*
X1276090Y2892658D01*
X1270000Y2877957D01*
Y2862044D01*
X1276090Y2847342D01*
X1287342Y2836090D01*
X1302043Y2830000D01*
X1317956D01*
X1332658Y2836090D01*
X1341079Y2844510D01*
X1429442D01*
X1514510Y2759442D01*
Y2100558D01*
X1469442Y2055490D01*
X770558D01*
X730000Y2096048D01*
Y2107957D01*
X723910Y2122658D01*
X712658Y2133910D01*
X697956Y2140000D01*
X682043D01*
X667342Y2133910D01*
X656090Y2122658D01*
X650000Y2107957D01*
Y2092044D01*
X656090Y2077342D01*
X667342Y2066090D01*
X682043Y2060000D01*
X693952D01*
X741976Y2011976D01*
X750246Y2006451D01*
X760000Y2004510D01*
X1480000D01*
X1489755Y2006451D01*
X1498024Y2011976D01*
X1558024Y2071976D01*
X1563549Y2080246D01*
X1565490Y2090000D01*
Y2285187D01*
X1578190Y2290721D01*
X1584510Y2285336D01*
Y2040558D01*
X1529442Y1985490D01*
X430000D01*
X420245Y1983549D01*
X411976Y1978024D01*
X341976Y1908024D01*
X336451Y1899755D01*
X334510Y1890000D01*
Y1411079D01*
X326090Y1402658D01*
X320000Y1387957D01*
Y1372043D01*
X326090Y1357342D01*
X337342Y1346090D01*
X352043Y1340000D01*
X367957D01*
X382658Y1346090D01*
X391079Y1354510D01*
X1209442D01*
X1224253Y1339700D01*
X1218992Y1327000D01*
X1211500D01*
Y1030000D01*
X1296500D01*
Y1327000D01*
X1279490D01*
Y1346000D01*
X1277549Y1355755D01*
X1272024Y1364024D01*
X1238024Y1398024D01*
X1229755Y1403549D01*
X1220000Y1405490D01*
X391079D01*
X385490Y1411079D01*
Y1879442D01*
X440558Y1934510D01*
X1540000D01*
X1549754Y1936451D01*
X1558024Y1941976D01*
X1628024Y2011976D01*
X1633549Y2020246D01*
X1635490Y2030000D01*
Y2288922D01*
X1643910Y2297342D01*
X1650000Y2312044D01*
Y2327957D01*
X1643910Y2342658D01*
X1632658Y2353910D01*
X1617957Y2360000D01*
X1602044D01*
X1587342Y2353910D01*
X1578190Y2344758D01*
X1568276Y2347076D01*
X1565490Y2348652D01*
Y2770000D01*
X1563549Y2779755D01*
X1558024Y2788024D01*
X1458024Y2888024D01*
X1449755Y2893549D01*
X1440000Y2895490D01*
X1341079D01*
X1332658Y2903910D01*
X1317956Y2910000D01*
D02*
G37*
G36*
X915500Y1327000D02*
X830500D01*
Y1030000D01*
X915500D01*
Y1327000D01*
D02*
G37*
G36*
X788500D02*
X703500D01*
Y1030000D01*
X788500D01*
Y1327000D01*
D02*
G37*
G36*
X661500D02*
X576500D01*
Y1030000D01*
X661500D01*
Y1327000D01*
D02*
G37*
G36*
X1460000Y1815490D02*
X1280000D01*
X1270246Y1813549D01*
X1261976Y1808024D01*
X1235976Y1782024D01*
X1230451Y1773755D01*
X1228510Y1764000D01*
Y1730000D01*
X1211500D01*
Y1433000D01*
X1296500D01*
Y1730000D01*
X1279490D01*
Y1753442D01*
X1290558Y1764510D01*
X1449442D01*
X1454510Y1759442D01*
Y980558D01*
X1399442Y925490D01*
X1321079D01*
X1312658Y933910D01*
X1297957Y940000D01*
X1282043D01*
X1267342Y933910D01*
X1256090Y922658D01*
X1250000Y907957D01*
Y892043D01*
X1256090Y877342D01*
X1267342Y866090D01*
X1282043Y860000D01*
X1297957D01*
X1312658Y866090D01*
X1321079Y874510D01*
X1410000D01*
X1419755Y876451D01*
X1428024Y881976D01*
X1498024Y951976D01*
X1503549Y960246D01*
X1505490Y970000D01*
Y1770000D01*
X1503549Y1779755D01*
X1498024Y1788024D01*
X1478024Y1808024D01*
X1469755Y1813549D01*
X1460000Y1815490D01*
D02*
G37*
G36*
X1490000Y1905490D02*
X1190000D01*
X1180245Y1903549D01*
X1171976Y1898024D01*
X1108976Y1835024D01*
X1103451Y1826755D01*
X1101510Y1817000D01*
Y1730000D01*
X1084500D01*
Y1433000D01*
X1169500D01*
Y1730000D01*
X1152490D01*
Y1806442D01*
X1200558Y1854510D01*
X1479442D01*
X1524510Y1809442D01*
Y860558D01*
X1479442Y815490D01*
X1431079D01*
X1422658Y823910D01*
X1407957Y830000D01*
X1392043D01*
X1377342Y823910D01*
X1366090Y812658D01*
X1360000Y797956D01*
Y782043D01*
X1366090Y767342D01*
X1377342Y756090D01*
X1392043Y750000D01*
X1407957D01*
X1422658Y756090D01*
X1431079Y764510D01*
X1490000D01*
X1499755Y766451D01*
X1508024Y771976D01*
X1568024Y831976D01*
X1573549Y840245D01*
X1575490Y850000D01*
Y1820000D01*
X1573549Y1829755D01*
X1568024Y1838024D01*
X1508024Y1898024D01*
X1499755Y1903549D01*
X1490000Y1905490D01*
D02*
G37*
G36*
X907957Y890000D02*
X892043D01*
X877342Y883910D01*
X866090Y872658D01*
X860000Y857957D01*
Y842044D01*
X866090Y827342D01*
X874510Y818921D01*
Y681079D01*
X866090Y672658D01*
X860000Y657957D01*
Y642043D01*
X866090Y627342D01*
X877342Y616090D01*
X892043Y610000D01*
X907957D01*
X922658Y616090D01*
X933910Y627342D01*
X940000Y642043D01*
Y657957D01*
X933910Y672658D01*
X925490Y681079D01*
Y818921D01*
X933910Y827342D01*
X940000Y842044D01*
Y857957D01*
X933910Y872658D01*
X922658Y883910D01*
X907957Y890000D01*
D02*
G37*
G36*
X209874Y295000D02*
X190126D01*
X171051Y289889D01*
X153949Y280015D01*
X139985Y266051D01*
X130111Y248949D01*
X125000Y229874D01*
Y210126D01*
X130111Y191051D01*
X139985Y173949D01*
X153949Y159985D01*
X171051Y150111D01*
X190126Y145000D01*
X209874D01*
X228949Y150111D01*
X246051Y159985D01*
X260015Y173949D01*
X269889Y191051D01*
X275000Y210126D01*
Y229874D01*
X269889Y248949D01*
X260015Y266051D01*
X246051Y280015D01*
X228949Y289889D01*
X209874Y295000D01*
D02*
G37*
%LPD*%
D23*
X630000Y2260000D02*
Y2400000D01*
X800000Y2570000D01*
X210000Y2260000D02*
X630000D01*
X1230000D01*
X630000D02*
X630000Y2260000D01*
X770000Y2340000D02*
X1320000D01*
X746000Y1581500D02*
Y1766000D01*
X780000Y1800000D01*
X870000D01*
X1410000Y900000D02*
X1480000Y970000D01*
X1460000Y1790000D02*
X1480000Y1770000D01*
Y970000D02*
Y1770000D01*
X1290000Y900000D02*
X1410000D01*
X1000000Y940000D02*
X1080000D01*
X580000D02*
X1000000D01*
Y1178500D01*
X1127000Y987000D02*
Y1178500D01*
X1080000Y940000D02*
X1127000Y987000D01*
X480000Y840000D02*
X580000Y940000D01*
X1254000Y1178500D02*
Y1346000D01*
X1220000Y1380000D02*
X1254000Y1346000D01*
X360000Y1380000D02*
X1220000D01*
X1490000Y1880000D02*
X1550000Y1820000D01*
X1190000Y1880000D02*
X1490000D01*
X1127000Y1817000D02*
X1190000Y1880000D01*
X1127000Y1651500D02*
Y1817000D01*
X1550000Y850000D02*
Y1820000D01*
X1254000Y1764000D02*
X1280000Y1790000D01*
X1460000D01*
X1254000Y1701500D02*
Y1764000D01*
X1400000Y790000D02*
X1490000D01*
X1550000Y850000D01*
X1127000Y1248500D02*
X1130000Y1245500D01*
X360000Y1380000D02*
Y1890000D01*
X430000Y1960000D02*
X1540000D01*
X360000Y1890000D02*
X430000Y1960000D01*
X1540000D02*
X1610000Y2030000D01*
Y2320000D01*
X1370000Y2390000D02*
Y2575000D01*
X1320000Y2340000D02*
X1370000Y2390000D01*
X800000Y2570000D02*
X830000Y2600000D01*
X1000000D01*
X250000Y1350000D02*
X320000Y1280000D01*
X250000Y1350000D02*
Y1480000D01*
X1080000Y3010000D02*
X1660000D01*
X1000000Y2600000D02*
Y2930000D01*
X1080000Y3010000D01*
X200000Y2250000D02*
X210000Y2260000D01*
X760000Y2030000D02*
X1480000D01*
X690000Y2100000D02*
X760000Y2030000D01*
X1480000D02*
X1540000Y2090000D01*
Y2770000D01*
X1440000Y2870000D02*
X1540000Y2770000D01*
X1310000Y2870000D02*
X1440000D01*
X1370000Y2740000D02*
X1470000Y2640000D01*
Y2170000D02*
Y2640000D01*
X1410000Y2110000D02*
X1470000Y2170000D01*
X810000Y2110000D02*
X1410000D01*
X1333250Y3613250D02*
X1420000Y3526500D01*
X1063500Y3883000D02*
X1333250Y3613250D01*
X1120000Y3350000D02*
Y3400000D01*
X1333250Y3613250D01*
X810000Y3250000D02*
X1020000D01*
X1120000Y3350000D01*
X840000Y3540000D02*
Y3598500D01*
Y3540000D02*
X1000000Y3380000D01*
X555500Y3883000D02*
X840000Y3598500D01*
X1340000Y3130000D02*
X1420000Y3210000D01*
Y3526500D01*
X936500Y3743500D02*
Y4137000D01*
Y3743500D02*
X1020000Y3660000D01*
X1100000D02*
X1190000Y3570000D01*
X1020000Y3660000D02*
X1100000D01*
X850000Y2960000D02*
X852500D01*
X1292500Y3400000D01*
X585000Y225000D02*
X775000D01*
X480000Y330000D02*
X585000Y225000D01*
X480000Y330000D02*
Y840000D01*
X900000Y650000D02*
Y850000D01*
D25*
X1000000Y2600000D02*
D03*
D26*
X1070000Y2530000D02*
D03*
Y2670000D02*
D03*
X930000D02*
D03*
Y2530000D02*
D03*
D27*
X1800000Y220000D02*
D03*
X200000D02*
D03*
D28*
X1225000Y225000D02*
D03*
X775000D02*
D03*
D29*
X1546500Y3400000D02*
D03*
X1292500D02*
D03*
X707500D02*
D03*
X453500D02*
D03*
D30*
X555500Y3883000D02*
D03*
X682500Y4137000D02*
D03*
X809500Y3883000D02*
D03*
X936500Y4137000D02*
D03*
X1063500Y3883000D02*
D03*
X1190500Y4137000D02*
D03*
X1317500Y3883000D02*
D03*
X1444500Y4137000D02*
D03*
D31*
X1790000Y4467000D02*
D03*
X210000D02*
D03*
D32*
X428500Y4772000D02*
D03*
X1571500D02*
D03*
D33*
X770000Y2340000D02*
D03*
X200000Y2250000D02*
D03*
X870000Y1800000D02*
D03*
X1290000Y900000D02*
D03*
X1400000Y790000D02*
D03*
X250000Y1480000D02*
D03*
X320000Y1280000D02*
D03*
X1660000Y3010000D02*
D03*
X360000Y1380000D02*
D03*
X1610000Y2320000D02*
D03*
X690000Y2100000D02*
D03*
X1230000Y2260000D02*
D03*
X1310000Y2870000D02*
D03*
X1370000Y2740000D02*
D03*
X810000Y2110000D02*
D03*
Y3250000D02*
D03*
X1000000Y3380000D02*
D03*
X1340000Y3130000D02*
D03*
X1190000Y3570000D02*
D03*
X850000Y2960000D02*
D03*
X480000Y840000D02*
D03*
X1370000Y2575000D02*
D03*
X900000Y850000D02*
D03*
Y650000D02*
D03*
D34*
X873000Y1581500D02*
D03*
X1000000D02*
D03*
X1381000D02*
D03*
X1127000D02*
D03*
X1254000D02*
D03*
X873000Y1178500D02*
D03*
X1000000D02*
D03*
X1381000D02*
D03*
X1127000D02*
D03*
X1254000D02*
D03*
X746000Y1581500D02*
D03*
Y1178500D02*
D03*
X619000Y1581500D02*
D03*
Y1178500D02*
D03*
%TF.MD5,d12bf8817a0e0cf3279e9e65dc70c5b3*%
M02*
